G04 #@! TF.GenerationSoftware,KiCad,Pcbnew,9.0.3*
G04 #@! TF.CreationDate,2025-08-01T19:28:12-07:00*
G04 #@! TF.ProjectId,CardTestFixture,43617264-5465-4737-9446-697874757265,A*
G04 #@! TF.SameCoordinates,Original*
G04 #@! TF.FileFunction,Soldermask,Bot*
G04 #@! TF.FilePolarity,Negative*
%FSLAX46Y46*%
G04 Gerber Fmt 4.6, Leading zero omitted, Abs format (unit mm)*
G04 Created by KiCad (PCBNEW 9.0.3) date 2025-08-01 19:28:12*
%MOMM*%
%LPD*%
G01*
G04 APERTURE LIST*
G04 Aperture macros list*
%AMRoundRect*
0 Rectangle with rounded corners*
0 $1 Rounding radius*
0 $2 $3 $4 $5 $6 $7 $8 $9 X,Y pos of 4 corners*
0 Add a 4 corners polygon primitive as box body*
4,1,4,$2,$3,$4,$5,$6,$7,$8,$9,$2,$3,0*
0 Add four circle primitives for the rounded corners*
1,1,$1+$1,$2,$3*
1,1,$1+$1,$4,$5*
1,1,$1+$1,$6,$7*
1,1,$1+$1,$8,$9*
0 Add four rect primitives between the rounded corners*
20,1,$1+$1,$2,$3,$4,$5,0*
20,1,$1+$1,$4,$5,$6,$7,0*
20,1,$1+$1,$6,$7,$8,$9,0*
20,1,$1+$1,$8,$9,$2,$3,0*%
G04 Aperture macros list end*
%ADD10R,1.700000X1.700000*%
%ADD11C,1.700000*%
%ADD12C,1.270000*%
%ADD13C,1.349000*%
%ADD14C,1.200000*%
%ADD15RoundRect,0.250000X-0.600000X-0.600000X0.600000X-0.600000X0.600000X0.600000X-0.600000X0.600000X0*%
%ADD16C,3.050000*%
%ADD17C,2.775000*%
G04 APERTURE END LIST*
D10*
X209180000Y-151400000D03*
D11*
X206640000Y-151400000D03*
X204100000Y-151400000D03*
X201560000Y-151400000D03*
X199020000Y-151400000D03*
X196480000Y-151400000D03*
X193940000Y-151400000D03*
X191400000Y-151400000D03*
X188860000Y-151400000D03*
X186320000Y-151400000D03*
X183780000Y-151400000D03*
X181240000Y-151400000D03*
X178700000Y-151400000D03*
X176160000Y-151400000D03*
X173620000Y-151400000D03*
X171080000Y-151400000D03*
X168540000Y-151400000D03*
X166000000Y-151400000D03*
D10*
X209180000Y-155000000D03*
D11*
X206640000Y-155000000D03*
X204100000Y-155000000D03*
X201560000Y-155000000D03*
X199020000Y-155000000D03*
X196480000Y-155000000D03*
X193940000Y-155000000D03*
X191400000Y-155000000D03*
X188860000Y-155000000D03*
X186320000Y-155000000D03*
X183780000Y-155000000D03*
X181240000Y-155000000D03*
X178700000Y-155000000D03*
X176160000Y-155000000D03*
X173620000Y-155000000D03*
X171080000Y-155000000D03*
X168540000Y-155000000D03*
X166000000Y-155000000D03*
D12*
X116248900Y-38197500D03*
D13*
X114568900Y-38197500D03*
D14*
X191908900Y-39197500D03*
X191908900Y-37197500D03*
D13*
X193698900Y-38197500D03*
D15*
X216000000Y-59400000D03*
D11*
X218540000Y-59400000D03*
X216000000Y-61940000D03*
X218540000Y-61940000D03*
X216000000Y-64480000D03*
X218540000Y-64480000D03*
X216000000Y-67020000D03*
X218540000Y-67020000D03*
X216000000Y-69560000D03*
X218540000Y-69560000D03*
X216000000Y-72100000D03*
X218540000Y-72100000D03*
X216000000Y-74640000D03*
X218540000Y-74640000D03*
X216000000Y-77180000D03*
X218540000Y-77180000D03*
X216000000Y-79720000D03*
X218540000Y-79720000D03*
X216000000Y-82260000D03*
X218540000Y-82260000D03*
X216000000Y-84800000D03*
X218540000Y-84800000D03*
X216000000Y-87340000D03*
X218540000Y-87340000D03*
X216000000Y-89880000D03*
X218540000Y-89880000D03*
X216000000Y-92420000D03*
X218540000Y-92420000D03*
X216000000Y-94960000D03*
X218540000Y-94960000D03*
X216000000Y-97500000D03*
X218540000Y-97500000D03*
X216000000Y-100040000D03*
X218540000Y-100040000D03*
X216000000Y-102580000D03*
X218540000Y-102580000D03*
X216000000Y-105120000D03*
X218540000Y-105120000D03*
X216000000Y-107660000D03*
X218540000Y-107660000D03*
X216000000Y-110200000D03*
X218540000Y-110200000D03*
X216000000Y-112740000D03*
X218540000Y-112740000D03*
X216000000Y-115280000D03*
X218540000Y-115280000D03*
X216000000Y-117820000D03*
X218540000Y-117820000D03*
X216000000Y-120360000D03*
X218540000Y-120360000D03*
X216000000Y-122900000D03*
X218540000Y-122900000D03*
X216000000Y-125440000D03*
X218540000Y-125440000D03*
X216000000Y-127980000D03*
X218540000Y-127980000D03*
X216000000Y-130520000D03*
X218540000Y-130520000D03*
X216000000Y-133060000D03*
X218540000Y-133060000D03*
X216000000Y-135600000D03*
X218540000Y-135600000D03*
X216000000Y-138140000D03*
X218540000Y-138140000D03*
D16*
X88000000Y-120400000D03*
D17*
X95300000Y-120400000D03*
X100800000Y-120400000D03*
M02*
