G04 #@! TF.GenerationSoftware,KiCad,Pcbnew,9.0.3*
G04 #@! TF.CreationDate,2025-08-01T19:28:12-07:00*
G04 #@! TF.ProjectId,CardTestFixture,43617264-5465-4737-9446-697874757265,A*
G04 #@! TF.SameCoordinates,Original*
G04 #@! TF.FileFunction,Copper,L1,Top*
G04 #@! TF.FilePolarity,Positive*
%FSLAX46Y46*%
G04 Gerber Fmt 4.6, Leading zero omitted, Abs format (unit mm)*
G04 Created by KiCad (PCBNEW 9.0.3) date 2025-08-01 19:28:12*
%MOMM*%
%LPD*%
G01*
G04 APERTURE LIST*
G04 Aperture macros list*
%AMRoundRect*
0 Rectangle with rounded corners*
0 $1 Rounding radius*
0 $2 $3 $4 $5 $6 $7 $8 $9 X,Y pos of 4 corners*
0 Add a 4 corners polygon primitive as box body*
4,1,4,$2,$3,$4,$5,$6,$7,$8,$9,$2,$3,0*
0 Add four circle primitives for the rounded corners*
1,1,$1+$1,$2,$3*
1,1,$1+$1,$4,$5*
1,1,$1+$1,$6,$7*
1,1,$1+$1,$8,$9*
0 Add four rect primitives between the rounded corners*
20,1,$1+$1,$2,$3,$4,$5,0*
20,1,$1+$1,$4,$5,$6,$7,0*
20,1,$1+$1,$6,$7,$8,$9,0*
20,1,$1+$1,$8,$9,$2,$3,0*%
G04 Aperture macros list end*
G04 #@! TA.AperFunction,EtchedComponent*
%ADD10C,0.000000*%
G04 #@! TD*
G04 #@! TA.AperFunction,SMDPad,CuDef*
%ADD11RoundRect,0.225000X0.250000X-0.225000X0.250000X0.225000X-0.250000X0.225000X-0.250000X-0.225000X0*%
G04 #@! TD*
G04 #@! TA.AperFunction,SMDPad,CuDef*
%ADD12RoundRect,0.150000X0.150000X-0.875000X0.150000X0.875000X-0.150000X0.875000X-0.150000X-0.875000X0*%
G04 #@! TD*
G04 #@! TA.AperFunction,SMDPad,CuDef*
%ADD13RoundRect,0.225000X-0.250000X0.225000X-0.250000X-0.225000X0.250000X-0.225000X0.250000X0.225000X0*%
G04 #@! TD*
G04 #@! TA.AperFunction,SMDPad,CuDef*
%ADD14RoundRect,0.218750X0.256250X-0.218750X0.256250X0.218750X-0.256250X0.218750X-0.256250X-0.218750X0*%
G04 #@! TD*
G04 #@! TA.AperFunction,ComponentPad*
%ADD15R,1.700000X1.700000*%
G04 #@! TD*
G04 #@! TA.AperFunction,ComponentPad*
%ADD16C,1.700000*%
G04 #@! TD*
G04 #@! TA.AperFunction,SMDPad,CuDef*
%ADD17C,0.500000*%
G04 #@! TD*
G04 #@! TA.AperFunction,SMDPad,CuDef*
%ADD18R,0.300000X1.350000*%
G04 #@! TD*
G04 #@! TA.AperFunction,ComponentPad*
%ADD19C,1.349000*%
G04 #@! TD*
G04 #@! TA.AperFunction,ComponentPad*
%ADD20C,1.200000*%
G04 #@! TD*
G04 #@! TA.AperFunction,ComponentPad*
%ADD21RoundRect,0.250000X-0.600000X-0.600000X0.600000X-0.600000X0.600000X0.600000X-0.600000X0.600000X0*%
G04 #@! TD*
G04 #@! TA.AperFunction,SMDPad,CuDef*
%ADD22RoundRect,0.250000X0.325000X0.650000X-0.325000X0.650000X-0.325000X-0.650000X0.325000X-0.650000X0*%
G04 #@! TD*
G04 #@! TA.AperFunction,SMDPad,CuDef*
%ADD23R,1.000000X1.800000*%
G04 #@! TD*
G04 #@! TA.AperFunction,ComponentPad*
%ADD24C,2.775000*%
G04 #@! TD*
G04 #@! TA.AperFunction,ViaPad*
%ADD25C,0.650000*%
G04 #@! TD*
G04 #@! TA.AperFunction,ViaPad*
%ADD26C,1.000000*%
G04 #@! TD*
G04 #@! TA.AperFunction,ViaPad*
%ADD27C,0.450000*%
G04 #@! TD*
G04 #@! TA.AperFunction,Conductor*
%ADD28C,0.203200*%
G04 #@! TD*
G04 #@! TA.AperFunction,Conductor*
%ADD29C,0.304800*%
G04 #@! TD*
G04 #@! TA.AperFunction,Conductor*
%ADD30C,0.609600*%
G04 #@! TD*
G04 #@! TA.AperFunction,Conductor*
%ADD31C,0.152400*%
G04 #@! TD*
G04 APERTURE END LIST*
D10*
G04 #@! TA.AperFunction,EtchedComponent*
G36*
X116440000Y-146650000D02*
G01*
X115440000Y-146650000D01*
X115440000Y-146150000D01*
X116440000Y-146150000D01*
X116440000Y-146650000D01*
G37*
G04 #@! TD.AperFunction*
D11*
X88080000Y-151942500D03*
X88080000Y-150392500D03*
D12*
X192110000Y-68700000D03*
X193380000Y-68700000D03*
X194650000Y-68700000D03*
X195920000Y-68700000D03*
X197190000Y-68700000D03*
X198460000Y-68700000D03*
X199730000Y-68700000D03*
X201000000Y-68700000D03*
X202270000Y-68700000D03*
X203540000Y-68700000D03*
X204810000Y-68700000D03*
X206080000Y-68700000D03*
X207350000Y-68700000D03*
X208620000Y-68700000D03*
X208620000Y-59400000D03*
X207350000Y-59400000D03*
X206080000Y-59400000D03*
X204810000Y-59400000D03*
X203540000Y-59400000D03*
X202270000Y-59400000D03*
X201000000Y-59400000D03*
X199730000Y-59400000D03*
X198460000Y-59400000D03*
X197190000Y-59400000D03*
X195920000Y-59400000D03*
X194650000Y-59400000D03*
X193380000Y-59400000D03*
X192110000Y-59400000D03*
D13*
X175222800Y-106625000D03*
X175222800Y-108175000D03*
D12*
X192110000Y-104625000D03*
X193380000Y-104625000D03*
X194650000Y-104625000D03*
X195920000Y-104625000D03*
X197190000Y-104625000D03*
X198460000Y-104625000D03*
X199730000Y-104625000D03*
X201000000Y-104625000D03*
X202270000Y-104625000D03*
X203540000Y-104625000D03*
X204810000Y-104625000D03*
X206080000Y-104625000D03*
X207350000Y-104625000D03*
X208620000Y-104625000D03*
X208620000Y-95325000D03*
X207350000Y-95325000D03*
X206080000Y-95325000D03*
X204810000Y-95325000D03*
X203540000Y-95325000D03*
X202270000Y-95325000D03*
X201000000Y-95325000D03*
X199730000Y-95325000D03*
X198460000Y-95325000D03*
X197190000Y-95325000D03*
X195920000Y-95325000D03*
X194650000Y-95325000D03*
X193380000Y-95325000D03*
X192110000Y-95325000D03*
D11*
X103320000Y-151942500D03*
X103320000Y-150392500D03*
D14*
X103320000Y-155400000D03*
X103320000Y-153825000D03*
D13*
X175222800Y-124850000D03*
X175222800Y-126400000D03*
D11*
X128720000Y-151942500D03*
X128720000Y-150392500D03*
X159200000Y-151942500D03*
X159200000Y-150392500D03*
D13*
X202269800Y-106770200D03*
X202269800Y-108320200D03*
X175270000Y-70770200D03*
X175270000Y-72320200D03*
D14*
X113480000Y-155400000D03*
X113480000Y-153825000D03*
D11*
X118560000Y-151942500D03*
X118560000Y-150392500D03*
D12*
X111020300Y-104850000D03*
X112290300Y-104850000D03*
X113560300Y-104850000D03*
X114830300Y-104850000D03*
X116100300Y-104850000D03*
X117370300Y-104850000D03*
X118640300Y-104850000D03*
X119910300Y-104850000D03*
X121180300Y-104850000D03*
X122450300Y-104850000D03*
X123720300Y-104850000D03*
X124990300Y-104850000D03*
X126260300Y-104850000D03*
X127530300Y-104850000D03*
X127530300Y-95550000D03*
X126260300Y-95550000D03*
X124990300Y-95550000D03*
X123720300Y-95550000D03*
X122450300Y-95550000D03*
X121180300Y-95550000D03*
X119910300Y-95550000D03*
X118640300Y-95550000D03*
X117370300Y-95550000D03*
X116100300Y-95550000D03*
X114830300Y-95550000D03*
X113560300Y-95550000D03*
X112290300Y-95550000D03*
X111020300Y-95550000D03*
D11*
X93160000Y-151942500D03*
X93160000Y-150392500D03*
D13*
X148066500Y-124850000D03*
X148066500Y-126400000D03*
D15*
X209180000Y-151400000D03*
D16*
X206640000Y-151400000D03*
X204100000Y-151400000D03*
X201560000Y-151400000D03*
X199020000Y-151400000D03*
X196480000Y-151400000D03*
X193940000Y-151400000D03*
X191400000Y-151400000D03*
X188860000Y-151400000D03*
X186320000Y-151400000D03*
X183780000Y-151400000D03*
X181240000Y-151400000D03*
X178700000Y-151400000D03*
X176160000Y-151400000D03*
X173620000Y-151400000D03*
X171080000Y-151400000D03*
X168540000Y-151400000D03*
X166000000Y-151400000D03*
D11*
X138880000Y-151942500D03*
X138880000Y-150392500D03*
D14*
X143960000Y-155400000D03*
X143960000Y-153825000D03*
X83000000Y-155400000D03*
X83000000Y-153825000D03*
X88080000Y-155400000D03*
X88080000Y-153825000D03*
D12*
X137906500Y-140625000D03*
X139176500Y-140625000D03*
X140446500Y-140625000D03*
X141716500Y-140625000D03*
X142986500Y-140625000D03*
X144256500Y-140625000D03*
X145526500Y-140625000D03*
X146796500Y-140625000D03*
X148066500Y-140625000D03*
X149336500Y-140625000D03*
X150606500Y-140625000D03*
X151876500Y-140625000D03*
X153146500Y-140625000D03*
X154416500Y-140625000D03*
X154416500Y-131325000D03*
X153146500Y-131325000D03*
X151876500Y-131325000D03*
X150606500Y-131325000D03*
X149336500Y-131325000D03*
X148066500Y-131325000D03*
X146796500Y-131325000D03*
X145526500Y-131325000D03*
X144256500Y-131325000D03*
X142986500Y-131325000D03*
X141716500Y-131325000D03*
X140446500Y-131325000D03*
X139176500Y-131325000D03*
X137906500Y-131325000D03*
D14*
X93160000Y-155400000D03*
X93160000Y-153825000D03*
D12*
X137906500Y-122770200D03*
X139176500Y-122770200D03*
X140446500Y-122770200D03*
X141716500Y-122770200D03*
X142986500Y-122770200D03*
X144256500Y-122770200D03*
X145526500Y-122770200D03*
X146796500Y-122770200D03*
X148066500Y-122770200D03*
X149336500Y-122770200D03*
X150606500Y-122770200D03*
X151876500Y-122770200D03*
X153146500Y-122770200D03*
X154416500Y-122770200D03*
X154416500Y-113470200D03*
X153146500Y-113470200D03*
X151876500Y-113470200D03*
X150606500Y-113470200D03*
X149336500Y-113470200D03*
X148066500Y-113470200D03*
X146796500Y-113470200D03*
X145526500Y-113470200D03*
X144256500Y-113470200D03*
X142986500Y-113470200D03*
X141716500Y-113470200D03*
X140446500Y-113470200D03*
X139176500Y-113470200D03*
X137906500Y-113470200D03*
X84134000Y-86700000D03*
X85404000Y-86700000D03*
X86674000Y-86700000D03*
X87944000Y-86700000D03*
X89214000Y-86700000D03*
X90484000Y-86700000D03*
X91754000Y-86700000D03*
X93024000Y-86700000D03*
X94294000Y-86700000D03*
X95564000Y-86700000D03*
X96834000Y-86700000D03*
X98104000Y-86700000D03*
X99374000Y-86700000D03*
X100644000Y-86700000D03*
X100644000Y-77400000D03*
X99374000Y-77400000D03*
X98104000Y-77400000D03*
X96834000Y-77400000D03*
X95564000Y-77400000D03*
X94294000Y-77400000D03*
X93024000Y-77400000D03*
X91754000Y-77400000D03*
X90484000Y-77400000D03*
X89214000Y-77400000D03*
X87944000Y-77400000D03*
X86674000Y-77400000D03*
X85404000Y-77400000D03*
X84134000Y-77400000D03*
D11*
X133800000Y-151942500D03*
X133800000Y-150392500D03*
D15*
X209180000Y-155000000D03*
D16*
X206640000Y-155000000D03*
X204100000Y-155000000D03*
X201560000Y-155000000D03*
X199020000Y-155000000D03*
X196480000Y-155000000D03*
X193940000Y-155000000D03*
X191400000Y-155000000D03*
X188860000Y-155000000D03*
X186320000Y-155000000D03*
X183780000Y-155000000D03*
X181240000Y-155000000D03*
X178700000Y-155000000D03*
X176160000Y-155000000D03*
X173620000Y-155000000D03*
X171080000Y-155000000D03*
X168540000Y-155000000D03*
X166000000Y-155000000D03*
D14*
X108400000Y-155400000D03*
X108400000Y-153825000D03*
D11*
X113480000Y-151942500D03*
X113480000Y-150392500D03*
D12*
X137906500Y-86770200D03*
X139176500Y-86770200D03*
X140446500Y-86770200D03*
X141716500Y-86770200D03*
X142986500Y-86770200D03*
X144256500Y-86770200D03*
X145526500Y-86770200D03*
X146796500Y-86770200D03*
X148066500Y-86770200D03*
X149336500Y-86770200D03*
X150606500Y-86770200D03*
X151876500Y-86770200D03*
X153146500Y-86770200D03*
X154416500Y-86770200D03*
X154416500Y-77470200D03*
X153146500Y-77470200D03*
X151876500Y-77470200D03*
X150606500Y-77470200D03*
X149336500Y-77470200D03*
X148066500Y-77470200D03*
X146796500Y-77470200D03*
X145526500Y-77470200D03*
X144256500Y-77470200D03*
X142986500Y-77470200D03*
X141716500Y-77470200D03*
X140446500Y-77470200D03*
X139176500Y-77470200D03*
X137906500Y-77470200D03*
D13*
X94294000Y-52700000D03*
X94294000Y-54250000D03*
D17*
X115440000Y-146400000D03*
X116440000Y-146400000D03*
D18*
X117498900Y-40622500D03*
X117498900Y-35772500D03*
X117998900Y-40622500D03*
X117998900Y-35772500D03*
X118498900Y-40622500D03*
X118498900Y-35772500D03*
X118998900Y-40622500D03*
X118998900Y-35772500D03*
X119498900Y-40622500D03*
X119498900Y-35772500D03*
X119998900Y-40622500D03*
X119998900Y-35772500D03*
X120498900Y-40622500D03*
X120498900Y-35772500D03*
X120998900Y-40622500D03*
X120998900Y-35772500D03*
X121498900Y-40622500D03*
X121498900Y-35772500D03*
X121998900Y-40622500D03*
X121998900Y-35772500D03*
X122498900Y-40622500D03*
X122498900Y-35772500D03*
X122998900Y-40622500D03*
X122998900Y-35772500D03*
X123498900Y-40622500D03*
X123498900Y-35772500D03*
X123998900Y-40622500D03*
X123998900Y-35772500D03*
X124498900Y-40622500D03*
X124498900Y-35772500D03*
X124998900Y-40622500D03*
X124998900Y-35772500D03*
X125498900Y-40622500D03*
X125498900Y-35772500D03*
X125998900Y-40622500D03*
X125998900Y-35772500D03*
X126498900Y-40622500D03*
X126498900Y-35772500D03*
X126998900Y-40622500D03*
X126998900Y-35772500D03*
X127498900Y-40622500D03*
X127498900Y-35772500D03*
X127998900Y-40622500D03*
X127998900Y-35772500D03*
X128498900Y-40622500D03*
X128498900Y-35772500D03*
X128998900Y-40622500D03*
X128998900Y-35772500D03*
X129498900Y-40622500D03*
X129498900Y-35772500D03*
X129998900Y-40622500D03*
X129998900Y-35772500D03*
X130498900Y-40622500D03*
X130498900Y-35772500D03*
X130998900Y-40622500D03*
X130998900Y-35772500D03*
X131498900Y-40622500D03*
X131498900Y-35772500D03*
X131998900Y-40622500D03*
X131998900Y-35772500D03*
X132498900Y-40622500D03*
X132498900Y-35772500D03*
X132998900Y-40622500D03*
X132998900Y-35772500D03*
X133498900Y-40622500D03*
X133498900Y-35772500D03*
X133998900Y-40622500D03*
X133998900Y-35772500D03*
X134498900Y-40622500D03*
X134498900Y-35772500D03*
X134998900Y-40622500D03*
X134998900Y-35772500D03*
X135498900Y-40622500D03*
X135498900Y-35772500D03*
X135998900Y-40622500D03*
X135998900Y-35772500D03*
X136498900Y-40622500D03*
X136498900Y-35772500D03*
X136998900Y-40622500D03*
X136998900Y-35772500D03*
X137498900Y-40622500D03*
X137498900Y-35772500D03*
X137998900Y-40622500D03*
X137998900Y-35772500D03*
X138498900Y-40622500D03*
X138498900Y-35772500D03*
X138998900Y-40622500D03*
X138998900Y-35772500D03*
X139498900Y-40622500D03*
X139498900Y-35772500D03*
X139998900Y-40622500D03*
X139998900Y-35772500D03*
X140498900Y-40622500D03*
X140498900Y-35772500D03*
X140998900Y-40622500D03*
X140998900Y-35772500D03*
X141498900Y-40622500D03*
X141498900Y-35772500D03*
X141998900Y-40622500D03*
X141998900Y-35772500D03*
X142498900Y-40622500D03*
X142498900Y-35772500D03*
X142998900Y-40622500D03*
X142998900Y-35772500D03*
X143498900Y-40622500D03*
X143498900Y-35772500D03*
X143998900Y-40622500D03*
X143998900Y-35772500D03*
X144498900Y-40622500D03*
X144498900Y-35772500D03*
X144998900Y-40622500D03*
X144998900Y-35772500D03*
X145498900Y-40622500D03*
X145498900Y-35772500D03*
X145998900Y-40622500D03*
X145998900Y-35772500D03*
X146498900Y-40622500D03*
X146498900Y-35772500D03*
X146998900Y-40622500D03*
X146998900Y-35772500D03*
X147498900Y-40622500D03*
X147498900Y-35772500D03*
X147998900Y-40622500D03*
X147998900Y-35772500D03*
X148498900Y-40622500D03*
X148498900Y-35772500D03*
X148998900Y-40622500D03*
X148998900Y-35772500D03*
X149498900Y-40622500D03*
X149498900Y-35772500D03*
X149998900Y-40622500D03*
X149998900Y-35772500D03*
X150498900Y-40622500D03*
X150498900Y-35772500D03*
X150998900Y-40622500D03*
X150998900Y-35772500D03*
X151498900Y-40622500D03*
X151498900Y-35772500D03*
X151998900Y-40622500D03*
X151998900Y-35772500D03*
X152498900Y-40622500D03*
X152498900Y-35772500D03*
X152998900Y-40622500D03*
X152998900Y-35772500D03*
X153498900Y-40622500D03*
X153498900Y-35772500D03*
X156498900Y-40622500D03*
X156498900Y-35772500D03*
X156998900Y-40622500D03*
X156998900Y-35772500D03*
X157498900Y-40622500D03*
X157498900Y-35772500D03*
X157998900Y-40622500D03*
X157998900Y-35772500D03*
X158498900Y-40622500D03*
X158498900Y-35772500D03*
X158998900Y-40622500D03*
X158998900Y-35772500D03*
X159498900Y-40622500D03*
X159498900Y-35772500D03*
X159998900Y-40622500D03*
X159998900Y-35772500D03*
X160498900Y-40622500D03*
X160498900Y-35772500D03*
X160998900Y-40622500D03*
X160998900Y-35772500D03*
X161498900Y-40622500D03*
X161498900Y-35772500D03*
X161998900Y-40622500D03*
X161998900Y-35772500D03*
X162498900Y-40622500D03*
X162498900Y-35772500D03*
X162998900Y-40622500D03*
X162998900Y-35772500D03*
X163498900Y-40622500D03*
X163498900Y-35772500D03*
X163998900Y-40622500D03*
X163998900Y-35772500D03*
X164498900Y-40622500D03*
X164498900Y-35772500D03*
X164998900Y-40622500D03*
X164998900Y-35772500D03*
X165498900Y-40622500D03*
X165498900Y-35772500D03*
X165998900Y-40622500D03*
X165998900Y-35772500D03*
X166498900Y-40622500D03*
X166498900Y-35772500D03*
X166998900Y-40622500D03*
X166998900Y-35772500D03*
X167498900Y-40622500D03*
X167498900Y-35772500D03*
X167998900Y-40622500D03*
X167998900Y-35772500D03*
X168498900Y-40622500D03*
X168498900Y-35772500D03*
X168998900Y-40622500D03*
X168998900Y-35772500D03*
X169498900Y-40622500D03*
X169498900Y-35772500D03*
X169998900Y-40622500D03*
X169998900Y-35772500D03*
X170498900Y-40622500D03*
X170498900Y-35772500D03*
X170998900Y-40622500D03*
X170998900Y-35772500D03*
X171498900Y-40622500D03*
X171498900Y-35772500D03*
X171998900Y-40622500D03*
X171998900Y-35772500D03*
X172498900Y-40622500D03*
X172498900Y-35772500D03*
X172998900Y-40622500D03*
X172998900Y-35772500D03*
X173498900Y-40622500D03*
X173498900Y-35772500D03*
X173998900Y-40622500D03*
X173998900Y-35772500D03*
X174498900Y-40622500D03*
X174498900Y-35772500D03*
X174998900Y-40622500D03*
X174998900Y-35772500D03*
X175498900Y-40622500D03*
X175498900Y-35772500D03*
X175998900Y-40622500D03*
X175998900Y-35772500D03*
X176498900Y-40622500D03*
X176498900Y-35772500D03*
X176998900Y-40622500D03*
X176998900Y-35772500D03*
X177498900Y-40622500D03*
X177498900Y-35772500D03*
X177998900Y-40622500D03*
X177998900Y-35772500D03*
X178498900Y-40622500D03*
X178498900Y-35772500D03*
X178998900Y-40622500D03*
X178998900Y-35772500D03*
X179498900Y-40622500D03*
X179498900Y-35772500D03*
X179998900Y-40622500D03*
X179998900Y-35772500D03*
X180498900Y-40622500D03*
X180498900Y-35772500D03*
X180998900Y-40622500D03*
X180998900Y-35772500D03*
X181498900Y-40622500D03*
X181498900Y-35772500D03*
X181998900Y-40622500D03*
X181998900Y-35772500D03*
X182498900Y-40622500D03*
X182498900Y-35772500D03*
X182998900Y-40622500D03*
X182998900Y-35772500D03*
X183498900Y-40622500D03*
X183498900Y-35772500D03*
X183998900Y-40622500D03*
X183998900Y-35772500D03*
X184498900Y-40622500D03*
X184498900Y-35772500D03*
X184998900Y-40622500D03*
X184998900Y-35772500D03*
X185498900Y-40622500D03*
X185498900Y-35772500D03*
X185998900Y-40622500D03*
X185998900Y-35772500D03*
X186498900Y-40622500D03*
X186498900Y-35772500D03*
X186998900Y-40622500D03*
X186998900Y-35772500D03*
X187498900Y-40622500D03*
X187498900Y-35772500D03*
X187998900Y-40622500D03*
X187998900Y-35772500D03*
X188498900Y-40622500D03*
X188498900Y-35772500D03*
X188998900Y-40622500D03*
X188998900Y-35772500D03*
X189498900Y-40622500D03*
X189498900Y-35772500D03*
D19*
X114568900Y-38197500D03*
D20*
X191908900Y-39197500D03*
X191908900Y-37197500D03*
D19*
X193698900Y-38197500D03*
D12*
X84134000Y-50700000D03*
X85404000Y-50700000D03*
X86674000Y-50700000D03*
X87944000Y-50700000D03*
X89214000Y-50700000D03*
X90484000Y-50700000D03*
X91754000Y-50700000D03*
X93024000Y-50700000D03*
X94294000Y-50700000D03*
X95564000Y-50700000D03*
X96834000Y-50700000D03*
X98104000Y-50700000D03*
X99374000Y-50700000D03*
X100644000Y-50700000D03*
X100644000Y-41400000D03*
X99374000Y-41400000D03*
X98104000Y-41400000D03*
X96834000Y-41400000D03*
X95564000Y-41400000D03*
X94294000Y-41400000D03*
X93024000Y-41400000D03*
X91754000Y-41400000D03*
X90484000Y-41400000D03*
X89214000Y-41400000D03*
X87944000Y-41400000D03*
X86674000Y-41400000D03*
X85404000Y-41400000D03*
X84134000Y-41400000D03*
X192015000Y-140625000D03*
X193285000Y-140625000D03*
X194555000Y-140625000D03*
X195825000Y-140625000D03*
X197095000Y-140625000D03*
X198365000Y-140625000D03*
X199635000Y-140625000D03*
X200905000Y-140625000D03*
X202175000Y-140625000D03*
X203445000Y-140625000D03*
X204715000Y-140625000D03*
X205985000Y-140625000D03*
X207255000Y-140625000D03*
X208525000Y-140625000D03*
X208525000Y-131325000D03*
X207255000Y-131325000D03*
X205985000Y-131325000D03*
X204715000Y-131325000D03*
X203445000Y-131325000D03*
X202175000Y-131325000D03*
X200905000Y-131325000D03*
X199635000Y-131325000D03*
X198365000Y-131325000D03*
X197095000Y-131325000D03*
X195825000Y-131325000D03*
X194555000Y-131325000D03*
X193285000Y-131325000D03*
X192015000Y-131325000D03*
X165062800Y-86770200D03*
X166332800Y-86770200D03*
X167602800Y-86770200D03*
X168872800Y-86770200D03*
X170142800Y-86770200D03*
X171412800Y-86770200D03*
X172682800Y-86770200D03*
X173952800Y-86770200D03*
X175222800Y-86770200D03*
X176492800Y-86770200D03*
X177762800Y-86770200D03*
X179032800Y-86770200D03*
X180302800Y-86770200D03*
X181572800Y-86770200D03*
X181572800Y-77470200D03*
X180302800Y-77470200D03*
X179032800Y-77470200D03*
X177762800Y-77470200D03*
X176492800Y-77470200D03*
X175222800Y-77470200D03*
X173952800Y-77470200D03*
X172682800Y-77470200D03*
X171412800Y-77470200D03*
X170142800Y-77470200D03*
X168872800Y-77470200D03*
X167602800Y-77470200D03*
X166332800Y-77470200D03*
X165062800Y-77470200D03*
D13*
X148066500Y-106850000D03*
X148066500Y-108400000D03*
D14*
X128720000Y-155400000D03*
X128720000Y-153825000D03*
D13*
X202270000Y-88800000D03*
X202270000Y-90350000D03*
D11*
X123640000Y-151942500D03*
X123640000Y-150392500D03*
D12*
X84134000Y-68700000D03*
X85404000Y-68700000D03*
X86674000Y-68700000D03*
X87944000Y-68700000D03*
X89214000Y-68700000D03*
X90484000Y-68700000D03*
X91754000Y-68700000D03*
X93024000Y-68700000D03*
X94294000Y-68700000D03*
X95564000Y-68700000D03*
X96834000Y-68700000D03*
X98104000Y-68700000D03*
X99374000Y-68700000D03*
X100644000Y-68700000D03*
X100644000Y-59400000D03*
X99374000Y-59400000D03*
X98104000Y-59400000D03*
X96834000Y-59400000D03*
X95564000Y-59400000D03*
X94294000Y-59400000D03*
X93024000Y-59400000D03*
X91754000Y-59400000D03*
X90484000Y-59400000D03*
X89214000Y-59400000D03*
X87944000Y-59400000D03*
X86674000Y-59400000D03*
X85404000Y-59400000D03*
X84134000Y-59400000D03*
D13*
X121180300Y-70850000D03*
X121180300Y-72400000D03*
X148100000Y-70850000D03*
X148100000Y-72400000D03*
D11*
X108400000Y-151942500D03*
X108400000Y-150392500D03*
D12*
X165062800Y-68700000D03*
X166332800Y-68700000D03*
X167602800Y-68700000D03*
X168872800Y-68700000D03*
X170142800Y-68700000D03*
X171412800Y-68700000D03*
X172682800Y-68700000D03*
X173952800Y-68700000D03*
X175222800Y-68700000D03*
X176492800Y-68700000D03*
X177762800Y-68700000D03*
X179032800Y-68700000D03*
X180302800Y-68700000D03*
X181572800Y-68700000D03*
X181572800Y-59400000D03*
X180302800Y-59400000D03*
X179032800Y-59400000D03*
X177762800Y-59400000D03*
X176492800Y-59400000D03*
X175222800Y-59400000D03*
X173952800Y-59400000D03*
X172682800Y-59400000D03*
X171412800Y-59400000D03*
X170142800Y-59400000D03*
X168872800Y-59400000D03*
X167602800Y-59400000D03*
X166332800Y-59400000D03*
X165062800Y-59400000D03*
D11*
X143960000Y-151942500D03*
X143960000Y-150392500D03*
D12*
X137906500Y-104770200D03*
X139176500Y-104770200D03*
X140446500Y-104770200D03*
X141716500Y-104770200D03*
X142986500Y-104770200D03*
X144256500Y-104770200D03*
X145526500Y-104770200D03*
X146796500Y-104770200D03*
X148066500Y-104770200D03*
X149336500Y-104770200D03*
X150606500Y-104770200D03*
X151876500Y-104770200D03*
X153146500Y-104770200D03*
X154416500Y-104770200D03*
X154416500Y-95470200D03*
X153146500Y-95470200D03*
X151876500Y-95470200D03*
X150606500Y-95470200D03*
X149336500Y-95470200D03*
X148066500Y-95470200D03*
X146796500Y-95470200D03*
X145526500Y-95470200D03*
X144256500Y-95470200D03*
X142986500Y-95470200D03*
X141716500Y-95470200D03*
X140446500Y-95470200D03*
X139176500Y-95470200D03*
X137906500Y-95470200D03*
D13*
X121180300Y-88850000D03*
X121180300Y-90400000D03*
D12*
X111020300Y-86850000D03*
X112290300Y-86850000D03*
X113560300Y-86850000D03*
X114830300Y-86850000D03*
X116100300Y-86850000D03*
X117370300Y-86850000D03*
X118640300Y-86850000D03*
X119910300Y-86850000D03*
X121180300Y-86850000D03*
X122450300Y-86850000D03*
X123720300Y-86850000D03*
X124990300Y-86850000D03*
X126260300Y-86850000D03*
X127530300Y-86850000D03*
X127530300Y-77550000D03*
X126260300Y-77550000D03*
X124990300Y-77550000D03*
X123720300Y-77550000D03*
X122450300Y-77550000D03*
X121180300Y-77550000D03*
X119910300Y-77550000D03*
X118640300Y-77550000D03*
X117370300Y-77550000D03*
X116100300Y-77550000D03*
X114830300Y-77550000D03*
X113560300Y-77550000D03*
X112290300Y-77550000D03*
X111020300Y-77550000D03*
D13*
X148066500Y-88850000D03*
X148066500Y-90400000D03*
D11*
X83000000Y-151942500D03*
X83000000Y-150392500D03*
D13*
X175222800Y-142625000D03*
X175222800Y-144175000D03*
D21*
X216000000Y-59400000D03*
D16*
X218540000Y-59400000D03*
X216000000Y-61940000D03*
X218540000Y-61940000D03*
X216000000Y-64480000D03*
X218540000Y-64480000D03*
X216000000Y-67020000D03*
X218540000Y-67020000D03*
X216000000Y-69560000D03*
X218540000Y-69560000D03*
X216000000Y-72100000D03*
X218540000Y-72100000D03*
X216000000Y-74640000D03*
X218540000Y-74640000D03*
X216000000Y-77180000D03*
X218540000Y-77180000D03*
X216000000Y-79720000D03*
X218540000Y-79720000D03*
X216000000Y-82260000D03*
X218540000Y-82260000D03*
X216000000Y-84800000D03*
X218540000Y-84800000D03*
X216000000Y-87340000D03*
X218540000Y-87340000D03*
X216000000Y-89880000D03*
X218540000Y-89880000D03*
X216000000Y-92420000D03*
X218540000Y-92420000D03*
X216000000Y-94960000D03*
X218540000Y-94960000D03*
X216000000Y-97500000D03*
X218540000Y-97500000D03*
X216000000Y-100040000D03*
X218540000Y-100040000D03*
X216000000Y-102580000D03*
X218540000Y-102580000D03*
X216000000Y-105120000D03*
X218540000Y-105120000D03*
X216000000Y-107660000D03*
X218540000Y-107660000D03*
X216000000Y-110200000D03*
X218540000Y-110200000D03*
X216000000Y-112740000D03*
X218540000Y-112740000D03*
X216000000Y-115280000D03*
X218540000Y-115280000D03*
X216000000Y-117820000D03*
X218540000Y-117820000D03*
X216000000Y-120360000D03*
X218540000Y-120360000D03*
X216000000Y-122900000D03*
X218540000Y-122900000D03*
X216000000Y-125440000D03*
X218540000Y-125440000D03*
X216000000Y-127980000D03*
X218540000Y-127980000D03*
X216000000Y-130520000D03*
X218540000Y-130520000D03*
X216000000Y-133060000D03*
X218540000Y-133060000D03*
X216000000Y-135600000D03*
X218540000Y-135600000D03*
X216000000Y-138140000D03*
X218540000Y-138140000D03*
D12*
X111020300Y-68850000D03*
X112290300Y-68850000D03*
X113560300Y-68850000D03*
X114830300Y-68850000D03*
X116100300Y-68850000D03*
X117370300Y-68850000D03*
X118640300Y-68850000D03*
X119910300Y-68850000D03*
X121180300Y-68850000D03*
X122450300Y-68850000D03*
X123720300Y-68850000D03*
X124990300Y-68850000D03*
X126260300Y-68850000D03*
X127530300Y-68850000D03*
X127530300Y-59550000D03*
X126260300Y-59550000D03*
X124990300Y-59550000D03*
X123720300Y-59550000D03*
X122450300Y-59550000D03*
X121180300Y-59550000D03*
X119910300Y-59550000D03*
X118640300Y-59550000D03*
X117370300Y-59550000D03*
X116100300Y-59550000D03*
X114830300Y-59550000D03*
X113560300Y-59550000D03*
X112290300Y-59550000D03*
X111020300Y-59550000D03*
D13*
X202200000Y-124800000D03*
X202200000Y-126350000D03*
D12*
X165062800Y-140625000D03*
X166332800Y-140625000D03*
X167602800Y-140625000D03*
X168872800Y-140625000D03*
X170142800Y-140625000D03*
X171412800Y-140625000D03*
X172682800Y-140625000D03*
X173952800Y-140625000D03*
X175222800Y-140625000D03*
X176492800Y-140625000D03*
X177762800Y-140625000D03*
X179032800Y-140625000D03*
X180302800Y-140625000D03*
X181572800Y-140625000D03*
X181572800Y-131325000D03*
X180302800Y-131325000D03*
X179032800Y-131325000D03*
X177762800Y-131325000D03*
X176492800Y-131325000D03*
X175222800Y-131325000D03*
X173952800Y-131325000D03*
X172682800Y-131325000D03*
X171412800Y-131325000D03*
X170142800Y-131325000D03*
X168872800Y-131325000D03*
X167602800Y-131325000D03*
X166332800Y-131325000D03*
X165062800Y-131325000D03*
D14*
X154120000Y-155400000D03*
X154120000Y-153825000D03*
X133800000Y-155400000D03*
X133800000Y-153825000D03*
X118560000Y-155400000D03*
X118560000Y-153825000D03*
D13*
X148066500Y-142625000D03*
X148066500Y-144175000D03*
D12*
X84134000Y-104700000D03*
X85404000Y-104700000D03*
X86674000Y-104700000D03*
X87944000Y-104700000D03*
X89214000Y-104700000D03*
X90484000Y-104700000D03*
X91754000Y-104700000D03*
X93024000Y-104700000D03*
X94294000Y-104700000D03*
X95564000Y-104700000D03*
X96834000Y-104700000D03*
X98104000Y-104700000D03*
X99374000Y-104700000D03*
X100644000Y-104700000D03*
X100644000Y-95400000D03*
X99374000Y-95400000D03*
X98104000Y-95400000D03*
X96834000Y-95400000D03*
X95564000Y-95400000D03*
X94294000Y-95400000D03*
X93024000Y-95400000D03*
X91754000Y-95400000D03*
X90484000Y-95400000D03*
X89214000Y-95400000D03*
X87944000Y-95400000D03*
X86674000Y-95400000D03*
X85404000Y-95400000D03*
X84134000Y-95400000D03*
D14*
X159200000Y-155400000D03*
X159200000Y-153825000D03*
D12*
X192109800Y-122770200D03*
X193379800Y-122770200D03*
X194649800Y-122770200D03*
X195919800Y-122770200D03*
X197189800Y-122770200D03*
X198459800Y-122770200D03*
X199729800Y-122770200D03*
X200999800Y-122770200D03*
X202269800Y-122770200D03*
X203539800Y-122770200D03*
X204809800Y-122770200D03*
X206079800Y-122770200D03*
X207349800Y-122770200D03*
X208619800Y-122770200D03*
X208619800Y-113470200D03*
X207349800Y-113470200D03*
X206079800Y-113470200D03*
X204809800Y-113470200D03*
X203539800Y-113470200D03*
X202269800Y-113470200D03*
X200999800Y-113470200D03*
X199729800Y-113470200D03*
X198459800Y-113470200D03*
X197189800Y-113470200D03*
X195919800Y-113470200D03*
X194649800Y-113470200D03*
X193379800Y-113470200D03*
X192109800Y-113470200D03*
X111020300Y-122850000D03*
X112290300Y-122850000D03*
X113560300Y-122850000D03*
X114830300Y-122850000D03*
X116100300Y-122850000D03*
X117370300Y-122850000D03*
X118640300Y-122850000D03*
X119910300Y-122850000D03*
X121180300Y-122850000D03*
X122450300Y-122850000D03*
X123720300Y-122850000D03*
X124990300Y-122850000D03*
X126260300Y-122850000D03*
X127530300Y-122850000D03*
X127530300Y-113550000D03*
X126260300Y-113550000D03*
X124990300Y-113550000D03*
X123720300Y-113550000D03*
X122450300Y-113550000D03*
X121180300Y-113550000D03*
X119910300Y-113550000D03*
X118640300Y-113550000D03*
X117370300Y-113550000D03*
X116100300Y-113550000D03*
X114830300Y-113550000D03*
X113560300Y-113550000D03*
X112290300Y-113550000D03*
X111020300Y-113550000D03*
D22*
X88228000Y-113392400D03*
X85278000Y-113392400D03*
D13*
X94294000Y-106700000D03*
X94294000Y-108250000D03*
X94294000Y-88700000D03*
X94294000Y-90250000D03*
D23*
X122300000Y-131160000D03*
X119760000Y-131160000D03*
X117220000Y-131160000D03*
X114680000Y-131160000D03*
X112140000Y-131160000D03*
X109600000Y-131160000D03*
X107060000Y-131160000D03*
X104520000Y-131160000D03*
X101980000Y-131160000D03*
X99440000Y-131160000D03*
X96900000Y-131160000D03*
X94360000Y-131160000D03*
X91820000Y-131160000D03*
X89280000Y-131160000D03*
X86740000Y-131160000D03*
X86740000Y-146400000D03*
X89280000Y-146400000D03*
X91820000Y-146400000D03*
X94360000Y-146400000D03*
X96900000Y-146400000D03*
X99440000Y-146400000D03*
X101980000Y-146400000D03*
X104520000Y-146400000D03*
X107060000Y-146400000D03*
X109600000Y-146400000D03*
X112140000Y-146400000D03*
X114680000Y-146400000D03*
X117220000Y-146400000D03*
X119760000Y-146400000D03*
X122300000Y-146400000D03*
D11*
X154120000Y-151942500D03*
X154120000Y-150392500D03*
D12*
X165062800Y-104625000D03*
X166332800Y-104625000D03*
X167602800Y-104625000D03*
X168872800Y-104625000D03*
X170142800Y-104625000D03*
X171412800Y-104625000D03*
X172682800Y-104625000D03*
X173952800Y-104625000D03*
X175222800Y-104625000D03*
X176492800Y-104625000D03*
X177762800Y-104625000D03*
X179032800Y-104625000D03*
X180302800Y-104625000D03*
X181572800Y-104625000D03*
X181572800Y-95325000D03*
X180302800Y-95325000D03*
X179032800Y-95325000D03*
X177762800Y-95325000D03*
X176492800Y-95325000D03*
X175222800Y-95325000D03*
X173952800Y-95325000D03*
X172682800Y-95325000D03*
X171412800Y-95325000D03*
X170142800Y-95325000D03*
X168872800Y-95325000D03*
X167602800Y-95325000D03*
X166332800Y-95325000D03*
X165062800Y-95325000D03*
D24*
X95300000Y-120400000D03*
X100800000Y-120400000D03*
D13*
X202270000Y-70850000D03*
X202270000Y-72400000D03*
X121180300Y-124850000D03*
X121180300Y-126400000D03*
D14*
X123640000Y-155400000D03*
X123640000Y-153825000D03*
X149040000Y-155400000D03*
X149040000Y-153825000D03*
D12*
X165062800Y-122770200D03*
X166332800Y-122770200D03*
X167602800Y-122770200D03*
X168872800Y-122770200D03*
X170142800Y-122770200D03*
X171412800Y-122770200D03*
X172682800Y-122770200D03*
X173952800Y-122770200D03*
X175222800Y-122770200D03*
X176492800Y-122770200D03*
X177762800Y-122770200D03*
X179032800Y-122770200D03*
X180302800Y-122770200D03*
X181572800Y-122770200D03*
X181572800Y-113470200D03*
X180302800Y-113470200D03*
X179032800Y-113470200D03*
X177762800Y-113470200D03*
X176492800Y-113470200D03*
X175222800Y-113470200D03*
X173952800Y-113470200D03*
X172682800Y-113470200D03*
X171412800Y-113470200D03*
X170142800Y-113470200D03*
X168872800Y-113470200D03*
X167602800Y-113470200D03*
X166332800Y-113470200D03*
X165062800Y-113470200D03*
D13*
X202208000Y-142628000D03*
X202208000Y-144178000D03*
D11*
X98240000Y-151942500D03*
X98240000Y-150392500D03*
D14*
X138880000Y-155400000D03*
X138880000Y-153825000D03*
D12*
X192110000Y-86770200D03*
X193380000Y-86770200D03*
X194650000Y-86770200D03*
X195920000Y-86770200D03*
X197190000Y-86770200D03*
X198460000Y-86770200D03*
X199730000Y-86770200D03*
X201000000Y-86770200D03*
X202270000Y-86770200D03*
X203540000Y-86770200D03*
X204810000Y-86770200D03*
X206080000Y-86770200D03*
X207350000Y-86770200D03*
X208620000Y-86770200D03*
X208620000Y-77470200D03*
X207350000Y-77470200D03*
X206080000Y-77470200D03*
X204810000Y-77470200D03*
X203540000Y-77470200D03*
X202270000Y-77470200D03*
X201000000Y-77470200D03*
X199730000Y-77470200D03*
X198460000Y-77470200D03*
X197190000Y-77470200D03*
X195920000Y-77470200D03*
X194650000Y-77470200D03*
X193380000Y-77470200D03*
X192110000Y-77470200D03*
D13*
X121180300Y-106850000D03*
X121180300Y-108400000D03*
X94294000Y-70700000D03*
X94294000Y-72250000D03*
X175200000Y-88800000D03*
X175200000Y-90350000D03*
D14*
X98240000Y-155400000D03*
X98240000Y-153825000D03*
D11*
X149040000Y-151942500D03*
X149040000Y-150392500D03*
D12*
X137906500Y-68850000D03*
X139176500Y-68850000D03*
X140446500Y-68850000D03*
X141716500Y-68850000D03*
X142986500Y-68850000D03*
X144256500Y-68850000D03*
X145526500Y-68850000D03*
X146796500Y-68850000D03*
X148066500Y-68850000D03*
X149336500Y-68850000D03*
X150606500Y-68850000D03*
X151876500Y-68850000D03*
X153146500Y-68850000D03*
X154416500Y-68850000D03*
X154416500Y-59550000D03*
X153146500Y-59550000D03*
X151876500Y-59550000D03*
X150606500Y-59550000D03*
X149336500Y-59550000D03*
X148066500Y-59550000D03*
X146796500Y-59550000D03*
X145526500Y-59550000D03*
X144256500Y-59550000D03*
X142986500Y-59550000D03*
X141716500Y-59550000D03*
X140446500Y-59550000D03*
X139176500Y-59550000D03*
X137906500Y-59550000D03*
D25*
X114700000Y-129700000D03*
X150247163Y-150415576D03*
X95169795Y-48769795D03*
X122380000Y-108450000D03*
X181548500Y-111521405D03*
X177500000Y-142400000D03*
X178874200Y-129354200D03*
X203362000Y-108342250D03*
X95494000Y-90300000D03*
X145100000Y-150400000D03*
X203400000Y-139000000D03*
X205447800Y-110789092D03*
X206470599Y-93636792D03*
X99500000Y-150400000D03*
X177700000Y-88500000D03*
X94400000Y-150400000D03*
X126300000Y-75600000D03*
X206000000Y-129300000D03*
X203370000Y-72350000D03*
X151370800Y-111500000D03*
X208600000Y-111600000D03*
X203535900Y-85300000D03*
X122280000Y-72450000D03*
X179361801Y-97997608D03*
X203293000Y-144171900D03*
X203600000Y-67100000D03*
X206100000Y-75800000D03*
X176500000Y-121200000D03*
X84000000Y-113400000D03*
X128300000Y-149000000D03*
X114600000Y-150400000D03*
X135000000Y-150400000D03*
X209203100Y-93600000D03*
X89300000Y-150400000D03*
X100000000Y-75300000D03*
X149200000Y-72400000D03*
X101473400Y-59400100D03*
X149159000Y-108422000D03*
X109600000Y-150400000D03*
X95394000Y-72300000D03*
X95203645Y-66103645D03*
X179000000Y-111500000D03*
X208500000Y-129300000D03*
X208600000Y-75800000D03*
X208600000Y-57600000D03*
X181748500Y-129354200D03*
X149296300Y-67131600D03*
X95394000Y-54200000D03*
X176362000Y-72342250D03*
X202865333Y-121449299D03*
X149159000Y-90422000D03*
X150833400Y-88500000D03*
X155400000Y-150400000D03*
X175862800Y-67403500D03*
X101588000Y-41487300D03*
X97887600Y-93500000D03*
X155599800Y-92900000D03*
X119700000Y-150400000D03*
X127500000Y-111800000D03*
X104500000Y-150400000D03*
X148770000Y-138930000D03*
X122782608Y-120888501D03*
X176788100Y-103097600D03*
X160400000Y-150400000D03*
X152800000Y-61248100D03*
X203300000Y-126400000D03*
X176315000Y-108197000D03*
D26*
X119800000Y-148195000D03*
D25*
X95600000Y-85000000D03*
X203400000Y-90400000D03*
X124355205Y-102155205D03*
X122380000Y-126350000D03*
X149151000Y-126394000D03*
X95600000Y-103100000D03*
X126200000Y-57600000D03*
X124911855Y-150500600D03*
X176308000Y-144169000D03*
X119528100Y-37295900D03*
X84100000Y-150400000D03*
X206100000Y-57600000D03*
X140000000Y-150400000D03*
X176300000Y-90400000D03*
X127000000Y-93700000D03*
X179000000Y-57400000D03*
X149160000Y-144170000D03*
X95494000Y-108300000D03*
X151840000Y-132910000D03*
X176640100Y-75400000D03*
X176400000Y-126400000D03*
X122280000Y-90450000D03*
X203300000Y-124800000D03*
X95494000Y-106700000D03*
X155605300Y-94916200D03*
X122280000Y-106850000D03*
X207300000Y-129300000D03*
X203362000Y-106742250D03*
X122280000Y-88850000D03*
X149159000Y-88922000D03*
X117220000Y-132575600D03*
X180244195Y-111144195D03*
X181515600Y-96833900D03*
X182584400Y-77121000D03*
X122380000Y-124850000D03*
X154410300Y-58044900D03*
X155207600Y-77160600D03*
X207350000Y-78974000D03*
X89500000Y-113400000D03*
X95394000Y-88700000D03*
X176362000Y-70842250D03*
X207903599Y-92203792D03*
X207400000Y-57600000D03*
X118406400Y-37392300D03*
X149159000Y-106922000D03*
X149120000Y-142640000D03*
X182584400Y-59325800D03*
X203293000Y-142671900D03*
X95294000Y-52700000D03*
X122280000Y-70850000D03*
X149151000Y-124894000D03*
D26*
X117220000Y-148190000D03*
D25*
X176300000Y-88800000D03*
X176308000Y-142669000D03*
X154027700Y-129250000D03*
X207500000Y-111600000D03*
X149200000Y-70900000D03*
X176315000Y-106697000D03*
X95394000Y-70700000D03*
X203400000Y-88800000D03*
X203470000Y-70850000D03*
X176315000Y-124900000D03*
X155206200Y-112711400D03*
X180300000Y-129354200D03*
D27*
X181194900Y-121351100D03*
X180946700Y-139461300D03*
X99369900Y-67275000D03*
X154216400Y-75225300D03*
X126260300Y-106253100D03*
X206709400Y-69854500D03*
X207350000Y-88192700D03*
X206864100Y-121446900D03*
X207350000Y-106050600D03*
X152916100Y-139351100D03*
X154205300Y-85310000D03*
X100653900Y-92565200D03*
X152305300Y-102821900D03*
X126402800Y-88253900D03*
X99374000Y-52109700D03*
X126260300Y-121444100D03*
X153448000Y-121353100D03*
X128214000Y-122294400D03*
X155096500Y-86114500D03*
X87568600Y-130031300D03*
X182252300Y-140625000D03*
X154416500Y-70451900D03*
X100787500Y-67292100D03*
X155095900Y-140156700D03*
X208649500Y-100251500D03*
X128214000Y-105092200D03*
X154581300Y-121362300D03*
X101337600Y-50571000D03*
X101796300Y-104935300D03*
X128214400Y-86850000D03*
X182448100Y-121962400D03*
X209305500Y-86084700D03*
X155101300Y-104770200D03*
X208094600Y-69948900D03*
X205917000Y-106242300D03*
X178425600Y-102609300D03*
X179426300Y-139235600D03*
X124701800Y-70254700D03*
X153825000Y-106639400D03*
X179427800Y-121360700D03*
X151057000Y-85255600D03*
X125078700Y-106257400D03*
X151684400Y-73333500D03*
X152028500Y-121258300D03*
X206001400Y-120211200D03*
X151438900Y-139399400D03*
X97747000Y-70337700D03*
X86700000Y-144600000D03*
X97595500Y-51970300D03*
X125056900Y-85436600D03*
X98252200Y-85290400D03*
X179032800Y-88195400D03*
X205043500Y-85349400D03*
X125212200Y-121442100D03*
X123720300Y-60961500D03*
X178832700Y-78901300D03*
X150143600Y-114813600D03*
X96834000Y-42824800D03*
X96834700Y-60806900D03*
X97343600Y-76137200D03*
X204810000Y-60826600D03*
X112914300Y-129973900D03*
X179915400Y-101119400D03*
X148922600Y-127469800D03*
X204640400Y-112058400D03*
X177738700Y-129919300D03*
X123727500Y-78957900D03*
X178763900Y-64301500D03*
X123734500Y-114972900D03*
X150830800Y-96998800D03*
X204438400Y-129907800D03*
X204790200Y-96750800D03*
X204773100Y-78879000D03*
X177534200Y-115282300D03*
X123720300Y-96961500D03*
X200869800Y-60803600D03*
X83664000Y-154489000D03*
X199730000Y-60812000D03*
X88193700Y-153001400D03*
X197963500Y-60693700D03*
X93824400Y-153160600D03*
X196947900Y-60825700D03*
X98904800Y-153160200D03*
X104441000Y-152704000D03*
X195735700Y-60808500D03*
X194650000Y-60807500D03*
X121973100Y-151256700D03*
X114991000Y-152314000D03*
X193322500Y-60807700D03*
X120075400Y-151863500D03*
X191414300Y-59298600D03*
X124317100Y-153147900D03*
X174553400Y-138897400D03*
X190425200Y-143788700D03*
X128431000Y-156226600D03*
X134469300Y-153155700D03*
X175649200Y-138443700D03*
X150862000Y-150755200D03*
X175059800Y-137863100D03*
X170271000Y-152771300D03*
X188309600Y-146219100D03*
X154494200Y-152989800D03*
X174503300Y-137304100D03*
X192060000Y-147982900D03*
X173511000Y-153771800D03*
X91754000Y-103288100D03*
X131047700Y-41682000D03*
X164833100Y-34705200D03*
X144701600Y-121388500D03*
X147327900Y-85517300D03*
X157498500Y-37281700D03*
X120493000Y-85657500D03*
X139034700Y-37199600D03*
X112290300Y-112131200D03*
X144962200Y-47462600D03*
X142814000Y-121365600D03*
X164906200Y-44786000D03*
X86088100Y-94206400D03*
X126131100Y-45625000D03*
X143015500Y-112050800D03*
X166020000Y-36831700D03*
X127434800Y-34703000D03*
X91803300Y-75985600D03*
X137930100Y-76051800D03*
X156769200Y-38182800D03*
X116589300Y-121550200D03*
X146498900Y-42080600D03*
X146485600Y-121358900D03*
X166407300Y-38881200D03*
X172706600Y-57995200D03*
X173998900Y-37980600D03*
X163909600Y-36939100D03*
X139176500Y-121359800D03*
X150577600Y-36916600D03*
X143884100Y-67433300D03*
X117838900Y-102511700D03*
X142836800Y-41688300D03*
X84134000Y-75976900D03*
X127751500Y-37879100D03*
X115120700Y-112130600D03*
X147478900Y-44833600D03*
X118588700Y-42187700D03*
X84197700Y-67281400D03*
X117370300Y-121428600D03*
X146209000Y-34700900D03*
X171203900Y-111017100D03*
X184834800Y-46401100D03*
X198368700Y-67293200D03*
X188745700Y-36836100D03*
X168994000Y-103221300D03*
X180082600Y-37644900D03*
X181741600Y-36833400D03*
X173239600Y-94107600D03*
X143639000Y-36826700D03*
X116394100Y-94143900D03*
X158091100Y-41799000D03*
X147023000Y-75966100D03*
X176998900Y-38839000D03*
X171412800Y-85346600D03*
X88396200Y-103347700D03*
X130060500Y-37820600D03*
X124464000Y-41676400D03*
X106473100Y-56349500D03*
X118959400Y-41681300D03*
X85860600Y-40064000D03*
X168183900Y-85559700D03*
X176458300Y-41702200D03*
X164006500Y-112379100D03*
X187316800Y-36838800D03*
X173952800Y-57974400D03*
X173808700Y-42179400D03*
X111424800Y-76168000D03*
X140633400Y-34699800D03*
X185959300Y-41686800D03*
X174215000Y-111995500D03*
X164498900Y-37205900D03*
X141865900Y-121351100D03*
X184998900Y-41678900D03*
X170661500Y-121509800D03*
X160752600Y-42791400D03*
X142986500Y-103349100D03*
X127707000Y-36825400D03*
X89754800Y-76135400D03*
X179103700Y-42974700D03*
X165485900Y-103269000D03*
X120204800Y-39081600D03*
X93648900Y-67531600D03*
X173577500Y-67281700D03*
X173515500Y-36845000D03*
X132926100Y-34716800D03*
X84700400Y-94188500D03*
X160649200Y-37350600D03*
X143011300Y-94060800D03*
X148558700Y-57426200D03*
X151461300Y-42616300D03*
X182539800Y-43319800D03*
X172041300Y-94174600D03*
X118640300Y-121425500D03*
X146998900Y-41681100D03*
X176605800Y-44412000D03*
X169424000Y-76247000D03*
X179119700Y-42086400D03*
X166501800Y-76052900D03*
X114080600Y-103593300D03*
X142086100Y-41948800D03*
X171412800Y-103219300D03*
X181370000Y-37901900D03*
X174277600Y-103029000D03*
X181685400Y-34708200D03*
X91600600Y-85290400D03*
X126947800Y-42126500D03*
X174483700Y-121512800D03*
X185691300Y-36837100D03*
X180986500Y-45979400D03*
X173965300Y-93910800D03*
X171618700Y-38498700D03*
X166696500Y-67288000D03*
X140399400Y-41684700D03*
X115164800Y-76136700D03*
X124094400Y-42166100D03*
X84108500Y-85290400D03*
X188462000Y-34708800D03*
X195920000Y-67276400D03*
X173289900Y-42536500D03*
X172738900Y-67287100D03*
X140667600Y-110440600D03*
X165552000Y-37344300D03*
X177689900Y-41678500D03*
X174409100Y-76136600D03*
X141906800Y-36933500D03*
X115416800Y-103658900D03*
X172603200Y-103212500D03*
X181573000Y-41747000D03*
X116413200Y-44623000D03*
X87684300Y-67292500D03*
X123117400Y-34704700D03*
X92690700Y-57993200D03*
X118302500Y-85368900D03*
X139893900Y-44130300D03*
X147699500Y-38861900D03*
X114559500Y-110867200D03*
X113678300Y-121445700D03*
X146039800Y-41685500D03*
X86997100Y-57725400D03*
X124348700Y-34719700D03*
X145998900Y-36838300D03*
X114682100Y-121288900D03*
X89849000Y-67546100D03*
X109253000Y-48317800D03*
X170117300Y-112062700D03*
X184099800Y-39219700D03*
X160793900Y-39055900D03*
X137906500Y-94038300D03*
X172036800Y-76288900D03*
X177592200Y-42432900D03*
X140446500Y-139310100D03*
X163162200Y-49685200D03*
X172231700Y-42060600D03*
X167877400Y-67287400D03*
X170413200Y-41692200D03*
X145205500Y-129265500D03*
X117393000Y-75790000D03*
X139712000Y-42156400D03*
X160736200Y-43495000D03*
X141465800Y-93505000D03*
X87112700Y-93761000D03*
X132084200Y-34709200D03*
X167597700Y-103218900D03*
X179137600Y-52240700D03*
X121506900Y-38697100D03*
X84134000Y-57995900D03*
X166927800Y-42698900D03*
X142199300Y-112166400D03*
X147161100Y-103335900D03*
X161910800Y-34712100D03*
X139204900Y-38437800D03*
X117896200Y-76138900D03*
X140503800Y-37300000D03*
X114135100Y-76327100D03*
X180888800Y-47032900D03*
X170299400Y-103218300D03*
X172884000Y-121353900D03*
X184966000Y-42428600D03*
X138377800Y-103434000D03*
X159815500Y-50465500D03*
X115343500Y-67574200D03*
X133998900Y-37797300D03*
X117379500Y-85439500D03*
X138498900Y-36853800D03*
X126907000Y-44427500D03*
X88496500Y-94148600D03*
X188126200Y-36837300D03*
X192347700Y-67284800D03*
X89842400Y-57723900D03*
X123583500Y-36924100D03*
X120032400Y-67203800D03*
X135098900Y-34712600D03*
X112290300Y-103427900D03*
X141260100Y-36844200D03*
X171930900Y-67438200D03*
X172883300Y-36826600D03*
X143580000Y-129320000D03*
X170246600Y-34717600D03*
X174998900Y-39060300D03*
X167602800Y-57980100D03*
X170241100Y-36837700D03*
X146032700Y-130189800D03*
X161528900Y-41678000D03*
X146197500Y-103564400D03*
X99525200Y-101334600D03*
X130998900Y-37295500D03*
X145443100Y-37137300D03*
X112290300Y-121439600D03*
X140868600Y-94083800D03*
X162133800Y-37999200D03*
X137094700Y-36825200D03*
X112486300Y-85430700D03*
X131498900Y-37652400D03*
X91907100Y-93990800D03*
X142881000Y-37531400D03*
X117838900Y-103539900D03*
X141162600Y-47375900D03*
X112686500Y-94153600D03*
X141927800Y-85334500D03*
X156386600Y-36835700D03*
X145183600Y-103359100D03*
X161405200Y-36830800D03*
X163155800Y-42535400D03*
X137227600Y-122770200D03*
X147305900Y-94192200D03*
X161998900Y-39569300D03*
X165998900Y-43693300D03*
X147890100Y-112055400D03*
X147934900Y-37950000D03*
X111020300Y-112127600D03*
X119910300Y-112125200D03*
X147150600Y-42981000D03*
X147667300Y-128255300D03*
X169601800Y-42213000D03*
X147619800Y-36843200D03*
X118301700Y-112061800D03*
X90388200Y-85031900D03*
X126332300Y-34700900D03*
X136667300Y-43525700D03*
X111020300Y-85426800D03*
X166286700Y-45551500D03*
X146427500Y-110921100D03*
X178227500Y-34718600D03*
X173317800Y-76320500D03*
X182680900Y-42500600D03*
X166332800Y-93914300D03*
X153315200Y-41707900D03*
X137881500Y-85350500D03*
X182575200Y-43941400D03*
X165455000Y-121383300D03*
X172748900Y-85354300D03*
X177548600Y-39563300D03*
X162059100Y-36896900D03*
X146090200Y-94261800D03*
X145526500Y-139338400D03*
X168952800Y-46172800D03*
X158929300Y-34713600D03*
X140993200Y-76223400D03*
X116732500Y-58408700D03*
X136066900Y-36886900D03*
X179498900Y-37977700D03*
X165899200Y-76065500D03*
X86511500Y-49293000D03*
X116943400Y-35123000D03*
X143419000Y-43838900D03*
X120551700Y-94389100D03*
X168493900Y-43752400D03*
X142267500Y-129250000D03*
X142819800Y-36828600D03*
X119738900Y-103190400D03*
X125540500Y-37819400D03*
X88237500Y-85290400D03*
X120015900Y-93545800D03*
X143903800Y-34719100D03*
X127921600Y-43452600D03*
X83441700Y-104700000D03*
X165069700Y-111316000D03*
X187498900Y-41685600D03*
X170317200Y-85350400D03*
X177060900Y-41677200D03*
X177583300Y-36826800D03*
X174593200Y-85622100D03*
X165899200Y-57994400D03*
X175452700Y-36826400D03*
X125492200Y-43264900D03*
X89214000Y-85291100D03*
X165899200Y-67288800D03*
X170589700Y-43281600D03*
X174484700Y-36852100D03*
X170333800Y-57977700D03*
X149998900Y-37233900D03*
X142251500Y-67601400D03*
X166715300Y-121367200D03*
X183691600Y-37464000D03*
X142261900Y-38254500D03*
X114159900Y-94358700D03*
X167387100Y-41781700D03*
X139637200Y-112133100D03*
X142275600Y-39517400D03*
X116419300Y-103421500D03*
X170783500Y-76165200D03*
X177736100Y-37439000D03*
X185020000Y-37226000D03*
X171824600Y-121375200D03*
X169327200Y-39042600D03*
X144256500Y-139349600D03*
X146779400Y-36826300D03*
X120546800Y-121699700D03*
X134641000Y-42221400D03*
X120354200Y-58208400D03*
X160498900Y-41703100D03*
X140446500Y-103357000D03*
X169218400Y-67289700D03*
X172241400Y-38659100D03*
X141632400Y-46324200D03*
X115042800Y-94146200D03*
X131998900Y-36829400D03*
X89214000Y-93977500D03*
X132526600Y-39264200D03*
X92211800Y-102172000D03*
X130580600Y-42443000D03*
X91755800Y-92905900D03*
X168014700Y-37211200D03*
X139043100Y-137320300D03*
X90615100Y-82064900D03*
X125539400Y-42362300D03*
X144750500Y-94178400D03*
X162132900Y-41686500D03*
X89048800Y-67288100D03*
X122338400Y-34704700D03*
X168100100Y-94013200D03*
X182854900Y-37830400D03*
X131660800Y-41831300D03*
X93622700Y-94210800D03*
X145964800Y-112103400D03*
X166185400Y-34708200D03*
X170142800Y-93898200D03*
X182421300Y-38789500D03*
X137906500Y-112032000D03*
X167498900Y-36843300D03*
X145495400Y-121351800D03*
X165403700Y-44288500D03*
X90935100Y-74591100D03*
X122486000Y-45171600D03*
X129498900Y-38406900D03*
X85404000Y-103272500D03*
X135606600Y-37638500D03*
X116124400Y-57501200D03*
X143177500Y-38721700D03*
X111495500Y-94235500D03*
X144122700Y-124385800D03*
X171478200Y-36843400D03*
X159905400Y-39500700D03*
X142199300Y-103460000D03*
X123286800Y-43259600D03*
X88443500Y-76104100D03*
X137886600Y-37021400D03*
X115345400Y-85428700D03*
X176312300Y-45347100D03*
X164950500Y-85362200D03*
X157317700Y-45347600D03*
X140290900Y-76060300D03*
X157952300Y-36871000D03*
X145433400Y-76044500D03*
X113053900Y-67492400D03*
X133254700Y-36825700D03*
X137959000Y-58129000D03*
X152825600Y-36838800D03*
X120328200Y-76076700D03*
X139206400Y-39569400D03*
X86461100Y-67293800D03*
X121102200Y-36827200D03*
X117370300Y-67441200D03*
X134527100Y-37254800D03*
X116100300Y-85419400D03*
X138260600Y-43922400D03*
X111020300Y-103427900D03*
X138251200Y-46823000D03*
X179968700Y-36847800D03*
X166706100Y-103209000D03*
X140849700Y-121364000D03*
X164135300Y-42098500D03*
X167718600Y-76056000D03*
X179062700Y-39066300D03*
X150734600Y-41678700D03*
X147023000Y-65815700D03*
X93600800Y-76199000D03*
X127498900Y-41676300D03*
X169235200Y-57994100D03*
X174150200Y-49209300D03*
X138870400Y-67431800D03*
X149496700Y-36843100D03*
X89665400Y-103371600D03*
X130439100Y-41763600D03*
X122929800Y-38470500D03*
X85760600Y-57994100D03*
X165598100Y-94064900D03*
X183498900Y-36850500D03*
X186201400Y-38417400D03*
X167637300Y-112053000D03*
X124481700Y-38266700D03*
X85404000Y-85277000D03*
X94138300Y-57994100D03*
X121994200Y-39434800D03*
X158661200Y-36833300D03*
X143371200Y-76078400D03*
X147023000Y-67434600D03*
X151094600Y-38837500D03*
X122491800Y-42186500D03*
X92782600Y-67277300D03*
X146848100Y-139353000D03*
X169735700Y-38017000D03*
X184703700Y-47202200D03*
X168093100Y-121474500D03*
X168872800Y-93908300D03*
X182838900Y-41686200D03*
X169452000Y-121557100D03*
X184566200Y-36825800D03*
X158253300Y-42760600D03*
X144256500Y-76061700D03*
X139438700Y-103366000D03*
X158161800Y-38496900D03*
X167529200Y-47538600D03*
X143313200Y-139352900D03*
X148171800Y-44053500D03*
X117289400Y-112069600D03*
X126936300Y-36835800D03*
X99828300Y-83481700D03*
X122091200Y-36828700D03*
X91604300Y-67287400D03*
X168872800Y-85350400D03*
X176498900Y-36837300D03*
X87172200Y-103402300D03*
X130080800Y-43473800D03*
X151998900Y-41687300D03*
X144256500Y-58145000D03*
X142986500Y-85362000D03*
X156534000Y-41991100D03*
X120589800Y-39556500D03*
X117725800Y-39414500D03*
X90484000Y-75996900D03*
X127133600Y-39567100D03*
X167998900Y-41697800D03*
X137213000Y-140076700D03*
X145498900Y-42009100D03*
X111613900Y-121651600D03*
X113216000Y-57835900D03*
X131007700Y-39474700D03*
X142330900Y-58389600D03*
X150280100Y-43812200D03*
X134988100Y-41678100D03*
X118538200Y-67404100D03*
X159601900Y-46406100D03*
X139518800Y-94050200D03*
X175998900Y-37209300D03*
X166509200Y-85350700D03*
X87120000Y-76055900D03*
X126301300Y-37352200D03*
X144846500Y-124378800D03*
X171117000Y-34691300D03*
X143123100Y-67423500D03*
X150086000Y-39564100D03*
X153530900Y-36830700D03*
X139665500Y-85471500D03*
X175034200Y-110303400D03*
X185864400Y-44411500D03*
X142188700Y-139463400D03*
X168608600Y-36935800D03*
X173042100Y-112063600D03*
X185754000Y-37555000D03*
X170695600Y-66001700D03*
X172230400Y-42729600D03*
X140050000Y-36887800D03*
X116102000Y-76122100D03*
X143901300Y-42723500D03*
X120013600Y-92659700D03*
X116509900Y-112184800D03*
X147930500Y-34716500D03*
X149870000Y-42035500D03*
X141302500Y-67242200D03*
X140148300Y-129250000D03*
X168182200Y-44292900D03*
X89013600Y-49294900D03*
X117766000Y-36829400D03*
X155800300Y-44925000D03*
X145300200Y-85351100D03*
X136883400Y-34719000D03*
X118745100Y-54864100D03*
X137998900Y-43331900D03*
X113560300Y-85422900D03*
X140960100Y-85506300D03*
X155309400Y-41526200D03*
X135456100Y-36851200D03*
X120019900Y-57164200D03*
X144256500Y-85358500D03*
X155246100Y-40348100D03*
X169132700Y-132745900D03*
X200501000Y-124071400D03*
X167600000Y-132900000D03*
X192700000Y-125000000D03*
X174400000Y-132800000D03*
X199391000Y-124192200D03*
X165096300Y-132741000D03*
X196907600Y-125917400D03*
X171900000Y-132900000D03*
X196091300Y-127165000D03*
X170541000Y-132737000D03*
X197189800Y-125225300D03*
X197839700Y-124122700D03*
X195665200Y-127591100D03*
X172800000Y-132700000D03*
X166332800Y-132728200D03*
X170411800Y-144364800D03*
X168067600Y-141935900D03*
X173485300Y-144105700D03*
X201515100Y-112193700D03*
X195327700Y-119069800D03*
X192222200Y-132728100D03*
X193285000Y-132732300D03*
X195825000Y-132752900D03*
X171214000Y-142030200D03*
X172574200Y-142527100D03*
X199436000Y-112063900D03*
X194555000Y-132736000D03*
X197161500Y-132739800D03*
X199635000Y-132748200D03*
X165649200Y-141843600D03*
X169105100Y-143780000D03*
X151092900Y-103160900D03*
X97366500Y-87953900D03*
X182676800Y-106139700D03*
X104738900Y-129878200D03*
X204451700Y-139208600D03*
X205006100Y-88510100D03*
X95139800Y-130005100D03*
X117249500Y-109233100D03*
X97051400Y-129879900D03*
X124601200Y-88749200D03*
X150149500Y-85354200D03*
X98571200Y-74909600D03*
X107060000Y-128862300D03*
X204089500Y-103390300D03*
X204780200Y-70504500D03*
X97853600Y-106103300D03*
X103789500Y-128098700D03*
X97779100Y-53724300D03*
X164158900Y-109633300D03*
X110164300Y-129598200D03*
X151644800Y-97137200D03*
X151065300Y-73828900D03*
X203756900Y-121364400D03*
X150252900Y-139358300D03*
X119131500Y-126348700D03*
X124175300Y-70713000D03*
X89988100Y-39970000D03*
X200425200Y-87998200D03*
X205248200Y-99603300D03*
X195037700Y-112068500D03*
X197240800Y-96830400D03*
X195919800Y-112048300D03*
X200784200Y-76055100D03*
X198898400Y-88781200D03*
X191422100Y-113470200D03*
X197189800Y-112063000D03*
X193960500Y-102401500D03*
X193960500Y-103431200D03*
X196965000Y-88185100D03*
X192343200Y-88196300D03*
X199010900Y-97287800D03*
X196328700Y-96750100D03*
X203593700Y-99324100D03*
X201415400Y-89960100D03*
X195193500Y-88025400D03*
X193117500Y-112055500D03*
X198262500Y-112044200D03*
X197190000Y-78897000D03*
X201566000Y-88004100D03*
X199707700Y-98342000D03*
X195265100Y-88861300D03*
X201072200Y-96867600D03*
X194476700Y-96740500D03*
X195036000Y-78870800D03*
X193871100Y-78782600D03*
X195920000Y-78882900D03*
X191406300Y-77250800D03*
D28*
X176492800Y-141392800D02*
X177500000Y-142400000D01*
X149336500Y-67171800D02*
X149336500Y-68850000D01*
X151876500Y-132873500D02*
X151840000Y-132910000D01*
X153146500Y-93953500D02*
X154200000Y-92900000D01*
X122450300Y-121220809D02*
X122782608Y-120888501D01*
X203987000Y-105072000D02*
X203540000Y-104625000D01*
X179032800Y-57432800D02*
X179000000Y-57400000D01*
D29*
X118560000Y-150392500D02*
X119692500Y-150392500D01*
D28*
X126260300Y-75639700D02*
X126300000Y-75600000D01*
D30*
X148067000Y-90400000D02*
X149137000Y-90400000D01*
X121180000Y-108400000D02*
X121180300Y-108400000D01*
X85278000Y-113392400D02*
X84007600Y-113392400D01*
D29*
X138880000Y-150392500D02*
X139992500Y-150392500D01*
D28*
X179032800Y-131325000D02*
X179032800Y-129512800D01*
X99374000Y-77400000D02*
X99374000Y-75926000D01*
X208619800Y-111619800D02*
X208600000Y-111600000D01*
X95564000Y-50700000D02*
X95564000Y-49164000D01*
D30*
X124990300Y-77550000D02*
X127527000Y-77550000D01*
X95444000Y-108250000D02*
X95494000Y-108300000D01*
X98104000Y-95400000D02*
X100644000Y-95400000D01*
X122230000Y-72400000D02*
X122280000Y-72450000D01*
X101500700Y-41400000D02*
X101588000Y-41487300D01*
D28*
X205985000Y-131325000D02*
X205985000Y-129315000D01*
D30*
X175222800Y-126400000D02*
X176400000Y-126400000D01*
D28*
X206080000Y-77470200D02*
X206080000Y-75820000D01*
D30*
X124990300Y-59550000D02*
X126260300Y-59550000D01*
X202270000Y-72400000D02*
X203320000Y-72400000D01*
D28*
X149336500Y-104770200D02*
X149739000Y-105172700D01*
D30*
X148066500Y-144175000D02*
X149155000Y-144175000D01*
D28*
X119998900Y-40622500D02*
X119998900Y-39693400D01*
D30*
X119760000Y-148155000D02*
X119800000Y-148195000D01*
D28*
X176492800Y-121207200D02*
X176500000Y-121200000D01*
X208525000Y-129325000D02*
X208500000Y-129300000D01*
D30*
X149137000Y-108400000D02*
X149159000Y-108422000D01*
D28*
X127530300Y-111830300D02*
X127500000Y-111800000D01*
X179032800Y-111532800D02*
X179000000Y-111500000D01*
X151876500Y-113470200D02*
X151876500Y-112005700D01*
X205985000Y-129315000D02*
X206000000Y-129300000D01*
D29*
X139992500Y-150392500D02*
X140000000Y-150400000D01*
D28*
X208620000Y-94183100D02*
X209203100Y-93600000D01*
D30*
X95444000Y-90250000D02*
X95494000Y-90300000D01*
X149155000Y-144175000D02*
X149160000Y-144170000D01*
X94294000Y-72250000D02*
X95344000Y-72250000D01*
D28*
X151876500Y-75976500D02*
X149200000Y-73300000D01*
D30*
X148100000Y-72400000D02*
X149200000Y-72400000D01*
D29*
X149040000Y-150392500D02*
X150224087Y-150392500D01*
X133800000Y-150392500D02*
X134992500Y-150392500D01*
D30*
X202200000Y-144150000D02*
X202208000Y-144150000D01*
X180302800Y-77470200D02*
X179032800Y-77470200D01*
D28*
X208620000Y-77470200D02*
X208620000Y-75820000D01*
D29*
X99492500Y-150392500D02*
X99500000Y-150400000D01*
D30*
X151876500Y-131325000D02*
X153146500Y-131325000D01*
D28*
X208620000Y-75820000D02*
X208600000Y-75800000D01*
D30*
X175223000Y-108175000D02*
X176293000Y-108175000D01*
D28*
X150041301Y-88500000D02*
X150833400Y-88500000D01*
D30*
X151876500Y-77470200D02*
X153146500Y-77470200D01*
D28*
X122450300Y-104060110D02*
X124355205Y-102155205D01*
X95564000Y-66464000D02*
X95203645Y-66103645D01*
D30*
X203250000Y-126350000D02*
X203300000Y-126400000D01*
D28*
X149296300Y-67131600D02*
X149336500Y-67171800D01*
D30*
X121180000Y-90400000D02*
X121180300Y-90400000D01*
D29*
X103320000Y-150392500D02*
X104492500Y-150392500D01*
D30*
X119760000Y-146400000D02*
X119760000Y-148155000D01*
D28*
X126260300Y-77550000D02*
X126260300Y-75639700D01*
X206080000Y-94027391D02*
X206470599Y-93636792D01*
D30*
X176340000Y-72320250D02*
X176362000Y-72342250D01*
X121180000Y-72400000D02*
X121180300Y-72400000D01*
D29*
X84092500Y-150392500D02*
X84100000Y-150400000D01*
D28*
X179032800Y-76445201D02*
X177987599Y-75400000D01*
D29*
X159200000Y-150392500D02*
X160392500Y-150392500D01*
D30*
X148066500Y-126372000D02*
X149129000Y-126372000D01*
X153146500Y-113470200D02*
X151876500Y-113470200D01*
D28*
X208619800Y-113470200D02*
X208619800Y-111619800D01*
D30*
X94294000Y-108250000D02*
X95444000Y-108250000D01*
D28*
X119528100Y-36701600D02*
X119528100Y-37295900D01*
D30*
X202200000Y-126350000D02*
X203250000Y-126350000D01*
D28*
X119998900Y-35772500D02*
X119998900Y-36701600D01*
X206080000Y-75820000D02*
X206100000Y-75800000D01*
X122897300Y-87297000D02*
X122450300Y-86850000D01*
X206080000Y-57620000D02*
X206100000Y-57600000D01*
D30*
X175270000Y-72320250D02*
X176340000Y-72320250D01*
D29*
X128720000Y-149420000D02*
X128300000Y-149000000D01*
D28*
X95564000Y-103136000D02*
X95600000Y-103100000D01*
D30*
X153146500Y-59550000D02*
X151876500Y-59550000D01*
X203350000Y-90350000D02*
X203400000Y-90400000D01*
X180302800Y-59400000D02*
X179032800Y-59400000D01*
D28*
X114680000Y-129720000D02*
X114700000Y-129700000D01*
D30*
X202805000Y-108320250D02*
X203340000Y-108320250D01*
D29*
X123640000Y-150392500D02*
X124803755Y-150392500D01*
D28*
X149739000Y-105172700D02*
X149739000Y-107842000D01*
X98104000Y-95400000D02*
X98104000Y-93716400D01*
D29*
X108400000Y-150392500D02*
X109592500Y-150392500D01*
D28*
X122230000Y-90400000D02*
X122897300Y-89732700D01*
D30*
X100644000Y-41400000D02*
X101500700Y-41400000D01*
D28*
X176788100Y-103097600D02*
X176492800Y-103392900D01*
D30*
X148067000Y-108400000D02*
X149137000Y-108400000D01*
D28*
X122450300Y-122850000D02*
X122450300Y-121220809D01*
X122230000Y-72400000D02*
X122897300Y-71732700D01*
D30*
X94294000Y-54250000D02*
X95344000Y-54250000D01*
D28*
X176492800Y-122770200D02*
X176492800Y-121207200D01*
X119498900Y-39693400D02*
X119998900Y-39693400D01*
X151876500Y-131325000D02*
X151876500Y-132873500D01*
D30*
X203320000Y-72400000D02*
X203370000Y-72350000D01*
D28*
X176492800Y-103392900D02*
X176492800Y-104625000D01*
D30*
X121180300Y-72400000D02*
X122230000Y-72400000D01*
X149137000Y-90400000D02*
X149159000Y-90422000D01*
D28*
X179032800Y-59400000D02*
X179032800Y-57432800D01*
X202270000Y-108320250D02*
X202269800Y-108320250D01*
X203340000Y-108320000D02*
X203987000Y-107673000D01*
D30*
X94294000Y-90250000D02*
X95444000Y-90250000D01*
X121180300Y-108400000D02*
X122330000Y-108400000D01*
X99374000Y-59400000D02*
X100644000Y-59400000D01*
D28*
X119528100Y-39664200D02*
X119498900Y-39693400D01*
X126260300Y-57660300D02*
X126200000Y-57600000D01*
X149731000Y-124400000D02*
X149731000Y-125770000D01*
X153146500Y-95470200D02*
X153146500Y-93953500D01*
X95564000Y-104700000D02*
X95564000Y-103136000D01*
X175223000Y-108175000D02*
X175222800Y-108175000D01*
D29*
X154120000Y-150392500D02*
X155392500Y-150392500D01*
D28*
X175222800Y-126175000D02*
X175223000Y-126174800D01*
D29*
X98240000Y-150392500D02*
X99492500Y-150392500D01*
D28*
X151876500Y-112005700D02*
X151370800Y-111500000D01*
X149336500Y-124005500D02*
X149731000Y-124400000D01*
D29*
X113480000Y-150392500D02*
X114592500Y-150392500D01*
D30*
X84007600Y-113392400D02*
X84000000Y-113400000D01*
D28*
X153146500Y-59550000D02*
X153146500Y-60901600D01*
D30*
X176293000Y-108175000D02*
X176315000Y-108197000D01*
X101473300Y-59400000D02*
X101473400Y-59400100D01*
X122230000Y-90400000D02*
X122280000Y-90450000D01*
D28*
X149336500Y-139496500D02*
X148770000Y-138930000D01*
D30*
X98104000Y-59400000D02*
X99374000Y-59400000D01*
X124990300Y-95550000D02*
X127530300Y-95550000D01*
D28*
X98104000Y-93716400D02*
X97887600Y-93500000D01*
X119498900Y-35772500D02*
X119498900Y-36701600D01*
X206080000Y-59400000D02*
X206080000Y-57620000D01*
X202208000Y-144178000D02*
X202208000Y-144150000D01*
D30*
X122330000Y-108400000D02*
X122380000Y-108450000D01*
X99374000Y-41400000D02*
X100644000Y-41400000D01*
D29*
X109592500Y-150392500D02*
X109600000Y-150400000D01*
D30*
X121180300Y-126400000D02*
X122330000Y-126400000D01*
X202208000Y-144150000D02*
X203271000Y-144150000D01*
D29*
X104492500Y-150392500D02*
X104500000Y-150400000D01*
D28*
X176308000Y-144169000D02*
X176286000Y-144147000D01*
D30*
X203340000Y-108320250D02*
X203362000Y-108342250D01*
D28*
X149336500Y-122770200D02*
X149336500Y-124005500D01*
X149739000Y-107842000D02*
X149159000Y-108422000D01*
D30*
X98104000Y-77400000D02*
X100644000Y-77400000D01*
D28*
X148067000Y-108400000D02*
X148066500Y-108400000D01*
D30*
X95344000Y-72250000D02*
X95394000Y-72300000D01*
D29*
X143960000Y-150392500D02*
X145092500Y-150392500D01*
D28*
X149336500Y-86770200D02*
X149336500Y-87795199D01*
D29*
X94392500Y-150392500D02*
X94400000Y-150400000D01*
D28*
X203293000Y-144171900D02*
X203271100Y-144150000D01*
X149731000Y-125770000D02*
X149129000Y-126372000D01*
X179032800Y-129512800D02*
X178874200Y-129354200D01*
D30*
X151876500Y-95470200D02*
X153146500Y-95470200D01*
D29*
X160392500Y-150392500D02*
X160400000Y-150400000D01*
X203445000Y-140625000D02*
X203445000Y-139045000D01*
X134992500Y-150392500D02*
X135000000Y-150400000D01*
D28*
X126260300Y-59550000D02*
X126260300Y-57660300D01*
X206079800Y-111421092D02*
X205447800Y-110789092D01*
X99374000Y-75926000D02*
X100000000Y-75300000D01*
X95564000Y-68700000D02*
X95564000Y-66464000D01*
X179032800Y-113470200D02*
X179032800Y-111532800D01*
X179032800Y-97668607D02*
X179361801Y-97997608D01*
X148067000Y-90400000D02*
X148066500Y-90400000D01*
X175222800Y-144175000D02*
X175222800Y-144147000D01*
X179032800Y-95325000D02*
X179032800Y-97668607D01*
X179032800Y-77470200D02*
X179032800Y-76445201D01*
X149336500Y-140625000D02*
X149336500Y-139496500D01*
X154200000Y-92900000D02*
X155599800Y-92900000D01*
X203540000Y-67160000D02*
X203600000Y-67100000D01*
X153146500Y-60901600D02*
X152800000Y-61248100D01*
X122897300Y-71732700D02*
X122897300Y-70500000D01*
X181572800Y-129529900D02*
X181748500Y-129354200D01*
X203271100Y-144150000D02*
X203271000Y-144150000D01*
X122450300Y-70053000D02*
X122897300Y-70500000D01*
X175223000Y-126174800D02*
X175223000Y-126147000D01*
D30*
X176250000Y-90350000D02*
X176300000Y-90400000D01*
D28*
X208620000Y-95325000D02*
X208620000Y-94183100D01*
D30*
X202270000Y-108320250D02*
X202805000Y-108320250D01*
D28*
X151876500Y-77470200D02*
X151876500Y-75976500D01*
X208620000Y-57620000D02*
X208600000Y-57600000D01*
X119998900Y-36701600D02*
X119528100Y-36701600D01*
D30*
X175200000Y-90350000D02*
X176250000Y-90350000D01*
X179032800Y-95325000D02*
X180302800Y-95325000D01*
D28*
X127530300Y-113550000D02*
X127530300Y-111830300D01*
X122450300Y-68850000D02*
X122450300Y-70053000D01*
D29*
X88080000Y-150392500D02*
X89292500Y-150392500D01*
D28*
X181572800Y-111545705D02*
X181548500Y-111521405D01*
X95564000Y-85036000D02*
X95600000Y-85000000D01*
D29*
X155392500Y-150392500D02*
X155400000Y-150400000D01*
D28*
X126260300Y-94439700D02*
X127000000Y-93700000D01*
D30*
X126260300Y-59550000D02*
X127530300Y-59550000D01*
D28*
X149151000Y-126394000D02*
X149129000Y-126372000D01*
X114680000Y-131160000D02*
X114680000Y-129720000D01*
D30*
X175222800Y-144147000D02*
X176286000Y-144147000D01*
D28*
X206080000Y-95325000D02*
X206080000Y-94027391D01*
D30*
X100644000Y-59400000D02*
X101473300Y-59400000D01*
X121180000Y-126400000D02*
X121180300Y-126400000D01*
D28*
X95564000Y-49164000D02*
X95169795Y-48769795D01*
D29*
X114592500Y-150392500D02*
X114600000Y-150400000D01*
X145092500Y-150392500D02*
X145100000Y-150400000D01*
D28*
X181572800Y-131325000D02*
X181572800Y-129529900D01*
X203539800Y-122123766D02*
X202865333Y-121449299D01*
X203540000Y-85304100D02*
X203535900Y-85300000D01*
X95564000Y-86700000D02*
X95564000Y-85036000D01*
X149336500Y-87795199D02*
X150041301Y-88500000D01*
D30*
X148059000Y-126372000D02*
X148066500Y-126372000D01*
X95344000Y-54250000D02*
X95394000Y-54200000D01*
D29*
X83000000Y-150392500D02*
X84092500Y-150392500D01*
D28*
X181572800Y-113470200D02*
X181572800Y-111545705D01*
X176492800Y-87292800D02*
X177700000Y-88500000D01*
X126260300Y-95550000D02*
X126260300Y-94439700D01*
X203540000Y-86770200D02*
X203540000Y-85304100D01*
X122897300Y-89732700D02*
X122897300Y-87297000D01*
X119528100Y-37295900D02*
X119528100Y-39664200D01*
X176492800Y-68033500D02*
X175862800Y-67403500D01*
D30*
X202270000Y-90350000D02*
X203350000Y-90350000D01*
D28*
X149200000Y-73300000D02*
X149200000Y-72400000D01*
D29*
X150224087Y-150392500D02*
X150247163Y-150415576D01*
D30*
X124990300Y-113550000D02*
X127530300Y-113550000D01*
D28*
X119528100Y-36701600D02*
X119498900Y-36701600D01*
D29*
X89292500Y-150392500D02*
X89300000Y-150400000D01*
D28*
X119498900Y-40622500D02*
X119498900Y-39693400D01*
D29*
X119692500Y-150392500D02*
X119700000Y-150400000D01*
D30*
X175215000Y-144147000D02*
X175222800Y-144147000D01*
D28*
X208525000Y-131325000D02*
X208525000Y-129325000D01*
D29*
X124803755Y-150392500D02*
X124911855Y-150500600D01*
D28*
X208620000Y-59400000D02*
X208620000Y-57620000D01*
D30*
X121180300Y-90400000D02*
X122230000Y-90400000D01*
D28*
X206079800Y-113470200D02*
X206079800Y-111421092D01*
D29*
X128720000Y-150392500D02*
X128720000Y-149420000D01*
D28*
X203540000Y-68700000D02*
X203540000Y-67160000D01*
X148066500Y-126400000D02*
X148066500Y-126372000D01*
D29*
X203445000Y-139045000D02*
X203400000Y-139000000D01*
D30*
X122330000Y-126400000D02*
X122380000Y-126350000D01*
D29*
X93160000Y-150392500D02*
X94392500Y-150392500D01*
D28*
X177987599Y-75400000D02*
X176640100Y-75400000D01*
X203987000Y-107673000D02*
X203987000Y-105072000D01*
D30*
X98104000Y-41400000D02*
X99374000Y-41400000D01*
X121180000Y-69850000D02*
X121180000Y-70850000D01*
X176265000Y-124850000D02*
X176315000Y-124900000D01*
D28*
X121180000Y-105850000D02*
X121180300Y-105849700D01*
D30*
X203221000Y-142600000D02*
X203293000Y-142671900D01*
D28*
X118406400Y-39600900D02*
X118498900Y-39693400D01*
D30*
X175270000Y-68770250D02*
X175270000Y-70770250D01*
X94294000Y-50700000D02*
X94294000Y-52700000D01*
D28*
X148066500Y-106110000D02*
X148066500Y-106850000D01*
D30*
X148100000Y-70850000D02*
X149150000Y-70850000D01*
D28*
X175222800Y-123122800D02*
X175222800Y-122625000D01*
X118498900Y-35772500D02*
X118498900Y-36701600D01*
D30*
X202175000Y-142595000D02*
X202208000Y-142628000D01*
D28*
X148067000Y-88111700D02*
X148066500Y-88112200D01*
D30*
X148066500Y-142625000D02*
X149105000Y-142625000D01*
D28*
X148066500Y-124480500D02*
X148066500Y-124850000D01*
D30*
X94294000Y-88700000D02*
X95394000Y-88700000D01*
X176290000Y-70770250D02*
X176362000Y-70842250D01*
X202270000Y-88800000D02*
X203400000Y-88800000D01*
D28*
X181922000Y-77121000D02*
X182584400Y-77121000D01*
X180302800Y-129357000D02*
X180300000Y-129354200D01*
X180302800Y-113470200D02*
X180302800Y-111202800D01*
X155206200Y-112711400D02*
X155175300Y-112711400D01*
X118406400Y-37392300D02*
X118498900Y-37299800D01*
D30*
X148067000Y-124850000D02*
X149107000Y-124850000D01*
D28*
X121180000Y-123850000D02*
X121180300Y-123849700D01*
X207349800Y-113470200D02*
X207349800Y-111750200D01*
X154726100Y-77160600D02*
X154416500Y-77470200D01*
X148067000Y-105369000D02*
X148066500Y-105368500D01*
X121180000Y-69850000D02*
X121180300Y-69849700D01*
D30*
X175223000Y-123123000D02*
X175223000Y-123860000D01*
X121180000Y-86850000D02*
X121180000Y-87850000D01*
D28*
X202200000Y-141097700D02*
X202208000Y-141089700D01*
D30*
X175222800Y-86770250D02*
X175222800Y-88777200D01*
D28*
X121180000Y-87850000D02*
X121180300Y-87849700D01*
X148067000Y-106109500D02*
X148066500Y-106110000D01*
D30*
X121180300Y-70850000D02*
X122280000Y-70850000D01*
X94294000Y-68700000D02*
X94294000Y-70700000D01*
X175223000Y-105884500D02*
X175223000Y-106625000D01*
X175223000Y-122597000D02*
X175223000Y-123123000D01*
D28*
X154970500Y-94916200D02*
X154416500Y-95470200D01*
X207350000Y-59400000D02*
X207350000Y-57650000D01*
X155605300Y-94916200D02*
X154970500Y-94916200D01*
X180302800Y-131325000D02*
X180302800Y-129357000D01*
D30*
X202200000Y-124800000D02*
X203300000Y-124800000D01*
D28*
X118406400Y-37392300D02*
X118406400Y-39600900D01*
X148066500Y-88112200D02*
X148066500Y-88850000D01*
X180302800Y-111202800D02*
X180244195Y-111144195D01*
D30*
X116440000Y-146400000D02*
X117220000Y-146400000D01*
X121180000Y-70850000D02*
X121180300Y-70850000D01*
X148067000Y-86850000D02*
X148067000Y-87369000D01*
X149087000Y-106850000D02*
X149159000Y-106922000D01*
D28*
X148067000Y-124109500D02*
X148066500Y-124110000D01*
D30*
X121180000Y-124850000D02*
X121180300Y-124850000D01*
D28*
X148066500Y-88481300D02*
X148066500Y-88850000D01*
D30*
X176264000Y-142625000D02*
X176308000Y-142669000D01*
X202269800Y-122770250D02*
X202269800Y-124730200D01*
D28*
X175222800Y-105884700D02*
X175222800Y-106625000D01*
D30*
X203334000Y-106770250D02*
X203362000Y-106742250D01*
D28*
X121180300Y-123849700D02*
X121180300Y-122850000D01*
X175222800Y-123860200D02*
X175222800Y-124625000D01*
X117220000Y-132575600D02*
X117220000Y-131160000D01*
X181572800Y-96776700D02*
X181572800Y-95325000D01*
D30*
X149087000Y-88850000D02*
X149159000Y-88922000D01*
D28*
X148067000Y-123369000D02*
X148066500Y-123368500D01*
X155175300Y-112711400D02*
X154416500Y-113470200D01*
X118998900Y-36701600D02*
X118498900Y-36701600D01*
X207255000Y-131325000D02*
X207255000Y-129345000D01*
D30*
X94294000Y-52700000D02*
X95294000Y-52700000D01*
D28*
X175223000Y-105144000D02*
X175222800Y-105143800D01*
D30*
X148067000Y-88111700D02*
X148067000Y-88850000D01*
X148067000Y-87369000D02*
X148067000Y-88111700D01*
X148067000Y-104850000D02*
X148067000Y-105369000D01*
X148067000Y-106850000D02*
X149087000Y-106850000D01*
X202269800Y-124730200D02*
X202200000Y-124800000D01*
D28*
X175223000Y-123860000D02*
X175222800Y-123860200D01*
D30*
X148067000Y-88850000D02*
X149087000Y-88850000D01*
D28*
X154416500Y-59550000D02*
X154416500Y-58051100D01*
D30*
X121180300Y-124850000D02*
X122380000Y-124850000D01*
X148066500Y-140625000D02*
X148066500Y-142625000D01*
X149150000Y-70850000D02*
X149200000Y-70900000D01*
D28*
X175223000Y-105884500D02*
X175222800Y-105884700D01*
D30*
X148066500Y-68850000D02*
X148066500Y-70816500D01*
D28*
X181515600Y-96833900D02*
X181572800Y-96776700D01*
D30*
X202236000Y-142600000D02*
X203221000Y-142600000D01*
X202270000Y-106770050D02*
X202269800Y-106770250D01*
D28*
X154416500Y-129638800D02*
X154027700Y-129250000D01*
D30*
X121180000Y-104850000D02*
X121180000Y-105850000D01*
X94294000Y-106700000D02*
X94294000Y-104700000D01*
X88228000Y-113392400D02*
X89492400Y-113392400D01*
X175223000Y-106625000D02*
X176243000Y-106625000D01*
X148067000Y-123369000D02*
X148067000Y-124109500D01*
X121180300Y-88850000D02*
X122280000Y-88850000D01*
D28*
X148066500Y-123368500D02*
X148066500Y-122850000D01*
X207350000Y-92757391D02*
X207903599Y-92203792D01*
X207349800Y-111750200D02*
X207500000Y-111600000D01*
D30*
X148067000Y-124109500D02*
X148067000Y-124850000D01*
X148067000Y-122850000D02*
X148067000Y-123369000D01*
X175223000Y-123860000D02*
X175223000Y-124597000D01*
D28*
X207350000Y-57650000D02*
X207400000Y-57600000D01*
D30*
X176243000Y-106625000D02*
X176315000Y-106697000D01*
D28*
X118998900Y-40622500D02*
X118998900Y-39693400D01*
X175222800Y-105143800D02*
X175222800Y-104625000D01*
X148067000Y-87369000D02*
X148066500Y-87368500D01*
X202236000Y-142600000D02*
X202208000Y-142628000D01*
D30*
X94294000Y-70700000D02*
X95394000Y-70700000D01*
D28*
X121180300Y-69849700D02*
X121180300Y-68850000D01*
X118498900Y-37299800D02*
X118498900Y-36701600D01*
X207255000Y-129345000D02*
X207300000Y-129300000D01*
X148066500Y-87368500D02*
X148066500Y-86850000D01*
D30*
X202270000Y-70850000D02*
X203470000Y-70850000D01*
X121180000Y-123850000D02*
X121180000Y-124850000D01*
D28*
X154416500Y-131325000D02*
X154416500Y-129638800D01*
D30*
X202270000Y-106770250D02*
X203334000Y-106770250D01*
X175222800Y-140625000D02*
X175222800Y-142625000D01*
X121180000Y-105850000D02*
X121180000Y-106850000D01*
X117220000Y-146400000D02*
X117220000Y-148190000D01*
X175223000Y-142625000D02*
X176264000Y-142625000D01*
X149105000Y-142625000D02*
X149120000Y-142640000D01*
D28*
X181647000Y-59325800D02*
X182584400Y-59325800D01*
D30*
X202200000Y-142600000D02*
X202236000Y-142600000D01*
D28*
X89500000Y-113400000D02*
X89492400Y-113392400D01*
D30*
X121180000Y-106850000D02*
X121180300Y-106850000D01*
X94294000Y-88700000D02*
X94294000Y-86700000D01*
D28*
X175223000Y-123123000D02*
X175222800Y-123122800D01*
X154416500Y-58051100D02*
X154410300Y-58044900D01*
X118498900Y-40622500D02*
X118498900Y-39693400D01*
D30*
X175222800Y-88777200D02*
X175200000Y-88800000D01*
X94294000Y-106700000D02*
X95494000Y-106700000D01*
D28*
X148067000Y-106480000D02*
X148066500Y-106480500D01*
X148066500Y-106480500D02*
X148066500Y-106850000D01*
X207350000Y-95325000D02*
X207350000Y-92757391D01*
D30*
X148067000Y-106109500D02*
X148067000Y-106850000D01*
D28*
X207350000Y-92750000D02*
X207350000Y-95325000D01*
D30*
X121180000Y-122850000D02*
X121180000Y-123850000D01*
X202270000Y-68850000D02*
X202270000Y-70850000D01*
D28*
X148066500Y-124110000D02*
X148066500Y-124850000D01*
X118998900Y-35772500D02*
X118998900Y-36701600D01*
D30*
X175222800Y-124850000D02*
X176265000Y-124850000D01*
X121180300Y-106850000D02*
X122280000Y-106850000D01*
D28*
X121180300Y-105849700D02*
X121180300Y-104850000D01*
D30*
X175223000Y-105144000D02*
X175223000Y-105884500D01*
D28*
X118498900Y-39693400D02*
X118998900Y-39693400D01*
D30*
X148066500Y-70816500D02*
X148100000Y-70850000D01*
D28*
X121180300Y-87849700D02*
X121180300Y-86850000D01*
D30*
X149107000Y-124850000D02*
X149151000Y-124894000D01*
D28*
X148066500Y-105368500D02*
X148066500Y-104850000D01*
X155207600Y-77160600D02*
X154726100Y-77160600D01*
X207350000Y-78974000D02*
X207350000Y-77470200D01*
D30*
X121180000Y-68850000D02*
X121180000Y-69850000D01*
X175200000Y-88800000D02*
X176300000Y-88800000D01*
X121180000Y-88850000D02*
X121180300Y-88850000D01*
X121180000Y-87850000D02*
X121180000Y-88850000D01*
X202270000Y-86770250D02*
X202270000Y-88800000D01*
D28*
X148067000Y-88480800D02*
X148066500Y-88481300D01*
D30*
X202175000Y-140625000D02*
X202175000Y-142595000D01*
X175223000Y-104625000D02*
X175223000Y-105144000D01*
X148067000Y-105369000D02*
X148067000Y-106109500D01*
D28*
X181572800Y-77470200D02*
X181922000Y-77121000D01*
X148067000Y-124480000D02*
X148066500Y-124480500D01*
D30*
X202270000Y-104625000D02*
X202270000Y-106770050D01*
X175270000Y-70770250D02*
X176290000Y-70770250D01*
D31*
X83000000Y-155400000D02*
X82240400Y-154640400D01*
X82240400Y-152702100D02*
X83000000Y-151942500D01*
X82240400Y-154640400D02*
X82240400Y-152702100D01*
X183138100Y-76452900D02*
X180302800Y-73617600D01*
X89280000Y-122841000D02*
X99374000Y-112747000D01*
X89280000Y-131160000D02*
X89280000Y-122841000D01*
X153448000Y-121353100D02*
X153448000Y-122468700D01*
X182102100Y-115197900D02*
X181194900Y-116105100D01*
X207350000Y-106050600D02*
X207350000Y-104625000D01*
X180302800Y-104625000D02*
X180302800Y-109462700D01*
X126260300Y-122850000D02*
X126260300Y-121444100D01*
X207255000Y-140625000D02*
X207255000Y-135698400D01*
X153146500Y-86368800D02*
X154205300Y-85310000D01*
X100653900Y-92565200D02*
X99374000Y-91285300D01*
X180858400Y-87325800D02*
X180858400Y-104069400D01*
X180858400Y-104069400D02*
X180302800Y-104625000D01*
X126260300Y-86850000D02*
X126260300Y-83495100D01*
X126402800Y-88253900D02*
X126260300Y-88111400D01*
X128061400Y-81694000D02*
X128061400Y-75974700D01*
X206709400Y-69854500D02*
X206709400Y-69340600D01*
X152916100Y-140539800D02*
X152916100Y-139351100D01*
X101515300Y-93426600D02*
X100653900Y-92565200D01*
X180302800Y-86770200D02*
X180302800Y-80442300D01*
X99374000Y-52109700D02*
X99374000Y-50700000D01*
X153146500Y-74155400D02*
X154216400Y-75225300D01*
X99374000Y-112747000D02*
X99374000Y-104700000D01*
X180302800Y-80442300D02*
X183138100Y-77607000D01*
X128095700Y-102704700D02*
X126260300Y-104540100D01*
X182102100Y-111262000D02*
X182102100Y-115197900D01*
X153146500Y-68850000D02*
X153146500Y-74155400D01*
X180302800Y-73617600D02*
X180302800Y-68700000D01*
X126260300Y-88111400D02*
X126260300Y-86850000D01*
X128061400Y-75974700D02*
X126260300Y-74173600D01*
X180302800Y-122243200D02*
X181194900Y-121351100D01*
X126260300Y-83495100D02*
X128061400Y-81694000D01*
X126260300Y-74173600D02*
X126260300Y-68850000D01*
X126260300Y-104850000D02*
X126260300Y-106253100D01*
X209393400Y-133560000D02*
X209393400Y-126443600D01*
X101515300Y-102087300D02*
X101515300Y-93426600D01*
X153448000Y-122468700D02*
X153146500Y-122770200D01*
X152077000Y-103050200D02*
X152305300Y-102821900D01*
X183138100Y-77607000D02*
X183138100Y-76452900D01*
X180302800Y-109462700D02*
X182102100Y-111262000D01*
X206864100Y-121446900D02*
X207349800Y-121932600D01*
X181194900Y-116105100D02*
X181194900Y-121351100D01*
X207350000Y-86770200D02*
X207350000Y-88192700D01*
X180946700Y-139461300D02*
X180302800Y-140105200D01*
X209393400Y-126443600D02*
X207349800Y-124400000D01*
X180302800Y-86770200D02*
X180858400Y-87325800D01*
X153146500Y-140770200D02*
X152916100Y-140539800D01*
X206709400Y-69340600D02*
X207350000Y-68700000D01*
X151731500Y-102704700D02*
X128095700Y-102704700D01*
X207255000Y-135698400D02*
X209393400Y-133560000D01*
X207349800Y-124400000D02*
X207349800Y-122770200D01*
X99374000Y-91285300D02*
X99374000Y-86700000D01*
X99374000Y-104228600D02*
X101515300Y-102087300D01*
X152077000Y-103050200D02*
X151731500Y-102704700D01*
X153146500Y-104119700D02*
X152077000Y-103050200D01*
X99374000Y-67279100D02*
X99369900Y-67275000D01*
X99374000Y-68700000D02*
X99374000Y-67279100D01*
X155096500Y-86114500D02*
X155072200Y-86114500D01*
X101215800Y-86128200D02*
X101215800Y-69271800D01*
X182440600Y-121962400D02*
X182448100Y-121962400D01*
X182380600Y-121962400D02*
X182440600Y-121962400D01*
X154581300Y-121362300D02*
X154416500Y-121527100D01*
X154416500Y-104770200D02*
X155101300Y-104770200D01*
X101820200Y-104440800D02*
X101820200Y-87876200D01*
X182440600Y-121962400D02*
X182440600Y-107438500D01*
X208620000Y-100281000D02*
X208620000Y-104625000D01*
X182102100Y-87299500D02*
X181572800Y-86770200D01*
X181572800Y-122770200D02*
X182380600Y-121962400D01*
X127530300Y-68850000D02*
X128381300Y-69701000D01*
X101561000Y-104700000D02*
X101796300Y-104935300D01*
X181572800Y-86770200D02*
X183443000Y-84900000D01*
X101561000Y-104700000D02*
X101820200Y-104440800D01*
X86740000Y-131160000D02*
X86740000Y-130031300D01*
X128085900Y-122294400D02*
X128214000Y-122294400D01*
X181572800Y-106570700D02*
X181572800Y-104625000D01*
X128381300Y-85999000D02*
X127530300Y-86850000D01*
X208525000Y-140625000D02*
X209698300Y-139451700D01*
X101337600Y-50571000D02*
X100773000Y-50571000D01*
X100644000Y-86700000D02*
X101215800Y-86128200D01*
X183443000Y-70570200D02*
X181572800Y-68700000D01*
X208649500Y-100251500D02*
X208620000Y-100281000D01*
X209305500Y-86084700D02*
X208620000Y-86770200D01*
X154416500Y-121527100D02*
X154416500Y-122770200D01*
X127530300Y-104850000D02*
X127971800Y-104850000D01*
X209698300Y-123848700D02*
X208619800Y-122770200D01*
X100644000Y-104700000D02*
X101561000Y-104700000D01*
X154416500Y-68850000D02*
X154416500Y-70451900D01*
X209184900Y-118060900D02*
X209184900Y-105189900D01*
X208619800Y-122770200D02*
X208619800Y-120843600D01*
X181572800Y-102227200D02*
X181572800Y-104625000D01*
X128381300Y-69701000D02*
X128381300Y-85999000D01*
X182448100Y-121962400D02*
X184675700Y-119734800D01*
X100644000Y-68700000D02*
X100644000Y-67435600D01*
X181572800Y-140625000D02*
X182252300Y-140625000D01*
X101820200Y-87876200D02*
X100644000Y-86700000D01*
X208094600Y-69948900D02*
X208620000Y-69423500D01*
X182102100Y-101697900D02*
X181572800Y-102227200D01*
X182440600Y-107438500D02*
X181572800Y-106570700D01*
X154416500Y-140770200D02*
X155030000Y-140156700D01*
X155030000Y-140156700D02*
X155095900Y-140156700D01*
X127971800Y-104850000D02*
X128214000Y-105092200D01*
X127530300Y-86850000D02*
X128214400Y-86850000D01*
X183443000Y-84900000D02*
X183443000Y-70570200D01*
X208619800Y-120843600D02*
X207511000Y-119734800D01*
X100644000Y-67435600D02*
X100787500Y-67292100D01*
X207511000Y-119734800D02*
X209184900Y-118060900D01*
X86740000Y-130031300D02*
X87568600Y-130031300D01*
X101215800Y-69271800D02*
X100644000Y-68700000D01*
X209184900Y-105189900D02*
X208620000Y-104625000D01*
X209698300Y-139451700D02*
X209698300Y-123848700D01*
X184675700Y-119734800D02*
X207511000Y-119734800D01*
X155072200Y-86114500D02*
X154416500Y-86770200D01*
X182102100Y-87299500D02*
X182102100Y-101697900D01*
X127530300Y-122850000D02*
X128085900Y-122294400D01*
X124990300Y-68850000D02*
X124990300Y-69966200D01*
X209088500Y-128008700D02*
X206079800Y-125000000D01*
X206080000Y-86473200D02*
X204999900Y-85393000D01*
X179032800Y-104625000D02*
X179032800Y-103216500D01*
X179032800Y-73243800D02*
X180878900Y-75089900D01*
X152439400Y-106639400D02*
X151876500Y-106076500D01*
X206001400Y-122691800D02*
X206001400Y-120211200D01*
X86740000Y-144640000D02*
X86700000Y-144600000D01*
X204411600Y-84804800D02*
X204163400Y-84804800D01*
X151876500Y-73141400D02*
X151684400Y-73333500D01*
X124990300Y-85503200D02*
X125056900Y-85436600D01*
X151438900Y-139399400D02*
X151876500Y-139837000D01*
X209088500Y-133000000D02*
X209088500Y-128008700D01*
X179032800Y-121755700D02*
X179032800Y-122770200D01*
X98104000Y-86700000D02*
X98104000Y-85438600D01*
X204999900Y-85393000D02*
X204411600Y-84804800D01*
X201358100Y-75236600D02*
X206080000Y-70514700D01*
X204999900Y-85393000D02*
X205043500Y-85349400D01*
X205917000Y-106242300D02*
X206080000Y-106079300D01*
X179032800Y-88195400D02*
X179032800Y-86770200D01*
X179426300Y-139235600D02*
X179032800Y-139629100D01*
X101210400Y-100481400D02*
X101210400Y-94374400D01*
X98104000Y-68700000D02*
X98104000Y-69980700D01*
X153825000Y-106639400D02*
X152439400Y-106639400D01*
X179032800Y-68700000D02*
X179032800Y-73243800D01*
X180878900Y-78523400D02*
X179032800Y-80369500D01*
X152028500Y-121258300D02*
X151876500Y-121410300D01*
X98104000Y-69980700D02*
X97747000Y-70337700D01*
X98104000Y-104700000D02*
X98104000Y-103587800D01*
X151876500Y-68850000D02*
X151876500Y-73141400D01*
X151876500Y-121410300D02*
X151876500Y-122770200D01*
X180878900Y-75089900D02*
X180878900Y-78523400D01*
X205985000Y-136103500D02*
X209088500Y-133000000D01*
X199112900Y-75236600D02*
X201358100Y-75236600D01*
X205985000Y-140625000D02*
X205985000Y-136103500D01*
X124990300Y-86850000D02*
X124990300Y-85503200D01*
X98104000Y-103587800D02*
X101210400Y-100481400D01*
X86740000Y-146400000D02*
X86740000Y-144640000D01*
X179032800Y-103216500D02*
X178425600Y-102609300D01*
X124990300Y-121664000D02*
X125212200Y-121442100D01*
X197902200Y-76447300D02*
X199112900Y-75236600D01*
X98104000Y-91268000D02*
X98104000Y-86700000D01*
X124990300Y-106169000D02*
X124990300Y-104850000D01*
X206079800Y-125000000D02*
X206079800Y-122770200D01*
X206080000Y-106079300D02*
X206080000Y-104625000D01*
X98104000Y-85438600D02*
X98252200Y-85290400D01*
X125078700Y-106257400D02*
X124990300Y-106169000D01*
X97595500Y-51970300D02*
X98104000Y-51461800D01*
X151876500Y-106076500D02*
X151876500Y-104770200D01*
X179032800Y-139629100D02*
X179032800Y-140625000D01*
X179427800Y-121360700D02*
X179032800Y-121755700D01*
X206080000Y-70514700D02*
X206080000Y-68700000D01*
X179032800Y-80369500D02*
X179032800Y-86770200D01*
X197902200Y-78543600D02*
X197902200Y-76447300D01*
X101210400Y-94374400D02*
X98104000Y-91268000D01*
X204163400Y-84804800D02*
X197902200Y-78543600D01*
X124990300Y-69966200D02*
X124701800Y-70254700D01*
X151876500Y-86075100D02*
X151057000Y-85255600D01*
X124990300Y-122850000D02*
X124990300Y-121664000D01*
X204790200Y-96750800D02*
X204810000Y-96731000D01*
X177762800Y-113470200D02*
X177534200Y-113698800D01*
X147394700Y-72867000D02*
X150606500Y-76078800D01*
X177762800Y-77831400D02*
X178832700Y-78901300D01*
X150032900Y-67861500D02*
X150032900Y-70945400D01*
X150606500Y-131470200D02*
X150606500Y-129153700D01*
X96834000Y-78944800D02*
X96834000Y-77400000D01*
X150606500Y-76078800D02*
X150606500Y-77470200D01*
X177762800Y-98966800D02*
X177762800Y-95325000D01*
X96834000Y-60806200D02*
X96834700Y-60806900D01*
X96834000Y-76646800D02*
X97343600Y-76137200D01*
X204810000Y-77470200D02*
X204810000Y-78842100D01*
X123720300Y-60961500D02*
X123720300Y-59550000D01*
X204810000Y-60826600D02*
X204810000Y-59400000D01*
X147394700Y-71979600D02*
X147394700Y-72867000D01*
X177534200Y-113698800D02*
X177534200Y-115282300D01*
X150606500Y-59550000D02*
X150606500Y-61136200D01*
X204438400Y-129907800D02*
X204715000Y-130184400D01*
X96834000Y-95077300D02*
X92469100Y-90712400D01*
X151272000Y-61801700D02*
X151272000Y-66622400D01*
X150606500Y-61136200D02*
X151272000Y-61801700D01*
X150143600Y-114813600D02*
X150606500Y-114350700D01*
X204809800Y-113470200D02*
X204809800Y-112227800D01*
X204810000Y-78842100D02*
X204773100Y-78879000D01*
X112140000Y-131160000D02*
X112140000Y-130031300D01*
X123727500Y-78957900D02*
X123727500Y-77557200D01*
X149353300Y-71625000D02*
X147749300Y-71625000D01*
X204809800Y-112227800D02*
X204640400Y-112058400D01*
X123720300Y-96961500D02*
X123720300Y-95550000D01*
X150032900Y-70945400D02*
X149353300Y-71625000D01*
X175990300Y-61527900D02*
X178763900Y-64301500D01*
X150606500Y-96774500D02*
X150830800Y-96998800D01*
X96834000Y-59400000D02*
X96834000Y-60806200D01*
X92469100Y-90712400D02*
X92469100Y-83309700D01*
X123720300Y-113550000D02*
X123720300Y-114958700D01*
X112856900Y-130031300D02*
X112914300Y-129973900D01*
X150606500Y-129153700D02*
X148922600Y-127469800D01*
X151272000Y-66622400D02*
X150032900Y-67861500D01*
X112140000Y-130031300D02*
X112856900Y-130031300D01*
X204810000Y-96731000D02*
X204810000Y-95325000D01*
X92469100Y-83309700D02*
X96834000Y-78944800D01*
X179915400Y-101119400D02*
X177762800Y-98966800D01*
X96834000Y-42824800D02*
X96834000Y-41400000D01*
X123720300Y-114958700D02*
X123734500Y-114972900D01*
X175990300Y-61527900D02*
X177762800Y-59755400D01*
X177762800Y-129943400D02*
X177762800Y-131325000D01*
X147749300Y-71625000D02*
X147394700Y-71979600D01*
X177738700Y-129919300D02*
X177762800Y-129943400D01*
X204715000Y-130184400D02*
X204715000Y-131325000D01*
X151272000Y-61801700D02*
X175716500Y-61801700D01*
X175716500Y-61801700D02*
X175990300Y-61527900D01*
X150606500Y-95470200D02*
X150606500Y-96774500D01*
X200869800Y-60803600D02*
X201000000Y-60673400D01*
X201000000Y-60673400D02*
X201000000Y-59400000D01*
X83000000Y-153825000D02*
X83664000Y-154489000D01*
X88193700Y-153711300D02*
X88193700Y-153001400D01*
X199730000Y-60812000D02*
X199730000Y-59400000D01*
X93160000Y-153825000D02*
X93824400Y-153160600D01*
X197963500Y-60693700D02*
X198460000Y-60197200D01*
X98240000Y-155400000D02*
X97509000Y-154669000D01*
X97509000Y-154669000D02*
X97509000Y-152673500D01*
X97509000Y-152673500D02*
X98240000Y-151942500D01*
X196947900Y-60825700D02*
X196947900Y-59642100D01*
X196947900Y-59642100D02*
X197190000Y-59400000D01*
X98240000Y-153825000D02*
X98904800Y-153160200D01*
X195735700Y-60808500D02*
X195920000Y-60624200D01*
X103320000Y-153825000D02*
X104441000Y-152704000D01*
X195920000Y-60624200D02*
X195920000Y-59400000D01*
X102584100Y-152678400D02*
X103320000Y-151942500D01*
X102584100Y-154664100D02*
X102584100Y-152678400D01*
X103320000Y-155400000D02*
X102584100Y-154664100D01*
X194650000Y-60807500D02*
X194650000Y-59400000D01*
X108400000Y-153825000D02*
X110968300Y-151256700D01*
X110968300Y-151256700D02*
X121973100Y-151256700D01*
X107695400Y-152647100D02*
X108400000Y-151942500D01*
X108400000Y-155400000D02*
X107695400Y-154695400D01*
X107695400Y-154695400D02*
X107695400Y-152647100D01*
X113480000Y-155400000D02*
X112726800Y-154646800D01*
X112726800Y-154646800D02*
X112726800Y-152695700D01*
X112726800Y-152695700D02*
X113480000Y-151942500D01*
X113480000Y-153825000D02*
X114991000Y-152314000D01*
X193380000Y-60750200D02*
X193380000Y-59400000D01*
X193322500Y-60807700D02*
X193380000Y-60750200D01*
X118560000Y-153825000D02*
X120075400Y-152309600D01*
X191414300Y-59298600D02*
X192008600Y-59298600D01*
X120075400Y-152309600D02*
X120075400Y-151863500D01*
X118560000Y-155400000D02*
X117800400Y-154640400D01*
X117800400Y-152702100D02*
X118560000Y-151942500D01*
X117800400Y-154640400D02*
X117800400Y-152702100D01*
X122911600Y-154671600D02*
X122911600Y-152670900D01*
X123640000Y-155400000D02*
X122911600Y-154671600D01*
X122911600Y-152670900D02*
X123640000Y-151942500D01*
X123640000Y-153825000D02*
X124317100Y-153147900D01*
X190133300Y-138743300D02*
X175991300Y-138743300D01*
X192015000Y-140625000D02*
X190133300Y-138743300D01*
X175991300Y-138743300D02*
X175837200Y-138897400D01*
X175837200Y-138897400D02*
X174553400Y-138897400D01*
X129479600Y-152702100D02*
X128720000Y-151942500D01*
X128720000Y-155400000D02*
X129479600Y-154640400D01*
X129479600Y-154640400D02*
X129479600Y-152702100D01*
X127988800Y-154556200D02*
X127988800Y-155784400D01*
X191311300Y-143788700D02*
X190425200Y-143788700D01*
X127988800Y-155784400D02*
X128431000Y-156226600D01*
X193285000Y-140625000D02*
X193285000Y-141815000D01*
X193285000Y-141815000D02*
X191311300Y-143788700D01*
X128720000Y-153825000D02*
X127988800Y-154556200D01*
X192667500Y-138438400D02*
X175654500Y-138438400D01*
X194555000Y-140325900D02*
X192667500Y-138438400D01*
X133800000Y-153825000D02*
X134469300Y-153155700D01*
X175654500Y-138438400D02*
X175649200Y-138443700D01*
X133090200Y-152652300D02*
X133800000Y-151942500D01*
X133090200Y-154690200D02*
X133090200Y-152652300D01*
X133800000Y-155400000D02*
X133090200Y-154690200D01*
X138392900Y-156078800D02*
X138152800Y-155838700D01*
X177238800Y-154879400D02*
X177238800Y-155509800D01*
X195825000Y-140935900D02*
X191289900Y-145471000D01*
X138152800Y-154552200D02*
X138880000Y-153825000D01*
X177238800Y-155509800D02*
X176669800Y-156078800D01*
X191289900Y-145471000D02*
X185619500Y-145471000D01*
X179970100Y-152148100D02*
X177238800Y-154879400D01*
X179970100Y-151120400D02*
X179970100Y-152148100D01*
X138152800Y-155838700D02*
X138152800Y-154552200D01*
X176669800Y-156078800D02*
X138392900Y-156078800D01*
X185619500Y-145471000D02*
X179970100Y-151120400D01*
X139639600Y-154640400D02*
X139639600Y-152702100D01*
X139639600Y-152702100D02*
X138880000Y-151942500D01*
X138880000Y-155400000D02*
X139639600Y-154640400D01*
X175059800Y-137863100D02*
X194658400Y-137863100D01*
X150524600Y-151092600D02*
X150862000Y-150755200D01*
X143960000Y-153825000D02*
X146692400Y-151092600D01*
X146692400Y-151092600D02*
X150524600Y-151092600D01*
X194658400Y-137863100D02*
X197095000Y-140299700D01*
X143960000Y-155400000D02*
X143251600Y-154691600D01*
X143251600Y-154691600D02*
X143251600Y-152650900D01*
X143251600Y-152650900D02*
X143960000Y-151942500D01*
X148312900Y-152669600D02*
X149040000Y-151942500D01*
X149040000Y-155400000D02*
X148312900Y-154672900D01*
X148312900Y-154672900D02*
X148312900Y-152669600D01*
X151620000Y-151245000D02*
X159636400Y-151245000D01*
X198365000Y-140935800D02*
X193081700Y-146219100D01*
X161162700Y-152771300D02*
X170271000Y-152771300D01*
X159636400Y-151245000D02*
X161162700Y-152771300D01*
X149040000Y-153825000D02*
X151620000Y-151245000D01*
X193081700Y-146219100D02*
X188309600Y-146219100D01*
X154120000Y-155400000D02*
X153393000Y-154673000D01*
X153393000Y-152669500D02*
X154120000Y-151942500D01*
X153393000Y-154673000D02*
X153393000Y-152669500D01*
X154120000Y-153825000D02*
X154120000Y-153364000D01*
X174503300Y-137304100D02*
X196701000Y-137304100D01*
X154120000Y-153364000D02*
X154494200Y-152989800D01*
X196701000Y-137304100D02*
X199635000Y-140238100D01*
X173457800Y-153825000D02*
X173511000Y-153771800D01*
X193854800Y-147982900D02*
X200905000Y-140932700D01*
X192060000Y-147982900D02*
X193854800Y-147982900D01*
X159200000Y-153825000D02*
X173457800Y-153825000D01*
X159200000Y-155400000D02*
X158440400Y-154640400D01*
X158440400Y-152702100D02*
X159200000Y-151942500D01*
X158440400Y-154640400D02*
X158440400Y-152702100D01*
X198989400Y-51016700D02*
X198989400Y-67959400D01*
X189498900Y-40622500D02*
X189498900Y-41526200D01*
X189498900Y-41526200D02*
X198989400Y-51016700D01*
X198989400Y-67959400D02*
X199730000Y-68700000D01*
X130998900Y-40622500D02*
X130998900Y-41526200D01*
X91754000Y-103288100D02*
X91754000Y-104700000D01*
X131047700Y-41575000D02*
X131047700Y-41682000D01*
X130998900Y-41526200D02*
X131047700Y-41575000D01*
X164998900Y-34868800D02*
X164996700Y-34868800D01*
X164998900Y-35772500D02*
X164998900Y-34868800D01*
X164996700Y-34868800D02*
X164833100Y-34705200D01*
X144701600Y-121388500D02*
X144256500Y-121833600D01*
X157498500Y-36676600D02*
X157498500Y-37281700D01*
X157498900Y-35772500D02*
X157498900Y-36676200D01*
X157498900Y-36676200D02*
X157498500Y-36676600D01*
X146796500Y-86048700D02*
X147327900Y-85517300D01*
X139034700Y-36712000D02*
X139034700Y-37199600D01*
X138998900Y-36676200D02*
X139034700Y-36712000D01*
X138998900Y-35772500D02*
X138998900Y-36676200D01*
X120493000Y-85657500D02*
X119910300Y-86240200D01*
X148974000Y-44411500D02*
X148974000Y-41551100D01*
X145922900Y-47462600D02*
X148974000Y-44411500D01*
X112290300Y-112131200D02*
X112290300Y-113550000D01*
X148974000Y-41551100D02*
X148998900Y-41526200D01*
X144962200Y-47462600D02*
X145922900Y-47462600D01*
X148998900Y-40622500D02*
X148998900Y-41526200D01*
X120646400Y-66653600D02*
X123700000Y-63600000D01*
X139400000Y-45600000D02*
X140998900Y-44001100D01*
X123700000Y-63600000D02*
X127400000Y-63600000D01*
X120646400Y-69678200D02*
X120646400Y-66653600D01*
X116384000Y-73940600D02*
X120646400Y-69678200D01*
X138763600Y-45600000D02*
X139400000Y-45600000D01*
X140998900Y-44001100D02*
X140998900Y-40622500D01*
X127400000Y-63600000D02*
X129303000Y-61697000D01*
X129303000Y-55060600D02*
X138763600Y-45600000D01*
X112290300Y-77211500D02*
X115561200Y-73940600D01*
X115561200Y-73940600D02*
X116384000Y-73940600D01*
X129303000Y-61697000D02*
X129303000Y-55060600D01*
X164998900Y-41526200D02*
X164906200Y-41618900D01*
X142986500Y-122770200D02*
X142986500Y-121538100D01*
X164906200Y-41618900D02*
X164906200Y-44786000D01*
X142986500Y-121538100D02*
X142814000Y-121365600D01*
X164998900Y-40622500D02*
X164998900Y-41526200D01*
X132998900Y-42077400D02*
X129451300Y-45625000D01*
X86088100Y-94206400D02*
X86088100Y-94715900D01*
X132998900Y-40622500D02*
X132998900Y-42077400D01*
X86088100Y-94715900D02*
X85404000Y-95400000D01*
X129451300Y-45625000D02*
X126131100Y-45625000D01*
X142986500Y-112079800D02*
X142986500Y-113470200D01*
X166175500Y-36676200D02*
X166020000Y-36831700D01*
X166498900Y-36676200D02*
X166175500Y-36676200D01*
X143015500Y-112050800D02*
X142986500Y-112079800D01*
X166498900Y-35772500D02*
X166498900Y-36676200D01*
X127498900Y-34767100D02*
X127434800Y-34703000D01*
X127498900Y-35772500D02*
X127498900Y-34767100D01*
X91803300Y-75985600D02*
X91754000Y-76034900D01*
X91754000Y-76034900D02*
X91754000Y-77400000D01*
X156908800Y-38043200D02*
X158131900Y-38043200D01*
X137906500Y-76075400D02*
X137906500Y-77470200D01*
X158131900Y-38043200D02*
X159498900Y-36676200D01*
X156769200Y-38182800D02*
X156908800Y-38043200D01*
X159498900Y-35772500D02*
X159498900Y-36676200D01*
X137930100Y-76051800D02*
X137906500Y-76075400D01*
X116589300Y-121550200D02*
X116100300Y-122039200D01*
X146498900Y-40622500D02*
X146498900Y-42080600D01*
X165044500Y-37130600D02*
X165044500Y-37518400D01*
X165498900Y-35772500D02*
X165498900Y-36676200D01*
X165498900Y-36676200D02*
X165044500Y-37130600D01*
X165044500Y-37518400D02*
X166407300Y-38881200D01*
X146485600Y-121358900D02*
X146796500Y-121669800D01*
X146796500Y-121669800D02*
X146796500Y-122770200D01*
X172682800Y-58019000D02*
X172706600Y-57995200D01*
X173998900Y-35772500D02*
X173998900Y-37980600D01*
X172682800Y-59400000D02*
X172682800Y-58019000D01*
X163909600Y-36765500D02*
X163909600Y-36939100D01*
X163998900Y-35772500D02*
X163998900Y-36676200D01*
X139176500Y-121359800D02*
X139176500Y-122770200D01*
X163998900Y-36676200D02*
X163909600Y-36765500D01*
X144256500Y-68850000D02*
X144256500Y-67805700D01*
X150498900Y-36676200D02*
X150577600Y-36754900D01*
X144256500Y-67805700D02*
X143884100Y-67433300D01*
X150577600Y-36754900D02*
X150577600Y-36916600D01*
X150498900Y-35772500D02*
X150498900Y-36676200D01*
X189498900Y-38937800D02*
X200371100Y-49810000D01*
X189498900Y-35772500D02*
X189498900Y-38937800D01*
X200371100Y-68071100D02*
X201000000Y-68700000D01*
X200371100Y-49810000D02*
X200371100Y-68071100D01*
X152816000Y-41565500D02*
X152816000Y-42334600D01*
X152998900Y-40622500D02*
X152998900Y-41382600D01*
X152816000Y-42334600D02*
X139176500Y-55974100D01*
X152998900Y-41382600D02*
X152816000Y-41565500D01*
X139176500Y-55974100D02*
X139176500Y-59550000D01*
X142836800Y-41688300D02*
X142998900Y-41526200D01*
X118640300Y-103313100D02*
X117838900Y-102511700D01*
X118640300Y-104850000D02*
X118640300Y-103313100D01*
X142998900Y-40622500D02*
X142998900Y-41526200D01*
X128998900Y-35772500D02*
X128998900Y-36676200D01*
X84134000Y-75976900D02*
X84134000Y-77400000D01*
X127796000Y-37879100D02*
X127751500Y-37879100D01*
X128998900Y-36676200D02*
X127796000Y-37879100D01*
X114830300Y-113550000D02*
X114830300Y-112421000D01*
X148040400Y-44833600D02*
X148669100Y-44204900D01*
X148669100Y-41696400D02*
X148498900Y-41526200D01*
X114830300Y-112421000D02*
X115120700Y-112130600D01*
X148669100Y-44204900D02*
X148669100Y-41696400D01*
X147478900Y-44833600D02*
X148040400Y-44833600D01*
X148498900Y-40622500D02*
X148498900Y-41526200D01*
X84134000Y-67345100D02*
X84134000Y-68700000D01*
X84197700Y-67281400D02*
X84134000Y-67345100D01*
X121498900Y-41526200D02*
X120837400Y-42187700D01*
X120837400Y-42187700D02*
X118588700Y-42187700D01*
X121498900Y-40622500D02*
X121498900Y-41526200D01*
X117370300Y-121428600D02*
X117370300Y-122850000D01*
X146376900Y-34868800D02*
X146209000Y-34700900D01*
X146498900Y-35772500D02*
X146498900Y-34868800D01*
X146498900Y-34868800D02*
X146376900Y-34868800D01*
X186998900Y-40622500D02*
X186998900Y-44237000D01*
X170451400Y-111017100D02*
X168872800Y-112595700D01*
X171203900Y-111017100D02*
X170451400Y-111017100D01*
X186998900Y-44237000D02*
X184834800Y-46401100D01*
X188998900Y-36676200D02*
X188905600Y-36676200D01*
X188998900Y-35772500D02*
X188998900Y-36676200D01*
X188905600Y-36676200D02*
X188745700Y-36836100D01*
X198460000Y-68700000D02*
X198460000Y-67384500D01*
X198460000Y-67384500D02*
X198368700Y-67293200D01*
X168872800Y-104625000D02*
X168872800Y-103342500D01*
X168872800Y-103342500D02*
X168994000Y-103221300D01*
X180498900Y-37228600D02*
X180082600Y-37644900D01*
X180498900Y-35772500D02*
X180498900Y-37228600D01*
X181998900Y-36676200D02*
X181898800Y-36676200D01*
X173239600Y-94768200D02*
X173239600Y-94107600D01*
X172682800Y-95325000D02*
X173239600Y-94768200D01*
X181898800Y-36676200D02*
X181741600Y-36833400D01*
X181998900Y-35772500D02*
X181998900Y-36676200D01*
X143998900Y-36676200D02*
X143789500Y-36676200D01*
X116100300Y-94437700D02*
X116394100Y-94143900D01*
X143998900Y-35772500D02*
X143998900Y-36676200D01*
X116100300Y-95550000D02*
X116100300Y-94437700D01*
X143789500Y-36676200D02*
X143639000Y-36826700D01*
X157998900Y-40622500D02*
X157998900Y-41526200D01*
X146796500Y-76192600D02*
X147023000Y-75966100D01*
X157998900Y-41526200D02*
X158091100Y-41618400D01*
X146796500Y-77470200D02*
X146796500Y-76192600D01*
X158091100Y-41618400D02*
X158091100Y-41799000D01*
X176998900Y-35772500D02*
X176998900Y-38839000D01*
X171412800Y-85346600D02*
X171412800Y-86770200D01*
X194650000Y-65369400D02*
X194650000Y-68700000D01*
X188498900Y-59218300D02*
X194650000Y-65369400D01*
X188498900Y-40622500D02*
X188498900Y-59218300D01*
X133998900Y-40622500D02*
X133998900Y-41526200D01*
X113560300Y-68850000D02*
X113560300Y-65832300D01*
X133882400Y-41642700D02*
X133998900Y-41526200D01*
X120342500Y-55678400D02*
X133882400Y-42138500D01*
X116272200Y-55678400D02*
X120342500Y-55678400D01*
X113004700Y-65276700D02*
X113004700Y-58524000D01*
X113560300Y-65832300D02*
X113004700Y-65276700D01*
X113661000Y-58289600D02*
X116272200Y-55678400D01*
X113239100Y-58289600D02*
X113661000Y-58289600D01*
X133882400Y-42138500D02*
X133882400Y-41642700D01*
X113004700Y-58524000D02*
X113239100Y-58289600D01*
X130060500Y-36737800D02*
X130060500Y-37820600D01*
X129998900Y-35772500D02*
X129998900Y-36676200D01*
X129998900Y-36676200D02*
X130060500Y-36737800D01*
X88396200Y-103347700D02*
X87944000Y-103799900D01*
X124498900Y-40622500D02*
X124498900Y-41641500D01*
X90435700Y-56349500D02*
X106473100Y-56349500D01*
X87944000Y-58841200D02*
X90435700Y-56349500D01*
X124498900Y-41641500D02*
X124464000Y-41676400D01*
X120998900Y-41526200D02*
X119114500Y-41526200D01*
X119114500Y-41526200D02*
X118959400Y-41681300D01*
X85860600Y-40064000D02*
X85404000Y-40520600D01*
X120998900Y-40622500D02*
X120998900Y-41526200D01*
X176498900Y-40622500D02*
X176498900Y-41661600D01*
X168183900Y-85559700D02*
X167602800Y-86140800D01*
X176498900Y-41661600D02*
X176458300Y-41702200D01*
X187498900Y-35772500D02*
X187498900Y-36676200D01*
X165062800Y-113470200D02*
X164006500Y-112413900D01*
X187479400Y-36676200D02*
X187316800Y-36838800D01*
X187498900Y-36676200D02*
X187479400Y-36676200D01*
X164006500Y-112413900D02*
X164006500Y-112379100D01*
X173998900Y-41989200D02*
X173808700Y-42179400D01*
X173952800Y-57974400D02*
X173952800Y-59400000D01*
X173998900Y-40622500D02*
X173998900Y-41989200D01*
X140802400Y-34868800D02*
X140633400Y-34699800D01*
X140998900Y-34868800D02*
X140802400Y-34868800D01*
X111424800Y-76168000D02*
X111020300Y-76572500D01*
X140998900Y-35772500D02*
X140998900Y-34868800D01*
X111020300Y-76572500D02*
X111020300Y-77550000D01*
X185998900Y-40622500D02*
X185998900Y-41526200D01*
X174215000Y-111995500D02*
X173952800Y-112257700D01*
X185959300Y-41565800D02*
X185959300Y-41686800D01*
X185998900Y-41526200D02*
X185959300Y-41565800D01*
X173952800Y-112257700D02*
X173952800Y-113470200D01*
X141865900Y-121351100D02*
X141716500Y-121500500D01*
X141716500Y-121500500D02*
X141716500Y-122770200D01*
X164498900Y-35772500D02*
X164498900Y-37205900D01*
X170661500Y-121509800D02*
X170142800Y-122028500D01*
X184998900Y-40622500D02*
X184998900Y-41678900D01*
X160998900Y-40622500D02*
X160998900Y-42545100D01*
X160998900Y-42545100D02*
X160752600Y-42791400D01*
X142986500Y-104770200D02*
X142986500Y-103349100D01*
X89754800Y-76135400D02*
X89214000Y-76676200D01*
X127998900Y-35772500D02*
X127998900Y-36676200D01*
X127998900Y-36676200D02*
X127856200Y-36676200D01*
X127856200Y-36676200D02*
X127707000Y-36825400D01*
X179998900Y-40622500D02*
X179998900Y-42079500D01*
X179998900Y-42079500D02*
X179103700Y-42974700D01*
X165485900Y-103269000D02*
X165062800Y-103692100D01*
X93648900Y-67531600D02*
X93024000Y-68156500D01*
X122998900Y-36676200D02*
X121676100Y-37999000D01*
X121287400Y-37999000D02*
X120204800Y-39081600D01*
X122998900Y-35772500D02*
X122998900Y-36676200D01*
X121676100Y-37999000D02*
X121287400Y-37999000D01*
X173515500Y-36692800D02*
X173515500Y-36845000D01*
X173577500Y-67281700D02*
X173952800Y-67657000D01*
X173498900Y-36676200D02*
X173515500Y-36692800D01*
X173952800Y-67657000D02*
X173952800Y-68700000D01*
X173498900Y-35772500D02*
X173498900Y-36676200D01*
X132998900Y-34868800D02*
X132926100Y-34796000D01*
X132998900Y-35772500D02*
X132998900Y-34868800D01*
X84134000Y-94754900D02*
X84700400Y-94188500D01*
X132926100Y-34796000D02*
X132926100Y-34716800D01*
X142986500Y-95470200D02*
X142986500Y-94085600D01*
X142986500Y-94085600D02*
X143011300Y-94060800D01*
X160649200Y-37350600D02*
X162247100Y-37350600D01*
X162498900Y-35772500D02*
X162498900Y-36676200D01*
X162512800Y-37084900D02*
X162512800Y-36690100D01*
X162247100Y-37350600D02*
X162512800Y-37084900D01*
X162512800Y-36690100D02*
X162498900Y-36676200D01*
X148558700Y-57426200D02*
X146796500Y-59188400D01*
X151461300Y-41563800D02*
X151461300Y-42616300D01*
X151498900Y-41526200D02*
X151461300Y-41563800D01*
X151498900Y-40622500D02*
X151498900Y-41526200D01*
X172041300Y-94174600D02*
X171412800Y-94803100D01*
X182205900Y-42985900D02*
X182539800Y-43319800D01*
X182205900Y-42334000D02*
X182205900Y-42985900D01*
X182498900Y-40622500D02*
X182385100Y-40736300D01*
X182385100Y-42154800D02*
X182205900Y-42334000D01*
X182385100Y-40736300D02*
X182385100Y-42154800D01*
X146998900Y-41681100D02*
X146998900Y-40622500D01*
X118640300Y-122850000D02*
X118640300Y-121425500D01*
X178998900Y-41526200D02*
X178633600Y-41891500D01*
X178998900Y-40622500D02*
X178998900Y-41526200D01*
X168872800Y-76798200D02*
X169424000Y-76247000D01*
X178633600Y-42384200D02*
X176605800Y-44412000D01*
X178633600Y-41891500D02*
X178633600Y-42384200D01*
X179498900Y-41707200D02*
X179119700Y-42086400D01*
X179498900Y-40622500D02*
X179498900Y-41707200D01*
X166501800Y-77301200D02*
X166501800Y-76052900D01*
X114080600Y-103593300D02*
X113560300Y-104113600D01*
X141998900Y-40622500D02*
X141998900Y-41861600D01*
X141998900Y-41861600D02*
X142086100Y-41948800D01*
X180998900Y-37530800D02*
X181370000Y-37901900D01*
X180998900Y-35772500D02*
X180998900Y-37530800D01*
X171412800Y-103219300D02*
X171412800Y-104625000D01*
X181498900Y-34868800D02*
X181524800Y-34868800D01*
X174277600Y-103029000D02*
X174277600Y-104300200D01*
X181498900Y-35772500D02*
X181498900Y-34868800D01*
X174277600Y-104300200D02*
X173952800Y-104625000D01*
X181524800Y-34868800D02*
X181685400Y-34708200D01*
X126998900Y-42075400D02*
X126947800Y-42126500D01*
X126998900Y-40622500D02*
X126998900Y-42075400D01*
X91754000Y-85443800D02*
X91600600Y-85290400D01*
X91754000Y-86700000D02*
X91754000Y-85443800D01*
X185498900Y-36676200D02*
X185530400Y-36676200D01*
X185498900Y-35772500D02*
X185498900Y-36676200D01*
X174483700Y-121512800D02*
X173952800Y-122043700D01*
X185530400Y-36676200D02*
X185691300Y-36837100D01*
X181573100Y-45392800D02*
X180986500Y-45979400D01*
X182026800Y-41554100D02*
X182026800Y-41971800D01*
X181573100Y-42425500D02*
X181573100Y-45392800D01*
X173952800Y-93923300D02*
X173965300Y-93910800D01*
X181998900Y-41526200D02*
X182026800Y-41554100D01*
X181998900Y-40622500D02*
X181998900Y-41526200D01*
X182026800Y-41971800D02*
X181573100Y-42425500D01*
X173952800Y-95325000D02*
X173952800Y-93923300D01*
X166696500Y-67288000D02*
X166332800Y-67651700D01*
X166332800Y-67651700D02*
X166332800Y-68700000D01*
X171998900Y-35772500D02*
X171998900Y-38118500D01*
X171998900Y-38118500D02*
X171618700Y-38498700D01*
X140498900Y-40622500D02*
X140498900Y-41585200D01*
X115164800Y-77215500D02*
X114830300Y-77550000D01*
X115164800Y-76136700D02*
X115164800Y-77215500D01*
X140498900Y-41585200D02*
X140399400Y-41684700D01*
X84134000Y-85315900D02*
X84134000Y-86700000D01*
X84108500Y-85290400D02*
X84134000Y-85315900D01*
X124859000Y-42166100D02*
X124094400Y-42166100D01*
X125498900Y-41526200D02*
X124859000Y-42166100D01*
X125498900Y-40622500D02*
X125498900Y-41526200D01*
X188498900Y-35772500D02*
X188498900Y-34868800D01*
X188462000Y-34831900D02*
X188462000Y-34708800D01*
X188498900Y-34868800D02*
X188462000Y-34831900D01*
X195920000Y-68700000D02*
X195920000Y-67276400D01*
X173498900Y-41847400D02*
X173289900Y-42056400D01*
X172738900Y-67287100D02*
X172738900Y-68643900D01*
X173289900Y-42056400D02*
X173289900Y-42536500D01*
X173498900Y-40622500D02*
X173498900Y-41847400D01*
X140667600Y-113249100D02*
X140667600Y-110440600D01*
X166330800Y-37344300D02*
X165552000Y-37344300D01*
X166998900Y-36676200D02*
X166330800Y-37344300D01*
X166998900Y-35772500D02*
X166998900Y-36676200D01*
X177998900Y-40622500D02*
X177998900Y-41526200D01*
X174409100Y-76136600D02*
X173952800Y-76592900D01*
X177998900Y-41526200D02*
X177842200Y-41526200D01*
X177842200Y-41526200D02*
X177689900Y-41678500D01*
X141998900Y-36676200D02*
X141906800Y-36768300D01*
X141998900Y-35772500D02*
X141998900Y-36676200D01*
X141906800Y-36768300D02*
X141906800Y-36933500D01*
X115416800Y-103658900D02*
X115416800Y-104263500D01*
X115416800Y-104263500D02*
X114830300Y-104850000D01*
X181573000Y-41600300D02*
X181573000Y-41747000D01*
X181498900Y-40622500D02*
X181498900Y-41526200D01*
X172682800Y-104625000D02*
X172682800Y-103292100D01*
X181498900Y-41526200D02*
X181573000Y-41600300D01*
X172682800Y-103292100D02*
X172603200Y-103212500D01*
X121998900Y-40622500D02*
X121998900Y-41526200D01*
X87684300Y-67292500D02*
X86674000Y-68302800D01*
X118902100Y-44623000D02*
X116413200Y-44623000D01*
X121998900Y-41526200D02*
X118902100Y-44623000D01*
X123498900Y-34868800D02*
X123281500Y-34868800D01*
X123281500Y-34868800D02*
X123117400Y-34704700D01*
X92690700Y-57993200D02*
X91754000Y-58929900D01*
X123498900Y-35772500D02*
X123498900Y-34868800D01*
X138998900Y-40622500D02*
X138998900Y-43235300D01*
X118640300Y-85706700D02*
X118302500Y-85368900D01*
X138998900Y-43235300D02*
X139893900Y-44130300D01*
X118640300Y-86850000D02*
X118640300Y-85706700D01*
X147481100Y-38643500D02*
X147481100Y-37694000D01*
X114559500Y-110867200D02*
X113560300Y-111866400D01*
X113560300Y-111866400D02*
X113560300Y-113550000D01*
X147481100Y-37694000D02*
X148498900Y-36676200D01*
X147699500Y-38861900D02*
X147481100Y-38643500D01*
X148498900Y-35772500D02*
X148498900Y-36676200D01*
X113678300Y-121445700D02*
X113560300Y-121563700D01*
X146039800Y-41567100D02*
X146039800Y-41685500D01*
X145998900Y-40622500D02*
X145998900Y-41526200D01*
X113560300Y-121563700D02*
X113560300Y-122850000D01*
X145998900Y-41526200D02*
X146039800Y-41567100D01*
X124498900Y-34868800D02*
X124497800Y-34868800D01*
X86997100Y-57725400D02*
X86674000Y-58048500D01*
X86674000Y-58048500D02*
X86674000Y-59400000D01*
X124498900Y-35772500D02*
X124498900Y-34868800D01*
X124497800Y-34868800D02*
X124348700Y-34719700D01*
X114830300Y-121437100D02*
X114682100Y-121288900D01*
X114830300Y-122850000D02*
X114830300Y-121437100D01*
X145998900Y-36838300D02*
X145998900Y-35772500D01*
X122498900Y-41526200D02*
X115707300Y-48317800D01*
X115707300Y-48317800D02*
X109253000Y-48317800D01*
X89849000Y-68065000D02*
X89214000Y-68700000D01*
X122498900Y-40622500D02*
X122498900Y-41526200D01*
X89849000Y-67546100D02*
X89849000Y-68065000D01*
X92395500Y-57165100D02*
X108360000Y-57165100D01*
X123998900Y-40622500D02*
X123998900Y-41526200D01*
X108360000Y-57165100D02*
X123998900Y-41526200D01*
X90484000Y-59076600D02*
X92395500Y-57165100D01*
X170142800Y-112088200D02*
X170117300Y-112062700D01*
X184736300Y-39219700D02*
X186498900Y-37457100D01*
X170142800Y-113470200D02*
X170142800Y-112088200D01*
X186498900Y-37457100D02*
X186498900Y-35772500D01*
X184099800Y-39219700D02*
X184736300Y-39219700D01*
X137906500Y-94038300D02*
X137906500Y-95470200D01*
X163455800Y-37389200D02*
X161789100Y-39055900D01*
X163498900Y-36676200D02*
X163455800Y-36719300D01*
X163455800Y-36719300D02*
X163455800Y-37389200D01*
X161789100Y-39055900D02*
X160793900Y-39055900D01*
X163498900Y-35772500D02*
X163498900Y-36676200D01*
X178498900Y-40622500D02*
X178498900Y-41526200D01*
X172036800Y-76288900D02*
X171412800Y-76912900D01*
X178498900Y-41526200D02*
X177592200Y-42432900D01*
X140446500Y-140770200D02*
X140446500Y-139310100D01*
X166813700Y-46033700D02*
X163162200Y-49685200D01*
X168498900Y-41886000D02*
X166813700Y-43571200D01*
X168498900Y-40622500D02*
X168498900Y-41886000D01*
X166813700Y-43571200D02*
X166813700Y-46033700D01*
X172498900Y-40622500D02*
X172498900Y-41793400D01*
X172498900Y-41793400D02*
X172231700Y-42060600D01*
X167877400Y-67287400D02*
X167602800Y-67562000D01*
X167602800Y-67562000D02*
X167602800Y-68700000D01*
X170498900Y-40622500D02*
X170498900Y-41606500D01*
X144256500Y-131470200D02*
X144256500Y-130214500D01*
X144256500Y-130214500D02*
X145205500Y-129265500D01*
X170498900Y-41606500D02*
X170413200Y-41692200D01*
X144256500Y-131325000D02*
X144256500Y-130214500D01*
X139712000Y-41666500D02*
X139712000Y-42156400D01*
X139998900Y-40622500D02*
X139998900Y-41379600D01*
X117393000Y-77527300D02*
X117393000Y-75790000D01*
X139998900Y-41379600D02*
X139712000Y-41666500D01*
X141465800Y-95219500D02*
X141716500Y-95470200D01*
X141465800Y-93505000D02*
X141465800Y-95219500D01*
X161030100Y-43495000D02*
X160736200Y-43495000D01*
X162998900Y-41526200D02*
X161030100Y-43495000D01*
X162998900Y-40622500D02*
X162998900Y-41526200D01*
X87112700Y-93761000D02*
X87112700Y-94961300D01*
X87112700Y-94961300D02*
X86674000Y-95400000D01*
X132498900Y-35772500D02*
X132498900Y-35123900D01*
X132498900Y-35123900D02*
X132084200Y-34709200D01*
X179137600Y-44135700D02*
X179137600Y-52240700D01*
X180498900Y-42774400D02*
X179137600Y-44135700D01*
X180498900Y-40622500D02*
X180498900Y-42774400D01*
X167602800Y-103224000D02*
X167597700Y-103218900D01*
X167602800Y-104625000D02*
X167602800Y-103224000D01*
X124998900Y-36676200D02*
X123904300Y-37770800D01*
X84134000Y-57995900D02*
X84134000Y-59400000D01*
X123904300Y-37770800D02*
X122433200Y-37770800D01*
X122433200Y-37770800D02*
X121506900Y-38697100D01*
X124998900Y-35772500D02*
X124998900Y-36676200D01*
X142199300Y-112166400D02*
X141716500Y-112649200D01*
X166998900Y-40622500D02*
X166998900Y-41526200D01*
X166998900Y-41526200D02*
X166927800Y-41597300D01*
X166927800Y-41597300D02*
X166927800Y-42698900D01*
X147161100Y-104405600D02*
X147161100Y-103335900D01*
X161754100Y-34868800D02*
X161910800Y-34712100D01*
X161498900Y-35772500D02*
X161498900Y-34868800D01*
X161498900Y-34868800D02*
X161754100Y-34868800D01*
X146796500Y-104770200D02*
X147161100Y-104405600D01*
X139498900Y-35772500D02*
X139498900Y-38143800D01*
X139498900Y-38143800D02*
X139204900Y-38437800D01*
X118640300Y-76883000D02*
X117896200Y-76138900D01*
X118005300Y-58537200D02*
X118005300Y-60477500D01*
X121507800Y-56710500D02*
X119832000Y-56710500D01*
X136498900Y-40622500D02*
X136498900Y-41719400D01*
X119832000Y-56710500D02*
X118005300Y-58537200D01*
X136498900Y-41719400D02*
X121507800Y-56710500D01*
X115800200Y-60823700D02*
X114830300Y-59853800D01*
X117659100Y-60823700D02*
X115800200Y-60823700D01*
X118005300Y-60477500D02*
X117659100Y-60823700D01*
X140503800Y-36681100D02*
X140503800Y-37300000D01*
X140498900Y-36676200D02*
X140503800Y-36681100D01*
X114135100Y-76327100D02*
X113560300Y-76901900D01*
X140498900Y-35772500D02*
X140498900Y-36676200D01*
X180998900Y-43024000D02*
X180526200Y-43496700D01*
X180998900Y-40622500D02*
X180998900Y-43024000D01*
X180526200Y-46670300D02*
X180888800Y-47032900D01*
X170142800Y-103374900D02*
X170142800Y-104625000D01*
X180526200Y-43496700D02*
X180526200Y-46670300D01*
X170299400Y-103218300D02*
X170142800Y-103374900D01*
X172682800Y-121555100D02*
X172682800Y-122770200D01*
X185498900Y-41895700D02*
X184966000Y-42428600D01*
X172884000Y-121353900D02*
X172682800Y-121555100D01*
X185498900Y-40622500D02*
X185498900Y-41895700D01*
X159998900Y-40622500D02*
X159998900Y-43053000D01*
X159998900Y-43053000D02*
X159148200Y-43903700D01*
X138377800Y-103434000D02*
X137906500Y-103905300D01*
X159148200Y-49798200D02*
X159815500Y-50465500D01*
X159148200Y-43903700D02*
X159148200Y-49798200D01*
X115343500Y-67574200D02*
X114830300Y-68087400D01*
X133998900Y-35772500D02*
X133998900Y-37797300D01*
X138541500Y-55275300D02*
X149278900Y-44537900D01*
X149498900Y-40622500D02*
X149498900Y-41526200D01*
X149278900Y-41746200D02*
X149498900Y-41526200D01*
X137906500Y-67754100D02*
X138541500Y-67119100D01*
X149278900Y-44537900D02*
X149278900Y-41746200D01*
X138541500Y-67119100D02*
X138541500Y-55275300D01*
X137906500Y-68850000D02*
X137906500Y-67754100D01*
X117370300Y-85448700D02*
X117379500Y-85439500D01*
X138498900Y-35772500D02*
X138498900Y-36853800D01*
X117370300Y-86850000D02*
X117370300Y-85448700D01*
X88496500Y-94148600D02*
X87944000Y-94701100D01*
X132498900Y-42128800D02*
X130200200Y-44427500D01*
X130200200Y-44427500D02*
X126907000Y-44427500D01*
X132498900Y-40622500D02*
X132498900Y-42128800D01*
X111655300Y-68215000D02*
X111655300Y-58620200D01*
X111020300Y-68850000D02*
X111655300Y-68215000D01*
X111655300Y-58620200D02*
X114902100Y-55373400D01*
X120212000Y-55373400D02*
X133498900Y-42086500D01*
X133498900Y-42086500D02*
X133498900Y-40622500D01*
X114902100Y-55373400D02*
X120212000Y-55373400D01*
X192347700Y-67284800D02*
X193380000Y-68317100D01*
X187998900Y-36710000D02*
X188126200Y-36837300D01*
X187998900Y-35772500D02*
X187998900Y-36710000D01*
X123998900Y-35772500D02*
X123998900Y-36676200D01*
X123831400Y-36676200D02*
X123583500Y-36924100D01*
X89214000Y-58352300D02*
X89214000Y-59400000D01*
X89842400Y-57723900D02*
X89214000Y-58352300D01*
X123998900Y-36676200D02*
X123831400Y-36676200D01*
X119910300Y-67325900D02*
X119910300Y-68850000D01*
X120032400Y-67203800D02*
X119910300Y-67325900D01*
X134998900Y-35772500D02*
X134998900Y-34868800D01*
X135098900Y-34768800D02*
X135098900Y-34712600D01*
X134998900Y-34868800D02*
X135098900Y-34768800D01*
X141498900Y-35772500D02*
X141498900Y-36676200D01*
X141428100Y-36676200D02*
X141260100Y-36844200D01*
X112290300Y-103427900D02*
X112290300Y-104850000D01*
X141498900Y-36676200D02*
X141428100Y-36676200D01*
X171930900Y-67438200D02*
X171412800Y-67956300D01*
X172998900Y-35772500D02*
X172998900Y-36711000D01*
X172998900Y-36711000D02*
X172883300Y-36826600D01*
X170498900Y-35772500D02*
X170498900Y-34868800D01*
X142986500Y-131325000D02*
X142986500Y-129913500D01*
X170397800Y-34868800D02*
X170246600Y-34717600D01*
X142986500Y-129913500D02*
X143580000Y-129320000D01*
X170498900Y-34868800D02*
X170397800Y-34868800D01*
X167602800Y-57980100D02*
X167602800Y-59400000D01*
X174998900Y-35772500D02*
X174998900Y-39060300D01*
X169998900Y-35772500D02*
X169998900Y-36676200D01*
X170079600Y-36676200D02*
X170241100Y-36837700D01*
X146032700Y-130189800D02*
X145526500Y-130696000D01*
X169998900Y-36676200D02*
X170079600Y-36676200D01*
X145526500Y-104235400D02*
X146197500Y-103564400D01*
X161498900Y-41648000D02*
X161528900Y-41678000D01*
X161498900Y-40622500D02*
X161498900Y-41648000D01*
X93024000Y-104407500D02*
X96096900Y-101334600D01*
X96096900Y-101334600D02*
X99525200Y-101334600D01*
X130998900Y-35772500D02*
X130998900Y-37295500D01*
X145443100Y-36732000D02*
X145443100Y-37137300D01*
X145498900Y-35772500D02*
X145498900Y-36676200D01*
X112290300Y-121439600D02*
X112290300Y-122850000D01*
X145498900Y-36676200D02*
X145443100Y-36732000D01*
X140868600Y-94083800D02*
X140446500Y-94505900D01*
X162998900Y-35772500D02*
X162998900Y-37134100D01*
X162998900Y-37134100D02*
X162133800Y-37999200D01*
X140446500Y-94505900D02*
X140446500Y-95470200D01*
X112486300Y-85430700D02*
X112290300Y-85626700D01*
X137243700Y-36676200D02*
X137094700Y-36825200D01*
X137498900Y-36676200D02*
X137243700Y-36676200D01*
X112290300Y-85626700D02*
X112290300Y-86850000D01*
X137498900Y-35772500D02*
X137498900Y-36676200D01*
X91754000Y-94143900D02*
X91754000Y-95400000D01*
X91907100Y-93990800D02*
X91754000Y-94143900D01*
X131498900Y-35772500D02*
X131498900Y-37652400D01*
X142498900Y-35772500D02*
X142498900Y-36507900D01*
X142498900Y-36507900D02*
X142366100Y-36640700D01*
X142366100Y-37016500D02*
X142881000Y-37531400D01*
X117370300Y-104008500D02*
X117838900Y-103539900D01*
X142366100Y-36640700D02*
X142366100Y-37016500D01*
X112686500Y-95153800D02*
X112290300Y-95550000D01*
X144998900Y-43649200D02*
X141272200Y-47375900D01*
X112686500Y-94153600D02*
X112686500Y-95153800D01*
X144998900Y-40622500D02*
X144998900Y-43649200D01*
X141272200Y-47375900D02*
X141162600Y-47375900D01*
X141927800Y-85334500D02*
X141927800Y-86558900D01*
X156498900Y-35772500D02*
X156498900Y-36676200D01*
X156498900Y-36676200D02*
X156386600Y-36788500D01*
X156386600Y-36788500D02*
X156386600Y-36835700D01*
X160998900Y-36676200D02*
X161250600Y-36676200D01*
X161250600Y-36676200D02*
X161405200Y-36830800D01*
X144256500Y-104286200D02*
X145183600Y-103359100D01*
X160998900Y-35772500D02*
X160998900Y-36676200D01*
X163998900Y-40622500D02*
X163998900Y-41526200D01*
X163998900Y-41526200D02*
X163155800Y-42369300D01*
X163155800Y-42369300D02*
X163155800Y-42535400D01*
X137906500Y-122770200D02*
X137227600Y-122770200D01*
X146796500Y-94701600D02*
X147305900Y-94192200D01*
X161998900Y-40622500D02*
X161998900Y-39569300D01*
X165998900Y-40622500D02*
X165998900Y-43693300D01*
X146796500Y-113149000D02*
X147890100Y-112055400D01*
X148998900Y-36886000D02*
X147934900Y-37950000D01*
X111020300Y-112127600D02*
X111020300Y-113550000D01*
X148998900Y-35772500D02*
X148998900Y-36886000D01*
X119910300Y-112125200D02*
X119910300Y-113550000D01*
X147498900Y-42632700D02*
X147150600Y-42981000D01*
X147498900Y-40622500D02*
X147498900Y-42632700D01*
X146796500Y-129126100D02*
X146796500Y-131470200D01*
X169959400Y-40662000D02*
X169959400Y-41855400D01*
X169959400Y-41855400D02*
X169601800Y-42213000D01*
X147667300Y-128255300D02*
X146796500Y-129126100D01*
X147498900Y-36676200D02*
X147619800Y-36797100D01*
X118640300Y-112400400D02*
X118640300Y-113550000D01*
X147498900Y-35772500D02*
X147498900Y-36676200D01*
X118301700Y-112061800D02*
X118640300Y-112400400D01*
X147619800Y-36797100D02*
X147619800Y-36843200D01*
X126498900Y-34867500D02*
X126332300Y-34700900D01*
X126498900Y-35772500D02*
X126498900Y-34867500D01*
X90484000Y-86700000D02*
X90484000Y-85127700D01*
X90484000Y-85127700D02*
X90388200Y-85031900D01*
X111020300Y-85426800D02*
X111020300Y-86850000D01*
X137498900Y-42694100D02*
X136667300Y-43525700D01*
X137498900Y-40622500D02*
X137498900Y-42694100D01*
X166498900Y-40622500D02*
X166498900Y-41526200D01*
X146427500Y-110921100D02*
X144256500Y-113092100D01*
X166463400Y-45374800D02*
X166286700Y-45551500D01*
X166498900Y-41526200D02*
X166463400Y-41561700D01*
X166463400Y-41561700D02*
X166463400Y-45374800D01*
X177998900Y-35772500D02*
X177998900Y-34868800D01*
X178077300Y-34868800D02*
X178227500Y-34718600D01*
X173317800Y-76320500D02*
X173317800Y-76835200D01*
X177998900Y-34868800D02*
X178077300Y-34868800D01*
X173317800Y-76835200D02*
X172682800Y-77470200D01*
X166332800Y-93914300D02*
X166332800Y-95325000D01*
X183498900Y-40622500D02*
X183498900Y-41682600D01*
X183498900Y-41682600D02*
X182680900Y-42500600D01*
X153498900Y-41526200D02*
X153496900Y-41526200D01*
X137906500Y-85375500D02*
X137881500Y-85350500D01*
X153498900Y-40622500D02*
X153498900Y-41526200D01*
X153496900Y-41526200D02*
X153315200Y-41707900D01*
X137906500Y-86770200D02*
X137906500Y-85375500D01*
X165455000Y-121383300D02*
X165062800Y-121775500D01*
X183998900Y-40622500D02*
X183998900Y-42517700D01*
X183998900Y-42517700D02*
X182575200Y-43941400D01*
X165062800Y-121775500D02*
X165062800Y-122770200D01*
X177498900Y-39718800D02*
X177548600Y-39669100D01*
X177498900Y-40622500D02*
X177498900Y-39718800D01*
X177548600Y-39669100D02*
X177548600Y-39563300D01*
X172682800Y-86770200D02*
X172682800Y-85420400D01*
X172682800Y-85420400D02*
X172748900Y-85354300D01*
X162059100Y-36736400D02*
X162059100Y-36896900D01*
X161998900Y-35772500D02*
X161998900Y-36676200D01*
X146090200Y-94261800D02*
X145526500Y-94825500D01*
X161998900Y-36676200D02*
X162059100Y-36736400D01*
X169148100Y-42099400D02*
X167710200Y-43537300D01*
X145526500Y-140770200D02*
X145526500Y-139338400D01*
X167710200Y-44930200D02*
X168952800Y-46172800D01*
X169498900Y-40622500D02*
X169498900Y-41526200D01*
X169148100Y-41877000D02*
X169148100Y-42099400D01*
X145526500Y-140625000D02*
X145526500Y-139338400D01*
X167710200Y-43537300D02*
X167710200Y-44930200D01*
X169498900Y-41526200D02*
X169148100Y-41877000D01*
X140446500Y-76770100D02*
X140993200Y-76223400D01*
X158998900Y-35772500D02*
X158998900Y-34868800D01*
X158929300Y-34799200D02*
X158929300Y-34713600D01*
X158998900Y-34868800D02*
X158929300Y-34799200D01*
X116100300Y-59040900D02*
X116732500Y-58408700D01*
X135998900Y-36676200D02*
X136066900Y-36744200D01*
X136066900Y-36744200D02*
X136066900Y-36886900D01*
X135998900Y-35772500D02*
X135998900Y-36676200D01*
X165062800Y-76901900D02*
X165899200Y-76065500D01*
X179498900Y-35772500D02*
X179498900Y-37977700D01*
X154226600Y-35290200D02*
X153805200Y-34868800D01*
X142986500Y-54657300D02*
X154226600Y-43417200D01*
X154226600Y-43417200D02*
X154226600Y-35290200D01*
X151998900Y-35772500D02*
X151998900Y-34868800D01*
X142986500Y-59550000D02*
X142986500Y-54657300D01*
X153805200Y-34868800D02*
X151998900Y-34868800D01*
X117197600Y-34868800D02*
X116943400Y-35123000D01*
X117498900Y-35772500D02*
X117498900Y-34868800D01*
X86511500Y-49293000D02*
X85404000Y-50400500D01*
X117498900Y-34868800D02*
X117197600Y-34868800D01*
X143498900Y-41526200D02*
X143419000Y-41606100D01*
X120551700Y-94389100D02*
X119910300Y-95030500D01*
X143419000Y-41606100D02*
X143419000Y-43838900D01*
X143498900Y-40622500D02*
X143498900Y-41526200D01*
X141716500Y-129801000D02*
X142267500Y-129250000D01*
X169044400Y-43752300D02*
X168493900Y-43752300D01*
X168493900Y-43752300D02*
X168493900Y-43752400D01*
X170998900Y-40622500D02*
X170998900Y-41797800D01*
X141716500Y-131325000D02*
X141716500Y-129801000D01*
X170998900Y-41797800D02*
X169044400Y-43752300D01*
X119910300Y-103361800D02*
X119910300Y-104850000D01*
X119738900Y-103190400D02*
X119910300Y-103361800D01*
X142972200Y-36676200D02*
X142819800Y-36828600D01*
X142998900Y-36676200D02*
X142972200Y-36676200D01*
X142998900Y-35772500D02*
X142998900Y-36676200D01*
X87944000Y-85583900D02*
X87944000Y-86700000D01*
X88237500Y-85290400D02*
X87944000Y-85583900D01*
X125998900Y-36676200D02*
X125540500Y-37134600D01*
X125998900Y-35772500D02*
X125998900Y-36676200D01*
X125540500Y-37134600D02*
X125540500Y-37819400D01*
X143498900Y-35772500D02*
X143498900Y-34868800D01*
X120015900Y-93545800D02*
X118640300Y-94921400D01*
X143498900Y-34868800D02*
X143754100Y-34868800D01*
X143754100Y-34868800D02*
X143903800Y-34719100D01*
X129498900Y-40622500D02*
X129498900Y-41875300D01*
X129498900Y-41875300D02*
X127921600Y-43452600D01*
X84134000Y-104700000D02*
X83441700Y-104700000D01*
X187498900Y-40622500D02*
X187498900Y-41685600D01*
X165069700Y-111316000D02*
X166332800Y-112579100D01*
X176998900Y-40622500D02*
X176998900Y-41526200D01*
X170142800Y-85524800D02*
X170142800Y-86770200D01*
X176998900Y-41526200D02*
X177060900Y-41588200D01*
X177060900Y-41588200D02*
X177060900Y-41677200D01*
X170317200Y-85350400D02*
X170142800Y-85524800D01*
X177498900Y-36742400D02*
X177583300Y-36826800D01*
X173952800Y-86262500D02*
X174593200Y-85622100D01*
X177498900Y-35772500D02*
X177498900Y-36742400D01*
X175452700Y-36722400D02*
X175452700Y-36826400D01*
X175498900Y-36676200D02*
X175452700Y-36722400D01*
X165062800Y-58830800D02*
X165899200Y-57994400D01*
X175498900Y-35772500D02*
X175498900Y-36676200D01*
X126077800Y-42203400D02*
X126498900Y-41782300D01*
X126498900Y-41782300D02*
X126498900Y-40622500D01*
X126077800Y-42679300D02*
X126077800Y-42203400D01*
X89214000Y-85291100D02*
X89214000Y-86700000D01*
X125492200Y-43264900D02*
X126077800Y-42679300D01*
X171777900Y-41747200D02*
X171777900Y-42093400D01*
X171777900Y-42093400D02*
X170589700Y-43281600D01*
X171998900Y-41526200D02*
X171777900Y-41747200D01*
X171998900Y-40622500D02*
X171998900Y-41526200D01*
X165062800Y-68125200D02*
X165899200Y-67288800D01*
X174498900Y-35772500D02*
X174498900Y-36676200D01*
X174484700Y-36690400D02*
X174484700Y-36852100D01*
X170333800Y-57977700D02*
X170333800Y-59209000D01*
X174498900Y-36676200D02*
X174484700Y-36690400D01*
X141716500Y-68850000D02*
X142251400Y-68315100D01*
X149998900Y-35772500D02*
X149998900Y-37233900D01*
X142251400Y-68315100D02*
X142251400Y-67601400D01*
X142251400Y-67601400D02*
X142251500Y-67601400D01*
X166332800Y-121749700D02*
X166332800Y-122770200D01*
X183998900Y-37156700D02*
X183691600Y-37464000D01*
X166715300Y-121367200D02*
X166332800Y-121749700D01*
X183998900Y-35772500D02*
X183998900Y-37156700D01*
X114159900Y-94358700D02*
X113560300Y-94958300D01*
X144498900Y-36676200D02*
X142920600Y-38254500D01*
X144498900Y-35772500D02*
X144498900Y-36676200D01*
X142920600Y-38254500D02*
X142261900Y-38254500D01*
X139176500Y-112593800D02*
X139637200Y-112133100D01*
X167498900Y-41669900D02*
X167387100Y-41781700D01*
X167498900Y-40622500D02*
X167498900Y-41669900D01*
X142477000Y-39718800D02*
X142275600Y-39517400D01*
X116419300Y-103421500D02*
X116419300Y-104531000D01*
X142498900Y-40622500D02*
X142498900Y-39718800D01*
X116419300Y-104531000D02*
X116100300Y-104850000D01*
X142498900Y-39718800D02*
X142477000Y-39718800D01*
X170142800Y-76805900D02*
X170783500Y-76165200D01*
X178498900Y-35772500D02*
X178498900Y-36676200D01*
X178498900Y-36676200D02*
X177736100Y-37439000D01*
X171824600Y-121375200D02*
X171412800Y-121787000D01*
X185020000Y-35793600D02*
X185020000Y-37226000D01*
X171412800Y-121787000D02*
X171412800Y-122770200D01*
X168998900Y-35772500D02*
X168998900Y-36676200D01*
X168998900Y-36676200D02*
X169062400Y-36739700D01*
X169062400Y-38777800D02*
X169327200Y-39042600D01*
X144256500Y-139349600D02*
X144256500Y-140770200D01*
X169062400Y-36739700D02*
X169062400Y-38777800D01*
X146998900Y-35772500D02*
X146998900Y-36676200D01*
X120546800Y-121699700D02*
X119910300Y-122336200D01*
X146998900Y-36676200D02*
X146929500Y-36676200D01*
X146929500Y-36676200D02*
X146779400Y-36826300D01*
X135498900Y-41822500D02*
X135100000Y-42221400D01*
X120354200Y-58208400D02*
X119910300Y-58652300D01*
X135100000Y-42221400D02*
X134641000Y-42221400D01*
X135498900Y-40622500D02*
X135498900Y-41822500D01*
X140446500Y-104770200D02*
X140446500Y-103357000D01*
X160498900Y-40622500D02*
X160498900Y-41703100D01*
X168872800Y-67635300D02*
X168872800Y-68700000D01*
X169218400Y-67289700D02*
X168872800Y-67635300D01*
X172419200Y-35852200D02*
X172419200Y-38481300D01*
X172498900Y-35772500D02*
X172419200Y-35852200D01*
X172419200Y-38481300D02*
X172241400Y-38659100D01*
X144498900Y-43457700D02*
X141632400Y-46324200D01*
X114830300Y-94358700D02*
X114830300Y-95550000D01*
X144498900Y-40622500D02*
X144498900Y-43457700D01*
X115042800Y-94146200D02*
X114830300Y-94358700D01*
X89214000Y-93977500D02*
X89214000Y-95400000D01*
X131998900Y-35772500D02*
X131998900Y-36829400D01*
X132265200Y-39264200D02*
X132526600Y-39264200D01*
X130498900Y-37497900D02*
X132265200Y-39264200D01*
X130498900Y-35772500D02*
X130498900Y-37497900D01*
X92211800Y-102172000D02*
X90484000Y-103899800D01*
X91755800Y-92905900D02*
X90484000Y-94177700D01*
X131998900Y-41526200D02*
X132114600Y-41641900D01*
X131998900Y-40622500D02*
X131998900Y-41526200D01*
X132114600Y-41641900D02*
X132114600Y-42081800D01*
X131753400Y-42443000D02*
X130580600Y-42443000D01*
X90484000Y-94177700D02*
X90484000Y-95400000D01*
X132114600Y-42081800D02*
X131753400Y-42443000D01*
X167998900Y-35772500D02*
X167998900Y-36676200D01*
X139176500Y-137453700D02*
X139176500Y-140770200D01*
X168014700Y-36692000D02*
X168014700Y-37211200D01*
X139043100Y-137320300D02*
X139176500Y-137453700D01*
X167998900Y-36676200D02*
X168014700Y-36692000D01*
X90615100Y-82064900D02*
X86674000Y-86006000D01*
X125998900Y-40622500D02*
X125998900Y-41526200D01*
X125998900Y-41526200D02*
X125539400Y-41985700D01*
X125539400Y-41985700D02*
X125539400Y-42362300D01*
X162498900Y-40622500D02*
X162498900Y-41526200D01*
X144750500Y-94178400D02*
X144256500Y-94672400D01*
X162293200Y-41526200D02*
X162132900Y-41686500D01*
X162498900Y-41526200D02*
X162293200Y-41526200D01*
X89048800Y-67288100D02*
X87944000Y-68392900D01*
X122174300Y-34868800D02*
X122338400Y-34704700D01*
X121998900Y-35772500D02*
X121998900Y-34868800D01*
X121998900Y-34868800D02*
X122174300Y-34868800D01*
X182998900Y-36676200D02*
X182854900Y-36820200D01*
X182998900Y-35772500D02*
X182998900Y-36676200D01*
X182854900Y-36820200D02*
X182854900Y-37830400D01*
X167602800Y-94510500D02*
X168100100Y-94013200D01*
X131498900Y-40622500D02*
X131606900Y-40730500D01*
X93622700Y-94210800D02*
X93024000Y-94809500D01*
X131606900Y-41777400D02*
X131660800Y-41831300D01*
X131606900Y-40730500D02*
X131606900Y-41777400D01*
X166024800Y-34868800D02*
X166185400Y-34708200D01*
X165998900Y-35772500D02*
X165998900Y-34868800D01*
X165998900Y-34868800D02*
X166024800Y-34868800D01*
X145964800Y-112103400D02*
X145526500Y-112541700D01*
X170142800Y-95325000D02*
X170142800Y-93898200D01*
X182401100Y-38769300D02*
X182421300Y-38789500D01*
X182498900Y-36676200D02*
X182401100Y-36774000D01*
X182498900Y-35772500D02*
X182498900Y-36676200D01*
X182401100Y-36774000D02*
X182401100Y-38769300D01*
X167498900Y-35772500D02*
X167498900Y-36843300D01*
X137906500Y-112032000D02*
X137906500Y-113470200D01*
X165498900Y-40622500D02*
X165498900Y-41526200D01*
X165498900Y-41526200D02*
X165403700Y-41621400D01*
X165403700Y-41621400D02*
X165403700Y-44288500D01*
X145495400Y-121351800D02*
X145526500Y-121382900D01*
X145526500Y-121382900D02*
X145526500Y-122770200D01*
X152346600Y-36573300D02*
X152346600Y-37070900D01*
X152498900Y-36421000D02*
X152346600Y-36573300D01*
X152498900Y-35772500D02*
X152498900Y-36421000D01*
X140446500Y-55914500D02*
X140446500Y-59550000D01*
X153877700Y-42483300D02*
X140446500Y-55914500D01*
X152346600Y-37070900D02*
X153877700Y-38602000D01*
X153877700Y-38602000D02*
X153877700Y-42483300D01*
X128998900Y-40622500D02*
X128998900Y-41526200D01*
X87899000Y-74591100D02*
X90935100Y-74591100D01*
X125353500Y-45171600D02*
X122486000Y-45171600D01*
X85404000Y-77086100D02*
X87899000Y-74591100D01*
X128998900Y-41526200D02*
X125353500Y-45171600D01*
X85404000Y-103272500D02*
X85404000Y-104700000D01*
X129498900Y-35772500D02*
X129498900Y-38406900D01*
X111661100Y-47864000D02*
X117998900Y-41526200D01*
X117998900Y-40622500D02*
X117998900Y-41526200D01*
X89207900Y-47864000D02*
X111661100Y-47864000D01*
X86674000Y-50397900D02*
X89207900Y-47864000D01*
X136526000Y-36703300D02*
X136526000Y-37124300D01*
X136498900Y-36676200D02*
X136526000Y-36703300D01*
X113560300Y-58821600D02*
X114880700Y-57501200D01*
X136498900Y-35772500D02*
X136498900Y-36676200D01*
X136526000Y-37124300D02*
X136011800Y-37638500D01*
X136011800Y-37638500D02*
X135606600Y-37638500D01*
X114880700Y-57501200D02*
X116124400Y-57501200D01*
X144998900Y-35772500D02*
X144998900Y-36676200D01*
X111495500Y-94235500D02*
X111020300Y-94710700D01*
X143177500Y-38497600D02*
X143177500Y-38721700D01*
X144998900Y-36676200D02*
X143177500Y-38497600D01*
X171498900Y-36822700D02*
X171478200Y-36843400D01*
X171498900Y-35772500D02*
X171498900Y-36822700D01*
X137906500Y-130602000D02*
X144122700Y-124385800D01*
X160498900Y-36676200D02*
X159905400Y-37269700D01*
X159905400Y-37269700D02*
X159905400Y-39500700D01*
X160498900Y-35772500D02*
X160498900Y-36676200D01*
X142199300Y-103460000D02*
X141716500Y-103942800D01*
X88443500Y-76104100D02*
X87944000Y-76603600D01*
X126306500Y-43718600D02*
X123745800Y-43718600D01*
X128498900Y-41526200D02*
X126306500Y-43718600D01*
X128498900Y-40622500D02*
X128498900Y-41526200D01*
X123745800Y-43718600D02*
X123286800Y-43259600D01*
X114830300Y-85943800D02*
X115345400Y-85428700D01*
X137998900Y-36909100D02*
X137886600Y-37021400D01*
X137998900Y-35772500D02*
X137998900Y-36909100D01*
X165062800Y-86770200D02*
X165062800Y-85474500D01*
X165062800Y-85474500D02*
X164950500Y-85362200D01*
X175998900Y-45033700D02*
X176312300Y-45347100D01*
X175998900Y-40622500D02*
X175998900Y-45033700D01*
X157317700Y-45042700D02*
X157317700Y-45347600D01*
X159498900Y-40622500D02*
X159498900Y-42861500D01*
X139176500Y-77174700D02*
X140290900Y-76060300D01*
X159498900Y-42861500D02*
X157317700Y-45042700D01*
X145526500Y-76137600D02*
X145433400Y-76044500D01*
X157998900Y-35772500D02*
X157998900Y-36676200D01*
X157952300Y-36722800D02*
X157952300Y-36871000D01*
X145526500Y-77470200D02*
X145526500Y-76137600D01*
X157998900Y-36676200D02*
X157952300Y-36722800D01*
X133498900Y-35772500D02*
X133498900Y-36676200D01*
X133498900Y-36676200D02*
X133404200Y-36676200D01*
X133404200Y-36676200D02*
X133254700Y-36825700D01*
X113053900Y-67492400D02*
X112290300Y-68256000D01*
X152998900Y-35772500D02*
X152998900Y-36676200D01*
X152998900Y-36676200D02*
X152988200Y-36676200D01*
X152988200Y-36676200D02*
X152825600Y-36838800D01*
X137959000Y-58129000D02*
X137906500Y-58181500D01*
X137906500Y-58181500D02*
X137906500Y-59550000D01*
X139355800Y-39718800D02*
X139206400Y-39569400D01*
X119910300Y-76494600D02*
X120328200Y-76076700D01*
X139498900Y-40622500D02*
X139498900Y-39718800D01*
X139498900Y-39718800D02*
X139355800Y-39718800D01*
X119910300Y-77550000D02*
X119910300Y-76494600D01*
X121498900Y-36676200D02*
X121253200Y-36676200D01*
X86461100Y-67293800D02*
X85404000Y-68350900D01*
X121253200Y-36676200D02*
X121102200Y-36827200D01*
X121498900Y-35772500D02*
X121498900Y-36676200D01*
X134527100Y-36704400D02*
X134527100Y-37254800D01*
X134498900Y-36676200D02*
X134527100Y-36704400D01*
X134498900Y-35772500D02*
X134498900Y-36676200D01*
X117370300Y-67441200D02*
X117370300Y-68850000D01*
X188998900Y-59286900D02*
X188998900Y-40622500D01*
X197190000Y-68700000D02*
X197190000Y-67478000D01*
X197190000Y-67478000D02*
X188998900Y-59286900D01*
X138498900Y-40622500D02*
X138498900Y-43684100D01*
X116100300Y-86850000D02*
X116100300Y-85419400D01*
X138498900Y-43684100D02*
X138260600Y-43922400D01*
X138251200Y-46823000D02*
X139477000Y-46823000D01*
X139477000Y-46823000D02*
X141498900Y-44801100D01*
X141498900Y-44801100D02*
X141498900Y-40622500D01*
X111020300Y-103427900D02*
X111020300Y-104850000D01*
X179998900Y-36676200D02*
X179968700Y-36706400D01*
X166332800Y-104625000D02*
X166332800Y-103582300D01*
X166332800Y-103582300D02*
X166706100Y-103209000D01*
X179998900Y-35772500D02*
X179998900Y-36676200D01*
X179968700Y-36706400D02*
X179968700Y-36847800D01*
X164498900Y-41734900D02*
X164135300Y-42098500D01*
X140849700Y-121364000D02*
X140446500Y-121767200D01*
X140446500Y-121767200D02*
X140446500Y-122770200D01*
X164498900Y-40622500D02*
X164498900Y-41734900D01*
X167718600Y-76056000D02*
X167602800Y-76171800D01*
X178998900Y-39002500D02*
X179062700Y-39066300D01*
X167602800Y-76171800D02*
X167602800Y-77470200D01*
X178998900Y-35772500D02*
X178998900Y-39002500D01*
X145526500Y-68850000D02*
X145526500Y-67312200D01*
X150998900Y-40622500D02*
X150998900Y-41526200D01*
X150998900Y-41526200D02*
X150887100Y-41526200D01*
X145526500Y-67312200D02*
X147023000Y-65815700D01*
X150887100Y-41526200D02*
X150734600Y-41678700D01*
X127498900Y-40622500D02*
X127498900Y-41676300D01*
X93024000Y-76775800D02*
X93600800Y-76199000D01*
X168872800Y-59400000D02*
X168872800Y-58356500D01*
X168872800Y-58356500D02*
X169235200Y-57994100D01*
X174998900Y-48360600D02*
X174150200Y-49209300D01*
X174998900Y-40622500D02*
X174998900Y-48360600D01*
X149496700Y-36678400D02*
X149496700Y-36843100D01*
X149498900Y-35772500D02*
X149498900Y-36676200D01*
X149498900Y-36676200D02*
X149496700Y-36678400D01*
X139176500Y-67737900D02*
X138870400Y-67431800D01*
X139176500Y-68850000D02*
X139176500Y-67737900D01*
X130498900Y-41526200D02*
X130439100Y-41586000D01*
X89665400Y-103371600D02*
X89214000Y-103823000D01*
X130439100Y-41586000D02*
X130439100Y-41763600D01*
X130498900Y-40622500D02*
X130498900Y-41526200D01*
X122929800Y-38470500D02*
X124178100Y-39718800D01*
X124178100Y-39718800D02*
X124998900Y-39718800D01*
X85404000Y-59400000D02*
X85760600Y-59043400D01*
X85760600Y-59043400D02*
X85760600Y-57994100D01*
X124998900Y-40622500D02*
X124998900Y-39718800D01*
X120998900Y-34868800D02*
X120388900Y-34258800D01*
X120388900Y-34258800D02*
X90954400Y-34258800D01*
X90954400Y-34258800D02*
X84134000Y-41079200D01*
X120998900Y-35772500D02*
X120998900Y-34868800D01*
X183498900Y-35772500D02*
X183498900Y-36850500D01*
X165598100Y-94064900D02*
X165062800Y-94600200D01*
X167637300Y-112053000D02*
X167602800Y-112087500D01*
X167602800Y-112087500D02*
X167602800Y-113470200D01*
X186837200Y-36676800D02*
X186837200Y-37781600D01*
X186998900Y-36515100D02*
X186837200Y-36676800D01*
X186837200Y-37781600D02*
X186201400Y-38417400D01*
X186998900Y-35772500D02*
X186998900Y-36515100D01*
X125498900Y-35772500D02*
X125498900Y-36676200D01*
X85404000Y-85277000D02*
X85404000Y-86700000D01*
X125498900Y-36676200D02*
X124481700Y-37693400D01*
X124481700Y-37693400D02*
X124481700Y-38266700D01*
X123498900Y-40622500D02*
X123498900Y-39718800D01*
X94138300Y-57994100D02*
X93024000Y-59108400D01*
X122278200Y-39718800D02*
X121994200Y-39434800D01*
X123498900Y-39718800D02*
X122278200Y-39718800D01*
X143371200Y-76078400D02*
X142986500Y-76463100D01*
X142986500Y-76463100D02*
X142986500Y-77470200D01*
X158498900Y-36676200D02*
X158504100Y-36676200D01*
X158498900Y-35772500D02*
X158498900Y-36676200D01*
X158504100Y-36676200D02*
X158661200Y-36833300D01*
X146796500Y-68850000D02*
X146796500Y-67661100D01*
X150998900Y-35772500D02*
X150998900Y-36676200D01*
X150998900Y-36676200D02*
X151094600Y-36771900D01*
X146796500Y-67661100D02*
X147023000Y-67434600D01*
X151094600Y-36771900D02*
X151094600Y-38837500D01*
X171412800Y-59400000D02*
X171412800Y-46148800D01*
X174498900Y-43062700D02*
X174498900Y-40622500D01*
X171412800Y-46148800D02*
X174498900Y-43062700D01*
X122491800Y-42033300D02*
X122491800Y-42186500D01*
X122998900Y-41526200D02*
X122491800Y-42033300D01*
X92782600Y-67277300D02*
X91754000Y-68305900D01*
X122998900Y-40622500D02*
X122998900Y-41526200D01*
X146796500Y-139404600D02*
X146848100Y-139353000D01*
X169735700Y-38017000D02*
X169498900Y-37780200D01*
X146796500Y-140625000D02*
X146796500Y-139404600D01*
X146796500Y-139404600D02*
X146796500Y-140770200D01*
X169498900Y-37780200D02*
X169498900Y-35772500D01*
X184381100Y-41644000D02*
X184381100Y-46879600D01*
X168093100Y-121474500D02*
X167602800Y-121964800D01*
X184381100Y-46879600D02*
X184703700Y-47202200D01*
X184498900Y-40622500D02*
X184498900Y-41526200D01*
X184498900Y-41526200D02*
X184381100Y-41644000D01*
X182998900Y-40622500D02*
X182998900Y-41526200D01*
X182998900Y-41526200D02*
X182838900Y-41686200D01*
X168872800Y-93908300D02*
X168872800Y-95325000D01*
X184498900Y-35772500D02*
X184498900Y-36676200D01*
X184566200Y-36743500D02*
X184566200Y-36825800D01*
X168872800Y-122136300D02*
X169452000Y-121557100D01*
X184498900Y-36676200D02*
X184566200Y-36743500D01*
X158498900Y-40622500D02*
X158498900Y-41526200D01*
X158577200Y-42436700D02*
X158253300Y-42760600D01*
X144256500Y-76061700D02*
X144256500Y-77470200D01*
X158577200Y-41604500D02*
X158577200Y-42436700D01*
X158498900Y-41526200D02*
X158577200Y-41604500D01*
X139438700Y-103366000D02*
X139176500Y-103628200D01*
X159998900Y-35772500D02*
X159998900Y-36676200D01*
X159982500Y-36676200D02*
X158161800Y-38496900D01*
X139176500Y-103628200D02*
X139176500Y-104770200D01*
X159998900Y-36676200D02*
X159982500Y-36676200D01*
X167375200Y-43441000D02*
X167375200Y-47384600D01*
X168843200Y-41973000D02*
X167375200Y-43441000D01*
X168998900Y-40622500D02*
X168998900Y-41526200D01*
X168843200Y-41681900D02*
X168843200Y-41973000D01*
X143313200Y-139352900D02*
X142986500Y-139679600D01*
X167375200Y-47384600D02*
X167529200Y-47538600D01*
X168998900Y-41526200D02*
X168843200Y-41681900D01*
X147998900Y-43880600D02*
X148171800Y-44053500D01*
X117370300Y-113550000D02*
X117370300Y-112150500D01*
X117370300Y-112150500D02*
X117289400Y-112069600D01*
X147998900Y-40622500D02*
X147998900Y-43880600D01*
X95858200Y-83481700D02*
X99828300Y-83481700D01*
X126998900Y-36773200D02*
X126936300Y-36835800D01*
X93024000Y-86315900D02*
X95858200Y-83481700D01*
X126998900Y-35772500D02*
X126998900Y-36773200D01*
X122243700Y-36676200D02*
X122091200Y-36828700D01*
X91604300Y-67287400D02*
X90484000Y-68407700D01*
X122498900Y-36676200D02*
X122243700Y-36676200D01*
X122498900Y-35772500D02*
X122498900Y-36676200D01*
X176498900Y-35772500D02*
X176498900Y-36837300D01*
X168872800Y-86770200D02*
X168872800Y-85350400D01*
X129944900Y-43337900D02*
X130080800Y-43473800D01*
X129998900Y-40622500D02*
X129998900Y-41526200D01*
X129944900Y-41580200D02*
X129944900Y-43337900D01*
X87172200Y-103402300D02*
X86674000Y-103900500D01*
X129998900Y-41526200D02*
X129944900Y-41580200D01*
X151998900Y-40622500D02*
X151998900Y-41687300D01*
X144256500Y-58145000D02*
X144256500Y-59550000D01*
X156998900Y-41526200D02*
X156534000Y-41991100D01*
X142986500Y-86770200D02*
X142986500Y-85362000D01*
X156998900Y-40622500D02*
X156998900Y-41526200D01*
X120498900Y-39647400D02*
X120589800Y-39556500D01*
X117725800Y-39414500D02*
X89616900Y-39414500D01*
X89616900Y-39414500D02*
X87944000Y-41087400D01*
X120498900Y-40622500D02*
X120498900Y-39647400D01*
X120193900Y-34563800D02*
X120498900Y-34868800D01*
X86674000Y-41104800D02*
X93215000Y-34563800D01*
X93215000Y-34563800D02*
X120193900Y-34563800D01*
X120498900Y-35772500D02*
X120498900Y-34868800D01*
X127998900Y-39718800D02*
X127285300Y-39718800D01*
X127998900Y-40622500D02*
X127998900Y-39718800D01*
X127285300Y-39718800D02*
X127133600Y-39567100D01*
X90484000Y-75996900D02*
X90484000Y-77400000D01*
X147395300Y-70952700D02*
X147395300Y-67834600D01*
X150033600Y-51808200D02*
X158998900Y-42842900D01*
X158998900Y-42842900D02*
X158998900Y-40622500D01*
X147395300Y-67834600D02*
X150033600Y-65196300D01*
X150033600Y-65196300D02*
X150033600Y-51808200D01*
X141716500Y-76631500D02*
X147395300Y-70952700D01*
X137213000Y-140076700D02*
X137906500Y-140770200D01*
X167998900Y-40622500D02*
X167998900Y-41697800D01*
X111613900Y-121651600D02*
X111020300Y-122245200D01*
X145498900Y-40622500D02*
X145498900Y-42009100D01*
X136998900Y-40622500D02*
X136998900Y-39718800D01*
X136998900Y-39718800D02*
X131251800Y-39718800D01*
X131251800Y-39718800D02*
X131007700Y-39474700D01*
X112290300Y-58761600D02*
X113216000Y-57835900D01*
X88802200Y-154677800D02*
X88802200Y-152664700D01*
X88080000Y-155400000D02*
X88802200Y-154677800D01*
X88802200Y-152664700D02*
X88080000Y-151942500D01*
X92448100Y-152654400D02*
X93160000Y-151942500D01*
X93160000Y-155400000D02*
X92448100Y-154688100D01*
X92448100Y-154688100D02*
X92448100Y-152654400D01*
X135998900Y-41753800D02*
X121347100Y-56405600D01*
X135998900Y-40622500D02*
X135998900Y-41753800D01*
X121347100Y-56405600D02*
X119705600Y-56405600D01*
X119705600Y-56405600D02*
X117370300Y-58740900D01*
X152498900Y-42220400D02*
X152498900Y-40622500D01*
X141716500Y-59004000D02*
X142330900Y-58389600D01*
X150280100Y-43812200D02*
X150907100Y-43812200D01*
X150907100Y-43812200D02*
X152498900Y-42220400D01*
X134988100Y-41537000D02*
X134988100Y-41678100D01*
X118640300Y-67506200D02*
X118640300Y-68850000D01*
X134998900Y-40622500D02*
X134998900Y-41526200D01*
X134998900Y-41526200D02*
X134988100Y-41537000D01*
X118538200Y-67404100D02*
X118640300Y-67506200D01*
X163498900Y-41526200D02*
X159601900Y-45423200D01*
X139518800Y-94050200D02*
X139518800Y-95127900D01*
X159601900Y-45423200D02*
X159601900Y-46406100D01*
X139518800Y-95127900D02*
X139176500Y-95470200D01*
X163498900Y-40622500D02*
X163498900Y-41526200D01*
X166332800Y-85527100D02*
X166332800Y-86770200D01*
X175998900Y-35772500D02*
X175998900Y-37209300D01*
X166509200Y-85350700D02*
X166332800Y-85527100D01*
X151498900Y-35772500D02*
X151498900Y-34868800D01*
X154541700Y-44206500D02*
X154541700Y-35135600D01*
X145526500Y-59550000D02*
X145526500Y-53221700D01*
X151807000Y-34560700D02*
X151498900Y-34868800D01*
X153966800Y-34560700D02*
X151807000Y-34560700D01*
X145526500Y-53221700D02*
X154541700Y-44206500D01*
X154541700Y-35135600D02*
X153966800Y-34560700D01*
X128498900Y-36726200D02*
X127872900Y-37352200D01*
X127872900Y-37352200D02*
X126301300Y-37352200D01*
X87120000Y-76055900D02*
X86674000Y-76501900D01*
X128498900Y-35772500D02*
X128498900Y-36726200D01*
X172047800Y-57084300D02*
X172047800Y-60328300D01*
X172047800Y-60328300D02*
X171677900Y-60698200D01*
X175498900Y-40622500D02*
X175498900Y-53633200D01*
X171677900Y-60698200D02*
X167338700Y-60698200D01*
X167338700Y-60698200D02*
X166332800Y-59692300D01*
X175498900Y-53633200D02*
X172047800Y-57084300D01*
X140666800Y-131249900D02*
X140666800Y-128558500D01*
X170998900Y-34809400D02*
X171117000Y-34691300D01*
X140666800Y-128558500D02*
X144846500Y-124378800D01*
X170998900Y-35772500D02*
X170998900Y-34809400D01*
X150498900Y-39718800D02*
X150240700Y-39718800D01*
X150498900Y-40622500D02*
X150498900Y-39718800D01*
X150240700Y-39718800D02*
X150086000Y-39564100D01*
X143123100Y-67423500D02*
X143123100Y-68713400D01*
X192110000Y-68700000D02*
X187998900Y-64588900D01*
X187998900Y-40622500D02*
X187998900Y-64588900D01*
X153498900Y-36676200D02*
X153530900Y-36708200D01*
X153530900Y-36708200D02*
X153530900Y-36830700D01*
X139665500Y-85471500D02*
X139176500Y-85960500D01*
X153498900Y-35772500D02*
X153498900Y-36676200D01*
X186498900Y-43777000D02*
X185864400Y-44411500D01*
X174160700Y-110303400D02*
X175034200Y-110303400D01*
X186498900Y-40622500D02*
X186498900Y-43777000D01*
X171412800Y-113051300D02*
X174160700Y-110303400D01*
X168498900Y-36676200D02*
X168608600Y-36785900D01*
X142188700Y-139463400D02*
X141716500Y-139935600D01*
X168608600Y-36785900D02*
X168608600Y-36935800D01*
X168498900Y-35772500D02*
X168498900Y-36676200D01*
X134187300Y-41837800D02*
X134498900Y-41526200D01*
X116100300Y-68850000D02*
X116100300Y-67196500D01*
X116100300Y-67196500D02*
X114286100Y-65382300D01*
X114286100Y-58527100D02*
X114816400Y-57996800D01*
X134187300Y-42264900D02*
X134187300Y-41837800D01*
X116502700Y-57996800D02*
X118516100Y-55983400D01*
X114816400Y-57996800D02*
X116502700Y-57996800D01*
X118516100Y-55983400D02*
X120468800Y-55983400D01*
X114286100Y-65382300D02*
X114286100Y-58527100D01*
X120468800Y-55983400D02*
X134187300Y-42264900D01*
X134498900Y-40622500D02*
X134498900Y-41526200D01*
X172682800Y-112422900D02*
X173042100Y-112063600D01*
X172682800Y-113470200D02*
X172682800Y-112422900D01*
X186167900Y-37141100D02*
X186167900Y-36672000D01*
X186167900Y-36672000D02*
X185998900Y-36503000D01*
X185754000Y-37555000D02*
X186167900Y-37141100D01*
X185998900Y-36503000D02*
X185998900Y-35772500D01*
X170695600Y-66001700D02*
X170695600Y-68147200D01*
X172998900Y-40622500D02*
X172998900Y-41526200D01*
X172874500Y-42085500D02*
X172230400Y-42729600D01*
X172998900Y-41526200D02*
X172874500Y-41650600D01*
X170695600Y-68147200D02*
X170142800Y-68700000D01*
X172874500Y-41650600D02*
X172874500Y-42085500D01*
X116102000Y-76122100D02*
X116102000Y-77548300D01*
X139998900Y-35772500D02*
X139998900Y-36676200D01*
X139998900Y-36676200D02*
X140050000Y-36727300D01*
X140050000Y-36727300D02*
X140050000Y-36887800D01*
X143998900Y-40622500D02*
X143998900Y-41526200D01*
X143998900Y-41526200D02*
X143901300Y-41623800D01*
X119930200Y-92659700D02*
X117370300Y-95219600D01*
X120013600Y-92659700D02*
X119930200Y-92659700D01*
X143901300Y-41623800D02*
X143901300Y-42723500D01*
X116509900Y-112184800D02*
X116100300Y-112594400D01*
X147998900Y-34868800D02*
X147930500Y-34800400D01*
X116100300Y-112594400D02*
X116100300Y-113550000D01*
X147998900Y-35772500D02*
X147998900Y-34868800D01*
X147930500Y-34800400D02*
X147930500Y-34716500D01*
X117498900Y-40622500D02*
X117498900Y-41526200D01*
X117498900Y-41526200D02*
X113606300Y-45418800D01*
X113606300Y-45418800D02*
X89116500Y-45418800D01*
X89116500Y-45418800D02*
X84134000Y-50401300D01*
X149870000Y-41655100D02*
X149870000Y-42035500D01*
X149998900Y-40622500D02*
X149998900Y-41526200D01*
X140446500Y-68098200D02*
X141302500Y-67242200D01*
X149998900Y-41526200D02*
X149870000Y-41655100D01*
X139176500Y-130221800D02*
X140148300Y-129250000D01*
X171498900Y-41526200D02*
X171395800Y-41629300D01*
X171395800Y-41629300D02*
X171395800Y-41832200D01*
X139176500Y-131325000D02*
X139176500Y-130221800D01*
X171498900Y-40622500D02*
X171498900Y-41526200D01*
X168935100Y-44292900D02*
X168182200Y-44292900D01*
X171395800Y-41832200D02*
X168935100Y-44292900D01*
X89013600Y-49294900D02*
X87944000Y-50364500D01*
X117998900Y-36676200D02*
X117919200Y-36676200D01*
X117919200Y-36676200D02*
X117766000Y-36829400D01*
X117998900Y-35772500D02*
X117998900Y-36676200D01*
X145526500Y-86770200D02*
X145526500Y-85577400D01*
X157498900Y-40622500D02*
X157498900Y-43226400D01*
X157498900Y-43226400D02*
X155800300Y-44925000D01*
X145526500Y-85577400D02*
X145300200Y-85351100D01*
X114901600Y-54864100D02*
X111020300Y-58745400D01*
X118745100Y-54864100D02*
X114901600Y-54864100D01*
X136998900Y-34834500D02*
X136883400Y-34719000D01*
X136998900Y-35772500D02*
X136998900Y-34834500D01*
X113560300Y-86850000D02*
X113560300Y-85422900D01*
X137998900Y-40622500D02*
X137998900Y-43331900D01*
X156498900Y-41526200D02*
X155309400Y-41526200D01*
X156498900Y-40622500D02*
X156498900Y-41526200D01*
X140960100Y-85506300D02*
X140446500Y-86019900D01*
X135498900Y-35772500D02*
X135498900Y-36676200D01*
X118640300Y-58543800D02*
X118640300Y-59550000D01*
X120019900Y-57164200D02*
X118640300Y-58543800D01*
X135456100Y-36719000D02*
X135456100Y-36851200D01*
X135498900Y-36676200D02*
X135456100Y-36719000D01*
X155246100Y-40348100D02*
X155246100Y-38633100D01*
X144256500Y-85358500D02*
X144256500Y-86770200D01*
X156998900Y-36880300D02*
X156998900Y-35772500D01*
X155246100Y-38633100D02*
X156998900Y-36880300D01*
X169132700Y-131584900D02*
X168872800Y-131325000D01*
X169132700Y-132745900D02*
X169132700Y-131584900D01*
X200501000Y-124071400D02*
X200999800Y-123572600D01*
X167602800Y-132897200D02*
X167600000Y-132900000D01*
X167602800Y-131325000D02*
X167602800Y-132897200D01*
X192109800Y-122770200D02*
X192109800Y-124409800D01*
X192109800Y-124409800D02*
X192700000Y-125000000D01*
X173952800Y-132352800D02*
X174400000Y-132800000D01*
X173952800Y-131325000D02*
X173952800Y-132352800D01*
X199729800Y-123853400D02*
X199391000Y-124192200D01*
X199729800Y-122770200D02*
X199729800Y-123853400D01*
X165096300Y-132741000D02*
X165062800Y-132707500D01*
X165062800Y-132707500D02*
X165062800Y-131325000D01*
X195919800Y-124929600D02*
X196907600Y-125917400D01*
X195919800Y-122770200D02*
X195919800Y-124929600D01*
X171412800Y-131325000D02*
X171412800Y-132412800D01*
X171412800Y-132412800D02*
X171900000Y-132900000D01*
X193379800Y-124453500D02*
X196091300Y-127165000D01*
X193379800Y-122770200D02*
X193379800Y-124453500D01*
X170541000Y-132737000D02*
X170142800Y-132338800D01*
X170142800Y-132338800D02*
X170142800Y-131325000D01*
X197189800Y-125225300D02*
X197189800Y-122770200D01*
X198459800Y-123502600D02*
X197839700Y-124122700D01*
X195665200Y-127591100D02*
X195692800Y-127618700D01*
X194649800Y-124634900D02*
X194649800Y-122770200D01*
X196545000Y-127353000D02*
X196545000Y-126530100D01*
X195692800Y-127618700D02*
X196279300Y-127618700D01*
X196545000Y-126530100D02*
X194649800Y-124634900D01*
X196279300Y-127618700D02*
X196545000Y-127353000D01*
X172682800Y-132582800D02*
X172800000Y-132700000D01*
X172682800Y-131325000D02*
X172682800Y-132582800D01*
X166332800Y-132728200D02*
X166332800Y-131325000D01*
X170411800Y-144364800D02*
X168872800Y-142825800D01*
X168872800Y-142825800D02*
X168872800Y-140625000D01*
X202830000Y-147417500D02*
X201487300Y-146074800D01*
X201487300Y-136047400D02*
X198365000Y-132925100D01*
X198365000Y-132925100D02*
X198365000Y-131325000D01*
X201487300Y-146074800D02*
X201487300Y-136047400D01*
X204100000Y-155000000D02*
X202830000Y-153730000D01*
X202830000Y-153730000D02*
X202830000Y-147417500D01*
X168067600Y-141935900D02*
X167602800Y-141471100D01*
X200905000Y-133477800D02*
X200905000Y-131325000D01*
X209180000Y-153921300D02*
X208101300Y-152842600D01*
X205362400Y-143069600D02*
X205362400Y-137935200D01*
X208101300Y-145808500D02*
X205362400Y-143069600D01*
X208101300Y-152842600D02*
X208101300Y-145808500D01*
X205362400Y-137935200D02*
X200905000Y-133477800D01*
X209180000Y-155000000D02*
X209180000Y-153921300D01*
X173952800Y-143638200D02*
X173485300Y-144105700D01*
X173952800Y-140625000D02*
X173952800Y-143638200D01*
X201515100Y-112193700D02*
X200999800Y-112709000D01*
X192015000Y-132520900D02*
X192015000Y-131325000D01*
X192222200Y-132728100D02*
X192015000Y-132520900D01*
X193285000Y-132732300D02*
X193285000Y-131325000D01*
X195825000Y-132752900D02*
X195825000Y-131325000D01*
X170142800Y-140959000D02*
X171214000Y-142030200D01*
X172682800Y-142418500D02*
X172574200Y-142527100D01*
X172682800Y-140625000D02*
X172682800Y-142418500D01*
X199436000Y-112063900D02*
X199729800Y-112357700D01*
X199729800Y-112357700D02*
X199729800Y-113470200D01*
X194555000Y-132736000D02*
X194555000Y-131325000D01*
X197095000Y-132673300D02*
X197095000Y-131325000D01*
X197161500Y-132739800D02*
X197095000Y-132673300D01*
X199635000Y-132748200D02*
X199635000Y-131325000D01*
X165649200Y-141843600D02*
X165062800Y-141257200D01*
X169105100Y-143780000D02*
X166332800Y-141007700D01*
X171676000Y-143182400D02*
X171676000Y-140888200D01*
X174890000Y-153730000D02*
X174890000Y-146396400D01*
X171676000Y-140888200D02*
X171412800Y-140625000D01*
X174890000Y-146396400D02*
X171676000Y-143182400D01*
X176160000Y-155000000D02*
X174890000Y-153730000D01*
X204810000Y-88314000D02*
X205006100Y-88510100D01*
X104520000Y-130097100D02*
X104738900Y-129878200D01*
X96834000Y-87421400D02*
X97366500Y-87953900D01*
X104520000Y-131160000D02*
X104520000Y-130097100D01*
X204810000Y-86770200D02*
X204810000Y-88314000D01*
X150606500Y-104770200D02*
X150606500Y-103647300D01*
X204451700Y-139208600D02*
X204715000Y-139471900D01*
X204715000Y-139471900D02*
X204715000Y-140625000D01*
X150606500Y-103647300D02*
X151092900Y-103160900D01*
X173317800Y-87754200D02*
X169206200Y-91865800D01*
X177762800Y-86409000D02*
X176478700Y-85124900D01*
X124745301Y-102800000D02*
X125900000Y-102800000D01*
X117616400Y-109600000D02*
X122400000Y-109600000D01*
X123720300Y-108279700D02*
X123720300Y-104850000D01*
X125900000Y-102800000D02*
X128500000Y-100200000D01*
X95139800Y-130005100D02*
X95113600Y-130031300D01*
X117249500Y-109233100D02*
X117616400Y-109600000D01*
X174015000Y-85124900D02*
X173317800Y-85822100D01*
X122400000Y-109600000D02*
X123720300Y-108279700D01*
X123720300Y-104850000D02*
X123720300Y-103825001D01*
X128500000Y-100200000D02*
X156951200Y-100200000D01*
X169206200Y-91865800D02*
X165285400Y-91865800D01*
X176478700Y-85124900D02*
X174015000Y-85124900D01*
X173317800Y-85822100D02*
X173317800Y-87754200D01*
X123720300Y-103825001D02*
X124745301Y-102800000D01*
X95113600Y-130031300D02*
X94360000Y-130031300D01*
X94360000Y-131160000D02*
X94360000Y-130031300D01*
X165285400Y-91865800D02*
X156951200Y-100200000D01*
X97051400Y-129879900D02*
X96900000Y-130031300D01*
X167367700Y-71483000D02*
X156854400Y-81996300D01*
X176524100Y-71483000D02*
X167367700Y-71483000D01*
X156854400Y-81996300D02*
X135656600Y-81996300D01*
X177762800Y-68700000D02*
X177762800Y-70244300D01*
X96900000Y-131160000D02*
X96900000Y-130031300D01*
X123720300Y-87868300D02*
X123720300Y-86850000D01*
X124601200Y-88749200D02*
X123720300Y-87868300D01*
X128903700Y-88749200D02*
X124601200Y-88749200D01*
X177762800Y-70244300D02*
X176524100Y-71483000D01*
X135656600Y-81996300D02*
X128903700Y-88749200D01*
X204810000Y-68700000D02*
X204810000Y-70474700D01*
X204089500Y-103904500D02*
X204089500Y-103390300D01*
X150606500Y-86770200D02*
X150606500Y-85811200D01*
X204810000Y-104625000D02*
X204089500Y-103904500D01*
X204810000Y-70474700D02*
X204780200Y-70504500D01*
X150606500Y-85811200D02*
X150149500Y-85354200D01*
X96834000Y-68700000D02*
X96834000Y-73172400D01*
X107060000Y-128862300D02*
X107060000Y-131160000D01*
X96834000Y-73172400D02*
X98571200Y-74909600D01*
X135625300Y-120890100D02*
X128416700Y-128098700D01*
X101980000Y-131160000D02*
X101980000Y-129908200D01*
X150606500Y-122770200D02*
X150606500Y-124206500D01*
X151960550Y-125560550D02*
X153960550Y-125560550D01*
X149790100Y-120890100D02*
X135625300Y-120890100D01*
X128416700Y-128098700D02*
X103789500Y-128098700D01*
X101980000Y-129908200D02*
X103789500Y-128098700D01*
X174200000Y-139370600D02*
X176822100Y-139370600D01*
X150606500Y-121706500D02*
X149790100Y-120890100D01*
X150606500Y-124206500D02*
X151960550Y-125560550D01*
X164200000Y-135800000D02*
X170629400Y-135800000D01*
X176822100Y-139370600D02*
X177762800Y-140311300D01*
X170629400Y-135800000D02*
X174200000Y-139370600D01*
X150606500Y-122770200D02*
X150606500Y-121706500D01*
X153960550Y-125560550D02*
X164200000Y-135800000D01*
X96834000Y-105083700D02*
X97853600Y-106103300D01*
X176500000Y-117800000D02*
X169600000Y-117800000D01*
X177762800Y-122770200D02*
X177762800Y-119062800D01*
X166935900Y-115135900D02*
X166935900Y-112410300D01*
X109600000Y-131160000D02*
X109600000Y-130162500D01*
X150606500Y-68850000D02*
X150606500Y-73370100D01*
X109600000Y-130162500D02*
X110164300Y-129598200D01*
X96834000Y-50700000D02*
X96834000Y-52779200D01*
X166935900Y-112410300D02*
X164158900Y-109633300D01*
X169600000Y-117800000D02*
X166935900Y-115135900D01*
X96834000Y-52779200D02*
X97779100Y-53724300D01*
X150606500Y-73370100D02*
X151065300Y-73828900D01*
X177762800Y-119062800D02*
X176500000Y-117800000D01*
X123720300Y-70258000D02*
X124175300Y-70713000D01*
X99440000Y-130031300D02*
X103122600Y-126348700D01*
X204700000Y-121400000D02*
X203792500Y-121400000D01*
X99440000Y-131160000D02*
X99440000Y-130031300D01*
X103122600Y-126348700D02*
X119131500Y-126348700D01*
X204809800Y-122770200D02*
X204809800Y-121509800D01*
X204809800Y-121509800D02*
X204700000Y-121400000D01*
X150606500Y-139711900D02*
X150252900Y-139358300D01*
X203792500Y-121400000D02*
X203756900Y-121364400D01*
X123720300Y-68850000D02*
X123720300Y-70258000D01*
X123720300Y-119420300D02*
X122700000Y-118400000D01*
X91820000Y-130080000D02*
X91820000Y-131160000D01*
X94900000Y-127000000D02*
X91820000Y-130080000D01*
X163458900Y-107486400D02*
X176331800Y-107486400D01*
X100300000Y-127000000D02*
X94900000Y-127000000D01*
X124770300Y-120329700D02*
X150615600Y-120329700D01*
X177762800Y-106055400D02*
X177762800Y-104625000D01*
X123720300Y-121379700D02*
X124770300Y-120329700D01*
X123720300Y-122850000D02*
X123720300Y-121379700D01*
X176331800Y-107486400D02*
X177762800Y-106055400D01*
X122700000Y-118400000D02*
X108900000Y-118400000D01*
X150615600Y-120329700D02*
X163458900Y-107486400D01*
X108900000Y-118400000D02*
X100300000Y-127000000D01*
X123720300Y-122850000D02*
X123720300Y-119420300D01*
X89988100Y-39970000D02*
X89214000Y-40744100D01*
X200425200Y-87465400D02*
X199730000Y-86770200D01*
X200425200Y-87998200D02*
X200425200Y-87465400D01*
X218540000Y-89880000D02*
X217270000Y-91150000D01*
X205741900Y-101149900D02*
X201609600Y-101149900D01*
X201609600Y-101149900D02*
X198460000Y-104299500D01*
X217270000Y-91150000D02*
X215741800Y-91150000D01*
X215741800Y-91150000D02*
X205741900Y-101149900D01*
X205073600Y-99777900D02*
X205248200Y-99603300D01*
X192110000Y-95636600D02*
X196251300Y-99777900D01*
X196251300Y-99777900D02*
X205073600Y-99777900D01*
X195037700Y-113082300D02*
X194649800Y-113470200D01*
X195037700Y-112068500D02*
X195037700Y-113082300D01*
X197190000Y-95325000D02*
X197190000Y-96779600D01*
X197190000Y-96779600D02*
X197240800Y-96830400D01*
D30*
X115440000Y-146400000D02*
X114680000Y-146400000D01*
D31*
X195919800Y-112048300D02*
X195919800Y-113470200D01*
X200784200Y-76055100D02*
X199730000Y-77109300D01*
X214209600Y-91732600D02*
X205402100Y-100540100D01*
X218540000Y-84800000D02*
X217078800Y-86261200D01*
X205402100Y-100540100D02*
X199670300Y-100540100D01*
X217078800Y-87835900D02*
X216304700Y-88610000D01*
X199670300Y-100540100D02*
X195920000Y-104290400D01*
X215708600Y-88610000D02*
X214209600Y-90109000D01*
X217078800Y-86261200D02*
X217078800Y-87835900D01*
X216304700Y-88610000D02*
X215708600Y-88610000D01*
X214209600Y-90109000D02*
X214209600Y-91732600D01*
X198898400Y-88781200D02*
X197190000Y-87072800D01*
X192109800Y-113470200D02*
X191422100Y-113470200D01*
X197189800Y-113470200D02*
X197189800Y-112063000D01*
X192110000Y-104252000D02*
X193960500Y-102401500D01*
X193380000Y-104625000D02*
X193960500Y-104044500D01*
X193960500Y-104044500D02*
X193960500Y-103431200D01*
X195920000Y-87140100D02*
X196965000Y-88185100D01*
X192343200Y-88196300D02*
X192110000Y-87963100D01*
X192110000Y-87963100D02*
X192110000Y-86770200D01*
X214976900Y-92420000D02*
X205920500Y-101476400D01*
X202579300Y-101476400D02*
X199730000Y-104325700D01*
X216000000Y-92420000D02*
X214976900Y-92420000D01*
X205920500Y-101476400D02*
X202579300Y-101476400D01*
X198460000Y-95325000D02*
X198460000Y-96736900D01*
X198460000Y-96736900D02*
X199010900Y-97287800D01*
X196328700Y-96750100D02*
X195920000Y-96341400D01*
X195920000Y-96341400D02*
X195920000Y-95325000D01*
X194650000Y-95713000D02*
X198261100Y-99324100D01*
X198261100Y-99324100D02*
X203593700Y-99324100D01*
X202811700Y-102486500D02*
X201000000Y-104298200D01*
X218540000Y-92420000D02*
X217377900Y-93582100D01*
X214246100Y-93582100D02*
X205341700Y-102486500D01*
X205341700Y-102486500D02*
X202811700Y-102486500D01*
X217377900Y-93582100D02*
X214246100Y-93582100D01*
X201415400Y-89960100D02*
X201318800Y-89960100D01*
X201318800Y-89960100D02*
X198460000Y-87101300D01*
X195193500Y-88025400D02*
X194650000Y-87481900D01*
X210181500Y-95329400D02*
X205275700Y-100235200D01*
X216000000Y-84800000D02*
X210181500Y-90618500D01*
X210181500Y-90618500D02*
X210181500Y-95329400D01*
X205275700Y-100235200D02*
X198690900Y-100235200D01*
X198690900Y-100235200D02*
X194650000Y-104276100D01*
X193117500Y-112055500D02*
X193379800Y-112317800D01*
X193379800Y-112317800D02*
X193379800Y-113470200D01*
X205542900Y-100845000D02*
X200651800Y-100845000D01*
X200651800Y-100845000D02*
X197190000Y-104306800D01*
X216000000Y-90387900D02*
X205542900Y-100845000D01*
X198459800Y-113470200D02*
X198459800Y-112241500D01*
X198459800Y-112241500D02*
X198262500Y-112044200D01*
X197190000Y-78897000D02*
X197190000Y-77470200D01*
X201000000Y-87438100D02*
X201566000Y-88004100D01*
X199730000Y-95325000D02*
X199730000Y-98319700D01*
X199730000Y-98319700D02*
X199707700Y-98342000D01*
X195265100Y-88861300D02*
X195176200Y-88861300D01*
X195176200Y-88861300D02*
X193380000Y-87065100D01*
X216000000Y-61940000D02*
X212368900Y-65571100D01*
X202905000Y-76467000D02*
X202905000Y-78442400D01*
X199428600Y-78775700D02*
X198460000Y-77807100D01*
X202905000Y-78442400D02*
X202571700Y-78775700D01*
X212368900Y-67003100D02*
X202905000Y-76467000D01*
X202571700Y-78775700D02*
X199428600Y-78775700D01*
X212368900Y-65571100D02*
X212368900Y-67003100D01*
X201000000Y-95325000D02*
X201000000Y-96795400D01*
X201000000Y-96795400D02*
X201072200Y-96867600D01*
X193380000Y-95643800D02*
X194476700Y-96740500D01*
X194650000Y-78484800D02*
X195036000Y-78870800D01*
X194650000Y-77470200D02*
X194650000Y-78484800D01*
X210197500Y-68721200D02*
X208347200Y-70571500D01*
X207593800Y-70571500D02*
X201000000Y-77165300D01*
X210197500Y-65202500D02*
X210197500Y-68721200D01*
X216000000Y-59400000D02*
X210197500Y-65202500D01*
X208347200Y-70571500D02*
X207593800Y-70571500D01*
X193871100Y-78782600D02*
X193380000Y-78291500D01*
X195920000Y-78882900D02*
X195920000Y-77470200D01*
X191890600Y-77250800D02*
X191406300Y-77250800D01*
M02*
