G04 #@! TF.GenerationSoftware,KiCad,Pcbnew,9.0.3*
G04 #@! TF.CreationDate,2025-08-01T19:28:12-07:00*
G04 #@! TF.ProjectId,CardTestFixture,43617264-5465-4737-9446-697874757265,A*
G04 #@! TF.SameCoordinates,Original*
G04 #@! TF.FileFunction,Copper,L5,Inr*
G04 #@! TF.FilePolarity,Positive*
%FSLAX46Y46*%
G04 Gerber Fmt 4.6, Leading zero omitted, Abs format (unit mm)*
G04 Created by KiCad (PCBNEW 9.0.3) date 2025-08-01 19:28:12*
%MOMM*%
%LPD*%
G01*
G04 APERTURE LIST*
G04 Aperture macros list*
%AMRoundRect*
0 Rectangle with rounded corners*
0 $1 Rounding radius*
0 $2 $3 $4 $5 $6 $7 $8 $9 X,Y pos of 4 corners*
0 Add a 4 corners polygon primitive as box body*
4,1,4,$2,$3,$4,$5,$6,$7,$8,$9,$2,$3,0*
0 Add four circle primitives for the rounded corners*
1,1,$1+$1,$2,$3*
1,1,$1+$1,$4,$5*
1,1,$1+$1,$6,$7*
1,1,$1+$1,$8,$9*
0 Add four rect primitives between the rounded corners*
20,1,$1+$1,$2,$3,$4,$5,0*
20,1,$1+$1,$4,$5,$6,$7,0*
20,1,$1+$1,$6,$7,$8,$9,0*
20,1,$1+$1,$8,$9,$2,$3,0*%
G04 Aperture macros list end*
G04 #@! TA.AperFunction,ComponentPad*
%ADD10R,1.700000X1.700000*%
G04 #@! TD*
G04 #@! TA.AperFunction,ComponentPad*
%ADD11C,1.700000*%
G04 #@! TD*
G04 #@! TA.AperFunction,ComponentPad*
%ADD12C,1.349000*%
G04 #@! TD*
G04 #@! TA.AperFunction,ComponentPad*
%ADD13C,1.200000*%
G04 #@! TD*
G04 #@! TA.AperFunction,ComponentPad*
%ADD14RoundRect,0.250000X-0.600000X-0.600000X0.600000X-0.600000X0.600000X0.600000X-0.600000X0.600000X0*%
G04 #@! TD*
G04 #@! TA.AperFunction,ComponentPad*
%ADD15C,2.775000*%
G04 #@! TD*
G04 #@! TA.AperFunction,ViaPad*
%ADD16C,0.650000*%
G04 #@! TD*
G04 #@! TA.AperFunction,ViaPad*
%ADD17C,1.000000*%
G04 #@! TD*
G04 #@! TA.AperFunction,ViaPad*
%ADD18C,0.450000*%
G04 #@! TD*
G04 #@! TA.AperFunction,Conductor*
%ADD19C,0.152400*%
G04 #@! TD*
G04 APERTURE END LIST*
D10*
X209180000Y-151400000D03*
D11*
X206640000Y-151400000D03*
X204100000Y-151400000D03*
X201560000Y-151400000D03*
X199020000Y-151400000D03*
X196480000Y-151400000D03*
X193940000Y-151400000D03*
X191400000Y-151400000D03*
X188860000Y-151400000D03*
X186320000Y-151400000D03*
X183780000Y-151400000D03*
X181240000Y-151400000D03*
X178700000Y-151400000D03*
X176160000Y-151400000D03*
X173620000Y-151400000D03*
X171080000Y-151400000D03*
X168540000Y-151400000D03*
X166000000Y-151400000D03*
D10*
X209180000Y-155000000D03*
D11*
X206640000Y-155000000D03*
X204100000Y-155000000D03*
X201560000Y-155000000D03*
X199020000Y-155000000D03*
X196480000Y-155000000D03*
X193940000Y-155000000D03*
X191400000Y-155000000D03*
X188860000Y-155000000D03*
X186320000Y-155000000D03*
X183780000Y-155000000D03*
X181240000Y-155000000D03*
X178700000Y-155000000D03*
X176160000Y-155000000D03*
X173620000Y-155000000D03*
X171080000Y-155000000D03*
X168540000Y-155000000D03*
X166000000Y-155000000D03*
D12*
X114568900Y-38197500D03*
D13*
X191908900Y-39197500D03*
X191908900Y-37197500D03*
D12*
X193698900Y-38197500D03*
D14*
X216000000Y-59400000D03*
D11*
X218540000Y-59400000D03*
X216000000Y-61940000D03*
X218540000Y-61940000D03*
X216000000Y-64480000D03*
X218540000Y-64480000D03*
X216000000Y-67020000D03*
X218540000Y-67020000D03*
X216000000Y-69560000D03*
X218540000Y-69560000D03*
X216000000Y-72100000D03*
X218540000Y-72100000D03*
X216000000Y-74640000D03*
X218540000Y-74640000D03*
X216000000Y-77180000D03*
X218540000Y-77180000D03*
X216000000Y-79720000D03*
X218540000Y-79720000D03*
X216000000Y-82260000D03*
X218540000Y-82260000D03*
X216000000Y-84800000D03*
X218540000Y-84800000D03*
X216000000Y-87340000D03*
X218540000Y-87340000D03*
X216000000Y-89880000D03*
X218540000Y-89880000D03*
X216000000Y-92420000D03*
X218540000Y-92420000D03*
X216000000Y-94960000D03*
X218540000Y-94960000D03*
X216000000Y-97500000D03*
X218540000Y-97500000D03*
X216000000Y-100040000D03*
X218540000Y-100040000D03*
X216000000Y-102580000D03*
X218540000Y-102580000D03*
X216000000Y-105120000D03*
X218540000Y-105120000D03*
X216000000Y-107660000D03*
X218540000Y-107660000D03*
X216000000Y-110200000D03*
X218540000Y-110200000D03*
X216000000Y-112740000D03*
X218540000Y-112740000D03*
X216000000Y-115280000D03*
X218540000Y-115280000D03*
X216000000Y-117820000D03*
X218540000Y-117820000D03*
X216000000Y-120360000D03*
X218540000Y-120360000D03*
X216000000Y-122900000D03*
X218540000Y-122900000D03*
X216000000Y-125440000D03*
X218540000Y-125440000D03*
X216000000Y-127980000D03*
X218540000Y-127980000D03*
X216000000Y-130520000D03*
X218540000Y-130520000D03*
X216000000Y-133060000D03*
X218540000Y-133060000D03*
X216000000Y-135600000D03*
X218540000Y-135600000D03*
X216000000Y-138140000D03*
X218540000Y-138140000D03*
D15*
X95300000Y-120400000D03*
X100800000Y-120400000D03*
D16*
X114700000Y-129700000D03*
X150247163Y-150415576D03*
X95169795Y-48769795D03*
X122380000Y-108450000D03*
X181548500Y-111521405D03*
X177500000Y-142400000D03*
X178874200Y-129354200D03*
X203362000Y-108342250D03*
X95494000Y-90300000D03*
X145100000Y-150400000D03*
X203400000Y-139000000D03*
X205447800Y-110789092D03*
X206470599Y-93636792D03*
X99500000Y-150400000D03*
X177700000Y-88500000D03*
X94400000Y-150400000D03*
X126300000Y-75600000D03*
X206000000Y-129300000D03*
X203370000Y-72350000D03*
X151370800Y-111500000D03*
X208600000Y-111600000D03*
X203535900Y-85300000D03*
X122280000Y-72450000D03*
X179361801Y-97997608D03*
X203293000Y-144171900D03*
X203600000Y-67100000D03*
X206100000Y-75800000D03*
X176500000Y-121200000D03*
X84000000Y-113400000D03*
X128300000Y-149000000D03*
X114600000Y-150400000D03*
X135000000Y-150400000D03*
X209203100Y-93600000D03*
X89300000Y-150400000D03*
X100000000Y-75300000D03*
X149200000Y-72400000D03*
X101473400Y-59400100D03*
X149159000Y-108422000D03*
X109600000Y-150400000D03*
X95394000Y-72300000D03*
X95203645Y-66103645D03*
X179000000Y-111500000D03*
X208500000Y-129300000D03*
X208600000Y-75800000D03*
X208600000Y-57600000D03*
X181748500Y-129354200D03*
X149296300Y-67131600D03*
X95394000Y-54200000D03*
X176362000Y-72342250D03*
X202865333Y-121449299D03*
X149159000Y-90422000D03*
X150833400Y-88500000D03*
X155400000Y-150400000D03*
X175862800Y-67403500D03*
X101588000Y-41487300D03*
X97887600Y-93500000D03*
X155599800Y-92900000D03*
X119700000Y-150400000D03*
X127500000Y-111800000D03*
X104500000Y-150400000D03*
X148770000Y-138930000D03*
X122782608Y-120888501D03*
X176788100Y-103097600D03*
X160400000Y-150400000D03*
X152800000Y-61248100D03*
X203300000Y-126400000D03*
X176315000Y-108197000D03*
D17*
X119800000Y-148195000D03*
D16*
X95600000Y-85000000D03*
X203400000Y-90400000D03*
X124355205Y-102155205D03*
X122380000Y-126350000D03*
X149151000Y-126394000D03*
X95600000Y-103100000D03*
X126200000Y-57600000D03*
X124911855Y-150500600D03*
X176308000Y-144169000D03*
X119528100Y-37295900D03*
X84100000Y-150400000D03*
X206100000Y-57600000D03*
X140000000Y-150400000D03*
X176300000Y-90400000D03*
X127000000Y-93700000D03*
X179000000Y-57400000D03*
X149160000Y-144170000D03*
X95494000Y-108300000D03*
X151840000Y-132910000D03*
X176640100Y-75400000D03*
X176400000Y-126400000D03*
X122280000Y-90450000D03*
X203300000Y-124800000D03*
X95494000Y-106700000D03*
X155605300Y-94916200D03*
X122280000Y-106850000D03*
X207300000Y-129300000D03*
X203362000Y-106742250D03*
X122280000Y-88850000D03*
X149159000Y-88922000D03*
X117220000Y-132575600D03*
X180244195Y-111144195D03*
X181515600Y-96833900D03*
X182584400Y-77121000D03*
X122380000Y-124850000D03*
X154410300Y-58044900D03*
X155207600Y-77160600D03*
X207350000Y-78974000D03*
X89500000Y-113400000D03*
X95394000Y-88700000D03*
X176362000Y-70842250D03*
X207903599Y-92203792D03*
X207400000Y-57600000D03*
X118406400Y-37392300D03*
X149159000Y-106922000D03*
X149120000Y-142640000D03*
X182584400Y-59325800D03*
X203293000Y-142671900D03*
X95294000Y-52700000D03*
X122280000Y-70850000D03*
X149151000Y-124894000D03*
D17*
X117220000Y-148190000D03*
D16*
X176300000Y-88800000D03*
X176308000Y-142669000D03*
X154027700Y-129250000D03*
X207500000Y-111600000D03*
X149200000Y-70900000D03*
X176315000Y-106697000D03*
X95394000Y-70700000D03*
X203400000Y-88800000D03*
X203470000Y-70850000D03*
X176315000Y-124900000D03*
X155206200Y-112711400D03*
X180300000Y-129354200D03*
D18*
X181194900Y-121351100D03*
X180946700Y-139461300D03*
X99369900Y-67275000D03*
X154216400Y-75225300D03*
X126260300Y-106253100D03*
X206709400Y-69854500D03*
X207350000Y-88192700D03*
X206864100Y-121446900D03*
X207350000Y-106050600D03*
X152916100Y-139351100D03*
X154205300Y-85310000D03*
X100653900Y-92565200D03*
X152305300Y-102821900D03*
X126402800Y-88253900D03*
X99374000Y-52109700D03*
X126260300Y-121444100D03*
X153448000Y-121353100D03*
X128214000Y-122294400D03*
X155096500Y-86114500D03*
X87568600Y-130031300D03*
X182252300Y-140625000D03*
X154416500Y-70451900D03*
X100787500Y-67292100D03*
X155095900Y-140156700D03*
X208649500Y-100251500D03*
X128214000Y-105092200D03*
X154581300Y-121362300D03*
X101337600Y-50571000D03*
X101796300Y-104935300D03*
X128214400Y-86850000D03*
X182448100Y-121962400D03*
X209305500Y-86084700D03*
X155101300Y-104770200D03*
X208094600Y-69948900D03*
X205917000Y-106242300D03*
X178425600Y-102609300D03*
X179426300Y-139235600D03*
X124701800Y-70254700D03*
X153825000Y-106639400D03*
X179427800Y-121360700D03*
X151057000Y-85255600D03*
X125078700Y-106257400D03*
X151684400Y-73333500D03*
X152028500Y-121258300D03*
X206001400Y-120211200D03*
X151438900Y-139399400D03*
X97747000Y-70337700D03*
X86700000Y-144600000D03*
X97595500Y-51970300D03*
X125056900Y-85436600D03*
X98252200Y-85290400D03*
X179032800Y-88195400D03*
X205043500Y-85349400D03*
X125212200Y-121442100D03*
X123720300Y-60961500D03*
X178832700Y-78901300D03*
X150143600Y-114813600D03*
X96834000Y-42824800D03*
X96834700Y-60806900D03*
X97343600Y-76137200D03*
X204810000Y-60826600D03*
X112914300Y-129973900D03*
X179915400Y-101119400D03*
X148922600Y-127469800D03*
X204640400Y-112058400D03*
X177738700Y-129919300D03*
X123727500Y-78957900D03*
X178763900Y-64301500D03*
X123734500Y-114972900D03*
X150830800Y-96998800D03*
X204438400Y-129907800D03*
X204790200Y-96750800D03*
X204773100Y-78879000D03*
X177534200Y-115282300D03*
X123720300Y-96961500D03*
X200869800Y-60803600D03*
X83664000Y-154489000D03*
X199730000Y-60812000D03*
X88193700Y-153001400D03*
X197963500Y-60693700D03*
X93824400Y-153160600D03*
X196947900Y-60825700D03*
X98904800Y-153160200D03*
X104441000Y-152704000D03*
X195735700Y-60808500D03*
X194650000Y-60807500D03*
X121973100Y-151256700D03*
X114991000Y-152314000D03*
X193322500Y-60807700D03*
X120075400Y-151863500D03*
X191414300Y-59298600D03*
X124317100Y-153147900D03*
X174553400Y-138897400D03*
X190425200Y-143788700D03*
X128431000Y-156226600D03*
X134469300Y-153155700D03*
X175649200Y-138443700D03*
X150862000Y-150755200D03*
X175059800Y-137863100D03*
X170271000Y-152771300D03*
X188309600Y-146219100D03*
X154494200Y-152989800D03*
X174503300Y-137304100D03*
X192060000Y-147982900D03*
X173511000Y-153771800D03*
X91754000Y-103288100D03*
X131047700Y-41682000D03*
X164833100Y-34705200D03*
X144701600Y-121388500D03*
X147327900Y-85517300D03*
X157498500Y-37281700D03*
X120493000Y-85657500D03*
X139034700Y-37199600D03*
X112290300Y-112131200D03*
X144962200Y-47462600D03*
X142814000Y-121365600D03*
X164906200Y-44786000D03*
X86088100Y-94206400D03*
X126131100Y-45625000D03*
X143015500Y-112050800D03*
X166020000Y-36831700D03*
X127434800Y-34703000D03*
X91803300Y-75985600D03*
X137930100Y-76051800D03*
X156769200Y-38182800D03*
X116589300Y-121550200D03*
X146498900Y-42080600D03*
X146485600Y-121358900D03*
X166407300Y-38881200D03*
X172706600Y-57995200D03*
X173998900Y-37980600D03*
X163909600Y-36939100D03*
X139176500Y-121359800D03*
X150577600Y-36916600D03*
X143884100Y-67433300D03*
X117838900Y-102511700D03*
X142836800Y-41688300D03*
X84134000Y-75976900D03*
X127751500Y-37879100D03*
X115120700Y-112130600D03*
X147478900Y-44833600D03*
X118588700Y-42187700D03*
X84197700Y-67281400D03*
X117370300Y-121428600D03*
X146209000Y-34700900D03*
X171203900Y-111017100D03*
X184834800Y-46401100D03*
X198368700Y-67293200D03*
X188745700Y-36836100D03*
X168994000Y-103221300D03*
X180082600Y-37644900D03*
X181741600Y-36833400D03*
X173239600Y-94107600D03*
X143639000Y-36826700D03*
X116394100Y-94143900D03*
X158091100Y-41799000D03*
X147023000Y-75966100D03*
X176998900Y-38839000D03*
X171412800Y-85346600D03*
X88396200Y-103347700D03*
X130060500Y-37820600D03*
X124464000Y-41676400D03*
X106473100Y-56349500D03*
X118959400Y-41681300D03*
X85860600Y-40064000D03*
X168183900Y-85559700D03*
X176458300Y-41702200D03*
X164006500Y-112379100D03*
X187316800Y-36838800D03*
X173952800Y-57974400D03*
X173808700Y-42179400D03*
X111424800Y-76168000D03*
X140633400Y-34699800D03*
X185959300Y-41686800D03*
X174215000Y-111995500D03*
X164498900Y-37205900D03*
X141865900Y-121351100D03*
X184998900Y-41678900D03*
X170661500Y-121509800D03*
X160752600Y-42791400D03*
X142986500Y-103349100D03*
X127707000Y-36825400D03*
X89754800Y-76135400D03*
X179103700Y-42974700D03*
X165485900Y-103269000D03*
X120204800Y-39081600D03*
X93648900Y-67531600D03*
X173577500Y-67281700D03*
X173515500Y-36845000D03*
X132926100Y-34716800D03*
X84700400Y-94188500D03*
X160649200Y-37350600D03*
X143011300Y-94060800D03*
X148558700Y-57426200D03*
X151461300Y-42616300D03*
X182539800Y-43319800D03*
X172041300Y-94174600D03*
X118640300Y-121425500D03*
X146998900Y-41681100D03*
X176605800Y-44412000D03*
X169424000Y-76247000D03*
X179119700Y-42086400D03*
X166501800Y-76052900D03*
X114080600Y-103593300D03*
X142086100Y-41948800D03*
X171412800Y-103219300D03*
X181370000Y-37901900D03*
X174277600Y-103029000D03*
X181685400Y-34708200D03*
X91600600Y-85290400D03*
X126947800Y-42126500D03*
X174483700Y-121512800D03*
X185691300Y-36837100D03*
X180986500Y-45979400D03*
X173965300Y-93910800D03*
X171618700Y-38498700D03*
X166696500Y-67288000D03*
X140399400Y-41684700D03*
X115164800Y-76136700D03*
X124094400Y-42166100D03*
X84108500Y-85290400D03*
X188462000Y-34708800D03*
X195920000Y-67276400D03*
X173289900Y-42536500D03*
X172738900Y-67287100D03*
X140667600Y-110440600D03*
X165552000Y-37344300D03*
X177689900Y-41678500D03*
X174409100Y-76136600D03*
X141906800Y-36933500D03*
X115416800Y-103658900D03*
X172603200Y-103212500D03*
X181573000Y-41747000D03*
X116413200Y-44623000D03*
X87684300Y-67292500D03*
X123117400Y-34704700D03*
X92690700Y-57993200D03*
X118302500Y-85368900D03*
X139893900Y-44130300D03*
X147699500Y-38861900D03*
X114559500Y-110867200D03*
X113678300Y-121445700D03*
X146039800Y-41685500D03*
X86997100Y-57725400D03*
X124348700Y-34719700D03*
X145998900Y-36838300D03*
X114682100Y-121288900D03*
X89849000Y-67546100D03*
X109253000Y-48317800D03*
X170117300Y-112062700D03*
X184099800Y-39219700D03*
X160793900Y-39055900D03*
X137906500Y-94038300D03*
X172036800Y-76288900D03*
X177592200Y-42432900D03*
X140446500Y-139310100D03*
X163162200Y-49685200D03*
X172231700Y-42060600D03*
X167877400Y-67287400D03*
X170413200Y-41692200D03*
X145205500Y-129265500D03*
X117393000Y-75790000D03*
X139712000Y-42156400D03*
X160736200Y-43495000D03*
X141465800Y-93505000D03*
X87112700Y-93761000D03*
X132084200Y-34709200D03*
X167597700Y-103218900D03*
X179137600Y-52240700D03*
X121506900Y-38697100D03*
X84134000Y-57995900D03*
X166927800Y-42698900D03*
X142199300Y-112166400D03*
X147161100Y-103335900D03*
X161910800Y-34712100D03*
X139204900Y-38437800D03*
X117896200Y-76138900D03*
X140503800Y-37300000D03*
X114135100Y-76327100D03*
X180888800Y-47032900D03*
X170299400Y-103218300D03*
X172884000Y-121353900D03*
X184966000Y-42428600D03*
X138377800Y-103434000D03*
X159815500Y-50465500D03*
X115343500Y-67574200D03*
X133998900Y-37797300D03*
X117379500Y-85439500D03*
X138498900Y-36853800D03*
X126907000Y-44427500D03*
X88496500Y-94148600D03*
X188126200Y-36837300D03*
X192347700Y-67284800D03*
X89842400Y-57723900D03*
X123583500Y-36924100D03*
X120032400Y-67203800D03*
X135098900Y-34712600D03*
X112290300Y-103427900D03*
X141260100Y-36844200D03*
X171930900Y-67438200D03*
X172883300Y-36826600D03*
X143580000Y-129320000D03*
X170246600Y-34717600D03*
X174998900Y-39060300D03*
X167602800Y-57980100D03*
X170241100Y-36837700D03*
X146032700Y-130189800D03*
X161528900Y-41678000D03*
X146197500Y-103564400D03*
X99525200Y-101334600D03*
X130998900Y-37295500D03*
X145443100Y-37137300D03*
X112290300Y-121439600D03*
X140868600Y-94083800D03*
X162133800Y-37999200D03*
X137094700Y-36825200D03*
X112486300Y-85430700D03*
X131498900Y-37652400D03*
X91907100Y-93990800D03*
X142881000Y-37531400D03*
X117838900Y-103539900D03*
X141162600Y-47375900D03*
X112686500Y-94153600D03*
X141927800Y-85334500D03*
X156386600Y-36835700D03*
X145183600Y-103359100D03*
X161405200Y-36830800D03*
X163155800Y-42535400D03*
X137227600Y-122770200D03*
X147305900Y-94192200D03*
X161998900Y-39569300D03*
X165998900Y-43693300D03*
X147890100Y-112055400D03*
X147934900Y-37950000D03*
X111020300Y-112127600D03*
X119910300Y-112125200D03*
X147150600Y-42981000D03*
X147667300Y-128255300D03*
X169601800Y-42213000D03*
X147619800Y-36843200D03*
X118301700Y-112061800D03*
X90388200Y-85031900D03*
X126332300Y-34700900D03*
X136667300Y-43525700D03*
X111020300Y-85426800D03*
X166286700Y-45551500D03*
X146427500Y-110921100D03*
X178227500Y-34718600D03*
X173317800Y-76320500D03*
X182680900Y-42500600D03*
X166332800Y-93914300D03*
X153315200Y-41707900D03*
X137881500Y-85350500D03*
X182575200Y-43941400D03*
X165455000Y-121383300D03*
X172748900Y-85354300D03*
X177548600Y-39563300D03*
X162059100Y-36896900D03*
X146090200Y-94261800D03*
X145526500Y-139338400D03*
X168952800Y-46172800D03*
X158929300Y-34713600D03*
X140993200Y-76223400D03*
X116732500Y-58408700D03*
X136066900Y-36886900D03*
X179498900Y-37977700D03*
X165899200Y-76065500D03*
X86511500Y-49293000D03*
X116943400Y-35123000D03*
X143419000Y-43838900D03*
X120551700Y-94389100D03*
X168493900Y-43752400D03*
X142267500Y-129250000D03*
X142819800Y-36828600D03*
X119738900Y-103190400D03*
X125540500Y-37819400D03*
X88237500Y-85290400D03*
X120015900Y-93545800D03*
X143903800Y-34719100D03*
X127921600Y-43452600D03*
X83441700Y-104700000D03*
X165069700Y-111316000D03*
X187498900Y-41685600D03*
X170317200Y-85350400D03*
X177060900Y-41677200D03*
X177583300Y-36826800D03*
X174593200Y-85622100D03*
X165899200Y-57994400D03*
X175452700Y-36826400D03*
X125492200Y-43264900D03*
X89214000Y-85291100D03*
X165899200Y-67288800D03*
X170589700Y-43281600D03*
X174484700Y-36852100D03*
X170333800Y-57977700D03*
X149998900Y-37233900D03*
X142251500Y-67601400D03*
X166715300Y-121367200D03*
X183691600Y-37464000D03*
X142261900Y-38254500D03*
X114159900Y-94358700D03*
X167387100Y-41781700D03*
X139637200Y-112133100D03*
X142275600Y-39517400D03*
X116419300Y-103421500D03*
X170783500Y-76165200D03*
X177736100Y-37439000D03*
X185020000Y-37226000D03*
X171824600Y-121375200D03*
X169327200Y-39042600D03*
X144256500Y-139349600D03*
X146779400Y-36826300D03*
X120546800Y-121699700D03*
X134641000Y-42221400D03*
X120354200Y-58208400D03*
X160498900Y-41703100D03*
X140446500Y-103357000D03*
X169218400Y-67289700D03*
X172241400Y-38659100D03*
X141632400Y-46324200D03*
X115042800Y-94146200D03*
X131998900Y-36829400D03*
X89214000Y-93977500D03*
X132526600Y-39264200D03*
X92211800Y-102172000D03*
X130580600Y-42443000D03*
X91755800Y-92905900D03*
X168014700Y-37211200D03*
X139043100Y-137320300D03*
X90615100Y-82064900D03*
X125539400Y-42362300D03*
X144750500Y-94178400D03*
X162132900Y-41686500D03*
X89048800Y-67288100D03*
X122338400Y-34704700D03*
X168100100Y-94013200D03*
X182854900Y-37830400D03*
X131660800Y-41831300D03*
X93622700Y-94210800D03*
X145964800Y-112103400D03*
X166185400Y-34708200D03*
X170142800Y-93898200D03*
X182421300Y-38789500D03*
X137906500Y-112032000D03*
X167498900Y-36843300D03*
X145495400Y-121351800D03*
X165403700Y-44288500D03*
X90935100Y-74591100D03*
X122486000Y-45171600D03*
X129498900Y-38406900D03*
X85404000Y-103272500D03*
X135606600Y-37638500D03*
X116124400Y-57501200D03*
X143177500Y-38721700D03*
X111495500Y-94235500D03*
X144122700Y-124385800D03*
X171478200Y-36843400D03*
X159905400Y-39500700D03*
X142199300Y-103460000D03*
X123286800Y-43259600D03*
X88443500Y-76104100D03*
X137886600Y-37021400D03*
X115345400Y-85428700D03*
X176312300Y-45347100D03*
X164950500Y-85362200D03*
X157317700Y-45347600D03*
X140290900Y-76060300D03*
X157952300Y-36871000D03*
X145433400Y-76044500D03*
X113053900Y-67492400D03*
X133254700Y-36825700D03*
X137959000Y-58129000D03*
X152825600Y-36838800D03*
X120328200Y-76076700D03*
X139206400Y-39569400D03*
X86461100Y-67293800D03*
X121102200Y-36827200D03*
X117370300Y-67441200D03*
X134527100Y-37254800D03*
X116100300Y-85419400D03*
X138260600Y-43922400D03*
X111020300Y-103427900D03*
X138251200Y-46823000D03*
X179968700Y-36847800D03*
X166706100Y-103209000D03*
X140849700Y-121364000D03*
X164135300Y-42098500D03*
X167718600Y-76056000D03*
X179062700Y-39066300D03*
X150734600Y-41678700D03*
X147023000Y-65815700D03*
X93600800Y-76199000D03*
X127498900Y-41676300D03*
X169235200Y-57994100D03*
X174150200Y-49209300D03*
X138870400Y-67431800D03*
X149496700Y-36843100D03*
X89665400Y-103371600D03*
X130439100Y-41763600D03*
X122929800Y-38470500D03*
X85760600Y-57994100D03*
X165598100Y-94064900D03*
X183498900Y-36850500D03*
X186201400Y-38417400D03*
X167637300Y-112053000D03*
X124481700Y-38266700D03*
X85404000Y-85277000D03*
X94138300Y-57994100D03*
X121994200Y-39434800D03*
X158661200Y-36833300D03*
X143371200Y-76078400D03*
X147023000Y-67434600D03*
X151094600Y-38837500D03*
X122491800Y-42186500D03*
X92782600Y-67277300D03*
X146848100Y-139353000D03*
X169735700Y-38017000D03*
X184703700Y-47202200D03*
X168093100Y-121474500D03*
X168872800Y-93908300D03*
X182838900Y-41686200D03*
X169452000Y-121557100D03*
X184566200Y-36825800D03*
X158253300Y-42760600D03*
X144256500Y-76061700D03*
X139438700Y-103366000D03*
X158161800Y-38496900D03*
X167529200Y-47538600D03*
X143313200Y-139352900D03*
X148171800Y-44053500D03*
X117289400Y-112069600D03*
X126936300Y-36835800D03*
X99828300Y-83481700D03*
X122091200Y-36828700D03*
X91604300Y-67287400D03*
X168872800Y-85350400D03*
X176498900Y-36837300D03*
X87172200Y-103402300D03*
X130080800Y-43473800D03*
X151998900Y-41687300D03*
X144256500Y-58145000D03*
X142986500Y-85362000D03*
X156534000Y-41991100D03*
X120589800Y-39556500D03*
X117725800Y-39414500D03*
X90484000Y-75996900D03*
X127133600Y-39567100D03*
X167998900Y-41697800D03*
X137213000Y-140076700D03*
X145498900Y-42009100D03*
X111613900Y-121651600D03*
X113216000Y-57835900D03*
X131007700Y-39474700D03*
X142330900Y-58389600D03*
X150280100Y-43812200D03*
X134988100Y-41678100D03*
X118538200Y-67404100D03*
X159601900Y-46406100D03*
X139518800Y-94050200D03*
X175998900Y-37209300D03*
X166509200Y-85350700D03*
X87120000Y-76055900D03*
X126301300Y-37352200D03*
X144846500Y-124378800D03*
X171117000Y-34691300D03*
X143123100Y-67423500D03*
X150086000Y-39564100D03*
X153530900Y-36830700D03*
X139665500Y-85471500D03*
X175034200Y-110303400D03*
X185864400Y-44411500D03*
X142188700Y-139463400D03*
X168608600Y-36935800D03*
X173042100Y-112063600D03*
X185754000Y-37555000D03*
X170695600Y-66001700D03*
X172230400Y-42729600D03*
X140050000Y-36887800D03*
X116102000Y-76122100D03*
X143901300Y-42723500D03*
X120013600Y-92659700D03*
X116509900Y-112184800D03*
X147930500Y-34716500D03*
X149870000Y-42035500D03*
X141302500Y-67242200D03*
X140148300Y-129250000D03*
X168182200Y-44292900D03*
X89013600Y-49294900D03*
X117766000Y-36829400D03*
X155800300Y-44925000D03*
X145300200Y-85351100D03*
X136883400Y-34719000D03*
X118745100Y-54864100D03*
X137998900Y-43331900D03*
X113560300Y-85422900D03*
X140960100Y-85506300D03*
X155309400Y-41526200D03*
X135456100Y-36851200D03*
X120019900Y-57164200D03*
X144256500Y-85358500D03*
X155246100Y-40348100D03*
X169132700Y-132745900D03*
X200501000Y-124071400D03*
X167600000Y-132900000D03*
X192700000Y-125000000D03*
X174400000Y-132800000D03*
X199391000Y-124192200D03*
X165096300Y-132741000D03*
X196907600Y-125917400D03*
X171900000Y-132900000D03*
X196091300Y-127165000D03*
X170541000Y-132737000D03*
X197189800Y-125225300D03*
X197839700Y-124122700D03*
X195665200Y-127591100D03*
X172800000Y-132700000D03*
X166332800Y-132728200D03*
X170411800Y-144364800D03*
X168067600Y-141935900D03*
X173485300Y-144105700D03*
X201515100Y-112193700D03*
X195327700Y-119069800D03*
X192222200Y-132728100D03*
X193285000Y-132732300D03*
X195825000Y-132752900D03*
X171214000Y-142030200D03*
X172574200Y-142527100D03*
X199436000Y-112063900D03*
X194555000Y-132736000D03*
X197161500Y-132739800D03*
X199635000Y-132748200D03*
X165649200Y-141843600D03*
X169105100Y-143780000D03*
X151092900Y-103160900D03*
X97366500Y-87953900D03*
X182676800Y-106139700D03*
X104738900Y-129878200D03*
X204451700Y-139208600D03*
X205006100Y-88510100D03*
X95139800Y-130005100D03*
X117249500Y-109233100D03*
X97051400Y-129879900D03*
X124601200Y-88749200D03*
X150149500Y-85354200D03*
X98571200Y-74909600D03*
X107060000Y-128862300D03*
X204089500Y-103390300D03*
X204780200Y-70504500D03*
X97853600Y-106103300D03*
X103789500Y-128098700D03*
X97779100Y-53724300D03*
X164158900Y-109633300D03*
X110164300Y-129598200D03*
X151644800Y-97137200D03*
X151065300Y-73828900D03*
X203756900Y-121364400D03*
X150252900Y-139358300D03*
X119131500Y-126348700D03*
X124175300Y-70713000D03*
X89988100Y-39970000D03*
X200425200Y-87998200D03*
X205248200Y-99603300D03*
X195037700Y-112068500D03*
X197240800Y-96830400D03*
X195919800Y-112048300D03*
X200784200Y-76055100D03*
X198898400Y-88781200D03*
X191422100Y-113470200D03*
X197189800Y-112063000D03*
X193960500Y-102401500D03*
X193960500Y-103431200D03*
X196965000Y-88185100D03*
X192343200Y-88196300D03*
X199010900Y-97287800D03*
X196328700Y-96750100D03*
X203593700Y-99324100D03*
X201415400Y-89960100D03*
X195193500Y-88025400D03*
X193117500Y-112055500D03*
X198262500Y-112044200D03*
X197190000Y-78897000D03*
X201566000Y-88004100D03*
X199707700Y-98342000D03*
X195265100Y-88861300D03*
X201072200Y-96867600D03*
X194476700Y-96740500D03*
X195036000Y-78870800D03*
X193871100Y-78782600D03*
X195920000Y-78882900D03*
X191406300Y-77250800D03*
D19*
X99374600Y-67279700D02*
X99369900Y-67275000D01*
X99369900Y-67275000D02*
X99369900Y-52113800D01*
X181194900Y-121351100D02*
X181194900Y-139213100D01*
X154205300Y-85310000D02*
X154205300Y-100921900D01*
X99369900Y-52113800D02*
X99374000Y-52109700D01*
X153448000Y-138819200D02*
X152916100Y-139351100D01*
X207350000Y-88192700D02*
X206709400Y-87552100D01*
X181194900Y-139213100D02*
X180946700Y-139461300D01*
X154216400Y-85298900D02*
X154216400Y-75225300D01*
X154205300Y-85310000D02*
X154216400Y-85298900D01*
X100653900Y-92565200D02*
X99374600Y-91285900D01*
X153448000Y-121353100D02*
X153448000Y-138819200D01*
X99374600Y-91285900D02*
X99374600Y-67279700D01*
X206709400Y-87552100D02*
X206709400Y-69854500D01*
X154205300Y-100921900D02*
X152305300Y-102821900D01*
X100787500Y-51121100D02*
X100787500Y-67292100D01*
X154581300Y-139642100D02*
X155095900Y-140156700D01*
X182448100Y-121962400D02*
X182448100Y-140429200D01*
X155046200Y-86164800D02*
X155096500Y-86114500D01*
X128214400Y-105091800D02*
X128214000Y-105092200D01*
X155046200Y-104715100D02*
X155046200Y-86164800D01*
X128214000Y-105092200D02*
X128214000Y-122294400D01*
X155101300Y-104770200D02*
X155046200Y-104715100D01*
X182448100Y-140429200D02*
X182252300Y-140625000D01*
X101337600Y-50571000D02*
X100787500Y-51121100D01*
X154581300Y-121362300D02*
X154581300Y-139642100D01*
X128214400Y-86850000D02*
X128214400Y-105091800D01*
X179427800Y-121360700D02*
X179427800Y-139234100D01*
X125212200Y-106390900D02*
X125078700Y-106257400D01*
X98252200Y-85290400D02*
X97797300Y-84835500D01*
X97325300Y-52240500D02*
X97595500Y-51970300D01*
X97747000Y-70337700D02*
X97325300Y-69916000D01*
X97797300Y-84835500D02*
X97797300Y-70388000D01*
X97797300Y-70388000D02*
X97747000Y-70337700D01*
X179427800Y-139234100D02*
X179426300Y-139235600D01*
X97325300Y-69916000D02*
X97325300Y-52240500D01*
X125212200Y-121442100D02*
X125212200Y-106390900D01*
X96834700Y-42825500D02*
X96834000Y-42824800D01*
X204319900Y-78425800D02*
X204773100Y-78879000D01*
X96834700Y-60806900D02*
X96834700Y-42825500D01*
X112914300Y-129973900D02*
X123734500Y-119153700D01*
X177738700Y-129919300D02*
X177534200Y-129714800D01*
X96834700Y-60806900D02*
X96834700Y-75628300D01*
X123734500Y-96975700D02*
X123720300Y-96961500D01*
X204438400Y-129907800D02*
X204640400Y-129705800D01*
X177534200Y-129714800D02*
X177534200Y-115282300D01*
X123720300Y-60961500D02*
X123720300Y-78950700D01*
X123720300Y-78950700D02*
X123727500Y-78957900D01*
X178832700Y-64370300D02*
X178832700Y-78901300D01*
X123734500Y-114972900D02*
X123734500Y-96975700D01*
X123734500Y-119153700D02*
X123734500Y-114972900D01*
X204810000Y-60826600D02*
X204319900Y-61316700D01*
X204640400Y-129705800D02*
X204640400Y-112058400D01*
X96834700Y-75628300D02*
X97343600Y-76137200D01*
X178763900Y-64301500D02*
X178832700Y-64370300D01*
X204319900Y-61316700D02*
X204319900Y-78425800D01*
X139660300Y-39775200D02*
X136213500Y-43222000D01*
X136213500Y-43222000D02*
X136213500Y-69937000D01*
X136213500Y-69937000D02*
X120493000Y-85657500D01*
X139660300Y-37825200D02*
X139660300Y-39775200D01*
X139034700Y-37199600D02*
X139660300Y-37825200D01*
X143756000Y-67305200D02*
X143884100Y-67433300D01*
X143756000Y-51963200D02*
X143756000Y-67305200D01*
X148813900Y-46905300D02*
X143756000Y-51963200D01*
X150577600Y-36916600D02*
X150577600Y-40684300D01*
X148813900Y-42448000D02*
X148813900Y-46905300D01*
X150577600Y-40684300D02*
X148813900Y-42448000D01*
X140278800Y-68513200D02*
X122834600Y-85957400D01*
X122834600Y-85957400D02*
X122834600Y-103625200D01*
X146209000Y-34700900D02*
X144450700Y-36459200D01*
X144450700Y-44937000D02*
X140278800Y-49108900D01*
X144450700Y-36459200D02*
X144450700Y-44937000D01*
X140278800Y-49108900D02*
X140278800Y-68513200D01*
X118788900Y-120010000D02*
X117370300Y-121428600D01*
X118788900Y-107670900D02*
X118788900Y-120010000D01*
X122834600Y-103625200D02*
X118788900Y-107670900D01*
X188745700Y-57670200D02*
X188745700Y-36836100D01*
X198368700Y-67293200D02*
X188745700Y-57670200D01*
X179573400Y-40058600D02*
X179573400Y-46412800D01*
X179591400Y-52026400D02*
X179591400Y-79950100D01*
X172668200Y-94602600D02*
X168994000Y-98276800D01*
X180082600Y-37644900D02*
X180082600Y-39549400D01*
X172668200Y-89290300D02*
X172668200Y-94602600D01*
X168994000Y-98276800D02*
X168994000Y-103221300D01*
X174105600Y-87852900D02*
X172668200Y-89290300D01*
X174105600Y-85435900D02*
X174105600Y-87852900D01*
X179591400Y-79950100D02*
X174105600Y-85435900D01*
X179520400Y-51955400D02*
X179591400Y-52026400D01*
X179520400Y-46465800D02*
X179520400Y-51955400D01*
X179573400Y-46412800D02*
X179520400Y-46465800D01*
X180082600Y-39549400D02*
X179573400Y-40058600D01*
X180130200Y-51702600D02*
X180201200Y-51773600D01*
X180183200Y-40311400D02*
X180183200Y-46665600D01*
X180201200Y-51773600D02*
X180201200Y-82300500D01*
X181741600Y-36833400D02*
X180909900Y-37665100D01*
X180909900Y-39584700D02*
X180183200Y-40311400D01*
X180201200Y-82300500D02*
X173239600Y-89262100D01*
X180130200Y-46718600D02*
X180130200Y-51702600D01*
X180909900Y-37665100D02*
X180909900Y-39584700D01*
X173239600Y-89262100D02*
X173239600Y-94107600D01*
X180183200Y-46665600D02*
X180130200Y-46718600D01*
X150227900Y-49842800D02*
X150227900Y-72178600D01*
X158091100Y-41799000D02*
X158091100Y-41979600D01*
X150227900Y-72178600D02*
X147023000Y-75383500D01*
X158091100Y-41979600D02*
X150227900Y-49842800D01*
X147023000Y-75383500D02*
X147023000Y-75966100D01*
X124464000Y-41676500D02*
X121146100Y-41676500D01*
X124464000Y-41676400D02*
X124464000Y-41676500D01*
X121146100Y-41676500D02*
X106473100Y-56349500D01*
X117723300Y-40445200D02*
X118959400Y-41681300D01*
X85860600Y-40064000D02*
X86241800Y-40445200D01*
X86241800Y-40445200D02*
X117723300Y-40445200D01*
X168183900Y-73317000D02*
X175444500Y-66056400D01*
X175444500Y-42716000D02*
X176458300Y-41702200D01*
X168183900Y-85559700D02*
X168183900Y-73317000D01*
X175444500Y-66056400D02*
X175444500Y-42716000D01*
X173952800Y-57974400D02*
X173696500Y-57718100D01*
X173696500Y-57718100D02*
X173696500Y-43473200D01*
X173696500Y-43473200D02*
X173808700Y-43361000D01*
X173808700Y-43361000D02*
X173808700Y-42179400D01*
X174215000Y-111995500D02*
X186326900Y-99883600D01*
X186326900Y-99883600D02*
X186326900Y-42054400D01*
X186326900Y-42054400D02*
X185959300Y-41686800D01*
X149714400Y-96621200D02*
X149714400Y-85561000D01*
X149677100Y-85523700D02*
X149677100Y-73827300D01*
X153856500Y-69647900D02*
X153856500Y-50118800D01*
X142986500Y-103349100D02*
X149714400Y-96621200D01*
X149714400Y-85561000D02*
X149677100Y-85523700D01*
X159566400Y-44408900D02*
X159566400Y-43977600D01*
X159566400Y-43977600D02*
X160752600Y-42791400D01*
X149677100Y-73827300D02*
X153856500Y-69647900D01*
X153856500Y-50118800D02*
X159566400Y-44408900D01*
X174603900Y-39635700D02*
X174603900Y-66255300D01*
X173515500Y-36845000D02*
X173515500Y-38547300D01*
X173515500Y-38547300D02*
X174603900Y-39635700D01*
X174603900Y-66255300D02*
X173577500Y-67281700D01*
X160649200Y-38115300D02*
X160649200Y-37350600D01*
X143011300Y-94060800D02*
X146328100Y-90744000D01*
X147794400Y-67435500D02*
X147794400Y-51685400D01*
X157013400Y-42466400D02*
X157013400Y-41751100D01*
X146328100Y-68901800D02*
X147794400Y-67435500D01*
X146328100Y-90744000D02*
X146328100Y-68901800D01*
X147794400Y-51685400D02*
X157013400Y-42466400D01*
X157013400Y-41751100D02*
X160649200Y-38115300D01*
X175858600Y-45159200D02*
X175858600Y-66353200D01*
X169424000Y-72787800D02*
X169424000Y-76247000D01*
X176605800Y-44412000D02*
X175858600Y-45159200D01*
X175858600Y-66353200D02*
X169424000Y-72787800D01*
X181440200Y-45360100D02*
X181116700Y-45036600D01*
X171412800Y-97796300D02*
X181115900Y-88093200D01*
X181115900Y-47447700D02*
X181440200Y-47123400D01*
X181116700Y-41058300D02*
X181370000Y-40805000D01*
X181440200Y-47123400D02*
X181440200Y-45360100D01*
X181115900Y-88093200D02*
X181115900Y-47447700D01*
X181116700Y-45036600D02*
X181116700Y-41058300D01*
X171412800Y-103219300D02*
X171412800Y-97796300D01*
X181370000Y-40805000D02*
X181370000Y-37901900D01*
X182050100Y-52799600D02*
X182050100Y-40769200D01*
X182272700Y-37889800D02*
X182272700Y-35295500D01*
X182050100Y-40769200D02*
X182920300Y-39899000D01*
X174277600Y-103029000D02*
X174277600Y-95913400D01*
X181725700Y-88465300D02*
X181725700Y-53124000D01*
X181725700Y-53124000D02*
X182050100Y-52799600D01*
X182920300Y-39899000D02*
X182920300Y-38537400D01*
X182272700Y-35295500D02*
X181685400Y-34708200D01*
X182920300Y-38537400D02*
X182272700Y-37889800D01*
X174277600Y-95913400D02*
X181725700Y-88465300D01*
X186661200Y-37807000D02*
X185691300Y-36837100D01*
X174483700Y-112390200D02*
X186661200Y-100212700D01*
X186661200Y-100212700D02*
X186661200Y-37807000D01*
X174483700Y-121512800D02*
X174483700Y-112390200D01*
X180986500Y-46293600D02*
X180435100Y-46845000D01*
X180506100Y-51647200D02*
X180506100Y-87370000D01*
X180506100Y-87370000D02*
X173965300Y-93910800D01*
X180986500Y-45979400D02*
X180986500Y-46293600D01*
X180435100Y-51576200D02*
X180506100Y-51647200D01*
X180435100Y-46845000D02*
X180435100Y-51576200D01*
X166696500Y-66406200D02*
X171044600Y-62058100D01*
X171044600Y-39072800D02*
X171618700Y-38498700D01*
X171044600Y-62058100D02*
X171044600Y-39072800D01*
X166696500Y-67288000D02*
X166696500Y-66406200D01*
X172738900Y-67287100D02*
X173289900Y-66736100D01*
X173289900Y-66736100D02*
X173289900Y-42536500D01*
X178058500Y-42047100D02*
X177689900Y-41678500D01*
X178058500Y-45474300D02*
X178058500Y-42047100D01*
X177294700Y-46238100D02*
X178058500Y-45474300D01*
X177294700Y-73251000D02*
X177294700Y-46238100D01*
X174409100Y-76136600D02*
X177294700Y-73251000D01*
X138714400Y-58493400D02*
X137806900Y-59400900D01*
X115501700Y-91565100D02*
X115501700Y-103574000D01*
X138714400Y-42128600D02*
X138714400Y-58493400D01*
X137806900Y-69259900D02*
X115501700Y-91565100D01*
X140831500Y-40011500D02*
X138714400Y-42128600D01*
X141906800Y-36933500D02*
X140831500Y-38008800D01*
X115501700Y-103574000D02*
X115416800Y-103658900D01*
X140831500Y-38008800D02*
X140831500Y-40011500D01*
X137806900Y-59400900D02*
X137806900Y-69259900D01*
X172603200Y-97156500D02*
X172603200Y-103212500D01*
X181745100Y-41919100D02*
X181745100Y-52457800D01*
X181420800Y-88338900D02*
X172603200Y-97156500D01*
X181420800Y-52782100D02*
X181420800Y-88338900D01*
X181573000Y-41747000D02*
X181745100Y-41919100D01*
X181745100Y-52457800D02*
X181420800Y-52782100D01*
X170117300Y-112062700D02*
X170117300Y-108963400D01*
X175801100Y-96115100D02*
X183443000Y-88473200D01*
X183335300Y-44124800D02*
X183597500Y-43862600D01*
X183443000Y-88473200D02*
X183443000Y-58969900D01*
X183597500Y-43862600D02*
X183597500Y-39722000D01*
X183335300Y-58862200D02*
X183335300Y-44124800D01*
X183597500Y-39722000D02*
X184099800Y-39219700D01*
X170117300Y-108963400D02*
X175801100Y-103279600D01*
X175801100Y-103279600D02*
X175801100Y-96115100D01*
X183443000Y-58969900D02*
X183335300Y-58862200D01*
X172036800Y-73752300D02*
X176721400Y-69067700D01*
X172036800Y-76288900D02*
X172036800Y-73752300D01*
X176721400Y-46011000D02*
X177592200Y-45140200D01*
X176721400Y-69067700D02*
X176721400Y-46011000D01*
X177592200Y-45140200D02*
X177592200Y-42432900D01*
X140446500Y-139310100D02*
X140901500Y-138855100D01*
X143668900Y-120592700D02*
X158409700Y-105851900D01*
X140901500Y-127631600D02*
X143668900Y-124864200D01*
X158409700Y-54437700D02*
X163162200Y-49685200D01*
X143668900Y-124864200D02*
X143668900Y-120592700D01*
X140901500Y-138855100D02*
X140901500Y-127631600D01*
X158409700Y-105851900D02*
X158409700Y-54437700D01*
X173527500Y-85648700D02*
X173527500Y-85151400D01*
X173527500Y-85151400D02*
X178300600Y-80378300D01*
X178300600Y-80378300D02*
X178300600Y-56420600D01*
X178300600Y-56420600D02*
X179137600Y-55583600D01*
X179137600Y-55583600D02*
X179137600Y-52240700D01*
X167597700Y-103218900D02*
X167597700Y-91578500D01*
X167597700Y-91578500D02*
X173527500Y-85648700D01*
X166927800Y-43406200D02*
X166927800Y-42698900D01*
X142199300Y-112166400D02*
X142199300Y-110002300D01*
X156183600Y-71737400D02*
X156183600Y-55167300D01*
X160697400Y-49636600D02*
X166927800Y-43406200D01*
X153013300Y-74907700D02*
X156183600Y-71737400D01*
X153013300Y-99188300D02*
X153013300Y-74907700D01*
X156183600Y-55167300D02*
X160697400Y-50653500D01*
X142199300Y-110002300D02*
X153013300Y-99188300D01*
X160697400Y-50653500D02*
X160697400Y-49636600D01*
X180811000Y-87847500D02*
X170299400Y-98359100D01*
X180811000Y-47110700D02*
X180811000Y-87847500D01*
X170299400Y-98359100D02*
X170299400Y-103218300D01*
X180888800Y-47032900D02*
X180811000Y-47110700D01*
X176277800Y-107447000D02*
X176351600Y-107447000D01*
X173745000Y-120492900D02*
X173745000Y-109979800D01*
X176351600Y-107447000D02*
X185288500Y-98510100D01*
X185288500Y-42751100D02*
X184966000Y-42428600D01*
X172884000Y-121353900D02*
X173745000Y-120492900D01*
X185288500Y-98510100D02*
X185288500Y-42751100D01*
X173745000Y-109979800D02*
X176277800Y-107447000D01*
X121532000Y-74231300D02*
X117379500Y-78383800D01*
X138498900Y-36853800D02*
X138498900Y-39958400D01*
X122616900Y-55840400D02*
X122616900Y-58312600D01*
X138498900Y-39958400D02*
X122616900Y-55840400D01*
X122616900Y-58312600D02*
X121532000Y-59397500D01*
X117379500Y-78383800D02*
X117379500Y-85439500D01*
X121532000Y-59397500D02*
X121532000Y-74231300D01*
X192347700Y-67284800D02*
X188126200Y-63063300D01*
X188126200Y-63063300D02*
X188126200Y-36837300D01*
X120032400Y-59387700D02*
X120032400Y-67203800D01*
X135098900Y-34712600D02*
X134986900Y-34824600D01*
X134986900Y-34824600D02*
X134986900Y-40817100D01*
X121702200Y-54101800D02*
X121702200Y-57717900D01*
X121702200Y-57717900D02*
X120032400Y-59387700D01*
X134986900Y-40817100D02*
X121702200Y-54101800D01*
X172836200Y-44725400D02*
X171930900Y-45630700D01*
X172883300Y-36826600D02*
X172836200Y-36873700D01*
X172836200Y-36873700D02*
X172836200Y-44725400D01*
X171930900Y-45630700D02*
X171930900Y-67438200D01*
X168843200Y-42527300D02*
X168843200Y-38235600D01*
X169252500Y-44726900D02*
X169252500Y-42936600D01*
X164530700Y-49448700D02*
X169252500Y-44726900D01*
X160562600Y-110271900D02*
X160562600Y-53950700D01*
X160562600Y-53950700D02*
X164530700Y-49982600D01*
X169252500Y-42936600D02*
X168843200Y-42527300D01*
X146032700Y-130189800D02*
X146032700Y-124801800D01*
X168843200Y-38235600D02*
X170241100Y-36837700D01*
X146032700Y-124801800D02*
X160562600Y-110271900D01*
X164530700Y-49982600D02*
X164530700Y-49448700D01*
X152098600Y-74433200D02*
X155268900Y-71262900D01*
X161528900Y-46167100D02*
X161528900Y-41678000D01*
X146197500Y-103564400D02*
X152098600Y-97663300D01*
X155268900Y-71262900D02*
X155268900Y-52427100D01*
X152098600Y-97663300D02*
X152098600Y-74433200D01*
X155268900Y-52427100D02*
X161528900Y-46167100D01*
X130998900Y-38322600D02*
X130998900Y-37295500D01*
X108950000Y-63447800D02*
X128379300Y-44018500D01*
X128379300Y-44018500D02*
X128379300Y-40942200D01*
X99525200Y-101334600D02*
X108950000Y-91909800D01*
X108950000Y-91909800D02*
X108950000Y-63447800D01*
X128379300Y-40942200D02*
X130998900Y-38322600D01*
X120922200Y-66955700D02*
X120922200Y-59144700D01*
X137094700Y-40500000D02*
X137094700Y-36825200D01*
X122007100Y-58059800D02*
X122007100Y-55587600D01*
X112486300Y-85430700D02*
X112486300Y-75391600D01*
X112486300Y-75391600D02*
X120922200Y-66955700D01*
X120922200Y-59144700D02*
X122007100Y-58059800D01*
X122007100Y-55587600D02*
X137094700Y-40500000D01*
X141927800Y-70679200D02*
X141927800Y-85334500D01*
X145959500Y-52136900D02*
X145959500Y-66647500D01*
X156386600Y-36835700D02*
X154285400Y-38936900D01*
X154285400Y-43811000D02*
X145959500Y-52136900D01*
X145959500Y-66647500D02*
X141927800Y-70679200D01*
X154285400Y-38936900D02*
X154285400Y-43811000D01*
X161405200Y-36830800D02*
X161405200Y-39086300D01*
X154964000Y-50397000D02*
X154964000Y-69245100D01*
X154964000Y-69245100D02*
X150603200Y-73605900D01*
X150279800Y-98262900D02*
X145183600Y-103359100D01*
X150603200Y-85542200D02*
X150279800Y-85865600D01*
X161224000Y-42223900D02*
X161224000Y-44137000D01*
X161059200Y-39432300D02*
X161059200Y-42059100D01*
X161405200Y-39086300D02*
X161059200Y-39432300D01*
X150603200Y-73605900D02*
X150603200Y-85542200D01*
X161059200Y-42059100D02*
X161224000Y-42223900D01*
X150279800Y-85865600D02*
X150279800Y-98262900D01*
X161224000Y-44137000D02*
X154964000Y-50397000D01*
X165455000Y-112493300D02*
X175066800Y-102881500D01*
X175066800Y-95733800D02*
X182030600Y-88770000D01*
X165455000Y-121383300D02*
X165455000Y-112493300D01*
X182575200Y-52921600D02*
X182575200Y-43941400D01*
X175066800Y-102881500D02*
X175066800Y-95733800D01*
X182030600Y-88770000D02*
X182030600Y-53466200D01*
X182030600Y-53466200D02*
X182575200Y-52921600D01*
X147196300Y-137668600D02*
X147196300Y-125411900D01*
X168952800Y-47188000D02*
X168952800Y-46172800D01*
X147196300Y-125411900D02*
X162087100Y-110521100D01*
X162087100Y-54053700D02*
X168952800Y-47188000D01*
X162087100Y-110521100D02*
X162087100Y-54053700D01*
X145526500Y-139338400D02*
X147196300Y-137668600D01*
X142267500Y-129250000D02*
X142267500Y-127599600D01*
X158893100Y-110974000D02*
X158893100Y-54757600D01*
X163920900Y-49729800D02*
X163920900Y-49195900D01*
X142267500Y-127599600D02*
X158893100Y-110974000D01*
X163920900Y-49195900D02*
X168635900Y-44480900D01*
X168635900Y-43894400D02*
X168493900Y-43752400D01*
X158893100Y-54757600D02*
X163920900Y-49729800D01*
X168635900Y-44480900D02*
X168635900Y-43894400D01*
X142723600Y-38057600D02*
X142723600Y-39130600D01*
X142723600Y-39130600D02*
X142796200Y-39203200D01*
X142796200Y-39203200D02*
X142796200Y-40597000D01*
X142796200Y-40597000D02*
X140807300Y-42585900D01*
X142819800Y-36828600D02*
X142419200Y-37229200D01*
X119559900Y-103011400D02*
X119738900Y-103190400D01*
X119559900Y-88369500D02*
X119559900Y-103011400D01*
X142419200Y-37229200D02*
X142419200Y-37753200D01*
X139629000Y-68300400D02*
X119559900Y-88369500D01*
X140807300Y-42585900D02*
X140807300Y-44473500D01*
X139629000Y-45651800D02*
X139629000Y-68300400D01*
X140807300Y-44473500D02*
X139629000Y-45651800D01*
X142419200Y-37753200D02*
X142723600Y-38057600D01*
X121089800Y-92471900D02*
X120015900Y-93545800D01*
X144115100Y-41854500D02*
X139934000Y-46035600D01*
X139934000Y-46035600D02*
X139934000Y-68426700D01*
X144115100Y-34930400D02*
X144115100Y-41854500D01*
X143903800Y-34719100D02*
X144115100Y-34930400D01*
X139934000Y-68426700D02*
X121089800Y-87270900D01*
X121089800Y-87270900D02*
X121089800Y-92471900D01*
X176416500Y-67633000D02*
X176416500Y-45884600D01*
X170317200Y-73732300D02*
X176416500Y-67633000D01*
X170317200Y-85350400D02*
X170317200Y-73732300D01*
X177060900Y-45240200D02*
X177060900Y-41677200D01*
X176416500Y-45884600D02*
X177060900Y-45240200D01*
X177583300Y-36826800D02*
X178043100Y-36367000D01*
X180551200Y-36745200D02*
X180551200Y-39512100D01*
X179878300Y-40185000D02*
X179878300Y-46539200D01*
X178043100Y-36367000D02*
X180173000Y-36367000D01*
X179825300Y-46592200D02*
X179825300Y-51829000D01*
X180173000Y-36367000D02*
X180551200Y-36745200D01*
X180551200Y-39512100D02*
X179878300Y-40185000D01*
X179878300Y-46539200D02*
X179825300Y-46592200D01*
X179896300Y-80319000D02*
X174593200Y-85622100D01*
X179896300Y-51900000D02*
X179896300Y-80319000D01*
X179825300Y-51829000D02*
X179896300Y-51900000D01*
X142827500Y-67025400D02*
X142827500Y-47945800D01*
X147615200Y-43158100D02*
X147615200Y-39617600D01*
X142827500Y-47945800D02*
X147615200Y-43158100D01*
X147615200Y-39617600D02*
X149998900Y-37233900D01*
X142251500Y-67601400D02*
X142827500Y-67025400D01*
X183292600Y-38387500D02*
X183691600Y-37988500D01*
X166715300Y-111664300D02*
X175371700Y-103007900D01*
X183030400Y-58988600D02*
X183030400Y-43998400D01*
X166715300Y-121367200D02*
X166715300Y-111664300D01*
X175371700Y-95870600D02*
X183138100Y-88104200D01*
X183138100Y-88104200D02*
X183138100Y-59096300D01*
X175371700Y-103007900D02*
X175371700Y-95870600D01*
X183691600Y-37988500D02*
X183691600Y-37464000D01*
X183292600Y-43736200D02*
X183292600Y-38387500D01*
X183138100Y-59096300D02*
X183030400Y-58988600D01*
X183030400Y-43998400D02*
X183292600Y-43736200D01*
X167197000Y-41781700D02*
X167387100Y-41781700D01*
X152708400Y-74698100D02*
X155878700Y-71527800D01*
X139637200Y-112133100D02*
X152708400Y-99061900D01*
X155878700Y-53100000D02*
X167197000Y-41781700D01*
X152708400Y-99061900D02*
X152708400Y-74698100D01*
X155878700Y-71527800D02*
X155878700Y-53100000D01*
X142275600Y-40616900D02*
X142275600Y-39517400D01*
X139019300Y-58645800D02*
X139019300Y-43873200D01*
X138111800Y-69386300D02*
X138111800Y-59553300D01*
X117267100Y-90231000D02*
X138111800Y-69386300D01*
X139019300Y-43873200D02*
X142275600Y-40616900D01*
X138111800Y-59553300D02*
X139019300Y-58645800D01*
X116419300Y-103421500D02*
X117267100Y-102573700D01*
X117267100Y-102573700D02*
X117267100Y-90231000D01*
X183945100Y-45796200D02*
X183945100Y-58609400D01*
X184052800Y-58717100D02*
X184052800Y-88726000D01*
X184207300Y-40795300D02*
X184207300Y-45534000D01*
X184052800Y-88726000D02*
X177667000Y-95111800D01*
X177667000Y-103433200D02*
X171824600Y-109275600D01*
X184207300Y-45534000D02*
X183945100Y-45796200D01*
X185015400Y-37230600D02*
X185015400Y-39987200D01*
X185020000Y-37226000D02*
X185015400Y-37230600D01*
X177667000Y-95111800D02*
X177667000Y-103433200D01*
X183945100Y-58609400D02*
X184052800Y-58717100D01*
X185015400Y-39987200D02*
X184207300Y-40795300D01*
X171824600Y-109275600D02*
X171824600Y-121375200D01*
X167982900Y-46501000D02*
X169557400Y-44926500D01*
X146868000Y-125308900D02*
X161782200Y-110394700D01*
X169148100Y-39221700D02*
X169327200Y-39042600D01*
X169557400Y-42810200D02*
X169148100Y-42400900D01*
X167982900Y-47726600D02*
X167982900Y-46501000D01*
X161782200Y-53927300D02*
X167982900Y-47726600D01*
X144256500Y-139349600D02*
X146868000Y-136738100D01*
X161782200Y-110394700D02*
X161782200Y-53927300D01*
X169148100Y-42400900D02*
X169148100Y-39221700D01*
X169557400Y-44926500D02*
X169557400Y-42810200D01*
X146868000Y-136738100D02*
X146868000Y-125308900D01*
X123249200Y-85974100D02*
X123249200Y-118997300D01*
X144908000Y-44984600D02*
X140824800Y-49067800D01*
X140824800Y-68398500D02*
X123249200Y-85974100D01*
X140824800Y-49067800D02*
X140824800Y-68398500D01*
X146779400Y-36826300D02*
X144908000Y-38697700D01*
X123249200Y-118997300D02*
X120546800Y-121699700D01*
X144908000Y-38697700D02*
X144908000Y-44984600D01*
X171501900Y-62184700D02*
X171501900Y-39398600D01*
X171501900Y-39398600D02*
X172241400Y-38659100D01*
X169218400Y-64468200D02*
X171501900Y-62184700D01*
X169218400Y-67289700D02*
X169218400Y-64468200D01*
X147131500Y-104032400D02*
X152403500Y-98760400D01*
X145906100Y-104032400D02*
X147131500Y-104032400D01*
X167498900Y-41028300D02*
X167498900Y-36843300D01*
X152403500Y-98760400D02*
X152403500Y-74559600D01*
X155573800Y-71389300D02*
X155573800Y-52953400D01*
X137906500Y-112032000D02*
X145906100Y-104032400D01*
X155573800Y-52953400D02*
X167498900Y-41028300D01*
X152403500Y-74559600D02*
X155573800Y-71389300D01*
X159153800Y-44390200D02*
X153551600Y-49992400D01*
X159905400Y-39500700D02*
X159153800Y-40252300D01*
X148605200Y-74467900D02*
X148605200Y-97054100D01*
X153551600Y-49992400D02*
X153551600Y-69521500D01*
X159153800Y-40252300D02*
X159153800Y-44390200D01*
X148605200Y-97054100D02*
X142199300Y-103460000D01*
X153551600Y-69521500D02*
X148605200Y-74467900D01*
X122312000Y-55714000D02*
X122312000Y-58186200D01*
X115345400Y-79986600D02*
X115345400Y-85428700D01*
X122312000Y-58186200D02*
X121227100Y-59271100D01*
X137886600Y-40139400D02*
X122312000Y-55714000D01*
X121227100Y-59271100D02*
X121227100Y-74104900D01*
X121227100Y-74104900D02*
X115345400Y-79986600D01*
X137886600Y-37021400D02*
X137886600Y-40139400D01*
X129513900Y-43315200D02*
X129513900Y-41943900D01*
X113053900Y-67492400D02*
X113053900Y-59775200D01*
X113053900Y-59775200D02*
X129513900Y-43315200D01*
X131755500Y-39702300D02*
X131755500Y-38324900D01*
X129513900Y-41943900D02*
X131755500Y-39702300D01*
X131755500Y-38324900D02*
X133254700Y-36825700D01*
X123219500Y-73185400D02*
X120328200Y-76076700D01*
X123219500Y-55669100D02*
X123219500Y-73185400D01*
X139206400Y-39682200D02*
X123219500Y-55669100D01*
X139206400Y-39569400D02*
X139206400Y-39682200D01*
X173202600Y-85542300D02*
X166880000Y-91864900D01*
X178599600Y-55563900D02*
X177995700Y-56167800D01*
X177995700Y-56167800D02*
X177995700Y-80251900D01*
X173202600Y-85045000D02*
X173202600Y-85542300D01*
X166880000Y-103035100D02*
X166706100Y-103209000D01*
X179968700Y-36847800D02*
X178599600Y-38216900D01*
X177995700Y-80251900D02*
X173202600Y-85045000D01*
X166880000Y-91864900D02*
X166880000Y-103035100D01*
X178599600Y-38216900D02*
X178599600Y-55563900D01*
X146264400Y-52352800D02*
X146264400Y-66773900D01*
X155265400Y-42407900D02*
X155265400Y-43351800D01*
X158661200Y-36833300D02*
X158661200Y-39012100D01*
X158661200Y-39012100D02*
X155265400Y-42407900D01*
X143371200Y-69667100D02*
X143371200Y-76078400D01*
X146264400Y-66773900D02*
X143371200Y-69667100D01*
X155265400Y-43351800D02*
X146264400Y-52352800D01*
X169959500Y-41903000D02*
X170082200Y-42025700D01*
X152940300Y-133115600D02*
X146848100Y-139207800D01*
X169735700Y-38017000D02*
X169959500Y-38240800D01*
X152940300Y-120534800D02*
X152940300Y-133115600D01*
X170082200Y-42025700D02*
X170082200Y-46679200D01*
X170082200Y-46679200D02*
X163705200Y-53056200D01*
X163705200Y-53056200D02*
X163705200Y-109769900D01*
X169959500Y-38240800D02*
X169959500Y-41903000D01*
X163705200Y-109769900D02*
X152940300Y-120534800D01*
X183640200Y-45669800D02*
X183640200Y-58735800D01*
X183902400Y-40516600D02*
X183902400Y-45407600D01*
X183747900Y-88599600D02*
X177362100Y-94985400D01*
X177362100Y-103306800D02*
X170738700Y-109930200D01*
X170738700Y-109930200D02*
X170738700Y-120270400D01*
X184566200Y-39852800D02*
X183902400Y-40516600D01*
X184566200Y-36825800D02*
X184566200Y-39852800D01*
X183902400Y-45407600D02*
X183640200Y-45669800D01*
X170738700Y-120270400D02*
X169452000Y-121557100D01*
X183640200Y-58735800D02*
X183747900Y-58843500D01*
X183747900Y-58843500D02*
X183747900Y-88599600D01*
X177362100Y-94985400D02*
X177362100Y-103306800D01*
X143313200Y-139352900D02*
X146549600Y-136116500D01*
X160867600Y-110398200D02*
X160867600Y-54200200D01*
X146549600Y-124716200D02*
X160867600Y-110398200D01*
X146549600Y-136116500D02*
X146549600Y-124716200D01*
X160867600Y-54200200D02*
X167529200Y-47538600D01*
X126936300Y-37373200D02*
X126936300Y-36835800D01*
X125549300Y-38760200D02*
X126936300Y-37373200D01*
X102027100Y-60147000D02*
X123413900Y-38760200D01*
X102027100Y-81282900D02*
X102027100Y-60147000D01*
X99828300Y-83481700D02*
X102027100Y-81282900D01*
X123413900Y-38760200D02*
X125549300Y-38760200D01*
X151998900Y-44151600D02*
X151998900Y-41687300D01*
X144256500Y-51894000D02*
X151998900Y-44151600D01*
X144256500Y-58145000D02*
X144256500Y-51894000D01*
X156534000Y-41991100D02*
X156534000Y-42514500D01*
X146569300Y-66900300D02*
X146015400Y-67454200D01*
X146015400Y-67454200D02*
X146015400Y-82333100D01*
X146569300Y-52479200D02*
X146569300Y-66900300D01*
X146015400Y-82333100D02*
X142986500Y-85362000D01*
X156534000Y-42514500D02*
X146569300Y-52479200D01*
X117867800Y-39556500D02*
X117725800Y-39414500D01*
X120589800Y-39556500D02*
X117867800Y-39556500D01*
X145054200Y-114616900D02*
X139694500Y-119976600D01*
X153470600Y-75001900D02*
X153470600Y-99162300D01*
X162403600Y-48793000D02*
X162403600Y-49378600D01*
X162403600Y-49378600D02*
X157799800Y-53982400D01*
X139694500Y-119976600D02*
X139694500Y-137595200D01*
X157799800Y-70672700D02*
X153470600Y-75001900D01*
X153470600Y-99162300D02*
X145054200Y-107578700D01*
X139694500Y-137595200D02*
X137213000Y-140076700D01*
X157799800Y-53982400D02*
X157799800Y-70672700D01*
X167998900Y-43197700D02*
X162403600Y-48793000D01*
X167998900Y-41697800D02*
X167998900Y-43197700D01*
X145054200Y-107578700D02*
X145054200Y-114616900D01*
X148322500Y-41327600D02*
X150086000Y-39564100D01*
X143123100Y-67423500D02*
X143302200Y-67244400D01*
X143302200Y-47981600D02*
X148322500Y-42961300D01*
X143302200Y-67244400D02*
X143302200Y-47981600D01*
X148322500Y-42961300D02*
X148322500Y-41327600D01*
X153811800Y-37111600D02*
X153811800Y-42770000D01*
X145654600Y-50927200D02*
X145654600Y-66521100D01*
X139665500Y-72510200D02*
X139665500Y-85471500D01*
X145654600Y-66521100D02*
X139665500Y-72510200D01*
X153811800Y-42770000D02*
X145654600Y-50927200D01*
X153530900Y-36830700D02*
X153811800Y-37111600D01*
X175034200Y-110303400D02*
X185864400Y-99473200D01*
X185864400Y-99473200D02*
X185864400Y-44411500D01*
X160257600Y-110040800D02*
X160257600Y-53824400D01*
X142859400Y-138792700D02*
X142859400Y-127439000D01*
X142188700Y-139463400D02*
X142859400Y-138792700D01*
X168530600Y-43147400D02*
X168530600Y-37013800D01*
X160257600Y-53824400D02*
X164225800Y-49856200D01*
X168530600Y-37013800D02*
X168608600Y-36935800D01*
X142859400Y-127439000D02*
X160257600Y-110040800D01*
X164225800Y-49322300D02*
X168947600Y-44600500D01*
X168947600Y-44600500D02*
X168947600Y-43564400D01*
X168947600Y-43564400D02*
X168530600Y-43147400D01*
X164225800Y-49856200D02*
X164225800Y-49322300D01*
X184250000Y-45922600D02*
X184512200Y-45660400D01*
X173042100Y-112063600D02*
X173042100Y-108489400D01*
X184357700Y-88852400D02*
X184357700Y-58590700D01*
X177971900Y-95238200D02*
X184357700Y-88852400D01*
X184512200Y-40921900D02*
X185320300Y-40113800D01*
X177971900Y-103559600D02*
X177971900Y-95238200D01*
X185320300Y-40113800D02*
X185320300Y-37988700D01*
X173042100Y-108489400D02*
X177971900Y-103559600D01*
X184512200Y-45660400D02*
X184512200Y-40921900D01*
X184357700Y-58590700D02*
X184250000Y-58483000D01*
X185320300Y-37988700D02*
X185754000Y-37555000D01*
X184250000Y-58483000D02*
X184250000Y-45922600D01*
X143267800Y-121877500D02*
X143267800Y-120562500D01*
X163248400Y-49231500D02*
X168182200Y-44297700D01*
X140148300Y-124997000D02*
X143267800Y-121877500D01*
X168182200Y-44297700D02*
X168182200Y-44292900D01*
X162974300Y-49231500D02*
X163248400Y-49231500D01*
X162708500Y-49589900D02*
X162708500Y-49497300D01*
X162708500Y-49497300D02*
X162974300Y-49231500D01*
X158104800Y-105725500D02*
X158104800Y-54193600D01*
X140148300Y-129250000D02*
X140148300Y-124997000D01*
X158104800Y-54193600D02*
X162708500Y-49589900D01*
X143267800Y-120562500D02*
X158104800Y-105725500D01*
X192675900Y-125024100D02*
X192700000Y-125000000D01*
X192530500Y-133061500D02*
X192675900Y-132916100D01*
X192530500Y-151837700D02*
X192530500Y-133061500D01*
X188860000Y-151400000D02*
X189977300Y-152517300D01*
X189977300Y-152517300D02*
X191850900Y-152517300D01*
X191850900Y-152517300D02*
X192530500Y-151837700D01*
X192675900Y-132916100D02*
X192675900Y-125024100D01*
X172860600Y-140505300D02*
X165096300Y-132741000D01*
X180505300Y-140505300D02*
X172860600Y-140505300D01*
X191400000Y-151400000D02*
X180505300Y-140505300D01*
X183282600Y-155000000D02*
X179970000Y-151687400D01*
X168446000Y-141557500D02*
X168067600Y-141935900D01*
X179970000Y-151687400D02*
X179970000Y-148784500D01*
X179970000Y-148784500D02*
X172743000Y-141557500D01*
X172743000Y-141557500D02*
X168446000Y-141557500D01*
X172461000Y-145130000D02*
X173485300Y-144105700D01*
X171080000Y-155000000D02*
X172461000Y-153619000D01*
X172461000Y-153619000D02*
X172461000Y-145130000D01*
X193285000Y-132738300D02*
X193285000Y-132732300D01*
X193940000Y-155000000D02*
X192835500Y-153895500D01*
X192835500Y-153895500D02*
X192835500Y-133187800D01*
X192835500Y-133187800D02*
X193285000Y-132738300D01*
X178700000Y-155000000D02*
X177430000Y-153730000D01*
X177430000Y-146720000D02*
X172740200Y-142030200D01*
X172740200Y-142030200D02*
X171214000Y-142030200D01*
X177430000Y-153730000D02*
X177430000Y-146720000D01*
X174727700Y-153892300D02*
X173620000Y-155000000D01*
X172574200Y-142527100D02*
X174727700Y-144680600D01*
X174727700Y-144680600D02*
X174727700Y-153892300D01*
X182676800Y-106139700D02*
X182676800Y-112330600D01*
X104738900Y-128117900D02*
X98441200Y-121820200D01*
X104738900Y-129878200D02*
X104738900Y-128117900D01*
X204451700Y-134105500D02*
X204451700Y-139208600D01*
X98441200Y-89028600D02*
X97366500Y-87953900D01*
X182676800Y-112330600D02*
X204451700Y-134105500D01*
X98441200Y-121820200D02*
X98441200Y-89028600D01*
X98746200Y-106098100D02*
X98746200Y-75084600D01*
X98746200Y-75084600D02*
X98571200Y-74909600D01*
X107060000Y-128862300D02*
X107060000Y-114411900D01*
X107060000Y-114411900D02*
X98746200Y-106098100D01*
X97853600Y-122162800D02*
X97853600Y-106103300D01*
X103789500Y-128098700D02*
X97853600Y-122162800D01*
X99069500Y-105990000D02*
X99069500Y-71018500D01*
X99069500Y-71018500D02*
X97779100Y-69728100D01*
X97779100Y-69728100D02*
X97779100Y-53724300D01*
X151065300Y-73828900D02*
X151644800Y-74408400D01*
X110164300Y-129598200D02*
X110164300Y-117084800D01*
X151644800Y-74408400D02*
X151644800Y-97137200D01*
X110164300Y-117084800D02*
X99069500Y-105990000D01*
X216000000Y-97500000D02*
X211283200Y-97500000D01*
X211283200Y-97500000D02*
X203629500Y-89846300D01*
X203629500Y-89846300D02*
X202273300Y-89846300D01*
X202273300Y-89846300D02*
X200425200Y-87998200D01*
X211980600Y-106335700D02*
X205248200Y-99603300D01*
X218540000Y-112740000D02*
X217270000Y-111470000D01*
X215686100Y-111470000D02*
X211980600Y-107764500D01*
X217270000Y-111470000D02*
X215686100Y-111470000D01*
X211980600Y-107764500D02*
X211980600Y-106335700D01*
X217078800Y-118898800D02*
X217078800Y-117324100D01*
X215699300Y-116550000D02*
X208287800Y-109138500D01*
X218540000Y-120360000D02*
X217078800Y-118898800D01*
X208287800Y-109138500D02*
X208287800Y-105812100D01*
X199306100Y-96830400D02*
X197240800Y-96830400D01*
X216304700Y-116550000D02*
X215699300Y-116550000D01*
X208287800Y-105812100D02*
X199306100Y-96830400D01*
X217078800Y-117324100D02*
X216304700Y-116550000D01*
X210157200Y-100040000D02*
X198898400Y-88781200D01*
X216000000Y-100040000D02*
X210157200Y-100040000D01*
X218540000Y-105120000D02*
X217270000Y-103850000D01*
X213159200Y-103850000D02*
X197494300Y-88185100D01*
X197494300Y-88185100D02*
X196965000Y-88185100D01*
X217270000Y-103850000D02*
X213159200Y-103850000D01*
X216000000Y-107660000D02*
X214014900Y-107660000D01*
X205436200Y-99081300D02*
X204843400Y-99081300D01*
X193958400Y-88196300D02*
X192343200Y-88196300D01*
X204843400Y-99081300D02*
X193958400Y-88196300D01*
X214014900Y-107660000D02*
X205436200Y-99081300D01*
X207982900Y-105975400D02*
X207982900Y-110198577D01*
X207982900Y-110198577D02*
X209800000Y-112015677D01*
X199010900Y-97287800D02*
X199295300Y-97287800D01*
X209800000Y-114160000D02*
X216000000Y-120360000D01*
X199295300Y-97287800D02*
X207982900Y-105975400D01*
X209800000Y-112015677D02*
X209800000Y-114160000D01*
X199308600Y-96366400D02*
X196712400Y-96366400D01*
X208792300Y-108072300D02*
X208792300Y-105850100D01*
X216000000Y-115280000D02*
X208792300Y-108072300D01*
X196712400Y-96366400D02*
X196328700Y-96750100D01*
X208792300Y-105850100D02*
X199308600Y-96366400D01*
X218540000Y-115280000D02*
X217270000Y-114010000D01*
X215737600Y-114010000D02*
X209097300Y-107369700D01*
X217270000Y-114010000D02*
X215737600Y-114010000D01*
X209097300Y-107369700D02*
X209097300Y-104827700D01*
X209097300Y-104827700D02*
X203593700Y-99324100D01*
X217270000Y-98770000D02*
X210225300Y-98770000D01*
X218540000Y-100040000D02*
X217270000Y-98770000D01*
X210225300Y-98770000D02*
X201415400Y-89960100D01*
X205939300Y-98226700D02*
X205394800Y-98226700D01*
X212832600Y-105120000D02*
X205939300Y-98226700D01*
X205394800Y-98226700D02*
X195193500Y-88025400D01*
X216000000Y-105120000D02*
X212832600Y-105120000D01*
X217314000Y-96274000D02*
X210488500Y-96274000D01*
X218540000Y-97500000D02*
X217314000Y-96274000D01*
X210488500Y-96274000D02*
X203755900Y-89541400D01*
X203103300Y-89541400D02*
X201566000Y-88004100D01*
X203755900Y-89541400D02*
X203103300Y-89541400D01*
X209296900Y-115205700D02*
X215721200Y-121630000D01*
X206879500Y-112357000D02*
X209296900Y-114774400D01*
X209296900Y-114774400D02*
X209296900Y-115205700D01*
X215721200Y-121630000D02*
X217270000Y-121630000D01*
X199707700Y-98342000D02*
X206879500Y-105513800D01*
X206879500Y-105513800D02*
X206879500Y-112357000D01*
X217270000Y-121630000D02*
X218540000Y-122900000D01*
X218540000Y-107660000D02*
X217270000Y-106390000D01*
X217270000Y-106390000D02*
X213619500Y-106390000D01*
X205087700Y-98683900D02*
X195265100Y-88861300D01*
X205913400Y-98683900D02*
X205087700Y-98683900D01*
X213619500Y-106390000D02*
X205913400Y-98683900D01*
X195875000Y-96553600D02*
X195875000Y-101999200D01*
X201072200Y-96867600D02*
X200261700Y-96057100D01*
X208884300Y-115008500D02*
X208884300Y-115784300D01*
X200261700Y-96057100D02*
X196371500Y-96057100D01*
X195875000Y-101999200D02*
X208884300Y-115008500D01*
X196371500Y-96057100D02*
X195875000Y-96553600D01*
X208884300Y-115784300D02*
X216000000Y-122900000D01*
X209402200Y-106142200D02*
X209402200Y-104440400D01*
X195492800Y-95724400D02*
X194476700Y-96740500D01*
X216000000Y-112740000D02*
X209402200Y-106142200D01*
X209402200Y-104440400D02*
X200686200Y-95724400D01*
X200686200Y-95724400D02*
X195492800Y-95724400D01*
M02*
