G04 #@! TF.GenerationSoftware,KiCad,Pcbnew,9.0.3*
G04 #@! TF.CreationDate,2025-08-01T19:28:12-07:00*
G04 #@! TF.ProjectId,CardTestFixture,43617264-5465-4737-9446-697874757265,A*
G04 #@! TF.SameCoordinates,Original*
G04 #@! TF.FileFunction,Paste,Top*
G04 #@! TF.FilePolarity,Positive*
%FSLAX46Y46*%
G04 Gerber Fmt 4.6, Leading zero omitted, Abs format (unit mm)*
G04 Created by KiCad (PCBNEW 9.0.3) date 2025-08-01 19:28:12*
%MOMM*%
%LPD*%
G01*
G04 APERTURE LIST*
G04 Aperture macros list*
%AMRoundRect*
0 Rectangle with rounded corners*
0 $1 Rounding radius*
0 $2 $3 $4 $5 $6 $7 $8 $9 X,Y pos of 4 corners*
0 Add a 4 corners polygon primitive as box body*
4,1,4,$2,$3,$4,$5,$6,$7,$8,$9,$2,$3,0*
0 Add four circle primitives for the rounded corners*
1,1,$1+$1,$2,$3*
1,1,$1+$1,$4,$5*
1,1,$1+$1,$6,$7*
1,1,$1+$1,$8,$9*
0 Add four rect primitives between the rounded corners*
20,1,$1+$1,$2,$3,$4,$5,0*
20,1,$1+$1,$4,$5,$6,$7,0*
20,1,$1+$1,$6,$7,$8,$9,0*
20,1,$1+$1,$8,$9,$2,$3,0*%
G04 Aperture macros list end*
%ADD10RoundRect,0.225000X0.250000X-0.225000X0.250000X0.225000X-0.250000X0.225000X-0.250000X-0.225000X0*%
%ADD11RoundRect,0.150000X0.150000X-0.875000X0.150000X0.875000X-0.150000X0.875000X-0.150000X-0.875000X0*%
%ADD12RoundRect,0.225000X-0.250000X0.225000X-0.250000X-0.225000X0.250000X-0.225000X0.250000X0.225000X0*%
%ADD13RoundRect,0.218750X0.256250X-0.218750X0.256250X0.218750X-0.256250X0.218750X-0.256250X-0.218750X0*%
%ADD14R,0.300000X1.350000*%
%ADD15RoundRect,0.250000X0.325000X0.650000X-0.325000X0.650000X-0.325000X-0.650000X0.325000X-0.650000X0*%
%ADD16R,1.000000X1.800000*%
G04 APERTURE END LIST*
D10*
X88080000Y-151942500D03*
X88080000Y-150392500D03*
D11*
X192110000Y-68700000D03*
X193380000Y-68700000D03*
X194650000Y-68700000D03*
X195920000Y-68700000D03*
X197190000Y-68700000D03*
X198460000Y-68700000D03*
X199730000Y-68700000D03*
X201000000Y-68700000D03*
X202270000Y-68700000D03*
X203540000Y-68700000D03*
X204810000Y-68700000D03*
X206080000Y-68700000D03*
X207350000Y-68700000D03*
X208620000Y-68700000D03*
X208620000Y-59400000D03*
X207350000Y-59400000D03*
X206080000Y-59400000D03*
X204810000Y-59400000D03*
X203540000Y-59400000D03*
X202270000Y-59400000D03*
X201000000Y-59400000D03*
X199730000Y-59400000D03*
X198460000Y-59400000D03*
X197190000Y-59400000D03*
X195920000Y-59400000D03*
X194650000Y-59400000D03*
X193380000Y-59400000D03*
X192110000Y-59400000D03*
D12*
X175222800Y-106625000D03*
X175222800Y-108175000D03*
D11*
X192110000Y-104625000D03*
X193380000Y-104625000D03*
X194650000Y-104625000D03*
X195920000Y-104625000D03*
X197190000Y-104625000D03*
X198460000Y-104625000D03*
X199730000Y-104625000D03*
X201000000Y-104625000D03*
X202270000Y-104625000D03*
X203540000Y-104625000D03*
X204810000Y-104625000D03*
X206080000Y-104625000D03*
X207350000Y-104625000D03*
X208620000Y-104625000D03*
X208620000Y-95325000D03*
X207350000Y-95325000D03*
X206080000Y-95325000D03*
X204810000Y-95325000D03*
X203540000Y-95325000D03*
X202270000Y-95325000D03*
X201000000Y-95325000D03*
X199730000Y-95325000D03*
X198460000Y-95325000D03*
X197190000Y-95325000D03*
X195920000Y-95325000D03*
X194650000Y-95325000D03*
X193380000Y-95325000D03*
X192110000Y-95325000D03*
D10*
X103320000Y-151942500D03*
X103320000Y-150392500D03*
D13*
X103320000Y-155400000D03*
X103320000Y-153825000D03*
D12*
X175222800Y-124850000D03*
X175222800Y-126400000D03*
D10*
X128720000Y-151942500D03*
X128720000Y-150392500D03*
X159200000Y-151942500D03*
X159200000Y-150392500D03*
D12*
X202269800Y-106770200D03*
X202269800Y-108320200D03*
X175270000Y-70770200D03*
X175270000Y-72320200D03*
D13*
X113480000Y-155400000D03*
X113480000Y-153825000D03*
D10*
X118560000Y-151942500D03*
X118560000Y-150392500D03*
D11*
X111020300Y-104850000D03*
X112290300Y-104850000D03*
X113560300Y-104850000D03*
X114830300Y-104850000D03*
X116100300Y-104850000D03*
X117370300Y-104850000D03*
X118640300Y-104850000D03*
X119910300Y-104850000D03*
X121180300Y-104850000D03*
X122450300Y-104850000D03*
X123720300Y-104850000D03*
X124990300Y-104850000D03*
X126260300Y-104850000D03*
X127530300Y-104850000D03*
X127530300Y-95550000D03*
X126260300Y-95550000D03*
X124990300Y-95550000D03*
X123720300Y-95550000D03*
X122450300Y-95550000D03*
X121180300Y-95550000D03*
X119910300Y-95550000D03*
X118640300Y-95550000D03*
X117370300Y-95550000D03*
X116100300Y-95550000D03*
X114830300Y-95550000D03*
X113560300Y-95550000D03*
X112290300Y-95550000D03*
X111020300Y-95550000D03*
D10*
X93160000Y-151942500D03*
X93160000Y-150392500D03*
D12*
X148066500Y-124850000D03*
X148066500Y-126400000D03*
D10*
X138880000Y-151942500D03*
X138880000Y-150392500D03*
D13*
X143960000Y-155400000D03*
X143960000Y-153825000D03*
X83000000Y-155400000D03*
X83000000Y-153825000D03*
X88080000Y-155400000D03*
X88080000Y-153825000D03*
D11*
X137906500Y-140625000D03*
X139176500Y-140625000D03*
X140446500Y-140625000D03*
X141716500Y-140625000D03*
X142986500Y-140625000D03*
X144256500Y-140625000D03*
X145526500Y-140625000D03*
X146796500Y-140625000D03*
X148066500Y-140625000D03*
X149336500Y-140625000D03*
X150606500Y-140625000D03*
X151876500Y-140625000D03*
X153146500Y-140625000D03*
X154416500Y-140625000D03*
X154416500Y-131325000D03*
X153146500Y-131325000D03*
X151876500Y-131325000D03*
X150606500Y-131325000D03*
X149336500Y-131325000D03*
X148066500Y-131325000D03*
X146796500Y-131325000D03*
X145526500Y-131325000D03*
X144256500Y-131325000D03*
X142986500Y-131325000D03*
X141716500Y-131325000D03*
X140446500Y-131325000D03*
X139176500Y-131325000D03*
X137906500Y-131325000D03*
D13*
X93160000Y-155400000D03*
X93160000Y-153825000D03*
D11*
X137906500Y-122770200D03*
X139176500Y-122770200D03*
X140446500Y-122770200D03*
X141716500Y-122770200D03*
X142986500Y-122770200D03*
X144256500Y-122770200D03*
X145526500Y-122770200D03*
X146796500Y-122770200D03*
X148066500Y-122770200D03*
X149336500Y-122770200D03*
X150606500Y-122770200D03*
X151876500Y-122770200D03*
X153146500Y-122770200D03*
X154416500Y-122770200D03*
X154416500Y-113470200D03*
X153146500Y-113470200D03*
X151876500Y-113470200D03*
X150606500Y-113470200D03*
X149336500Y-113470200D03*
X148066500Y-113470200D03*
X146796500Y-113470200D03*
X145526500Y-113470200D03*
X144256500Y-113470200D03*
X142986500Y-113470200D03*
X141716500Y-113470200D03*
X140446500Y-113470200D03*
X139176500Y-113470200D03*
X137906500Y-113470200D03*
X84134000Y-86700000D03*
X85404000Y-86700000D03*
X86674000Y-86700000D03*
X87944000Y-86700000D03*
X89214000Y-86700000D03*
X90484000Y-86700000D03*
X91754000Y-86700000D03*
X93024000Y-86700000D03*
X94294000Y-86700000D03*
X95564000Y-86700000D03*
X96834000Y-86700000D03*
X98104000Y-86700000D03*
X99374000Y-86700000D03*
X100644000Y-86700000D03*
X100644000Y-77400000D03*
X99374000Y-77400000D03*
X98104000Y-77400000D03*
X96834000Y-77400000D03*
X95564000Y-77400000D03*
X94294000Y-77400000D03*
X93024000Y-77400000D03*
X91754000Y-77400000D03*
X90484000Y-77400000D03*
X89214000Y-77400000D03*
X87944000Y-77400000D03*
X86674000Y-77400000D03*
X85404000Y-77400000D03*
X84134000Y-77400000D03*
D10*
X133800000Y-151942500D03*
X133800000Y-150392500D03*
D13*
X108400000Y-155400000D03*
X108400000Y-153825000D03*
D10*
X113480000Y-151942500D03*
X113480000Y-150392500D03*
D11*
X137906500Y-86770200D03*
X139176500Y-86770200D03*
X140446500Y-86770200D03*
X141716500Y-86770200D03*
X142986500Y-86770200D03*
X144256500Y-86770200D03*
X145526500Y-86770200D03*
X146796500Y-86770200D03*
X148066500Y-86770200D03*
X149336500Y-86770200D03*
X150606500Y-86770200D03*
X151876500Y-86770200D03*
X153146500Y-86770200D03*
X154416500Y-86770200D03*
X154416500Y-77470200D03*
X153146500Y-77470200D03*
X151876500Y-77470200D03*
X150606500Y-77470200D03*
X149336500Y-77470200D03*
X148066500Y-77470200D03*
X146796500Y-77470200D03*
X145526500Y-77470200D03*
X144256500Y-77470200D03*
X142986500Y-77470200D03*
X141716500Y-77470200D03*
X140446500Y-77470200D03*
X139176500Y-77470200D03*
X137906500Y-77470200D03*
D12*
X94294000Y-52700000D03*
X94294000Y-54250000D03*
D14*
X117498900Y-40622500D03*
X117498900Y-35772500D03*
X117998900Y-40622500D03*
X117998900Y-35772500D03*
X118498900Y-40622500D03*
X118498900Y-35772500D03*
X118998900Y-40622500D03*
X118998900Y-35772500D03*
X119498900Y-40622500D03*
X119498900Y-35772500D03*
X119998900Y-40622500D03*
X119998900Y-35772500D03*
X120498900Y-40622500D03*
X120498900Y-35772500D03*
X120998900Y-40622500D03*
X120998900Y-35772500D03*
X121498900Y-40622500D03*
X121498900Y-35772500D03*
X121998900Y-40622500D03*
X121998900Y-35772500D03*
X122498900Y-40622500D03*
X122498900Y-35772500D03*
X122998900Y-40622500D03*
X122998900Y-35772500D03*
X123498900Y-40622500D03*
X123498900Y-35772500D03*
X123998900Y-40622500D03*
X123998900Y-35772500D03*
X124498900Y-40622500D03*
X124498900Y-35772500D03*
X124998900Y-40622500D03*
X124998900Y-35772500D03*
X125498900Y-40622500D03*
X125498900Y-35772500D03*
X125998900Y-40622500D03*
X125998900Y-35772500D03*
X126498900Y-40622500D03*
X126498900Y-35772500D03*
X126998900Y-40622500D03*
X126998900Y-35772500D03*
X127498900Y-40622500D03*
X127498900Y-35772500D03*
X127998900Y-40622500D03*
X127998900Y-35772500D03*
X128498900Y-40622500D03*
X128498900Y-35772500D03*
X128998900Y-40622500D03*
X128998900Y-35772500D03*
X129498900Y-40622500D03*
X129498900Y-35772500D03*
X129998900Y-40622500D03*
X129998900Y-35772500D03*
X130498900Y-40622500D03*
X130498900Y-35772500D03*
X130998900Y-40622500D03*
X130998900Y-35772500D03*
X131498900Y-40622500D03*
X131498900Y-35772500D03*
X131998900Y-40622500D03*
X131998900Y-35772500D03*
X132498900Y-40622500D03*
X132498900Y-35772500D03*
X132998900Y-40622500D03*
X132998900Y-35772500D03*
X133498900Y-40622500D03*
X133498900Y-35772500D03*
X133998900Y-40622500D03*
X133998900Y-35772500D03*
X134498900Y-40622500D03*
X134498900Y-35772500D03*
X134998900Y-40622500D03*
X134998900Y-35772500D03*
X135498900Y-40622500D03*
X135498900Y-35772500D03*
X135998900Y-40622500D03*
X135998900Y-35772500D03*
X136498900Y-40622500D03*
X136498900Y-35772500D03*
X136998900Y-40622500D03*
X136998900Y-35772500D03*
X137498900Y-40622500D03*
X137498900Y-35772500D03*
X137998900Y-40622500D03*
X137998900Y-35772500D03*
X138498900Y-40622500D03*
X138498900Y-35772500D03*
X138998900Y-40622500D03*
X138998900Y-35772500D03*
X139498900Y-40622500D03*
X139498900Y-35772500D03*
X139998900Y-40622500D03*
X139998900Y-35772500D03*
X140498900Y-40622500D03*
X140498900Y-35772500D03*
X140998900Y-40622500D03*
X140998900Y-35772500D03*
X141498900Y-40622500D03*
X141498900Y-35772500D03*
X141998900Y-40622500D03*
X141998900Y-35772500D03*
X142498900Y-40622500D03*
X142498900Y-35772500D03*
X142998900Y-40622500D03*
X142998900Y-35772500D03*
X143498900Y-40622500D03*
X143498900Y-35772500D03*
X143998900Y-40622500D03*
X143998900Y-35772500D03*
X144498900Y-40622500D03*
X144498900Y-35772500D03*
X144998900Y-40622500D03*
X144998900Y-35772500D03*
X145498900Y-40622500D03*
X145498900Y-35772500D03*
X145998900Y-40622500D03*
X145998900Y-35772500D03*
X146498900Y-40622500D03*
X146498900Y-35772500D03*
X146998900Y-40622500D03*
X146998900Y-35772500D03*
X147498900Y-40622500D03*
X147498900Y-35772500D03*
X147998900Y-40622500D03*
X147998900Y-35772500D03*
X148498900Y-40622500D03*
X148498900Y-35772500D03*
X148998900Y-40622500D03*
X148998900Y-35772500D03*
X149498900Y-40622500D03*
X149498900Y-35772500D03*
X149998900Y-40622500D03*
X149998900Y-35772500D03*
X150498900Y-40622500D03*
X150498900Y-35772500D03*
X150998900Y-40622500D03*
X150998900Y-35772500D03*
X151498900Y-40622500D03*
X151498900Y-35772500D03*
X151998900Y-40622500D03*
X151998900Y-35772500D03*
X152498900Y-40622500D03*
X152498900Y-35772500D03*
X152998900Y-40622500D03*
X152998900Y-35772500D03*
X153498900Y-40622500D03*
X153498900Y-35772500D03*
X156498900Y-40622500D03*
X156498900Y-35772500D03*
X156998900Y-40622500D03*
X156998900Y-35772500D03*
X157498900Y-40622500D03*
X157498900Y-35772500D03*
X157998900Y-40622500D03*
X157998900Y-35772500D03*
X158498900Y-40622500D03*
X158498900Y-35772500D03*
X158998900Y-40622500D03*
X158998900Y-35772500D03*
X159498900Y-40622500D03*
X159498900Y-35772500D03*
X159998900Y-40622500D03*
X159998900Y-35772500D03*
X160498900Y-40622500D03*
X160498900Y-35772500D03*
X160998900Y-40622500D03*
X160998900Y-35772500D03*
X161498900Y-40622500D03*
X161498900Y-35772500D03*
X161998900Y-40622500D03*
X161998900Y-35772500D03*
X162498900Y-40622500D03*
X162498900Y-35772500D03*
X162998900Y-40622500D03*
X162998900Y-35772500D03*
X163498900Y-40622500D03*
X163498900Y-35772500D03*
X163998900Y-40622500D03*
X163998900Y-35772500D03*
X164498900Y-40622500D03*
X164498900Y-35772500D03*
X164998900Y-40622500D03*
X164998900Y-35772500D03*
X165498900Y-40622500D03*
X165498900Y-35772500D03*
X165998900Y-40622500D03*
X165998900Y-35772500D03*
X166498900Y-40622500D03*
X166498900Y-35772500D03*
X166998900Y-40622500D03*
X166998900Y-35772500D03*
X167498900Y-40622500D03*
X167498900Y-35772500D03*
X167998900Y-40622500D03*
X167998900Y-35772500D03*
X168498900Y-40622500D03*
X168498900Y-35772500D03*
X168998900Y-40622500D03*
X168998900Y-35772500D03*
X169498900Y-40622500D03*
X169498900Y-35772500D03*
X169998900Y-40622500D03*
X169998900Y-35772500D03*
X170498900Y-40622500D03*
X170498900Y-35772500D03*
X170998900Y-40622500D03*
X170998900Y-35772500D03*
X171498900Y-40622500D03*
X171498900Y-35772500D03*
X171998900Y-40622500D03*
X171998900Y-35772500D03*
X172498900Y-40622500D03*
X172498900Y-35772500D03*
X172998900Y-40622500D03*
X172998900Y-35772500D03*
X173498900Y-40622500D03*
X173498900Y-35772500D03*
X173998900Y-40622500D03*
X173998900Y-35772500D03*
X174498900Y-40622500D03*
X174498900Y-35772500D03*
X174998900Y-40622500D03*
X174998900Y-35772500D03*
X175498900Y-40622500D03*
X175498900Y-35772500D03*
X175998900Y-40622500D03*
X175998900Y-35772500D03*
X176498900Y-40622500D03*
X176498900Y-35772500D03*
X176998900Y-40622500D03*
X176998900Y-35772500D03*
X177498900Y-40622500D03*
X177498900Y-35772500D03*
X177998900Y-40622500D03*
X177998900Y-35772500D03*
X178498900Y-40622500D03*
X178498900Y-35772500D03*
X178998900Y-40622500D03*
X178998900Y-35772500D03*
X179498900Y-40622500D03*
X179498900Y-35772500D03*
X179998900Y-40622500D03*
X179998900Y-35772500D03*
X180498900Y-40622500D03*
X180498900Y-35772500D03*
X180998900Y-40622500D03*
X180998900Y-35772500D03*
X181498900Y-40622500D03*
X181498900Y-35772500D03*
X181998900Y-40622500D03*
X181998900Y-35772500D03*
X182498900Y-40622500D03*
X182498900Y-35772500D03*
X182998900Y-40622500D03*
X182998900Y-35772500D03*
X183498900Y-40622500D03*
X183498900Y-35772500D03*
X183998900Y-40622500D03*
X183998900Y-35772500D03*
X184498900Y-40622500D03*
X184498900Y-35772500D03*
X184998900Y-40622500D03*
X184998900Y-35772500D03*
X185498900Y-40622500D03*
X185498900Y-35772500D03*
X185998900Y-40622500D03*
X185998900Y-35772500D03*
X186498900Y-40622500D03*
X186498900Y-35772500D03*
X186998900Y-40622500D03*
X186998900Y-35772500D03*
X187498900Y-40622500D03*
X187498900Y-35772500D03*
X187998900Y-40622500D03*
X187998900Y-35772500D03*
X188498900Y-40622500D03*
X188498900Y-35772500D03*
X188998900Y-40622500D03*
X188998900Y-35772500D03*
X189498900Y-40622500D03*
X189498900Y-35772500D03*
D11*
X84134000Y-50700000D03*
X85404000Y-50700000D03*
X86674000Y-50700000D03*
X87944000Y-50700000D03*
X89214000Y-50700000D03*
X90484000Y-50700000D03*
X91754000Y-50700000D03*
X93024000Y-50700000D03*
X94294000Y-50700000D03*
X95564000Y-50700000D03*
X96834000Y-50700000D03*
X98104000Y-50700000D03*
X99374000Y-50700000D03*
X100644000Y-50700000D03*
X100644000Y-41400000D03*
X99374000Y-41400000D03*
X98104000Y-41400000D03*
X96834000Y-41400000D03*
X95564000Y-41400000D03*
X94294000Y-41400000D03*
X93024000Y-41400000D03*
X91754000Y-41400000D03*
X90484000Y-41400000D03*
X89214000Y-41400000D03*
X87944000Y-41400000D03*
X86674000Y-41400000D03*
X85404000Y-41400000D03*
X84134000Y-41400000D03*
X192015000Y-140625000D03*
X193285000Y-140625000D03*
X194555000Y-140625000D03*
X195825000Y-140625000D03*
X197095000Y-140625000D03*
X198365000Y-140625000D03*
X199635000Y-140625000D03*
X200905000Y-140625000D03*
X202175000Y-140625000D03*
X203445000Y-140625000D03*
X204715000Y-140625000D03*
X205985000Y-140625000D03*
X207255000Y-140625000D03*
X208525000Y-140625000D03*
X208525000Y-131325000D03*
X207255000Y-131325000D03*
X205985000Y-131325000D03*
X204715000Y-131325000D03*
X203445000Y-131325000D03*
X202175000Y-131325000D03*
X200905000Y-131325000D03*
X199635000Y-131325000D03*
X198365000Y-131325000D03*
X197095000Y-131325000D03*
X195825000Y-131325000D03*
X194555000Y-131325000D03*
X193285000Y-131325000D03*
X192015000Y-131325000D03*
X165062800Y-86770200D03*
X166332800Y-86770200D03*
X167602800Y-86770200D03*
X168872800Y-86770200D03*
X170142800Y-86770200D03*
X171412800Y-86770200D03*
X172682800Y-86770200D03*
X173952800Y-86770200D03*
X175222800Y-86770200D03*
X176492800Y-86770200D03*
X177762800Y-86770200D03*
X179032800Y-86770200D03*
X180302800Y-86770200D03*
X181572800Y-86770200D03*
X181572800Y-77470200D03*
X180302800Y-77470200D03*
X179032800Y-77470200D03*
X177762800Y-77470200D03*
X176492800Y-77470200D03*
X175222800Y-77470200D03*
X173952800Y-77470200D03*
X172682800Y-77470200D03*
X171412800Y-77470200D03*
X170142800Y-77470200D03*
X168872800Y-77470200D03*
X167602800Y-77470200D03*
X166332800Y-77470200D03*
X165062800Y-77470200D03*
D12*
X148066500Y-106850000D03*
X148066500Y-108400000D03*
D13*
X128720000Y-155400000D03*
X128720000Y-153825000D03*
D12*
X202270000Y-88800000D03*
X202270000Y-90350000D03*
D10*
X123640000Y-151942500D03*
X123640000Y-150392500D03*
D11*
X84134000Y-68700000D03*
X85404000Y-68700000D03*
X86674000Y-68700000D03*
X87944000Y-68700000D03*
X89214000Y-68700000D03*
X90484000Y-68700000D03*
X91754000Y-68700000D03*
X93024000Y-68700000D03*
X94294000Y-68700000D03*
X95564000Y-68700000D03*
X96834000Y-68700000D03*
X98104000Y-68700000D03*
X99374000Y-68700000D03*
X100644000Y-68700000D03*
X100644000Y-59400000D03*
X99374000Y-59400000D03*
X98104000Y-59400000D03*
X96834000Y-59400000D03*
X95564000Y-59400000D03*
X94294000Y-59400000D03*
X93024000Y-59400000D03*
X91754000Y-59400000D03*
X90484000Y-59400000D03*
X89214000Y-59400000D03*
X87944000Y-59400000D03*
X86674000Y-59400000D03*
X85404000Y-59400000D03*
X84134000Y-59400000D03*
D12*
X121180300Y-70850000D03*
X121180300Y-72400000D03*
X148100000Y-70850000D03*
X148100000Y-72400000D03*
D10*
X108400000Y-151942500D03*
X108400000Y-150392500D03*
D11*
X165062800Y-68700000D03*
X166332800Y-68700000D03*
X167602800Y-68700000D03*
X168872800Y-68700000D03*
X170142800Y-68700000D03*
X171412800Y-68700000D03*
X172682800Y-68700000D03*
X173952800Y-68700000D03*
X175222800Y-68700000D03*
X176492800Y-68700000D03*
X177762800Y-68700000D03*
X179032800Y-68700000D03*
X180302800Y-68700000D03*
X181572800Y-68700000D03*
X181572800Y-59400000D03*
X180302800Y-59400000D03*
X179032800Y-59400000D03*
X177762800Y-59400000D03*
X176492800Y-59400000D03*
X175222800Y-59400000D03*
X173952800Y-59400000D03*
X172682800Y-59400000D03*
X171412800Y-59400000D03*
X170142800Y-59400000D03*
X168872800Y-59400000D03*
X167602800Y-59400000D03*
X166332800Y-59400000D03*
X165062800Y-59400000D03*
D10*
X143960000Y-151942500D03*
X143960000Y-150392500D03*
D11*
X137906500Y-104770200D03*
X139176500Y-104770200D03*
X140446500Y-104770200D03*
X141716500Y-104770200D03*
X142986500Y-104770200D03*
X144256500Y-104770200D03*
X145526500Y-104770200D03*
X146796500Y-104770200D03*
X148066500Y-104770200D03*
X149336500Y-104770200D03*
X150606500Y-104770200D03*
X151876500Y-104770200D03*
X153146500Y-104770200D03*
X154416500Y-104770200D03*
X154416500Y-95470200D03*
X153146500Y-95470200D03*
X151876500Y-95470200D03*
X150606500Y-95470200D03*
X149336500Y-95470200D03*
X148066500Y-95470200D03*
X146796500Y-95470200D03*
X145526500Y-95470200D03*
X144256500Y-95470200D03*
X142986500Y-95470200D03*
X141716500Y-95470200D03*
X140446500Y-95470200D03*
X139176500Y-95470200D03*
X137906500Y-95470200D03*
D12*
X121180300Y-88850000D03*
X121180300Y-90400000D03*
D11*
X111020300Y-86850000D03*
X112290300Y-86850000D03*
X113560300Y-86850000D03*
X114830300Y-86850000D03*
X116100300Y-86850000D03*
X117370300Y-86850000D03*
X118640300Y-86850000D03*
X119910300Y-86850000D03*
X121180300Y-86850000D03*
X122450300Y-86850000D03*
X123720300Y-86850000D03*
X124990300Y-86850000D03*
X126260300Y-86850000D03*
X127530300Y-86850000D03*
X127530300Y-77550000D03*
X126260300Y-77550000D03*
X124990300Y-77550000D03*
X123720300Y-77550000D03*
X122450300Y-77550000D03*
X121180300Y-77550000D03*
X119910300Y-77550000D03*
X118640300Y-77550000D03*
X117370300Y-77550000D03*
X116100300Y-77550000D03*
X114830300Y-77550000D03*
X113560300Y-77550000D03*
X112290300Y-77550000D03*
X111020300Y-77550000D03*
D12*
X148066500Y-88850000D03*
X148066500Y-90400000D03*
D10*
X83000000Y-151942500D03*
X83000000Y-150392500D03*
D12*
X175222800Y-142625000D03*
X175222800Y-144175000D03*
D11*
X111020300Y-68850000D03*
X112290300Y-68850000D03*
X113560300Y-68850000D03*
X114830300Y-68850000D03*
X116100300Y-68850000D03*
X117370300Y-68850000D03*
X118640300Y-68850000D03*
X119910300Y-68850000D03*
X121180300Y-68850000D03*
X122450300Y-68850000D03*
X123720300Y-68850000D03*
X124990300Y-68850000D03*
X126260300Y-68850000D03*
X127530300Y-68850000D03*
X127530300Y-59550000D03*
X126260300Y-59550000D03*
X124990300Y-59550000D03*
X123720300Y-59550000D03*
X122450300Y-59550000D03*
X121180300Y-59550000D03*
X119910300Y-59550000D03*
X118640300Y-59550000D03*
X117370300Y-59550000D03*
X116100300Y-59550000D03*
X114830300Y-59550000D03*
X113560300Y-59550000D03*
X112290300Y-59550000D03*
X111020300Y-59550000D03*
D12*
X202200000Y-124800000D03*
X202200000Y-126350000D03*
D11*
X165062800Y-140625000D03*
X166332800Y-140625000D03*
X167602800Y-140625000D03*
X168872800Y-140625000D03*
X170142800Y-140625000D03*
X171412800Y-140625000D03*
X172682800Y-140625000D03*
X173952800Y-140625000D03*
X175222800Y-140625000D03*
X176492800Y-140625000D03*
X177762800Y-140625000D03*
X179032800Y-140625000D03*
X180302800Y-140625000D03*
X181572800Y-140625000D03*
X181572800Y-131325000D03*
X180302800Y-131325000D03*
X179032800Y-131325000D03*
X177762800Y-131325000D03*
X176492800Y-131325000D03*
X175222800Y-131325000D03*
X173952800Y-131325000D03*
X172682800Y-131325000D03*
X171412800Y-131325000D03*
X170142800Y-131325000D03*
X168872800Y-131325000D03*
X167602800Y-131325000D03*
X166332800Y-131325000D03*
X165062800Y-131325000D03*
D13*
X154120000Y-155400000D03*
X154120000Y-153825000D03*
X133800000Y-155400000D03*
X133800000Y-153825000D03*
X118560000Y-155400000D03*
X118560000Y-153825000D03*
D12*
X148066500Y-142625000D03*
X148066500Y-144175000D03*
D11*
X84134000Y-104700000D03*
X85404000Y-104700000D03*
X86674000Y-104700000D03*
X87944000Y-104700000D03*
X89214000Y-104700000D03*
X90484000Y-104700000D03*
X91754000Y-104700000D03*
X93024000Y-104700000D03*
X94294000Y-104700000D03*
X95564000Y-104700000D03*
X96834000Y-104700000D03*
X98104000Y-104700000D03*
X99374000Y-104700000D03*
X100644000Y-104700000D03*
X100644000Y-95400000D03*
X99374000Y-95400000D03*
X98104000Y-95400000D03*
X96834000Y-95400000D03*
X95564000Y-95400000D03*
X94294000Y-95400000D03*
X93024000Y-95400000D03*
X91754000Y-95400000D03*
X90484000Y-95400000D03*
X89214000Y-95400000D03*
X87944000Y-95400000D03*
X86674000Y-95400000D03*
X85404000Y-95400000D03*
X84134000Y-95400000D03*
D13*
X159200000Y-155400000D03*
X159200000Y-153825000D03*
D11*
X192109800Y-122770200D03*
X193379800Y-122770200D03*
X194649800Y-122770200D03*
X195919800Y-122770200D03*
X197189800Y-122770200D03*
X198459800Y-122770200D03*
X199729800Y-122770200D03*
X200999800Y-122770200D03*
X202269800Y-122770200D03*
X203539800Y-122770200D03*
X204809800Y-122770200D03*
X206079800Y-122770200D03*
X207349800Y-122770200D03*
X208619800Y-122770200D03*
X208619800Y-113470200D03*
X207349800Y-113470200D03*
X206079800Y-113470200D03*
X204809800Y-113470200D03*
X203539800Y-113470200D03*
X202269800Y-113470200D03*
X200999800Y-113470200D03*
X199729800Y-113470200D03*
X198459800Y-113470200D03*
X197189800Y-113470200D03*
X195919800Y-113470200D03*
X194649800Y-113470200D03*
X193379800Y-113470200D03*
X192109800Y-113470200D03*
X111020300Y-122850000D03*
X112290300Y-122850000D03*
X113560300Y-122850000D03*
X114830300Y-122850000D03*
X116100300Y-122850000D03*
X117370300Y-122850000D03*
X118640300Y-122850000D03*
X119910300Y-122850000D03*
X121180300Y-122850000D03*
X122450300Y-122850000D03*
X123720300Y-122850000D03*
X124990300Y-122850000D03*
X126260300Y-122850000D03*
X127530300Y-122850000D03*
X127530300Y-113550000D03*
X126260300Y-113550000D03*
X124990300Y-113550000D03*
X123720300Y-113550000D03*
X122450300Y-113550000D03*
X121180300Y-113550000D03*
X119910300Y-113550000D03*
X118640300Y-113550000D03*
X117370300Y-113550000D03*
X116100300Y-113550000D03*
X114830300Y-113550000D03*
X113560300Y-113550000D03*
X112290300Y-113550000D03*
X111020300Y-113550000D03*
D15*
X88228000Y-113392400D03*
X85278000Y-113392400D03*
D12*
X94294000Y-106700000D03*
X94294000Y-108250000D03*
X94294000Y-88700000D03*
X94294000Y-90250000D03*
D16*
X122300000Y-131160000D03*
X119760000Y-131160000D03*
X117220000Y-131160000D03*
X114680000Y-131160000D03*
X112140000Y-131160000D03*
X109600000Y-131160000D03*
X107060000Y-131160000D03*
X104520000Y-131160000D03*
X101980000Y-131160000D03*
X99440000Y-131160000D03*
X96900000Y-131160000D03*
X94360000Y-131160000D03*
X91820000Y-131160000D03*
X89280000Y-131160000D03*
X86740000Y-131160000D03*
X86740000Y-146400000D03*
X89280000Y-146400000D03*
X91820000Y-146400000D03*
X94360000Y-146400000D03*
X96900000Y-146400000D03*
X99440000Y-146400000D03*
X101980000Y-146400000D03*
X104520000Y-146400000D03*
X107060000Y-146400000D03*
X109600000Y-146400000D03*
X112140000Y-146400000D03*
X114680000Y-146400000D03*
X117220000Y-146400000D03*
X119760000Y-146400000D03*
X122300000Y-146400000D03*
D10*
X154120000Y-151942500D03*
X154120000Y-150392500D03*
D11*
X165062800Y-104625000D03*
X166332800Y-104625000D03*
X167602800Y-104625000D03*
X168872800Y-104625000D03*
X170142800Y-104625000D03*
X171412800Y-104625000D03*
X172682800Y-104625000D03*
X173952800Y-104625000D03*
X175222800Y-104625000D03*
X176492800Y-104625000D03*
X177762800Y-104625000D03*
X179032800Y-104625000D03*
X180302800Y-104625000D03*
X181572800Y-104625000D03*
X181572800Y-95325000D03*
X180302800Y-95325000D03*
X179032800Y-95325000D03*
X177762800Y-95325000D03*
X176492800Y-95325000D03*
X175222800Y-95325000D03*
X173952800Y-95325000D03*
X172682800Y-95325000D03*
X171412800Y-95325000D03*
X170142800Y-95325000D03*
X168872800Y-95325000D03*
X167602800Y-95325000D03*
X166332800Y-95325000D03*
X165062800Y-95325000D03*
D12*
X202270000Y-70850000D03*
X202270000Y-72400000D03*
X121180300Y-124850000D03*
X121180300Y-126400000D03*
D13*
X123640000Y-155400000D03*
X123640000Y-153825000D03*
X149040000Y-155400000D03*
X149040000Y-153825000D03*
D11*
X165062800Y-122770200D03*
X166332800Y-122770200D03*
X167602800Y-122770200D03*
X168872800Y-122770200D03*
X170142800Y-122770200D03*
X171412800Y-122770200D03*
X172682800Y-122770200D03*
X173952800Y-122770200D03*
X175222800Y-122770200D03*
X176492800Y-122770200D03*
X177762800Y-122770200D03*
X179032800Y-122770200D03*
X180302800Y-122770200D03*
X181572800Y-122770200D03*
X181572800Y-113470200D03*
X180302800Y-113470200D03*
X179032800Y-113470200D03*
X177762800Y-113470200D03*
X176492800Y-113470200D03*
X175222800Y-113470200D03*
X173952800Y-113470200D03*
X172682800Y-113470200D03*
X171412800Y-113470200D03*
X170142800Y-113470200D03*
X168872800Y-113470200D03*
X167602800Y-113470200D03*
X166332800Y-113470200D03*
X165062800Y-113470200D03*
D12*
X202208000Y-142628000D03*
X202208000Y-144178000D03*
D10*
X98240000Y-151942500D03*
X98240000Y-150392500D03*
D13*
X138880000Y-155400000D03*
X138880000Y-153825000D03*
D11*
X192110000Y-86770200D03*
X193380000Y-86770200D03*
X194650000Y-86770200D03*
X195920000Y-86770200D03*
X197190000Y-86770200D03*
X198460000Y-86770200D03*
X199730000Y-86770200D03*
X201000000Y-86770200D03*
X202270000Y-86770200D03*
X203540000Y-86770200D03*
X204810000Y-86770200D03*
X206080000Y-86770200D03*
X207350000Y-86770200D03*
X208620000Y-86770200D03*
X208620000Y-77470200D03*
X207350000Y-77470200D03*
X206080000Y-77470200D03*
X204810000Y-77470200D03*
X203540000Y-77470200D03*
X202270000Y-77470200D03*
X201000000Y-77470200D03*
X199730000Y-77470200D03*
X198460000Y-77470200D03*
X197190000Y-77470200D03*
X195920000Y-77470200D03*
X194650000Y-77470200D03*
X193380000Y-77470200D03*
X192110000Y-77470200D03*
D12*
X121180300Y-106850000D03*
X121180300Y-108400000D03*
X94294000Y-70700000D03*
X94294000Y-72250000D03*
X175200000Y-88800000D03*
X175200000Y-90350000D03*
D13*
X98240000Y-155400000D03*
X98240000Y-153825000D03*
D10*
X149040000Y-151942500D03*
X149040000Y-150392500D03*
D11*
X137906500Y-68850000D03*
X139176500Y-68850000D03*
X140446500Y-68850000D03*
X141716500Y-68850000D03*
X142986500Y-68850000D03*
X144256500Y-68850000D03*
X145526500Y-68850000D03*
X146796500Y-68850000D03*
X148066500Y-68850000D03*
X149336500Y-68850000D03*
X150606500Y-68850000D03*
X151876500Y-68850000D03*
X153146500Y-68850000D03*
X154416500Y-68850000D03*
X154416500Y-59550000D03*
X153146500Y-59550000D03*
X151876500Y-59550000D03*
X150606500Y-59550000D03*
X149336500Y-59550000D03*
X148066500Y-59550000D03*
X146796500Y-59550000D03*
X145526500Y-59550000D03*
X144256500Y-59550000D03*
X142986500Y-59550000D03*
X141716500Y-59550000D03*
X140446500Y-59550000D03*
X139176500Y-59550000D03*
X137906500Y-59550000D03*
M02*
