G04 #@! TF.GenerationSoftware,KiCad,Pcbnew,9.0.3*
G04 #@! TF.CreationDate,2025-08-01T19:28:12-07:00*
G04 #@! TF.ProjectId,CardTestFixture,43617264-5465-4737-9446-697874757265,A*
G04 #@! TF.SameCoordinates,Original*
G04 #@! TF.FileFunction,Copper,L3,Inr*
G04 #@! TF.FilePolarity,Positive*
%FSLAX46Y46*%
G04 Gerber Fmt 4.6, Leading zero omitted, Abs format (unit mm)*
G04 Created by KiCad (PCBNEW 9.0.3) date 2025-08-01 19:28:12*
%MOMM*%
%LPD*%
G01*
G04 APERTURE LIST*
G04 Aperture macros list*
%AMRoundRect*
0 Rectangle with rounded corners*
0 $1 Rounding radius*
0 $2 $3 $4 $5 $6 $7 $8 $9 X,Y pos of 4 corners*
0 Add a 4 corners polygon primitive as box body*
4,1,4,$2,$3,$4,$5,$6,$7,$8,$9,$2,$3,0*
0 Add four circle primitives for the rounded corners*
1,1,$1+$1,$2,$3*
1,1,$1+$1,$4,$5*
1,1,$1+$1,$6,$7*
1,1,$1+$1,$8,$9*
0 Add four rect primitives between the rounded corners*
20,1,$1+$1,$2,$3,$4,$5,0*
20,1,$1+$1,$4,$5,$6,$7,0*
20,1,$1+$1,$6,$7,$8,$9,0*
20,1,$1+$1,$8,$9,$2,$3,0*%
G04 Aperture macros list end*
G04 #@! TA.AperFunction,ComponentPad*
%ADD10R,1.700000X1.700000*%
G04 #@! TD*
G04 #@! TA.AperFunction,ComponentPad*
%ADD11C,1.700000*%
G04 #@! TD*
G04 #@! TA.AperFunction,ComponentPad*
%ADD12C,1.349000*%
G04 #@! TD*
G04 #@! TA.AperFunction,ComponentPad*
%ADD13C,1.200000*%
G04 #@! TD*
G04 #@! TA.AperFunction,ComponentPad*
%ADD14RoundRect,0.250000X-0.600000X-0.600000X0.600000X-0.600000X0.600000X0.600000X-0.600000X0.600000X0*%
G04 #@! TD*
G04 #@! TA.AperFunction,ComponentPad*
%ADD15C,2.775000*%
G04 #@! TD*
G04 #@! TA.AperFunction,ViaPad*
%ADD16C,0.650000*%
G04 #@! TD*
G04 #@! TA.AperFunction,ViaPad*
%ADD17C,1.000000*%
G04 #@! TD*
G04 #@! TA.AperFunction,ViaPad*
%ADD18C,0.450000*%
G04 #@! TD*
G04 #@! TA.AperFunction,Conductor*
%ADD19C,0.152400*%
G04 #@! TD*
G04 APERTURE END LIST*
D10*
X209180000Y-151400000D03*
D11*
X206640000Y-151400000D03*
X204100000Y-151400000D03*
X201560000Y-151400000D03*
X199020000Y-151400000D03*
X196480000Y-151400000D03*
X193940000Y-151400000D03*
X191400000Y-151400000D03*
X188860000Y-151400000D03*
X186320000Y-151400000D03*
X183780000Y-151400000D03*
X181240000Y-151400000D03*
X178700000Y-151400000D03*
X176160000Y-151400000D03*
X173620000Y-151400000D03*
X171080000Y-151400000D03*
X168540000Y-151400000D03*
X166000000Y-151400000D03*
D10*
X209180000Y-155000000D03*
D11*
X206640000Y-155000000D03*
X204100000Y-155000000D03*
X201560000Y-155000000D03*
X199020000Y-155000000D03*
X196480000Y-155000000D03*
X193940000Y-155000000D03*
X191400000Y-155000000D03*
X188860000Y-155000000D03*
X186320000Y-155000000D03*
X183780000Y-155000000D03*
X181240000Y-155000000D03*
X178700000Y-155000000D03*
X176160000Y-155000000D03*
X173620000Y-155000000D03*
X171080000Y-155000000D03*
X168540000Y-155000000D03*
X166000000Y-155000000D03*
D12*
X114568900Y-38197500D03*
D13*
X191908900Y-39197500D03*
X191908900Y-37197500D03*
D12*
X193698900Y-38197500D03*
D14*
X216000000Y-59400000D03*
D11*
X218540000Y-59400000D03*
X216000000Y-61940000D03*
X218540000Y-61940000D03*
X216000000Y-64480000D03*
X218540000Y-64480000D03*
X216000000Y-67020000D03*
X218540000Y-67020000D03*
X216000000Y-69560000D03*
X218540000Y-69560000D03*
X216000000Y-72100000D03*
X218540000Y-72100000D03*
X216000000Y-74640000D03*
X218540000Y-74640000D03*
X216000000Y-77180000D03*
X218540000Y-77180000D03*
X216000000Y-79720000D03*
X218540000Y-79720000D03*
X216000000Y-82260000D03*
X218540000Y-82260000D03*
X216000000Y-84800000D03*
X218540000Y-84800000D03*
X216000000Y-87340000D03*
X218540000Y-87340000D03*
X216000000Y-89880000D03*
X218540000Y-89880000D03*
X216000000Y-92420000D03*
X218540000Y-92420000D03*
X216000000Y-94960000D03*
X218540000Y-94960000D03*
X216000000Y-97500000D03*
X218540000Y-97500000D03*
X216000000Y-100040000D03*
X218540000Y-100040000D03*
X216000000Y-102580000D03*
X218540000Y-102580000D03*
X216000000Y-105120000D03*
X218540000Y-105120000D03*
X216000000Y-107660000D03*
X218540000Y-107660000D03*
X216000000Y-110200000D03*
X218540000Y-110200000D03*
X216000000Y-112740000D03*
X218540000Y-112740000D03*
X216000000Y-115280000D03*
X218540000Y-115280000D03*
X216000000Y-117820000D03*
X218540000Y-117820000D03*
X216000000Y-120360000D03*
X218540000Y-120360000D03*
X216000000Y-122900000D03*
X218540000Y-122900000D03*
X216000000Y-125440000D03*
X218540000Y-125440000D03*
X216000000Y-127980000D03*
X218540000Y-127980000D03*
X216000000Y-130520000D03*
X218540000Y-130520000D03*
X216000000Y-133060000D03*
X218540000Y-133060000D03*
X216000000Y-135600000D03*
X218540000Y-135600000D03*
X216000000Y-138140000D03*
X218540000Y-138140000D03*
D15*
X95300000Y-120400000D03*
X100800000Y-120400000D03*
D16*
X114700000Y-129700000D03*
X150247163Y-150415576D03*
X95169795Y-48769795D03*
X122380000Y-108450000D03*
X181548500Y-111521405D03*
X177500000Y-142400000D03*
X178874200Y-129354200D03*
X203362000Y-108342250D03*
X95494000Y-90300000D03*
X145100000Y-150400000D03*
X203400000Y-139000000D03*
X205447800Y-110789092D03*
X206470599Y-93636792D03*
X99500000Y-150400000D03*
X177700000Y-88500000D03*
X94400000Y-150400000D03*
X126300000Y-75600000D03*
X206000000Y-129300000D03*
X203370000Y-72350000D03*
X151370800Y-111500000D03*
X208600000Y-111600000D03*
X203535900Y-85300000D03*
X122280000Y-72450000D03*
X179361801Y-97997608D03*
X203293000Y-144171900D03*
X203600000Y-67100000D03*
X206100000Y-75800000D03*
X176500000Y-121200000D03*
X84000000Y-113400000D03*
X128300000Y-149000000D03*
X114600000Y-150400000D03*
X135000000Y-150400000D03*
X209203100Y-93600000D03*
X89300000Y-150400000D03*
X100000000Y-75300000D03*
X149200000Y-72400000D03*
X101473400Y-59400100D03*
X149159000Y-108422000D03*
X109600000Y-150400000D03*
X95394000Y-72300000D03*
X95203645Y-66103645D03*
X179000000Y-111500000D03*
X208500000Y-129300000D03*
X208600000Y-75800000D03*
X208600000Y-57600000D03*
X181748500Y-129354200D03*
X149296300Y-67131600D03*
X95394000Y-54200000D03*
X176362000Y-72342250D03*
X202865333Y-121449299D03*
X149159000Y-90422000D03*
X150833400Y-88500000D03*
X155400000Y-150400000D03*
X175862800Y-67403500D03*
X101588000Y-41487300D03*
X97887600Y-93500000D03*
X155599800Y-92900000D03*
X119700000Y-150400000D03*
X127500000Y-111800000D03*
X104500000Y-150400000D03*
X148770000Y-138930000D03*
X122782608Y-120888501D03*
X176788100Y-103097600D03*
X160400000Y-150400000D03*
X152800000Y-61248100D03*
X203300000Y-126400000D03*
X176315000Y-108197000D03*
D17*
X119800000Y-148195000D03*
D16*
X95600000Y-85000000D03*
X203400000Y-90400000D03*
X124355205Y-102155205D03*
X122380000Y-126350000D03*
X149151000Y-126394000D03*
X95600000Y-103100000D03*
X126200000Y-57600000D03*
X124911855Y-150500600D03*
X176308000Y-144169000D03*
X119528100Y-37295900D03*
X84100000Y-150400000D03*
X206100000Y-57600000D03*
X140000000Y-150400000D03*
X176300000Y-90400000D03*
X127000000Y-93700000D03*
X179000000Y-57400000D03*
X149160000Y-144170000D03*
X95494000Y-108300000D03*
X151840000Y-132910000D03*
X176640100Y-75400000D03*
X176400000Y-126400000D03*
X122280000Y-90450000D03*
X203300000Y-124800000D03*
X95494000Y-106700000D03*
X155605300Y-94916200D03*
X122280000Y-106850000D03*
X207300000Y-129300000D03*
X203362000Y-106742250D03*
X122280000Y-88850000D03*
X149159000Y-88922000D03*
X117220000Y-132575600D03*
X180244195Y-111144195D03*
X181515600Y-96833900D03*
X182584400Y-77121000D03*
X122380000Y-124850000D03*
X154410300Y-58044900D03*
X155207600Y-77160600D03*
X207350000Y-78974000D03*
X89500000Y-113400000D03*
X95394000Y-88700000D03*
X176362000Y-70842250D03*
X207903599Y-92203792D03*
X207400000Y-57600000D03*
X118406400Y-37392300D03*
X149159000Y-106922000D03*
X149120000Y-142640000D03*
X182584400Y-59325800D03*
X203293000Y-142671900D03*
X95294000Y-52700000D03*
X122280000Y-70850000D03*
X149151000Y-124894000D03*
D17*
X117220000Y-148190000D03*
D16*
X176300000Y-88800000D03*
X176308000Y-142669000D03*
X154027700Y-129250000D03*
X207500000Y-111600000D03*
X149200000Y-70900000D03*
X176315000Y-106697000D03*
X95394000Y-70700000D03*
X203400000Y-88800000D03*
X203470000Y-70850000D03*
X176315000Y-124900000D03*
X155206200Y-112711400D03*
X180300000Y-129354200D03*
D18*
X181194900Y-121351100D03*
X180946700Y-139461300D03*
X99369900Y-67275000D03*
X154216400Y-75225300D03*
X126260300Y-106253100D03*
X206709400Y-69854500D03*
X207350000Y-88192700D03*
X206864100Y-121446900D03*
X207350000Y-106050600D03*
X152916100Y-139351100D03*
X154205300Y-85310000D03*
X100653900Y-92565200D03*
X152305300Y-102821900D03*
X126402800Y-88253900D03*
X99374000Y-52109700D03*
X126260300Y-121444100D03*
X153448000Y-121353100D03*
X128214000Y-122294400D03*
X155096500Y-86114500D03*
X87568600Y-130031300D03*
X182252300Y-140625000D03*
X154416500Y-70451900D03*
X100787500Y-67292100D03*
X155095900Y-140156700D03*
X208649500Y-100251500D03*
X128214000Y-105092200D03*
X154581300Y-121362300D03*
X101337600Y-50571000D03*
X101796300Y-104935300D03*
X128214400Y-86850000D03*
X182448100Y-121962400D03*
X209305500Y-86084700D03*
X155101300Y-104770200D03*
X208094600Y-69948900D03*
X205917000Y-106242300D03*
X178425600Y-102609300D03*
X179426300Y-139235600D03*
X124701800Y-70254700D03*
X153825000Y-106639400D03*
X179427800Y-121360700D03*
X151057000Y-85255600D03*
X125078700Y-106257400D03*
X151684400Y-73333500D03*
X152028500Y-121258300D03*
X206001400Y-120211200D03*
X151438900Y-139399400D03*
X97747000Y-70337700D03*
X86700000Y-144600000D03*
X97595500Y-51970300D03*
X125056900Y-85436600D03*
X98252200Y-85290400D03*
X179032800Y-88195400D03*
X205043500Y-85349400D03*
X125212200Y-121442100D03*
X123720300Y-60961500D03*
X178832700Y-78901300D03*
X150143600Y-114813600D03*
X96834000Y-42824800D03*
X96834700Y-60806900D03*
X97343600Y-76137200D03*
X204810000Y-60826600D03*
X112914300Y-129973900D03*
X179915400Y-101119400D03*
X148922600Y-127469800D03*
X204640400Y-112058400D03*
X177738700Y-129919300D03*
X123727500Y-78957900D03*
X178763900Y-64301500D03*
X123734500Y-114972900D03*
X150830800Y-96998800D03*
X204438400Y-129907800D03*
X204790200Y-96750800D03*
X204773100Y-78879000D03*
X177534200Y-115282300D03*
X123720300Y-96961500D03*
X200869800Y-60803600D03*
X83664000Y-154489000D03*
X199730000Y-60812000D03*
X88193700Y-153001400D03*
X197963500Y-60693700D03*
X93824400Y-153160600D03*
X196947900Y-60825700D03*
X98904800Y-153160200D03*
X104441000Y-152704000D03*
X195735700Y-60808500D03*
X194650000Y-60807500D03*
X121973100Y-151256700D03*
X114991000Y-152314000D03*
X193322500Y-60807700D03*
X120075400Y-151863500D03*
X191414300Y-59298600D03*
X124317100Y-153147900D03*
X174553400Y-138897400D03*
X190425200Y-143788700D03*
X128431000Y-156226600D03*
X134469300Y-153155700D03*
X175649200Y-138443700D03*
X150862000Y-150755200D03*
X175059800Y-137863100D03*
X170271000Y-152771300D03*
X188309600Y-146219100D03*
X154494200Y-152989800D03*
X174503300Y-137304100D03*
X192060000Y-147982900D03*
X173511000Y-153771800D03*
X91754000Y-103288100D03*
X131047700Y-41682000D03*
X164833100Y-34705200D03*
X144701600Y-121388500D03*
X147327900Y-85517300D03*
X157498500Y-37281700D03*
X120493000Y-85657500D03*
X139034700Y-37199600D03*
X112290300Y-112131200D03*
X144962200Y-47462600D03*
X142814000Y-121365600D03*
X164906200Y-44786000D03*
X86088100Y-94206400D03*
X126131100Y-45625000D03*
X143015500Y-112050800D03*
X166020000Y-36831700D03*
X127434800Y-34703000D03*
X91803300Y-75985600D03*
X137930100Y-76051800D03*
X156769200Y-38182800D03*
X116589300Y-121550200D03*
X146498900Y-42080600D03*
X146485600Y-121358900D03*
X166407300Y-38881200D03*
X172706600Y-57995200D03*
X173998900Y-37980600D03*
X163909600Y-36939100D03*
X139176500Y-121359800D03*
X150577600Y-36916600D03*
X143884100Y-67433300D03*
X117838900Y-102511700D03*
X142836800Y-41688300D03*
X84134000Y-75976900D03*
X127751500Y-37879100D03*
X115120700Y-112130600D03*
X147478900Y-44833600D03*
X118588700Y-42187700D03*
X84197700Y-67281400D03*
X117370300Y-121428600D03*
X146209000Y-34700900D03*
X171203900Y-111017100D03*
X184834800Y-46401100D03*
X198368700Y-67293200D03*
X188745700Y-36836100D03*
X168994000Y-103221300D03*
X180082600Y-37644900D03*
X181741600Y-36833400D03*
X173239600Y-94107600D03*
X143639000Y-36826700D03*
X116394100Y-94143900D03*
X158091100Y-41799000D03*
X147023000Y-75966100D03*
X176998900Y-38839000D03*
X171412800Y-85346600D03*
X88396200Y-103347700D03*
X130060500Y-37820600D03*
X124464000Y-41676400D03*
X106473100Y-56349500D03*
X118959400Y-41681300D03*
X85860600Y-40064000D03*
X168183900Y-85559700D03*
X176458300Y-41702200D03*
X164006500Y-112379100D03*
X187316800Y-36838800D03*
X173952800Y-57974400D03*
X173808700Y-42179400D03*
X111424800Y-76168000D03*
X140633400Y-34699800D03*
X185959300Y-41686800D03*
X174215000Y-111995500D03*
X164498900Y-37205900D03*
X141865900Y-121351100D03*
X184998900Y-41678900D03*
X170661500Y-121509800D03*
X160752600Y-42791400D03*
X142986500Y-103349100D03*
X127707000Y-36825400D03*
X89754800Y-76135400D03*
X179103700Y-42974700D03*
X165485900Y-103269000D03*
X120204800Y-39081600D03*
X93648900Y-67531600D03*
X173577500Y-67281700D03*
X173515500Y-36845000D03*
X132926100Y-34716800D03*
X84700400Y-94188500D03*
X160649200Y-37350600D03*
X143011300Y-94060800D03*
X148558700Y-57426200D03*
X151461300Y-42616300D03*
X182539800Y-43319800D03*
X172041300Y-94174600D03*
X118640300Y-121425500D03*
X146998900Y-41681100D03*
X176605800Y-44412000D03*
X169424000Y-76247000D03*
X179119700Y-42086400D03*
X166501800Y-76052900D03*
X114080600Y-103593300D03*
X142086100Y-41948800D03*
X171412800Y-103219300D03*
X181370000Y-37901900D03*
X174277600Y-103029000D03*
X181685400Y-34708200D03*
X91600600Y-85290400D03*
X126947800Y-42126500D03*
X174483700Y-121512800D03*
X185691300Y-36837100D03*
X180986500Y-45979400D03*
X173965300Y-93910800D03*
X171618700Y-38498700D03*
X166696500Y-67288000D03*
X140399400Y-41684700D03*
X115164800Y-76136700D03*
X124094400Y-42166100D03*
X84108500Y-85290400D03*
X188462000Y-34708800D03*
X195920000Y-67276400D03*
X173289900Y-42536500D03*
X172738900Y-67287100D03*
X140667600Y-110440600D03*
X165552000Y-37344300D03*
X177689900Y-41678500D03*
X174409100Y-76136600D03*
X141906800Y-36933500D03*
X115416800Y-103658900D03*
X172603200Y-103212500D03*
X181573000Y-41747000D03*
X116413200Y-44623000D03*
X87684300Y-67292500D03*
X123117400Y-34704700D03*
X92690700Y-57993200D03*
X118302500Y-85368900D03*
X139893900Y-44130300D03*
X147699500Y-38861900D03*
X114559500Y-110867200D03*
X113678300Y-121445700D03*
X146039800Y-41685500D03*
X86997100Y-57725400D03*
X124348700Y-34719700D03*
X145998900Y-36838300D03*
X114682100Y-121288900D03*
X89849000Y-67546100D03*
X109253000Y-48317800D03*
X170117300Y-112062700D03*
X184099800Y-39219700D03*
X160793900Y-39055900D03*
X137906500Y-94038300D03*
X172036800Y-76288900D03*
X177592200Y-42432900D03*
X140446500Y-139310100D03*
X163162200Y-49685200D03*
X172231700Y-42060600D03*
X167877400Y-67287400D03*
X170413200Y-41692200D03*
X145205500Y-129265500D03*
X117393000Y-75790000D03*
X139712000Y-42156400D03*
X160736200Y-43495000D03*
X141465800Y-93505000D03*
X87112700Y-93761000D03*
X132084200Y-34709200D03*
X167597700Y-103218900D03*
X179137600Y-52240700D03*
X121506900Y-38697100D03*
X84134000Y-57995900D03*
X166927800Y-42698900D03*
X142199300Y-112166400D03*
X147161100Y-103335900D03*
X161910800Y-34712100D03*
X139204900Y-38437800D03*
X117896200Y-76138900D03*
X140503800Y-37300000D03*
X114135100Y-76327100D03*
X180888800Y-47032900D03*
X170299400Y-103218300D03*
X172884000Y-121353900D03*
X184966000Y-42428600D03*
X138377800Y-103434000D03*
X159815500Y-50465500D03*
X115343500Y-67574200D03*
X133998900Y-37797300D03*
X117379500Y-85439500D03*
X138498900Y-36853800D03*
X126907000Y-44427500D03*
X88496500Y-94148600D03*
X188126200Y-36837300D03*
X192347700Y-67284800D03*
X89842400Y-57723900D03*
X123583500Y-36924100D03*
X120032400Y-67203800D03*
X135098900Y-34712600D03*
X112290300Y-103427900D03*
X141260100Y-36844200D03*
X171930900Y-67438200D03*
X172883300Y-36826600D03*
X143580000Y-129320000D03*
X170246600Y-34717600D03*
X174998900Y-39060300D03*
X167602800Y-57980100D03*
X170241100Y-36837700D03*
X146032700Y-130189800D03*
X161528900Y-41678000D03*
X146197500Y-103564400D03*
X99525200Y-101334600D03*
X130998900Y-37295500D03*
X145443100Y-37137300D03*
X112290300Y-121439600D03*
X140868600Y-94083800D03*
X162133800Y-37999200D03*
X137094700Y-36825200D03*
X112486300Y-85430700D03*
X131498900Y-37652400D03*
X91907100Y-93990800D03*
X142881000Y-37531400D03*
X117838900Y-103539900D03*
X141162600Y-47375900D03*
X112686500Y-94153600D03*
X141927800Y-85334500D03*
X156386600Y-36835700D03*
X145183600Y-103359100D03*
X161405200Y-36830800D03*
X163155800Y-42535400D03*
X137227600Y-122770200D03*
X147305900Y-94192200D03*
X161998900Y-39569300D03*
X165998900Y-43693300D03*
X147890100Y-112055400D03*
X147934900Y-37950000D03*
X111020300Y-112127600D03*
X119910300Y-112125200D03*
X147150600Y-42981000D03*
X147667300Y-128255300D03*
X169601800Y-42213000D03*
X147619800Y-36843200D03*
X118301700Y-112061800D03*
X90388200Y-85031900D03*
X126332300Y-34700900D03*
X136667300Y-43525700D03*
X111020300Y-85426800D03*
X166286700Y-45551500D03*
X146427500Y-110921100D03*
X178227500Y-34718600D03*
X173317800Y-76320500D03*
X182680900Y-42500600D03*
X166332800Y-93914300D03*
X153315200Y-41707900D03*
X137881500Y-85350500D03*
X182575200Y-43941400D03*
X165455000Y-121383300D03*
X172748900Y-85354300D03*
X177548600Y-39563300D03*
X162059100Y-36896900D03*
X146090200Y-94261800D03*
X145526500Y-139338400D03*
X168952800Y-46172800D03*
X158929300Y-34713600D03*
X140993200Y-76223400D03*
X116732500Y-58408700D03*
X136066900Y-36886900D03*
X179498900Y-37977700D03*
X165899200Y-76065500D03*
X86511500Y-49293000D03*
X116943400Y-35123000D03*
X143419000Y-43838900D03*
X120551700Y-94389100D03*
X168493900Y-43752400D03*
X142267500Y-129250000D03*
X142819800Y-36828600D03*
X119738900Y-103190400D03*
X125540500Y-37819400D03*
X88237500Y-85290400D03*
X120015900Y-93545800D03*
X143903800Y-34719100D03*
X127921600Y-43452600D03*
X83441700Y-104700000D03*
X165069700Y-111316000D03*
X187498900Y-41685600D03*
X170317200Y-85350400D03*
X177060900Y-41677200D03*
X177583300Y-36826800D03*
X174593200Y-85622100D03*
X165899200Y-57994400D03*
X175452700Y-36826400D03*
X125492200Y-43264900D03*
X89214000Y-85291100D03*
X165899200Y-67288800D03*
X170589700Y-43281600D03*
X174484700Y-36852100D03*
X170333800Y-57977700D03*
X149998900Y-37233900D03*
X142251500Y-67601400D03*
X166715300Y-121367200D03*
X183691600Y-37464000D03*
X142261900Y-38254500D03*
X114159900Y-94358700D03*
X167387100Y-41781700D03*
X139637200Y-112133100D03*
X142275600Y-39517400D03*
X116419300Y-103421500D03*
X170783500Y-76165200D03*
X177736100Y-37439000D03*
X185020000Y-37226000D03*
X171824600Y-121375200D03*
X169327200Y-39042600D03*
X144256500Y-139349600D03*
X146779400Y-36826300D03*
X120546800Y-121699700D03*
X134641000Y-42221400D03*
X120354200Y-58208400D03*
X160498900Y-41703100D03*
X140446500Y-103357000D03*
X169218400Y-67289700D03*
X172241400Y-38659100D03*
X141632400Y-46324200D03*
X115042800Y-94146200D03*
X131998900Y-36829400D03*
X89214000Y-93977500D03*
X132526600Y-39264200D03*
X92211800Y-102172000D03*
X130580600Y-42443000D03*
X91755800Y-92905900D03*
X168014700Y-37211200D03*
X139043100Y-137320300D03*
X90615100Y-82064900D03*
X125539400Y-42362300D03*
X144750500Y-94178400D03*
X162132900Y-41686500D03*
X89048800Y-67288100D03*
X122338400Y-34704700D03*
X168100100Y-94013200D03*
X182854900Y-37830400D03*
X131660800Y-41831300D03*
X93622700Y-94210800D03*
X145964800Y-112103400D03*
X166185400Y-34708200D03*
X170142800Y-93898200D03*
X182421300Y-38789500D03*
X137906500Y-112032000D03*
X167498900Y-36843300D03*
X145495400Y-121351800D03*
X165403700Y-44288500D03*
X90935100Y-74591100D03*
X122486000Y-45171600D03*
X129498900Y-38406900D03*
X85404000Y-103272500D03*
X135606600Y-37638500D03*
X116124400Y-57501200D03*
X143177500Y-38721700D03*
X111495500Y-94235500D03*
X144122700Y-124385800D03*
X171478200Y-36843400D03*
X159905400Y-39500700D03*
X142199300Y-103460000D03*
X123286800Y-43259600D03*
X88443500Y-76104100D03*
X137886600Y-37021400D03*
X115345400Y-85428700D03*
X176312300Y-45347100D03*
X164950500Y-85362200D03*
X157317700Y-45347600D03*
X140290900Y-76060300D03*
X157952300Y-36871000D03*
X145433400Y-76044500D03*
X113053900Y-67492400D03*
X133254700Y-36825700D03*
X137959000Y-58129000D03*
X152825600Y-36838800D03*
X120328200Y-76076700D03*
X139206400Y-39569400D03*
X86461100Y-67293800D03*
X121102200Y-36827200D03*
X117370300Y-67441200D03*
X134527100Y-37254800D03*
X116100300Y-85419400D03*
X138260600Y-43922400D03*
X111020300Y-103427900D03*
X138251200Y-46823000D03*
X179968700Y-36847800D03*
X166706100Y-103209000D03*
X140849700Y-121364000D03*
X164135300Y-42098500D03*
X167718600Y-76056000D03*
X179062700Y-39066300D03*
X150734600Y-41678700D03*
X147023000Y-65815700D03*
X93600800Y-76199000D03*
X127498900Y-41676300D03*
X169235200Y-57994100D03*
X174150200Y-49209300D03*
X138870400Y-67431800D03*
X149496700Y-36843100D03*
X89665400Y-103371600D03*
X130439100Y-41763600D03*
X122929800Y-38470500D03*
X85760600Y-57994100D03*
X165598100Y-94064900D03*
X183498900Y-36850500D03*
X186201400Y-38417400D03*
X167637300Y-112053000D03*
X124481700Y-38266700D03*
X85404000Y-85277000D03*
X94138300Y-57994100D03*
X121994200Y-39434800D03*
X158661200Y-36833300D03*
X143371200Y-76078400D03*
X147023000Y-67434600D03*
X151094600Y-38837500D03*
X122491800Y-42186500D03*
X92782600Y-67277300D03*
X146848100Y-139353000D03*
X169735700Y-38017000D03*
X184703700Y-47202200D03*
X168093100Y-121474500D03*
X168872800Y-93908300D03*
X182838900Y-41686200D03*
X169452000Y-121557100D03*
X184566200Y-36825800D03*
X158253300Y-42760600D03*
X144256500Y-76061700D03*
X139438700Y-103366000D03*
X158161800Y-38496900D03*
X167529200Y-47538600D03*
X143313200Y-139352900D03*
X148171800Y-44053500D03*
X117289400Y-112069600D03*
X126936300Y-36835800D03*
X99828300Y-83481700D03*
X122091200Y-36828700D03*
X91604300Y-67287400D03*
X168872800Y-85350400D03*
X176498900Y-36837300D03*
X87172200Y-103402300D03*
X130080800Y-43473800D03*
X151998900Y-41687300D03*
X144256500Y-58145000D03*
X142986500Y-85362000D03*
X156534000Y-41991100D03*
X120589800Y-39556500D03*
X117725800Y-39414500D03*
X90484000Y-75996900D03*
X127133600Y-39567100D03*
X167998900Y-41697800D03*
X137213000Y-140076700D03*
X145498900Y-42009100D03*
X111613900Y-121651600D03*
X113216000Y-57835900D03*
X131007700Y-39474700D03*
X142330900Y-58389600D03*
X150280100Y-43812200D03*
X134988100Y-41678100D03*
X118538200Y-67404100D03*
X159601900Y-46406100D03*
X139518800Y-94050200D03*
X175998900Y-37209300D03*
X166509200Y-85350700D03*
X87120000Y-76055900D03*
X126301300Y-37352200D03*
X144846500Y-124378800D03*
X171117000Y-34691300D03*
X143123100Y-67423500D03*
X150086000Y-39564100D03*
X153530900Y-36830700D03*
X139665500Y-85471500D03*
X175034200Y-110303400D03*
X185864400Y-44411500D03*
X142188700Y-139463400D03*
X168608600Y-36935800D03*
X173042100Y-112063600D03*
X185754000Y-37555000D03*
X170695600Y-66001700D03*
X172230400Y-42729600D03*
X140050000Y-36887800D03*
X116102000Y-76122100D03*
X143901300Y-42723500D03*
X120013600Y-92659700D03*
X116509900Y-112184800D03*
X147930500Y-34716500D03*
X149870000Y-42035500D03*
X141302500Y-67242200D03*
X140148300Y-129250000D03*
X168182200Y-44292900D03*
X89013600Y-49294900D03*
X117766000Y-36829400D03*
X155800300Y-44925000D03*
X145300200Y-85351100D03*
X136883400Y-34719000D03*
X118745100Y-54864100D03*
X137998900Y-43331900D03*
X113560300Y-85422900D03*
X140960100Y-85506300D03*
X155309400Y-41526200D03*
X135456100Y-36851200D03*
X120019900Y-57164200D03*
X144256500Y-85358500D03*
X155246100Y-40348100D03*
X169132700Y-132745900D03*
X200501000Y-124071400D03*
X167600000Y-132900000D03*
X192700000Y-125000000D03*
X174400000Y-132800000D03*
X199391000Y-124192200D03*
X165096300Y-132741000D03*
X196907600Y-125917400D03*
X171900000Y-132900000D03*
X196091300Y-127165000D03*
X170541000Y-132737000D03*
X197189800Y-125225300D03*
X197839700Y-124122700D03*
X195665200Y-127591100D03*
X172800000Y-132700000D03*
X166332800Y-132728200D03*
X170411800Y-144364800D03*
X168067600Y-141935900D03*
X173485300Y-144105700D03*
X201515100Y-112193700D03*
X195327700Y-119069800D03*
X192222200Y-132728100D03*
X193285000Y-132732300D03*
X195825000Y-132752900D03*
X171214000Y-142030200D03*
X172574200Y-142527100D03*
X199436000Y-112063900D03*
X194555000Y-132736000D03*
X197161500Y-132739800D03*
X199635000Y-132748200D03*
X165649200Y-141843600D03*
X169105100Y-143780000D03*
X151092900Y-103160900D03*
X97366500Y-87953900D03*
X182676800Y-106139700D03*
X104738900Y-129878200D03*
X204451700Y-139208600D03*
X205006100Y-88510100D03*
X95139800Y-130005100D03*
X117249500Y-109233100D03*
X97051400Y-129879900D03*
X124601200Y-88749200D03*
X150149500Y-85354200D03*
X98571200Y-74909600D03*
X107060000Y-128862300D03*
X204089500Y-103390300D03*
X204780200Y-70504500D03*
X97853600Y-106103300D03*
X103789500Y-128098700D03*
X97779100Y-53724300D03*
X164158900Y-109633300D03*
X110164300Y-129598200D03*
X151644800Y-97137200D03*
X151065300Y-73828900D03*
X203756900Y-121364400D03*
X150252900Y-139358300D03*
X119131500Y-126348700D03*
X124175300Y-70713000D03*
X89988100Y-39970000D03*
X200425200Y-87998200D03*
X205248200Y-99603300D03*
X195037700Y-112068500D03*
X197240800Y-96830400D03*
X195919800Y-112048300D03*
X200784200Y-76055100D03*
X198898400Y-88781200D03*
X191422100Y-113470200D03*
X197189800Y-112063000D03*
X193960500Y-102401500D03*
X193960500Y-103431200D03*
X196965000Y-88185100D03*
X192343200Y-88196300D03*
X199010900Y-97287800D03*
X196328700Y-96750100D03*
X203593700Y-99324100D03*
X201415400Y-89960100D03*
X195193500Y-88025400D03*
X193117500Y-112055500D03*
X198262500Y-112044200D03*
X197190000Y-78897000D03*
X201566000Y-88004100D03*
X199707700Y-98342000D03*
X195265100Y-88861300D03*
X201072200Y-96867600D03*
X194476700Y-96740500D03*
X195036000Y-78870800D03*
X193871100Y-78782600D03*
X195920000Y-78882900D03*
X191406300Y-77250800D03*
D19*
X154124600Y-122029700D02*
X153448000Y-121353100D01*
X181194900Y-121351100D02*
X180516300Y-122029700D01*
X180516300Y-122029700D02*
X154124600Y-122029700D01*
X207350000Y-106050600D02*
X207350000Y-88192700D01*
X209305500Y-71159800D02*
X208094600Y-69948900D01*
X154647700Y-77784200D02*
X154647700Y-76233800D01*
X154712700Y-70748100D02*
X154416500Y-70451900D01*
X154712700Y-76168800D02*
X154712700Y-70748100D01*
X208649500Y-86740700D02*
X209305500Y-86084700D01*
X155096500Y-86114500D02*
X155096500Y-78233000D01*
X208649500Y-100251500D02*
X208649500Y-86740700D01*
X155096500Y-78233000D02*
X154647700Y-77784200D01*
X209305500Y-86084700D02*
X209305500Y-71159800D01*
X154647700Y-76233800D02*
X154712700Y-76168800D01*
X89300000Y-142000000D02*
X100246500Y-142000000D01*
X148424500Y-124836300D02*
X148424500Y-124842900D01*
X175605100Y-104639400D02*
X173605100Y-106639400D01*
X89300000Y-142000000D02*
X86700000Y-144600000D01*
X178425700Y-88802500D02*
X178425700Y-102609300D01*
X125212200Y-121442100D02*
X121656300Y-121442100D01*
X128613000Y-124842900D02*
X148424500Y-124842900D01*
X148424500Y-136385000D02*
X151438900Y-139399400D01*
X178425600Y-102609300D02*
X176395500Y-104639400D01*
X100246500Y-142000000D02*
X114189000Y-128057500D01*
X153825000Y-106639400D02*
X153825000Y-119461800D01*
X121656300Y-121442100D02*
X115040900Y-128057500D01*
X179032800Y-88195400D02*
X178425700Y-88802500D01*
X178425700Y-102609300D02*
X178425600Y-102609300D01*
X152028500Y-121258300D02*
X152002500Y-121258300D01*
X173605100Y-106639400D02*
X153825000Y-106639400D01*
X205917000Y-106242300D02*
X205917000Y-86222900D01*
X153825000Y-119461800D02*
X152028500Y-121258300D01*
X125212200Y-121442100D02*
X128613000Y-124842900D01*
X152002500Y-121258300D02*
X148424500Y-124836300D01*
X115040900Y-128057500D02*
X114189000Y-128057500D01*
X205917000Y-86222900D02*
X205043500Y-85349400D01*
X148424500Y-124842900D02*
X148424500Y-136385000D01*
X176395500Y-104639400D02*
X175605100Y-104639400D01*
X204790200Y-96750800D02*
X204640400Y-96900600D01*
X204542900Y-79109200D02*
X204542900Y-96503500D01*
X179915400Y-79984000D02*
X179915400Y-101119400D01*
X178832700Y-78901300D02*
X179915400Y-79984000D01*
X177738700Y-129919300D02*
X151372100Y-129919300D01*
X204773100Y-78879000D02*
X204542900Y-79109200D01*
X204542900Y-96503500D02*
X204790200Y-96750800D01*
X151372100Y-129919300D02*
X148922600Y-127469800D01*
X204640400Y-96900600D02*
X204640400Y-112058400D01*
X169913900Y-138897400D02*
X174553400Y-138897400D01*
X126251700Y-151213300D02*
X157598000Y-151213300D01*
X124317100Y-153147900D02*
X126251700Y-151213300D01*
X157598000Y-151213300D02*
X169913900Y-138897400D01*
X185050000Y-151718300D02*
X183687600Y-153080700D01*
X168898400Y-156226600D02*
X128431000Y-156226600D01*
X183687600Y-153080700D02*
X171409600Y-153080700D01*
X169810000Y-154680300D02*
X169810000Y-155315000D01*
X185050000Y-150700300D02*
X185050000Y-151718300D01*
X190425200Y-143788700D02*
X190425200Y-145325100D01*
X171409600Y-153080700D02*
X169810000Y-154680300D01*
X190425200Y-145325100D02*
X185050000Y-150700300D01*
X169810000Y-155315000D02*
X168898400Y-156226600D01*
X162543100Y-151549800D02*
X175649200Y-138443700D01*
X134469300Y-153155700D02*
X136075200Y-151549800D01*
X136075200Y-151549800D02*
X162543100Y-151549800D01*
X150862000Y-150755200D02*
X163754100Y-137863100D01*
X163754100Y-137863100D02*
X175059800Y-137863100D01*
X182510000Y-151133300D02*
X187424200Y-146219100D01*
X187424200Y-146219100D02*
X188309600Y-146219100D01*
X170271000Y-152771300D02*
X181418600Y-152771300D01*
X182510000Y-151679900D02*
X182510000Y-151133300D01*
X181418600Y-152771300D02*
X182510000Y-151679900D01*
X173511000Y-153771800D02*
X185515900Y-153771800D01*
X190745500Y-147982900D02*
X192060000Y-147982900D01*
X185515900Y-153771800D02*
X187590000Y-151697700D01*
X187590000Y-151697700D02*
X187590000Y-151138400D01*
X187590000Y-151138400D02*
X190745500Y-147982900D01*
X135573300Y-57228100D02*
X135573300Y-87997700D01*
X144962200Y-47462600D02*
X144962200Y-47839200D01*
X144962200Y-47839200D02*
X135573300Y-57228100D01*
X112290300Y-111280700D02*
X112290300Y-112131200D01*
X135573300Y-87997700D02*
X112290300Y-111280700D01*
X160117900Y-96642900D02*
X150322200Y-106438600D01*
X160117900Y-59537800D02*
X160117900Y-96642900D01*
X142814000Y-116058500D02*
X142814000Y-121365600D01*
X150322200Y-106438600D02*
X150322200Y-108550300D01*
X150322200Y-108550300D02*
X142814000Y-116058500D01*
X164906200Y-44786000D02*
X164906200Y-54749500D01*
X164906200Y-54749500D02*
X160117900Y-59537800D01*
X163920900Y-54846600D02*
X163920900Y-44419900D01*
X163920900Y-44419900D02*
X165641300Y-42699500D01*
X151280900Y-103614600D02*
X151546600Y-103348900D01*
X166020000Y-37866400D02*
X166020000Y-36831700D01*
X159076900Y-94675600D02*
X159076900Y-59690600D01*
X151546600Y-102205900D02*
X159076900Y-94675600D01*
X143015500Y-111804000D02*
X151204900Y-103614600D01*
X165641300Y-38245100D02*
X166020000Y-37866400D01*
X151204900Y-103614600D02*
X151280900Y-103614600D01*
X159076900Y-59690600D02*
X163920900Y-54846600D01*
X165641300Y-42699500D02*
X165641300Y-38245100D01*
X151546600Y-103348900D02*
X151546600Y-102205900D01*
X143015500Y-112050800D02*
X143015500Y-111804000D01*
X125085600Y-42174400D02*
X125085600Y-42533800D01*
X128207600Y-35475800D02*
X128207600Y-39178400D01*
X125085600Y-42533800D02*
X123045700Y-44573700D01*
X99896900Y-68839900D02*
X92751200Y-75985600D01*
X123045700Y-44573700D02*
X122383300Y-44573700D01*
X128207600Y-39178400D02*
X125477400Y-41908600D01*
X125351400Y-41908600D02*
X125085600Y-42174400D01*
X99896900Y-67060100D02*
X99896900Y-68839900D01*
X122383300Y-44573700D02*
X99896900Y-67060100D01*
X92751200Y-75985600D02*
X91803300Y-75985600D01*
X127434800Y-34703000D02*
X128207600Y-35475800D01*
X125477400Y-41908600D02*
X125351400Y-41908600D01*
X166750400Y-54414900D02*
X166750400Y-45278000D01*
X151924400Y-115920100D02*
X151924400Y-106130500D01*
X151924400Y-106130500D02*
X163581900Y-94473000D01*
X163581900Y-94473000D02*
X163581900Y-57583400D01*
X163581900Y-57583400D02*
X166750400Y-54414900D01*
X146485600Y-121358900D02*
X151924400Y-115920100D01*
X166750400Y-45278000D02*
X166468900Y-44996500D01*
X166468800Y-38942700D02*
X166407300Y-38881200D01*
X166468900Y-38942700D02*
X166468800Y-38942700D01*
X166468900Y-44996500D02*
X166468900Y-38942700D01*
X117838900Y-93525800D02*
X117838900Y-102511700D01*
X142836800Y-42014400D02*
X142099900Y-42751300D01*
X142099900Y-47697200D02*
X133181100Y-56616000D01*
X119521700Y-84597600D02*
X119521700Y-91843000D01*
X142836800Y-41688300D02*
X142836800Y-42014400D01*
X133181100Y-70938200D02*
X119521700Y-84597600D01*
X133181100Y-56616000D02*
X133181100Y-70938200D01*
X142099900Y-42751300D02*
X142099900Y-47697200D01*
X119521700Y-91843000D02*
X117838900Y-93525800D01*
X92111000Y-67999900D02*
X95464400Y-67999900D01*
X120670800Y-42793500D02*
X122563000Y-42793500D01*
X127477400Y-37879100D02*
X127751500Y-37879100D01*
X84134000Y-75976900D02*
X92111000Y-67999900D01*
X122563000Y-42793500D02*
X127477400Y-37879100D01*
X95464400Y-67999900D02*
X120670800Y-42793500D01*
X136792900Y-88503300D02*
X115120700Y-110175500D01*
X147478900Y-44833600D02*
X147478900Y-47047700D01*
X147478900Y-47047700D02*
X136792900Y-57733700D01*
X115120700Y-110175500D02*
X115120700Y-112130600D01*
X136792900Y-57733700D02*
X136792900Y-88503300D01*
X88344300Y-65986700D02*
X97600100Y-56730900D01*
X85492300Y-65986800D02*
X85492300Y-65986700D01*
X84197700Y-67281400D02*
X85492300Y-65986800D01*
X97600100Y-56730900D02*
X103031000Y-56730900D01*
X85492300Y-65986700D02*
X88344300Y-65986700D01*
X103031000Y-56730900D02*
X117574200Y-42187700D01*
X117574200Y-42187700D02*
X118588700Y-42187700D01*
X184070900Y-47165000D02*
X184070900Y-98150100D01*
X184834800Y-46401100D02*
X184070900Y-47165000D01*
X184070900Y-98150100D02*
X171203900Y-111017100D01*
X112762300Y-63487100D02*
X91146900Y-85102500D01*
X91146900Y-86177500D02*
X88018100Y-89306300D01*
X126923800Y-43337600D02*
X125933000Y-44328400D01*
X88018100Y-102969600D02*
X88396200Y-103347700D01*
X125819100Y-44328400D02*
X112762300Y-57385200D01*
X126963600Y-43337500D02*
X126923800Y-43337500D01*
X125933000Y-44328400D02*
X125819100Y-44328400D01*
X91146900Y-85102500D02*
X91146900Y-86177500D01*
X130060500Y-37820600D02*
X130060500Y-40240600D01*
X130060500Y-40240600D02*
X126963600Y-43337500D01*
X126923800Y-43337500D02*
X126923800Y-43337600D01*
X112762300Y-57385200D02*
X112762300Y-63487100D01*
X88018100Y-89306300D02*
X88018100Y-102969600D01*
X139570600Y-37253500D02*
X139570600Y-35762600D01*
X139666200Y-37349100D02*
X139570600Y-37253500D01*
X111424800Y-76168000D02*
X111424800Y-75736700D01*
X139570600Y-35762600D02*
X140633400Y-34699800D01*
X119269400Y-60280100D02*
X139666200Y-39883300D01*
X119269400Y-67892100D02*
X119269400Y-60280100D01*
X111424800Y-75736700D02*
X119269400Y-67892100D01*
X139666200Y-39883300D02*
X139666200Y-37349100D01*
X170661500Y-121509800D02*
X185288500Y-106882800D01*
X185288500Y-106882800D02*
X185288500Y-44305200D01*
X185419700Y-42099700D02*
X184998900Y-41678900D01*
X185288500Y-44305200D02*
X185419700Y-44174000D01*
X185419700Y-44174000D02*
X185419700Y-42099700D01*
X177894800Y-63606300D02*
X177894800Y-52841900D01*
X179103700Y-51633000D02*
X179103700Y-42974700D01*
X167024600Y-74476500D02*
X177894800Y-63606300D01*
X165485900Y-103269000D02*
X167024600Y-101730300D01*
X167024600Y-101730300D02*
X167024600Y-74476500D01*
X177894800Y-52841900D02*
X179103700Y-51633000D01*
X151461300Y-54523600D02*
X148558700Y-57426200D01*
X151461300Y-42616300D02*
X151461300Y-54523600D01*
X177284900Y-61207600D02*
X166501800Y-71990700D01*
X177284900Y-53020500D02*
X177284900Y-61207600D01*
X166501800Y-71990700D02*
X166501800Y-76052900D01*
X178633600Y-51671800D02*
X177284900Y-53020500D01*
X179119700Y-42086400D02*
X178633600Y-42572500D01*
X178633600Y-42572500D02*
X178633600Y-51671800D01*
X139004500Y-41684700D02*
X140399400Y-41684700D01*
X115164800Y-73363300D02*
X129284400Y-59243700D01*
X129284400Y-59243700D02*
X129284400Y-51985000D01*
X129284400Y-51985000D02*
X137426000Y-43843400D01*
X137426000Y-43843400D02*
X137426000Y-43263200D01*
X137426000Y-43263200D02*
X139004500Y-41684700D01*
X115164800Y-76136700D02*
X115164800Y-73363300D01*
X84108600Y-79787000D02*
X120797200Y-43098400D01*
X84108500Y-79787000D02*
X84108600Y-79787000D01*
X122806100Y-43098400D02*
X123738400Y-42166100D01*
X123738400Y-42166100D02*
X124094400Y-42166100D01*
X120797200Y-43098400D02*
X122806100Y-43098400D01*
X84108500Y-85290400D02*
X84108500Y-79787000D01*
X189312300Y-60668700D02*
X189312300Y-35559100D01*
X195920000Y-67276400D02*
X189312300Y-60668700D01*
X189312300Y-35559100D02*
X188462000Y-34708800D01*
X163609500Y-39286800D02*
X165552000Y-37344300D01*
X163609500Y-44677600D02*
X163609500Y-39286800D01*
X153751600Y-64584600D02*
X162660600Y-55675600D01*
X162660600Y-55675600D02*
X162660600Y-45626500D01*
X162660600Y-45626500D02*
X163609500Y-44677600D01*
X140783000Y-110440600D02*
X153751600Y-97472000D01*
X153751600Y-97472000D02*
X153751600Y-64584600D01*
X140667600Y-110440600D02*
X140783000Y-110440600D01*
X97788400Y-57188400D02*
X103847800Y-57188400D01*
X103847800Y-57188400D02*
X116413200Y-44623000D01*
X87684300Y-67292500D02*
X97788400Y-57188400D01*
X136488000Y-57607300D02*
X136488000Y-88376900D01*
X114559500Y-110305400D02*
X114559500Y-110867200D01*
X146025800Y-44782300D02*
X146025800Y-48069500D01*
X136488000Y-88376900D02*
X114559500Y-110305400D01*
X147699500Y-43108600D02*
X146025800Y-44782300D01*
X147699500Y-38861900D02*
X147699500Y-43108600D01*
X146025800Y-48069500D02*
X136488000Y-57607300D01*
X146039800Y-42803000D02*
X145720900Y-43121900D01*
X146039800Y-41685500D02*
X146039800Y-42803000D01*
X136183100Y-57480900D02*
X136183100Y-88250500D01*
X136183100Y-88250500D02*
X114089300Y-110344300D01*
X145720900Y-47943100D02*
X136183100Y-57480900D01*
X145720900Y-43121900D02*
X145720900Y-47943100D01*
X114089300Y-121034700D02*
X113678300Y-121445700D01*
X114089300Y-110344300D02*
X114089300Y-121034700D01*
X151272000Y-67734800D02*
X146508000Y-72498800D01*
X160793900Y-39055900D02*
X160793900Y-39253900D01*
X159025200Y-41022600D02*
X159025200Y-49320300D01*
X159025200Y-49320300D02*
X158447100Y-49898400D01*
X151272000Y-63613800D02*
X151272000Y-67734800D01*
X138814700Y-93130100D02*
X137906500Y-94038300D01*
X160793900Y-39253900D02*
X159025200Y-41022600D01*
X158447100Y-49898400D02*
X158447100Y-56438700D01*
X158447100Y-56438700D02*
X151272000Y-63613800D01*
X146508000Y-75662200D02*
X138814700Y-83355500D01*
X146508000Y-72498800D02*
X146508000Y-75662200D01*
X138814700Y-83355500D02*
X138814700Y-93130100D01*
X117393100Y-75790000D02*
X117393000Y-75790000D01*
X139440200Y-47594800D02*
X131113700Y-55921300D01*
X139440200Y-42428200D02*
X139440200Y-47594800D01*
X117393100Y-72428900D02*
X117393100Y-75790000D01*
X139712000Y-42156400D02*
X139440200Y-42428200D01*
X131113700Y-58708300D02*
X117393100Y-72428900D01*
X131113700Y-55921300D02*
X131113700Y-58708300D01*
X152186700Y-81738400D02*
X141465800Y-92459300D01*
X160736200Y-48903200D02*
X159361800Y-50277600D01*
X152186700Y-63993000D02*
X152186700Y-81738400D01*
X159361800Y-50277600D02*
X159361800Y-56817900D01*
X141465800Y-92459300D02*
X141465800Y-93505000D01*
X160736200Y-43495000D02*
X160736200Y-48903200D01*
X159361800Y-56817900D02*
X152186700Y-63993000D01*
X132084200Y-34709200D02*
X128666200Y-38127200D01*
X110344500Y-58940400D02*
X110344500Y-61447300D01*
X89934500Y-81857300D02*
X89934500Y-85354800D01*
X126420900Y-41926300D02*
X126420900Y-42864000D01*
X89934500Y-85354800D02*
X87112700Y-88176600D01*
X126420900Y-42864000D02*
X125945900Y-43339000D01*
X128666200Y-39681000D02*
X126420900Y-41926300D01*
X125566300Y-43718600D02*
X110344500Y-58940400D01*
X125680200Y-43718600D02*
X125566300Y-43718600D01*
X128666200Y-38127200D02*
X128666200Y-39681000D01*
X125945900Y-43339000D02*
X125945900Y-43452900D01*
X110344500Y-61447300D02*
X89934500Y-81857300D01*
X125945900Y-43452900D02*
X125680200Y-43718600D01*
X87112700Y-88176600D02*
X87112700Y-93761000D01*
X121431000Y-38621200D02*
X121506900Y-38697100D01*
X120023400Y-38621200D02*
X121431000Y-38621200D01*
X84134000Y-57995900D02*
X84635600Y-58497500D01*
X84635600Y-58497500D02*
X90965400Y-58497500D01*
X93341800Y-56121100D02*
X102523500Y-56121100D01*
X102523500Y-56121100D02*
X120023400Y-38621200D01*
X90965400Y-58497500D02*
X93341800Y-56121100D01*
X162355700Y-55549200D02*
X162355700Y-44637200D01*
X153446700Y-64458200D02*
X162355700Y-55549200D01*
X162588100Y-44404800D02*
X162588100Y-35389400D01*
X162588100Y-35389400D02*
X161910800Y-34712100D01*
X162355700Y-44637200D02*
X162588100Y-44404800D01*
X153446700Y-97050300D02*
X153446700Y-64458200D01*
X147161100Y-103335900D02*
X153446700Y-97050300D01*
X114135100Y-76327100D02*
X114135100Y-73961700D01*
X140503800Y-39754100D02*
X140503800Y-37300000D01*
X137121100Y-43717000D02*
X137121100Y-43136800D01*
X114135100Y-73961700D02*
X122911600Y-65185200D01*
X122911600Y-65185200D02*
X122911600Y-57926500D01*
X137121100Y-43136800D02*
X140503800Y-39754100D01*
X122911600Y-57926500D02*
X137121100Y-43717000D01*
X138377800Y-97767600D02*
X150603200Y-85542200D01*
X152491600Y-82895100D02*
X152491600Y-64119400D01*
X159815500Y-56795500D02*
X159815500Y-50465500D01*
X150603200Y-85542200D02*
X150603200Y-84783500D01*
X138377800Y-103434000D02*
X138377800Y-97767600D01*
X152491600Y-64119400D02*
X159815500Y-56795500D01*
X150603200Y-84783500D02*
X152491600Y-82895100D01*
X113669800Y-57444700D02*
X113669800Y-64556600D01*
X88496500Y-89729900D02*
X88496500Y-94148600D01*
X125943200Y-45171300D02*
X113669800Y-57444700D01*
X126163200Y-45171300D02*
X125943200Y-45171300D01*
X126907000Y-44427500D02*
X126163200Y-45171300D01*
X113669800Y-64556600D02*
X88496500Y-89729900D01*
X97432900Y-49748700D02*
X106292300Y-49748700D01*
X89842400Y-57339200D02*
X97432900Y-49748700D01*
X120095500Y-37534200D02*
X122973400Y-37534200D01*
X89842400Y-57723900D02*
X89842400Y-57339200D01*
X119389300Y-38240400D02*
X120095500Y-37534200D01*
X106292300Y-49748700D02*
X117800600Y-38240400D01*
X122973400Y-37534200D02*
X123583500Y-36924100D01*
X117800600Y-38240400D02*
X119389300Y-38240400D01*
X174998900Y-47684800D02*
X174998900Y-39060300D01*
X173647300Y-49036400D02*
X174998900Y-47684800D01*
X173647300Y-51935600D02*
X173647300Y-49036400D01*
X167602800Y-57980100D02*
X173647300Y-51935600D01*
X160010000Y-40554300D02*
X160010000Y-43493800D01*
X160083000Y-49125100D02*
X159056900Y-50151200D01*
X151881800Y-67987600D02*
X150433600Y-69435800D01*
X150433600Y-83060200D02*
X140868600Y-92625200D01*
X160010000Y-43493800D02*
X160083000Y-43566800D01*
X160083000Y-43566800D02*
X160083000Y-49125100D01*
X151881800Y-63866600D02*
X151881800Y-67987600D01*
X159056900Y-50151200D02*
X159056900Y-56691500D01*
X150433600Y-69435800D02*
X150433600Y-83060200D01*
X140868600Y-92625200D02*
X140868600Y-94083800D01*
X162133800Y-37999200D02*
X162133800Y-38430500D01*
X159056900Y-56691500D02*
X151881800Y-63866600D01*
X162133800Y-38430500D02*
X160010000Y-40554300D01*
X142591000Y-47908700D02*
X133746400Y-56753300D01*
X133746400Y-70804200D02*
X119826600Y-84724000D01*
X142591000Y-42691500D02*
X142591000Y-47908700D01*
X119826600Y-84724000D02*
X119826600Y-92205100D01*
X117839000Y-103323300D02*
X117839000Y-103539900D01*
X117839000Y-103539900D02*
X117838900Y-103539900D01*
X143666100Y-38316500D02*
X143666100Y-41616400D01*
X119559900Y-101602400D02*
X117839000Y-103323300D01*
X143666100Y-41616400D02*
X142591000Y-42691500D01*
X119826600Y-92205100D02*
X119559900Y-92471800D01*
X119559900Y-92471800D02*
X119559900Y-101602400D01*
X133746400Y-56753300D02*
X133746400Y-70804200D01*
X142881000Y-37531400D02*
X143666100Y-38316500D01*
X112686500Y-94153600D02*
X118911900Y-87928200D01*
X132028600Y-56509900D02*
X141162600Y-47375900D01*
X118911900Y-87928200D02*
X118911900Y-71985000D01*
X118911900Y-71985000D02*
X132028600Y-58868300D01*
X132028600Y-58868300D02*
X132028600Y-56509900D01*
X165807700Y-54874400D02*
X161032600Y-59649500D01*
X165998900Y-45197700D02*
X165807700Y-45388900D01*
X161032600Y-59649500D02*
X161032600Y-96591000D01*
X165998900Y-43693300D02*
X165998900Y-45197700D01*
X161032600Y-96591000D02*
X151273400Y-106350200D01*
X151273400Y-106350200D02*
X151273400Y-108672100D01*
X165807700Y-45388900D02*
X165807700Y-54874400D01*
X151273400Y-108672100D02*
X147890100Y-112055400D01*
X111020300Y-111956200D02*
X111020300Y-112127600D01*
X144508500Y-47861600D02*
X135268400Y-57101700D01*
X119197300Y-103779200D02*
X111020300Y-111956200D01*
X119197300Y-102985400D02*
X119197300Y-103779200D01*
X135268400Y-86914300D02*
X119197300Y-102985400D01*
X147934900Y-37950000D02*
X144508500Y-41376400D01*
X135268400Y-57101700D02*
X135268400Y-86914300D01*
X144508500Y-41376400D02*
X144508500Y-47861600D01*
X113421500Y-83025600D02*
X113421500Y-74171300D01*
X119574300Y-68018500D02*
X119574300Y-60618700D01*
X113421500Y-74171300D02*
X119574300Y-68018500D01*
X111020300Y-85426800D02*
X113421500Y-83025600D01*
X119574300Y-60618700D02*
X136667300Y-43525700D01*
X157466500Y-38237100D02*
X157029500Y-37800100D01*
X157029500Y-37800100D02*
X157029500Y-36613400D01*
X148122100Y-67728900D02*
X148122100Y-66525900D01*
X157466500Y-44854800D02*
X157466500Y-38237100D01*
X148122100Y-66525900D02*
X148391500Y-66256500D01*
X157500700Y-48855200D02*
X157771400Y-48584500D01*
X157029500Y-36613400D02*
X158929300Y-34713600D01*
X157771400Y-48584500D02*
X157771400Y-45159600D01*
X140993200Y-76223400D02*
X140993200Y-74857800D01*
X140993200Y-74857800D02*
X148122100Y-67728900D01*
X157500700Y-52021000D02*
X157500700Y-48855200D01*
X148391500Y-66256500D02*
X148391500Y-61130200D01*
X157466600Y-44854800D02*
X157466500Y-44854800D01*
X157771400Y-45159600D02*
X157466600Y-44854800D01*
X148391500Y-61130200D02*
X157500700Y-52021000D01*
X136066900Y-36886900D02*
X136066900Y-39074300D01*
X136066900Y-39074300D02*
X116732500Y-58408700D01*
X178328700Y-39147900D02*
X178328700Y-49912900D01*
X178328700Y-49912900D02*
X176230500Y-52011100D01*
X176230500Y-61548900D02*
X165899200Y-71880200D01*
X165899200Y-71880200D02*
X165899200Y-76065500D01*
X176230500Y-52011100D02*
X176230500Y-61548900D01*
X179498900Y-37977700D02*
X178328700Y-39147900D01*
X86511500Y-49293000D02*
X100681500Y-35123000D01*
X100681500Y-35123000D02*
X116943400Y-35123000D01*
X121127200Y-93813600D02*
X121127200Y-87291700D01*
X134943400Y-56995400D02*
X143419000Y-48519800D01*
X134943400Y-73475500D02*
X134943400Y-56995400D01*
X121127200Y-87291700D02*
X134943400Y-73475500D01*
X120551700Y-94389100D02*
X121127200Y-93813600D01*
X143419000Y-48519800D02*
X143419000Y-43838900D01*
X174262400Y-39155200D02*
X174262400Y-47524600D01*
X173071600Y-48715400D02*
X173071600Y-50822000D01*
X174262400Y-47524600D02*
X173071600Y-48715400D01*
X173071600Y-50822000D02*
X165899200Y-57994400D01*
X175452700Y-37964900D02*
X174262400Y-39155200D01*
X175452700Y-36826400D02*
X175452700Y-37964900D01*
X89214000Y-81715200D02*
X89214000Y-85291100D01*
X101261700Y-69667500D02*
X89214000Y-81715200D01*
X101261700Y-67495400D02*
X101261700Y-69667500D01*
X125492200Y-43264900D02*
X101261700Y-67495400D01*
X151245000Y-85709300D02*
X152796500Y-84157800D01*
X143641700Y-93215200D02*
X151147600Y-85709300D01*
X161221800Y-55820500D02*
X161221800Y-42426000D01*
X151147600Y-85709300D02*
X151245000Y-85709300D01*
X140446500Y-103357000D02*
X143641700Y-100161800D01*
X161221800Y-42426000D02*
X160498900Y-41703100D01*
X152796500Y-84157800D02*
X152796500Y-64245800D01*
X143641700Y-100161800D02*
X143641700Y-93215200D01*
X152796500Y-64245800D02*
X161221800Y-55820500D01*
X141632400Y-47733400D02*
X141632400Y-46324200D01*
X119216800Y-89972200D02*
X119216800Y-84471200D01*
X132571200Y-71116800D02*
X132571200Y-56794600D01*
X132571200Y-56794600D02*
X141632400Y-47733400D01*
X115042800Y-94146200D02*
X119216800Y-89972200D01*
X119216800Y-84471200D02*
X132571200Y-71116800D01*
X89214000Y-93977500D02*
X89214000Y-89443700D01*
X126584800Y-45813000D02*
X126584800Y-45465600D01*
X114259900Y-57842700D02*
X126023900Y-46078700D01*
X89214000Y-89443700D02*
X114259900Y-64397800D01*
X129586100Y-41630800D02*
X131998900Y-39218000D01*
X129586100Y-42464300D02*
X129586100Y-41630800D01*
X126023900Y-46078700D02*
X126319100Y-46078700D01*
X114259900Y-64397800D02*
X114259900Y-57842700D01*
X131998900Y-39218000D02*
X131998900Y-36829400D01*
X126584800Y-45465600D02*
X129586100Y-42464300D01*
X126319100Y-46078700D02*
X126584800Y-45813000D01*
X91755800Y-87872200D02*
X115022100Y-64605900D01*
X91755800Y-92905900D02*
X91755800Y-87872200D01*
X129627100Y-43285900D02*
X130470000Y-42443000D01*
X126571900Y-46688500D02*
X129627100Y-43633300D01*
X115022100Y-57943200D02*
X126276800Y-46688500D01*
X115022100Y-64605900D02*
X115022100Y-57943200D01*
X129627100Y-43633300D02*
X129627100Y-43285900D01*
X126276800Y-46688500D02*
X126571900Y-46688500D01*
X130470000Y-42443000D02*
X130580600Y-42443000D01*
X162132900Y-42049600D02*
X162132900Y-41686500D01*
X151274000Y-86014200D02*
X151371400Y-86014200D01*
X161896700Y-55576900D02*
X161896700Y-42285800D01*
X144750500Y-92537700D02*
X151274000Y-86014200D01*
X153141700Y-64331900D02*
X161896700Y-55576900D01*
X161896700Y-42285800D02*
X162132900Y-42049600D01*
X144750500Y-94178400D02*
X144750500Y-92537700D01*
X151371400Y-86014200D02*
X153141700Y-84243900D01*
X153141700Y-84243900D02*
X153141700Y-64331900D01*
X122338400Y-34704700D02*
X124040200Y-36406500D01*
X124040200Y-38030600D02*
X121755600Y-40315200D01*
X121369800Y-40315200D02*
X100015000Y-61670000D01*
X94666900Y-61670000D02*
X89048800Y-67288100D01*
X100015000Y-61670000D02*
X94666900Y-61670000D01*
X124040200Y-36406500D02*
X124040200Y-38030600D01*
X121755600Y-40315200D02*
X121369800Y-40315200D01*
X180269100Y-65117300D02*
X172492400Y-72894000D01*
X182854900Y-37830400D02*
X182735500Y-37830400D01*
X172492400Y-72894000D02*
X172492400Y-76475000D01*
X182735500Y-37830400D02*
X180269100Y-40296800D01*
X172492400Y-76475000D02*
X171978500Y-76988900D01*
X180269100Y-40296800D02*
X180269100Y-65117300D01*
X171978500Y-76988900D02*
X171978500Y-90134800D01*
X171978500Y-90134800D02*
X168100100Y-94013200D01*
X151407300Y-103919500D02*
X151331300Y-103919500D01*
X166502500Y-35025300D02*
X166502500Y-37815200D01*
X164452400Y-44598100D02*
X164452400Y-54746400D01*
X165215900Y-43834800D02*
X165215700Y-43834800D01*
X164452400Y-54746400D02*
X159812900Y-59385900D01*
X159812900Y-94447000D02*
X151851500Y-102408400D01*
X166185400Y-34708200D02*
X166502500Y-35025300D01*
X159812900Y-59385900D02*
X159812900Y-94447000D01*
X165946300Y-38371400D02*
X165946300Y-43104300D01*
X151331300Y-103919500D02*
X145964800Y-109286000D01*
X165215900Y-43834700D02*
X165215900Y-43834800D01*
X151851500Y-102408400D02*
X151851500Y-103475300D01*
X165215700Y-43834800D02*
X164452400Y-44598100D01*
X145964800Y-109286000D02*
X145964800Y-112103400D01*
X165946300Y-43104300D02*
X165215900Y-43834700D01*
X151851500Y-103475300D02*
X151407300Y-103919500D01*
X166502500Y-37815200D02*
X165946300Y-38371400D01*
X183443000Y-39811200D02*
X182421300Y-38789500D01*
X170142800Y-93898200D02*
X177193700Y-86847300D01*
X177193700Y-69594500D02*
X183443000Y-63345200D01*
X183443000Y-63345200D02*
X183443000Y-39811200D01*
X177193700Y-86847300D02*
X177193700Y-69594500D01*
X165403700Y-54683400D02*
X160422800Y-59664300D01*
X150671600Y-108632300D02*
X145495400Y-113808500D01*
X160422800Y-96769400D02*
X150671600Y-106520600D01*
X150671600Y-106520600D02*
X150671600Y-108632300D01*
X160422800Y-59664300D02*
X160422800Y-96769400D01*
X145495400Y-113808500D02*
X145495400Y-121351800D01*
X165403700Y-44288500D02*
X165403700Y-54683400D01*
X110954300Y-58761900D02*
X125692700Y-44023500D01*
X127269600Y-42446600D02*
X127423200Y-42446600D01*
X90842000Y-82479700D02*
X91068800Y-82252900D01*
X85404000Y-103272500D02*
X87676200Y-101000300D01*
X126250800Y-43465400D02*
X127269600Y-42446600D01*
X91068800Y-82252900D02*
X91068800Y-81189500D01*
X87676200Y-101000300D02*
X87676200Y-88407100D01*
X125806600Y-44023500D02*
X126250800Y-43579300D01*
X87676200Y-88407100D02*
X90842000Y-85241300D01*
X127423200Y-42446600D02*
X129498900Y-40370900D01*
X125692700Y-44023500D02*
X125806600Y-44023500D01*
X126250800Y-43579300D02*
X126250800Y-43465400D01*
X91068800Y-81189500D02*
X110954300Y-61304000D01*
X90842000Y-85241300D02*
X90842000Y-82479700D01*
X110954300Y-61304000D02*
X110954300Y-58761900D01*
X129498900Y-40370900D02*
X129498900Y-38406900D01*
X135606600Y-38689600D02*
X116795000Y-57501200D01*
X135606600Y-37638500D02*
X135606600Y-38689600D01*
X116795000Y-57501200D02*
X116124400Y-57501200D01*
X117848700Y-85180900D02*
X117848700Y-87882300D01*
X117848700Y-87882300D02*
X111495500Y-94235500D01*
X118435900Y-71923500D02*
X118435900Y-84593700D01*
X141073700Y-41361000D02*
X141073700Y-46392600D01*
X143177500Y-39257200D02*
X141073700Y-41361000D01*
X131723600Y-55742700D02*
X131723600Y-58635800D01*
X143177500Y-38721700D02*
X143177500Y-39257200D01*
X131723600Y-58635800D02*
X118435900Y-71923500D01*
X118435900Y-84593700D02*
X117848700Y-85180900D01*
X141073700Y-46392600D02*
X131723600Y-55742700D01*
X171077400Y-37244200D02*
X171478200Y-36843400D01*
X152307000Y-116201500D02*
X152307000Y-106179200D01*
X164191800Y-57404800D02*
X171077400Y-50519200D01*
X171077400Y-50519200D02*
X171077400Y-37244200D01*
X152307000Y-106179200D02*
X164191800Y-94294400D01*
X144122700Y-124385800D02*
X152307000Y-116201500D01*
X164191800Y-94294400D02*
X164191800Y-57404800D01*
X88443500Y-76104100D02*
X120795800Y-43751800D01*
X120795800Y-43751800D02*
X122794600Y-43751800D01*
X122794600Y-43751800D02*
X123286800Y-43259600D01*
X164950500Y-72397500D02*
X164950500Y-85362200D01*
X176312300Y-51348300D02*
X171490500Y-56170100D01*
X171490500Y-56170100D02*
X171490500Y-65857500D01*
X176312300Y-45347100D02*
X176312300Y-51348300D01*
X171490500Y-65857500D02*
X164950500Y-72397500D01*
X157195800Y-51894600D02*
X157195800Y-45469500D01*
X140290900Y-74939000D02*
X147817200Y-67412700D01*
X157195800Y-45469500D02*
X157317700Y-45347600D01*
X148086600Y-66130100D02*
X148086600Y-61003800D01*
X148086600Y-61003800D02*
X157195800Y-51894600D01*
X140290900Y-76060300D02*
X140290900Y-74939000D01*
X147817200Y-66399500D02*
X148086600Y-66130100D01*
X147817200Y-67412700D02*
X147817200Y-66399500D01*
X149001300Y-61435500D02*
X158110600Y-52326200D01*
X158707800Y-37626500D02*
X157952300Y-36871000D01*
X145433400Y-71318900D02*
X148742600Y-68009700D01*
X158110600Y-49107900D02*
X158707800Y-48510700D01*
X148742600Y-68009700D02*
X148742600Y-66768000D01*
X158110600Y-52326200D02*
X158110600Y-49107900D01*
X145433400Y-76044500D02*
X145433400Y-71318900D01*
X158707800Y-48510700D02*
X158707800Y-37626500D01*
X148742600Y-66768000D02*
X149001300Y-66509300D01*
X149001300Y-66509300D02*
X149001300Y-61435500D01*
X148967100Y-47120900D02*
X148967100Y-41444000D01*
X150545700Y-39865400D02*
X150545700Y-38744800D01*
X150545700Y-38744800D02*
X152451700Y-36838800D01*
X152451700Y-36838800D02*
X152825600Y-36838800D01*
X148967100Y-41444000D02*
X150545700Y-39865400D01*
X137959000Y-58129000D02*
X148967100Y-47120900D01*
X130199200Y-59191500D02*
X130199200Y-51983800D01*
X116100300Y-85419400D02*
X116876800Y-84642900D01*
X116876800Y-72513900D02*
X130199200Y-59191500D01*
X130199200Y-51983800D02*
X138260600Y-43922400D01*
X116876800Y-84642900D02*
X116876800Y-72513900D01*
X179617700Y-62643600D02*
X179617700Y-39621300D01*
X167718600Y-74542700D02*
X179617700Y-62643600D01*
X179617700Y-39621300D02*
X179062700Y-39066300D01*
X167718600Y-76056000D02*
X167718600Y-74542700D01*
X150734600Y-41678700D02*
X150663600Y-41749700D01*
X150755500Y-46965200D02*
X147023000Y-50697700D01*
X150663600Y-43082300D02*
X150755500Y-43174200D01*
X150663600Y-41749700D02*
X150663600Y-43082300D01*
X150755500Y-43174200D02*
X150755500Y-46965200D01*
X147023000Y-50697700D02*
X147023000Y-65815700D01*
X174150200Y-53079100D02*
X169235200Y-57994100D01*
X174150200Y-49209300D02*
X174150200Y-53079100D01*
X114564800Y-64631900D02*
X114564800Y-57969100D01*
X129891000Y-42311700D02*
X130439100Y-41763600D01*
X129322200Y-43506900D02*
X129322200Y-43159500D01*
X114564800Y-57969100D02*
X126150300Y-46383600D01*
X129322200Y-43159500D02*
X129891000Y-42590700D01*
X89665400Y-103371600D02*
X91300200Y-101736800D01*
X91300200Y-101736800D02*
X91300200Y-87896500D01*
X129891000Y-42590700D02*
X129891000Y-42311700D01*
X126445500Y-46383600D02*
X129322200Y-43506900D01*
X126150300Y-46383600D02*
X126445500Y-46383600D01*
X91300200Y-87896500D02*
X114564800Y-64631900D01*
X90769600Y-58192500D02*
X93145900Y-55816200D01*
X93145900Y-55816200D02*
X102397000Y-55816200D01*
X119972800Y-38240400D02*
X122699700Y-38240400D01*
X122699700Y-38240400D02*
X122929800Y-38470500D01*
X85760600Y-57994100D02*
X85959000Y-58192500D01*
X85959000Y-58192500D02*
X90769600Y-58192500D01*
X102397000Y-55816200D02*
X119972800Y-38240400D01*
X175731600Y-104944300D02*
X176732500Y-104944300D01*
X168622900Y-112053000D02*
X175731600Y-104944300D01*
X183765900Y-97910900D02*
X183765900Y-40852900D01*
X167637300Y-112053000D02*
X168622900Y-112053000D01*
X183765900Y-40852900D02*
X186201400Y-38417400D01*
X176732500Y-104944300D02*
X183765900Y-97910900D01*
X119065700Y-40010200D02*
X121418800Y-40010200D01*
X94138300Y-57994100D02*
X95706400Y-56426000D01*
X102649900Y-56426000D02*
X119065700Y-40010200D01*
X95706400Y-56426000D02*
X102649900Y-56426000D01*
X121418800Y-40010200D02*
X121994200Y-39434800D01*
X151060500Y-48903300D02*
X147781700Y-52182100D01*
X151007600Y-42804200D02*
X151060500Y-42857100D01*
X151219300Y-38962200D02*
X151219300Y-42216700D01*
X151007600Y-42428400D02*
X151007600Y-42804200D01*
X151219300Y-42216700D02*
X151007600Y-42428400D01*
X147781700Y-66003700D02*
X147023000Y-66762400D01*
X147781700Y-52182100D02*
X147781700Y-66003700D01*
X151060500Y-42857100D02*
X151060500Y-48903300D01*
X151094600Y-38837500D02*
X151219300Y-38962200D01*
X147023000Y-66762400D02*
X147023000Y-67434600D01*
X97213000Y-64967800D02*
X119994300Y-42186500D01*
X119994300Y-42186500D02*
X122491800Y-42186500D01*
X95092100Y-64967800D02*
X97213000Y-64967800D01*
X92782600Y-67277300D02*
X95092100Y-64967800D01*
X168093100Y-121474500D02*
X184703700Y-104863900D01*
X184703700Y-104863900D02*
X184703700Y-47202200D01*
X172295100Y-90486000D02*
X172295100Y-77103600D01*
X183138100Y-62869000D02*
X183138100Y-41985400D01*
X168872800Y-93908300D02*
X172295100Y-90486000D01*
X183138100Y-41985400D02*
X182838900Y-41686200D01*
X172864100Y-73143000D02*
X183138100Y-62869000D01*
X172295100Y-77103600D02*
X172864100Y-76534600D01*
X172864100Y-76534600D02*
X172864100Y-73143000D01*
X157805600Y-52199900D02*
X157805600Y-48981600D01*
X148696400Y-61309100D02*
X157805600Y-52199900D01*
X144256500Y-76061700D02*
X144256500Y-72025800D01*
X158253300Y-48533900D02*
X158253300Y-42760600D01*
X144256500Y-72025800D02*
X148427000Y-67855300D01*
X148427000Y-67855300D02*
X148427000Y-66652300D01*
X148427000Y-66652300D02*
X148696400Y-66382900D01*
X148696400Y-66382900D02*
X148696400Y-61309100D01*
X157805600Y-48981600D02*
X158253300Y-48533900D01*
X117289400Y-112069600D02*
X117289400Y-110391200D01*
X117289400Y-110391200D02*
X137418200Y-90262400D01*
X137418200Y-57971000D02*
X148237500Y-47151700D01*
X148237500Y-47151700D02*
X148237500Y-44119200D01*
X137418200Y-90262400D02*
X137418200Y-57971000D01*
X148237500Y-44119200D02*
X148171800Y-44053500D01*
X91970300Y-74510600D02*
X90484000Y-75996900D01*
X123071700Y-44116400D02*
X121132100Y-44116400D01*
X91970300Y-73278200D02*
X91970300Y-74510600D01*
X127133500Y-39567100D02*
X127133500Y-39695200D01*
X127133600Y-39567100D02*
X127133500Y-39567100D01*
X127133500Y-39695200D02*
X124780700Y-42048000D01*
X124780700Y-42048000D02*
X124780700Y-42407400D01*
X124780700Y-42407400D02*
X123071700Y-44116400D01*
X121132100Y-44116400D02*
X91970300Y-73278200D01*
X145415900Y-47816800D02*
X135878200Y-57354500D01*
X113784400Y-110217900D02*
X113784400Y-111815500D01*
X145498900Y-42009100D02*
X145415900Y-42092100D01*
X111613900Y-113986000D02*
X111613900Y-121651600D01*
X145415900Y-42092100D02*
X145415900Y-47816800D01*
X135878200Y-57354500D02*
X135878200Y-88124100D01*
X135878200Y-88124100D02*
X113784400Y-110217900D01*
X113784400Y-111815500D02*
X111613900Y-113986000D01*
X126829900Y-43862800D02*
X125945000Y-44747700D01*
X125945000Y-44747700D02*
X125935500Y-44747700D01*
X113216000Y-57467200D02*
X113216000Y-57835900D01*
X131007700Y-39724800D02*
X126869700Y-43862800D01*
X125935500Y-44747700D02*
X113216000Y-57467200D01*
X131007700Y-39474700D02*
X131007700Y-39724800D01*
X126869700Y-43862800D02*
X126829900Y-43862800D01*
X150280100Y-46849400D02*
X150280100Y-43812200D01*
X142330900Y-58389600D02*
X142330900Y-54798600D01*
X142330900Y-54798600D02*
X150280100Y-46849400D01*
X118538200Y-59287600D02*
X135094700Y-42731100D01*
X118538200Y-67404100D02*
X118538200Y-59287600D01*
X135094700Y-42731100D02*
X135094700Y-41784700D01*
X135094700Y-41784700D02*
X134988100Y-41678100D01*
X151576900Y-63740200D02*
X151576900Y-67861200D01*
X139518800Y-92260000D02*
X139518800Y-94050200D01*
X158752000Y-56565100D02*
X151576900Y-63740200D01*
X159601900Y-49174900D02*
X158752000Y-50024800D01*
X149823800Y-81955000D02*
X139518800Y-92260000D01*
X151576900Y-67861200D02*
X149823800Y-69614300D01*
X159601900Y-46406100D02*
X159601900Y-49174900D01*
X149823800Y-69614300D02*
X149823800Y-81955000D01*
X158752000Y-50024800D02*
X158752000Y-56565100D01*
X164496700Y-57647900D02*
X172698400Y-49446200D01*
X172343400Y-35917700D02*
X171117000Y-34691300D01*
X172698400Y-38400400D02*
X172343400Y-38045400D01*
X172343400Y-38045400D02*
X172343400Y-35917700D01*
X144846500Y-124378800D02*
X153244800Y-115980500D01*
X172698400Y-49446200D02*
X172698400Y-38400400D01*
X153244800Y-115980500D02*
X153244800Y-105672700D01*
X164496700Y-94420800D02*
X164496700Y-57647900D01*
X153244800Y-105672700D02*
X164496700Y-94420800D01*
X142950600Y-48116000D02*
X142950600Y-43657500D01*
X134553300Y-56513300D02*
X142950600Y-48116000D01*
X120822200Y-91851100D02*
X120822200Y-86949900D01*
X120013600Y-92659700D02*
X120822200Y-91851100D01*
X134553300Y-73218800D02*
X134553300Y-56513300D01*
X120822200Y-86949900D02*
X134553300Y-73218800D01*
X142950600Y-43657500D02*
X143884600Y-42723500D01*
X143884600Y-42723500D02*
X143901300Y-42723500D01*
X148388600Y-35174600D02*
X148388600Y-43046900D01*
X137097800Y-88629700D02*
X116509900Y-109217600D01*
X116509900Y-109217600D02*
X116509900Y-112184800D01*
X147932600Y-44645600D02*
X147932600Y-47025300D01*
X137097800Y-57860100D02*
X137097800Y-88629700D01*
X147716100Y-43719400D02*
X147716100Y-44429100D01*
X147932600Y-47025300D02*
X137097800Y-57860100D01*
X148388600Y-43046900D02*
X147716100Y-43719400D01*
X147716100Y-44429100D02*
X147932600Y-44645600D01*
X147930500Y-34716500D02*
X148388600Y-35174600D01*
X149577000Y-42328500D02*
X149577000Y-47121200D01*
X149870000Y-42035500D02*
X149577000Y-42328500D01*
X141302500Y-55395700D02*
X141302500Y-67242200D01*
X149577000Y-47121200D02*
X141302500Y-55395700D01*
X89013600Y-49294900D02*
X101479100Y-36829400D01*
X101479100Y-36829400D02*
X117766000Y-36829400D01*
X113560300Y-85422900D02*
X116555700Y-82427500D01*
X129894300Y-59065100D02*
X129894300Y-51806400D01*
X116555700Y-82427500D02*
X116555700Y-72403700D01*
X137806900Y-43523900D02*
X137998900Y-43331900D01*
X137806900Y-43893800D02*
X137806900Y-43523900D01*
X116555700Y-72403700D02*
X129894300Y-59065100D01*
X129894300Y-51806400D02*
X137806900Y-43893800D01*
X181692400Y-140787600D02*
X181692400Y-139168200D01*
X181692400Y-139168200D02*
X197521000Y-123339600D01*
X199769200Y-123339600D02*
X200501000Y-124071400D01*
X197521000Y-123339600D02*
X199769200Y-123339600D01*
X171080000Y-151400000D02*
X181692400Y-140787600D01*
X197667800Y-123652600D02*
X198851400Y-123652600D01*
X198851400Y-123652600D02*
X199391000Y-124192200D01*
X182746200Y-138574200D02*
X197667800Y-123652600D01*
X173620000Y-151400000D02*
X182746200Y-142273800D01*
X182746200Y-142273800D02*
X182746200Y-138574200D01*
X185453100Y-137161300D02*
X196697000Y-125917400D01*
X181240000Y-151400000D02*
X185453100Y-147186900D01*
X196697000Y-125917400D02*
X196907600Y-125917400D01*
X185453100Y-147186900D02*
X185453100Y-137161300D01*
X190880200Y-146839800D02*
X190880200Y-133017800D01*
X196118900Y-127779100D02*
X196118900Y-127192600D01*
X196118900Y-127192600D02*
X196091300Y-127165000D01*
X186320000Y-151400000D02*
X190880200Y-146839800D01*
X190880200Y-133017800D02*
X196118900Y-127779100D01*
X196957800Y-125225300D02*
X197189800Y-125225300D01*
X183805300Y-146294700D02*
X183805300Y-138377800D01*
X178700000Y-151400000D02*
X183805300Y-146294700D01*
X183805300Y-138377800D02*
X196957800Y-125225300D01*
X197629100Y-124122700D02*
X183500300Y-138251500D01*
X183500300Y-138251500D02*
X183500300Y-144059700D01*
X197839700Y-124122700D02*
X197629100Y-124122700D01*
X183500300Y-144059700D02*
X176160000Y-151400000D01*
X189060700Y-134195600D02*
X195665200Y-127591100D01*
X183780000Y-151400000D02*
X189060700Y-146119300D01*
X189060700Y-146119300D02*
X189060700Y-134195600D01*
X166000000Y-155000000D02*
X167270100Y-153729900D01*
X167270100Y-148627000D02*
X195327700Y-120569400D01*
X167270100Y-153729900D02*
X167270100Y-148627000D01*
X195327700Y-120569400D02*
X195327700Y-119069800D01*
X192574100Y-133080000D02*
X192222200Y-132728100D01*
X191400000Y-155000000D02*
X192574100Y-153825900D01*
X192574100Y-153825900D02*
X192574100Y-133080000D01*
X199020000Y-155000000D02*
X197750000Y-153730000D01*
X197750000Y-134677900D02*
X195825000Y-132752900D01*
X197750000Y-153730000D02*
X197750000Y-134677900D01*
X168540000Y-155000000D02*
X169810100Y-153729900D01*
X169810100Y-147019800D02*
X199436000Y-117393900D01*
X199436000Y-117393900D02*
X199436000Y-112063900D01*
X169810100Y-153729900D02*
X169810100Y-147019800D01*
X195371300Y-153891300D02*
X195371300Y-133552300D01*
X195371300Y-133552300D02*
X194555000Y-132736000D01*
X196480000Y-155000000D02*
X195371300Y-153891300D01*
X200290000Y-135868300D02*
X197161500Y-132739800D01*
X201560000Y-155000000D02*
X200290000Y-153730000D01*
X200290000Y-153730000D02*
X200290000Y-135868300D01*
X205370000Y-138483200D02*
X199635000Y-132748200D01*
X206640000Y-155000000D02*
X205370000Y-153730000D01*
X205370000Y-153730000D02*
X205370000Y-138483200D01*
X142764000Y-111489800D02*
X151092900Y-103160900D01*
X104738900Y-129878200D02*
X104912600Y-130051900D01*
X111266400Y-130051900D02*
X129828500Y-111489800D01*
X129828500Y-111489800D02*
X142764000Y-111489800D01*
X104912600Y-130051900D02*
X111266400Y-130051900D01*
X106674000Y-120257300D02*
X106674000Y-115655700D01*
X118797300Y-103532400D02*
X118797300Y-102796500D01*
X106674000Y-115655700D02*
X118797300Y-103532400D01*
X118797300Y-102796500D02*
X124601200Y-96992600D01*
X97051400Y-129879900D02*
X106674000Y-120257300D01*
X124601200Y-96992600D02*
X124601200Y-88749200D01*
X107782700Y-128862300D02*
X116223500Y-120421500D01*
X107060000Y-128862300D02*
X107782700Y-128862300D01*
X204780200Y-70504500D02*
X204089500Y-71195200D01*
X116223500Y-119394700D02*
X150149500Y-85468700D01*
X150149500Y-85468700D02*
X150149500Y-85354200D01*
X204089500Y-71195200D02*
X204089500Y-103390300D01*
X116223500Y-120421500D02*
X116223500Y-119394700D01*
X110164300Y-129598200D02*
X111270800Y-129598200D01*
X142753400Y-106457900D02*
X145743700Y-103467600D01*
X145743700Y-103467600D02*
X145743700Y-103038300D01*
X111270800Y-129598200D02*
X134411100Y-106457900D01*
X134411100Y-106457900D02*
X142753400Y-106457900D01*
X145743700Y-103038300D02*
X151644800Y-97137200D01*
X123283200Y-130500400D02*
X141395000Y-130500400D01*
X119131500Y-126348700D02*
X123283200Y-130500400D01*
X141395000Y-130500400D02*
X150252900Y-139358300D01*
X191889500Y-65262500D02*
X188265900Y-61638900D01*
X183685400Y-34189500D02*
X95768600Y-34189500D01*
X95768600Y-34189500D02*
X89988100Y-39970000D01*
X188265900Y-38770000D02*
X183685400Y-34189500D01*
X188265900Y-61638900D02*
X188265900Y-38770000D01*
X191889500Y-92963000D02*
X191889500Y-65262500D01*
X200460600Y-101534100D02*
X191889500Y-92963000D01*
X216000000Y-132965800D02*
X200460600Y-117426400D01*
X200460600Y-117426400D02*
X200460600Y-101534100D01*
X197190000Y-78897000D02*
X202195800Y-83902800D01*
X202195800Y-96759200D02*
X203132400Y-97695800D01*
X202195800Y-83902800D02*
X202195800Y-96759200D01*
X203132500Y-105729300D02*
X203915700Y-106512500D01*
X203915700Y-112345900D02*
X215931000Y-124361200D01*
X215931000Y-124361200D02*
X216495800Y-124361200D01*
X203915700Y-106512500D02*
X203915700Y-112345900D01*
X203132400Y-105729300D02*
X203132500Y-105729300D01*
X217270000Y-126710000D02*
X218540000Y-127980000D01*
X216495800Y-124361200D02*
X217270000Y-125135400D01*
X203132400Y-97695800D02*
X203132400Y-105729300D01*
X217270000Y-125135400D02*
X217270000Y-126710000D01*
X199792500Y-97196300D02*
X199792500Y-83627300D01*
X217078800Y-131598800D02*
X217078800Y-130024100D01*
X215719900Y-129250000D02*
X202542700Y-116072800D01*
X216304700Y-129250000D02*
X215719900Y-129250000D01*
X202237800Y-99641600D02*
X199792500Y-97196300D01*
X202542700Y-111765900D02*
X202237800Y-111461000D01*
X202237800Y-111461000D02*
X202237800Y-99641600D01*
X202542700Y-116072800D02*
X202542700Y-111765900D01*
X217078800Y-130024100D02*
X216304700Y-129250000D01*
X199792500Y-83627300D02*
X195036000Y-78870800D01*
X218540000Y-133060000D02*
X217078800Y-131598800D01*
X198424300Y-83335800D02*
X193871100Y-78782600D01*
X202085400Y-111892500D02*
X201932800Y-111739900D01*
X218540000Y-135600000D02*
X217377900Y-134437900D01*
X201932800Y-101238100D02*
X198424300Y-97729600D01*
X198424300Y-97729600D02*
X198424300Y-83335800D01*
X201932800Y-111739900D02*
X201932800Y-101238100D01*
X202085400Y-118171400D02*
X202085400Y-111892500D01*
X217377900Y-132896500D02*
X216379300Y-131897900D01*
X216379300Y-131897900D02*
X215811900Y-131897900D01*
X217377900Y-134437900D02*
X217377900Y-132896500D01*
X215811900Y-131897900D02*
X202085400Y-118171400D01*
X202847600Y-111639500D02*
X202542800Y-111334700D01*
X202542800Y-111334700D02*
X202542800Y-97696300D01*
X200961700Y-83924600D02*
X195920000Y-78882900D01*
X202847600Y-114827600D02*
X202847600Y-111639500D01*
X200961700Y-96115200D02*
X200961700Y-83924600D01*
X202542800Y-97696300D02*
X200961700Y-96115200D01*
X216000000Y-127980000D02*
X202847600Y-114827600D01*
X199940700Y-119540700D02*
X216000000Y-135600000D01*
X191406300Y-77250800D02*
X191406300Y-92911200D01*
X191406300Y-92911200D02*
X199940700Y-101445600D01*
X199940700Y-101445600D02*
X199940700Y-119540700D01*
M02*
