M48
; DRILL file {KiCad 9.0.3} date 2025-08-01T19:28:06-0700
; FORMAT={-:-/ absolute / metric / decimal}
; #@! TF.CreationDate,2025-08-01T19:28:06-07:00
; #@! TF.GenerationSoftware,Kicad,Pcbnew,9.0.3
; #@! TF.FileFunction,Plated,1,8,PTH
FMAT,2
METRIC
; #@! TA.AperFunction,Plated,PTH,ViaDrill
T1C0.200
; #@! TA.AperFunction,Plated,PTH,ViaDrill
T2C0.300
; #@! TA.AperFunction,Plated,PTH,ViaDrill
T3C0.500
; #@! TA.AperFunction,Plated,PTH,ComponentDrill
T4C0.750
; #@! TA.AperFunction,Plated,PTH,ComponentDrill
T5C0.830
; #@! TA.AperFunction,Plated,PTH,ComponentDrill
T6C1.000
; #@! TA.AperFunction,Plated,PTH,ComponentDrill
T7C1.850
%
G90
G05
T1
X83.442Y-104.7
X83.664Y-154.489
X84.108Y-85.29
X84.134Y-57.996
X84.134Y-75.977
X84.198Y-67.281
X84.7Y-94.188
X85.404Y-85.277
X85.404Y-103.272
X85.761Y-57.994
X85.861Y-40.064
X86.088Y-94.206
X86.461Y-67.294
X86.511Y-49.293
X86.7Y-144.6
X86.997Y-57.725
X87.113Y-93.761
X87.12Y-76.056
X87.172Y-103.402
X87.569Y-130.031
X87.684Y-67.293
X88.194Y-153.001
X88.237Y-85.29
X88.396Y-103.348
X88.444Y-76.104
X88.496Y-94.149
X89.014Y-49.295
X89.049Y-67.288
X89.214Y-85.291
X89.214Y-93.977
X89.665Y-103.372
X89.755Y-76.135
X89.842Y-57.724
X89.849Y-67.546
X89.988Y-39.97
X90.388Y-85.032
X90.484Y-75.997
X90.615Y-82.065
X90.935Y-74.591
X91.601Y-85.29
X91.604Y-67.287
X91.754Y-103.288
X91.756Y-92.906
X91.803Y-75.986
X91.907Y-93.991
X92.212Y-102.172
X92.691Y-57.993
X92.783Y-67.277
X93.601Y-76.199
X93.623Y-94.211
X93.649Y-67.532
X93.824Y-153.161
X94.138Y-57.994
X95.14Y-130.005
X96.834Y-42.825
X96.835Y-60.807
X97.051Y-129.88
X97.344Y-76.137
X97.367Y-87.954
X97.596Y-51.97
X97.747Y-70.338
X97.779Y-53.724
X97.854Y-106.103
X98.252Y-85.29
X98.571Y-74.91
X98.905Y-153.16
X99.37Y-67.275
X99.374Y-52.11
X99.525Y-101.335
X99.828Y-83.482
X100.654Y-92.565
X100.787Y-67.292
X101.338Y-50.571
X101.796Y-104.935
X103.789Y-128.099
X104.441Y-152.704
X104.739Y-129.878
X106.473Y-56.349
X107.06Y-128.862
X109.253Y-48.318
X110.164Y-129.598
X111.02Y-85.427
X111.02Y-103.428
X111.02Y-112.128
X111.425Y-76.168
X111.495Y-94.236
X111.614Y-121.652
X112.29Y-103.428
X112.29Y-112.131
X112.29Y-121.44
X112.486Y-85.431
X112.686Y-94.154
X112.914Y-129.974
X113.054Y-67.492
X113.216Y-57.836
X113.56Y-85.423
X113.678Y-121.446
X114.081Y-103.593
X114.135Y-76.327
X114.16Y-94.359
X114.559Y-110.867
X114.682Y-121.289
X114.991Y-152.314
X115.043Y-94.146
X115.121Y-112.131
X115.165Y-76.137
X115.343Y-67.574
X115.345Y-85.429
X115.417Y-103.659
X116.1Y-85.419
X116.102Y-76.122
X116.124Y-57.501
X116.394Y-94.144
X116.413Y-44.623
X116.419Y-103.421
X116.51Y-112.185
X116.589Y-121.55
X116.733Y-58.409
X116.943Y-35.123
X117.249Y-109.233
X117.289Y-112.07
X117.37Y-67.441
X117.37Y-121.429
X117.379Y-85.439
X117.393Y-75.79
X117.726Y-39.414
X117.766Y-36.829
X117.839Y-102.512
X117.839Y-103.54
X117.896Y-76.139
X118.302Y-112.062
X118.302Y-85.369
X118.538Y-67.404
X118.589Y-42.188
X118.64Y-121.425
X118.745Y-54.864
X118.959Y-41.681
X119.131Y-126.349
X119.739Y-103.19
X119.91Y-112.125
X120.014Y-92.66
X120.016Y-93.546
X120.02Y-57.164
X120.032Y-67.204
X120.075Y-151.863
X120.205Y-39.082
X120.328Y-76.077
X120.354Y-58.208
X120.493Y-85.657
X120.547Y-121.7
X120.552Y-94.389
X120.59Y-39.556
X121.102Y-36.827
X121.507Y-38.697
X121.973Y-151.257
X121.994Y-39.435
X122.091Y-36.829
X122.338Y-34.705
X122.486Y-45.172
X122.492Y-42.186
X122.93Y-38.471
X123.117Y-34.705
X123.287Y-43.26
X123.584Y-36.924
X123.72Y-60.961
X123.72Y-96.962
X123.727Y-78.958
X123.734Y-114.973
X124.094Y-42.166
X124.175Y-70.713
X124.317Y-153.148
X124.349Y-34.72
X124.464Y-41.676
X124.482Y-38.267
X124.601Y-88.749
X124.702Y-70.255
X125.057Y-85.437
X125.079Y-106.257
X125.212Y-121.442
X125.492Y-43.265
X125.539Y-42.362
X125.54Y-37.819
X126.131Y-45.625
X126.26Y-106.253
X126.26Y-121.444
X126.301Y-37.352
X126.332Y-34.701
X126.403Y-88.254
X126.907Y-44.427
X126.936Y-36.836
X126.948Y-42.127
X127.134Y-39.567
X127.435Y-34.703
X127.499Y-41.676
X127.707Y-36.825
X127.751Y-37.879
X127.922Y-43.453
X128.214Y-105.092
X128.214Y-122.294
X128.214Y-86.85
X128.431Y-156.227
X129.499Y-38.407
X130.06Y-37.821
X130.081Y-43.474
X130.439Y-41.764
X130.581Y-42.443
X130.999Y-37.295
X131.008Y-39.475
X131.048Y-41.682
X131.499Y-37.652
X131.661Y-41.831
X131.999Y-36.829
X132.084Y-34.709
X132.527Y-39.264
X132.926Y-34.717
X133.255Y-36.826
X133.999Y-37.797
X134.469Y-153.156
X134.527Y-37.255
X134.641Y-42.221
X134.988Y-41.678
X135.099Y-34.713
X135.456Y-36.851
X135.607Y-37.639
X136.067Y-36.887
X136.667Y-43.526
X136.883Y-34.719
X137.095Y-36.825
X137.213Y-140.077
X137.228Y-122.77
X137.881Y-85.35
X137.887Y-37.021
X137.906Y-94.038
X137.906Y-112.032
X137.93Y-76.052
X137.959Y-58.129
X137.999Y-43.332
X138.251Y-46.823
X138.261Y-43.922
X138.378Y-103.434
X138.499Y-36.854
X138.87Y-67.432
X139.035Y-37.2
X139.043Y-137.32
X139.177Y-121.36
X139.205Y-38.438
X139.206Y-39.569
X139.439Y-103.366
X139.519Y-94.05
X139.637Y-112.133
X139.665Y-85.471
X139.712Y-42.156
X139.894Y-44.13
X140.05Y-36.888
X140.148Y-129.25
X140.291Y-76.06
X140.399Y-41.685
X140.446Y-103.357
X140.446Y-139.31
X140.504Y-37.3
X140.633Y-34.7
X140.668Y-110.441
X140.85Y-121.364
X140.869Y-94.084
X140.96Y-85.506
X140.993Y-76.223
X141.163Y-47.376
X141.26Y-36.844
X141.302Y-67.242
X141.466Y-93.505
X141.632Y-46.324
X141.866Y-121.351
X141.907Y-36.933
X141.928Y-85.334
X142.086Y-41.949
X142.189Y-139.463
X142.199Y-103.46
X142.199Y-112.166
X142.251Y-67.601
X142.262Y-38.255
X142.267Y-129.25
X142.276Y-39.517
X142.331Y-58.39
X142.814Y-121.366
X142.82Y-36.829
X142.837Y-41.688
X142.881Y-37.531
X142.987Y-85.362
X142.987Y-103.349
X143.011Y-94.061
X143.016Y-112.051
X143.123Y-67.423
X143.177Y-38.722
X143.313Y-139.353
X143.371Y-76.078
X143.419Y-43.839
X143.58Y-129.32
X143.639Y-36.827
X143.884Y-67.433
X143.901Y-42.724
X143.904Y-34.719
X144.123Y-124.386
X144.256Y-58.145
X144.256Y-76.062
X144.256Y-85.358
X144.256Y-139.35
X144.702Y-121.388
X144.75Y-94.178
X144.846Y-124.379
X144.962Y-47.463
X145.184Y-103.359
X145.206Y-129.266
X145.3Y-85.351
X145.433Y-76.044
X145.443Y-37.137
X145.495Y-121.352
X145.499Y-42.009
X145.526Y-139.338
X145.965Y-112.103
X145.999Y-36.838
X146.033Y-130.19
X146.04Y-41.685
X146.09Y-94.262
X146.197Y-103.564
X146.209Y-34.701
X146.427Y-110.921
X146.486Y-121.359
X146.499Y-42.081
X146.779Y-36.826
X146.848Y-139.353
X146.999Y-41.681
X147.023Y-65.816
X147.023Y-67.435
X147.023Y-75.966
X147.151Y-42.981
X147.161Y-103.336
X147.306Y-94.192
X147.328Y-85.517
X147.479Y-44.834
X147.62Y-36.843
X147.667Y-128.255
X147.7Y-38.862
X147.89Y-112.055
X147.93Y-34.716
X147.935Y-37.95
X148.172Y-44.053
X148.559Y-57.426
X148.923Y-127.47
X149.497Y-36.843
X149.87Y-42.035
X149.999Y-37.234
X150.086Y-39.564
X150.144Y-114.814
X150.149Y-85.354
X150.253Y-139.358
X150.28Y-43.812
X150.578Y-36.917
X150.735Y-41.679
X150.831Y-96.999
X150.862Y-150.755
X151.057Y-85.256
X151.065Y-73.829
X151.093Y-103.161
X151.095Y-38.837
X151.439Y-139.399
X151.461Y-42.616
X151.645Y-97.137
X151.684Y-73.334
X151.999Y-41.687
X152.028Y-121.258
X152.305Y-102.822
X152.826Y-36.839
X152.916Y-139.351
X153.315Y-41.708
X153.448Y-121.353
X153.531Y-36.831
X153.825Y-106.639
X154.205Y-85.31
X154.216Y-75.225
X154.416Y-70.452
X154.494Y-152.99
X154.581Y-121.362
X155.096Y-140.157
X155.096Y-86.114
X155.101Y-104.77
X155.246Y-40.348
X155.309Y-41.526
X155.8Y-44.925
X156.387Y-36.836
X156.534Y-41.991
X156.769Y-38.183
X157.318Y-45.348
X157.499Y-37.282
X157.952Y-36.871
X158.091Y-41.799
X158.162Y-38.497
X158.253Y-42.761
X158.661Y-36.833
X158.929Y-34.714
X159.602Y-46.406
X159.815Y-50.465
X159.905Y-39.501
X160.499Y-41.703
X160.649Y-37.351
X160.736Y-43.495
X160.753Y-42.791
X160.794Y-39.056
X161.405Y-36.831
X161.529Y-41.678
X161.911Y-34.712
X161.999Y-39.569
X162.059Y-36.897
X162.133Y-41.686
X162.134Y-37.999
X163.156Y-42.535
X163.162Y-49.685
X163.91Y-36.939
X164.006Y-112.379
X164.135Y-42.099
X164.159Y-109.633
X164.499Y-37.206
X164.833Y-34.705
X164.906Y-44.786
X164.951Y-85.362
X165.07Y-111.316
X165.096Y-132.741
X165.404Y-44.288
X165.455Y-121.383
X165.486Y-103.269
X165.552Y-37.344
X165.598Y-94.065
X165.649Y-141.844
X165.899Y-57.994
X165.899Y-67.289
X165.899Y-76.066
X165.999Y-43.693
X166.02Y-36.832
X166.185Y-34.708
X166.287Y-45.551
X166.333Y-93.914
X166.333Y-132.728
X166.407Y-38.881
X166.502Y-76.053
X166.509Y-85.351
X166.696Y-67.288
X166.706Y-103.209
X166.715Y-121.367
X166.928Y-42.699
X167.387Y-41.782
X167.499Y-36.843
X167.529Y-47.539
X167.598Y-103.219
X167.6Y-132.9
X167.603Y-57.98
X167.637Y-112.053
X167.719Y-76.056
X167.877Y-67.287
X167.999Y-41.698
X168.015Y-37.211
X168.068Y-141.936
X168.093Y-121.474
X168.1Y-94.013
X168.182Y-44.293
X168.184Y-85.56
X168.494Y-43.752
X168.609Y-36.936
X168.873Y-85.35
X168.873Y-93.908
X168.953Y-46.173
X168.994Y-103.221
X169.105Y-143.78
X169.133Y-132.746
X169.218Y-67.29
X169.235Y-57.994
X169.327Y-39.043
X169.424Y-76.247
X169.452Y-121.557
X169.602Y-42.213
X169.736Y-38.017
X170.117Y-112.063
X170.143Y-93.898
X170.241Y-36.838
X170.247Y-34.718
X170.271Y-152.771
X170.299Y-103.218
X170.317Y-85.35
X170.334Y-57.978
X170.412Y-144.365
X170.413Y-41.692
X170.541Y-132.737
X170.59Y-43.282
X170.661Y-121.51
X170.696Y-66.002
X170.784Y-76.165
X171.117Y-34.691
X171.204Y-111.017
X171.214Y-142.03
X171.413Y-85.347
X171.413Y-103.219
X171.478Y-36.843
X171.619Y-38.499
X171.825Y-121.375
X171.9Y-132.9
X171.931Y-67.438
X172.037Y-76.289
X172.041Y-94.175
X172.23Y-42.73
X172.232Y-42.061
X172.241Y-38.659
X172.574Y-142.527
X172.603Y-103.212
X172.707Y-57.995
X172.739Y-67.287
X172.749Y-85.354
X172.8Y-132.7
X172.883Y-36.827
X172.884Y-121.354
X173.042Y-112.064
X173.24Y-94.108
X173.29Y-42.536
X173.318Y-76.32
X173.485Y-144.106
X173.511Y-153.772
X173.516Y-36.845
X173.577Y-67.282
X173.809Y-42.179
X173.953Y-57.974
X173.965Y-93.911
X173.999Y-37.981
X174.15Y-49.209
X174.215Y-111.995
X174.278Y-103.029
X174.4Y-132.8
X174.409Y-76.137
X174.484Y-121.513
X174.485Y-36.852
X174.503Y-137.304
X174.553Y-138.897
X174.593Y-85.622
X174.999Y-39.06
X175.034Y-110.303
X175.06Y-137.863
X175.453Y-36.826
X175.649Y-138.444
X175.999Y-37.209
X176.312Y-45.347
X176.458Y-41.702
X176.499Y-36.837
X176.606Y-44.412
X176.999Y-38.839
X177.061Y-41.677
X177.534Y-115.282
X177.549Y-39.563
X177.583Y-36.827
X177.592Y-42.433
X177.69Y-41.678
X177.736Y-37.439
X177.739Y-129.919
X178.227Y-34.719
X178.426Y-102.609
X178.764Y-64.301
X178.833Y-78.901
X179.033Y-88.195
X179.063Y-39.066
X179.104Y-42.975
X179.12Y-42.086
X179.138Y-52.241
X179.426Y-139.236
X179.428Y-121.361
X179.499Y-37.978
X179.915Y-101.119
X179.969Y-36.848
X180.083Y-37.645
X180.889Y-47.033
X180.947Y-139.461
X180.986Y-45.979
X181.195Y-121.351
X181.37Y-37.902
X181.573Y-41.747
X181.685Y-34.708
X181.742Y-36.833
X182.252Y-140.625
X182.421Y-38.789
X182.448Y-121.962
X182.54Y-43.32
X182.575Y-43.941
X182.677Y-106.14
X182.681Y-42.501
X182.839Y-41.686
X182.855Y-37.83
X183.499Y-36.85
X183.692Y-37.464
X184.1Y-39.22
X184.566Y-36.826
X184.704Y-47.202
X184.835Y-46.401
X184.966Y-42.429
X184.999Y-41.679
X185.02Y-37.226
X185.691Y-36.837
X185.754Y-37.555
X185.864Y-44.411
X185.959Y-41.687
X186.201Y-38.417
X187.317Y-36.839
X187.499Y-41.686
X188.126Y-36.837
X188.31Y-146.219
X188.462Y-34.709
X188.746Y-36.836
X190.425Y-143.789
X191.406Y-77.251
X191.414Y-59.299
X191.422Y-113.47
X192.06Y-147.983
X192.222Y-132.728
X192.343Y-88.196
X192.348Y-67.285
X192.7Y-125.0
X193.117Y-112.055
X193.285Y-132.732
X193.322Y-60.808
X193.871Y-78.783
X193.96Y-102.401
X193.96Y-103.431
X194.477Y-96.74
X194.555Y-132.736
X194.65Y-60.807
X195.036Y-78.871
X195.038Y-112.069
X195.194Y-88.025
X195.265Y-88.861
X195.328Y-119.07
X195.665Y-127.591
X195.736Y-60.808
X195.825Y-132.753
X195.92Y-112.048
X195.92Y-67.276
X195.92Y-78.883
X196.091Y-127.165
X196.329Y-96.75
X196.908Y-125.917
X196.948Y-60.826
X196.965Y-88.185
X197.161Y-132.74
X197.19Y-112.063
X197.19Y-125.225
X197.19Y-78.897
X197.241Y-96.83
X197.84Y-124.123
X197.963Y-60.694
X198.262Y-112.044
X198.369Y-67.293
X198.898Y-88.781
X199.011Y-97.288
X199.391Y-124.192
X199.436Y-112.064
X199.635Y-132.748
X199.708Y-98.342
X199.73Y-60.812
X200.425Y-87.998
X200.501Y-124.071
X200.784Y-76.055
X200.87Y-60.804
X201.072Y-96.868
X201.415Y-89.96
X201.515Y-112.194
X201.566Y-88.004
X203.594Y-99.324
X203.757Y-121.364
X204.089Y-103.39
X204.438Y-129.908
X204.452Y-139.209
X204.64Y-112.058
X204.773Y-78.879
X204.78Y-70.504
X204.79Y-96.751
X204.81Y-60.827
X205.006Y-88.51
X205.043Y-85.349
X205.248Y-99.603
X205.917Y-106.242
X206.001Y-120.211
X206.709Y-69.855
X206.864Y-121.447
X207.35Y-88.193
X207.35Y-106.051
X208.095Y-69.949
X208.649Y-100.251
X209.305Y-86.085
T2
X84.0Y-113.4
X84.1Y-150.4
X89.3Y-150.4
X89.5Y-113.4
X94.4Y-150.4
X95.17Y-48.77
X95.204Y-66.104
X95.294Y-52.7
X95.394Y-54.2
X95.394Y-70.7
X95.394Y-72.3
X95.394Y-88.7
X95.494Y-90.3
X95.494Y-106.7
X95.494Y-108.3
X95.6Y-85.0
X95.6Y-103.1
X97.888Y-93.5
X99.5Y-150.4
X100.0Y-75.3
X101.473Y-59.4
X101.588Y-41.487
X104.5Y-150.4
X109.6Y-150.4
X114.6Y-150.4
X114.7Y-129.7
X117.22Y-132.576
X118.406Y-37.392
X119.528Y-37.296
X119.7Y-150.4
X122.28Y-70.85
X122.28Y-72.45
X122.28Y-88.85
X122.28Y-90.45
X122.28Y-106.85
X122.38Y-108.45
X122.38Y-124.85
X122.38Y-126.35
X122.783Y-120.889
X124.355Y-102.155
X124.912Y-150.501
X126.2Y-57.6
X126.3Y-75.6
X127.0Y-93.7
X127.5Y-111.8
X128.3Y-149.0
X135.0Y-150.4
X140.0Y-150.4
X145.1Y-150.4
X148.77Y-138.93
X149.12Y-142.64
X149.151Y-124.894
X149.151Y-126.394
X149.159Y-88.922
X149.159Y-90.422
X149.159Y-106.922
X149.159Y-108.422
X149.16Y-144.17
X149.2Y-70.9
X149.2Y-72.4
X149.296Y-67.132
X150.247Y-150.416
X150.833Y-88.5
X151.371Y-111.5
X151.84Y-132.91
X152.8Y-61.248
X154.028Y-129.25
X154.41Y-58.045
X155.206Y-112.711
X155.208Y-77.161
X155.4Y-150.4
X155.6Y-92.9
X155.605Y-94.916
X160.4Y-150.4
X175.863Y-67.403
X176.3Y-88.8
X176.3Y-90.4
X176.308Y-142.669
X176.308Y-144.169
X176.315Y-106.697
X176.315Y-108.197
X176.315Y-124.9
X176.362Y-70.842
X176.362Y-72.342
X176.4Y-126.4
X176.5Y-121.2
X176.64Y-75.4
X176.788Y-103.098
X177.5Y-142.4
X177.7Y-88.5
X178.874Y-129.354
X179.0Y-57.4
X179.0Y-111.5
X179.362Y-97.998
X180.244Y-111.144
X180.3Y-129.354
X181.516Y-96.834
X181.548Y-111.521
X181.748Y-129.354
X182.584Y-59.326
X182.584Y-77.121
X202.865Y-121.449
X203.293Y-142.672
X203.293Y-144.172
X203.3Y-124.8
X203.3Y-126.4
X203.362Y-106.742
X203.362Y-108.342
X203.37Y-72.35
X203.4Y-88.8
X203.4Y-90.4
X203.4Y-139.0
X203.47Y-70.85
X203.536Y-85.3
X203.6Y-67.1
X205.448Y-110.789
X206.0Y-129.3
X206.1Y-57.6
X206.1Y-75.8
X206.471Y-93.637
X207.3Y-129.3
X207.35Y-78.974
X207.4Y-57.6
X207.5Y-111.6
X207.904Y-92.204
X208.5Y-129.3
X208.6Y-57.6
X208.6Y-75.8
X208.6Y-111.6
X209.203Y-93.6
T3
X117.22Y-148.19
X119.8Y-148.195
T4
X191.909Y-37.197
X191.909Y-39.197
T5
X114.569Y-38.197
X193.699Y-38.197
T6
X166.0Y-151.4
X166.0Y-155.0
X168.54Y-151.4
X168.54Y-155.0
X171.08Y-151.4
X171.08Y-155.0
X173.62Y-151.4
X173.62Y-155.0
X176.16Y-151.4
X176.16Y-155.0
X178.7Y-151.4
X178.7Y-155.0
X181.24Y-151.4
X181.24Y-155.0
X183.78Y-151.4
X183.78Y-155.0
X186.32Y-151.4
X186.32Y-155.0
X188.86Y-151.4
X188.86Y-155.0
X191.4Y-151.4
X191.4Y-155.0
X193.94Y-151.4
X193.94Y-155.0
X196.48Y-151.4
X196.48Y-155.0
X199.02Y-151.4
X199.02Y-155.0
X201.56Y-151.4
X201.56Y-155.0
X204.1Y-151.4
X204.1Y-155.0
X206.64Y-151.4
X206.64Y-155.0
X209.18Y-151.4
X209.18Y-155.0
X216.0Y-59.4
X216.0Y-61.94
X216.0Y-64.48
X216.0Y-67.02
X216.0Y-69.56
X216.0Y-72.1
X216.0Y-74.64
X216.0Y-77.18
X216.0Y-79.72
X216.0Y-82.26
X216.0Y-84.8
X216.0Y-87.34
X216.0Y-89.88
X216.0Y-92.42
X216.0Y-94.96
X216.0Y-97.5
X216.0Y-100.04
X216.0Y-102.58
X216.0Y-105.12
X216.0Y-107.66
X216.0Y-110.2
X216.0Y-112.74
X216.0Y-115.28
X216.0Y-117.82
X216.0Y-120.36
X216.0Y-122.9
X216.0Y-125.44
X216.0Y-127.98
X216.0Y-130.52
X216.0Y-133.06
X216.0Y-135.6
X216.0Y-138.14
X218.54Y-59.4
X218.54Y-61.94
X218.54Y-64.48
X218.54Y-67.02
X218.54Y-69.56
X218.54Y-72.1
X218.54Y-74.64
X218.54Y-77.18
X218.54Y-79.72
X218.54Y-82.26
X218.54Y-84.8
X218.54Y-87.34
X218.54Y-89.88
X218.54Y-92.42
X218.54Y-94.96
X218.54Y-97.5
X218.54Y-100.04
X218.54Y-102.58
X218.54Y-105.12
X218.54Y-107.66
X218.54Y-110.2
X218.54Y-112.74
X218.54Y-115.28
X218.54Y-117.82
X218.54Y-120.36
X218.54Y-122.9
X218.54Y-125.44
X218.54Y-127.98
X218.54Y-130.52
X218.54Y-133.06
X218.54Y-135.6
X218.54Y-138.14
T7
X95.3Y-120.4
X100.8Y-120.4
M30
