G04 #@! TF.GenerationSoftware,KiCad,Pcbnew,9.0.3*
G04 #@! TF.CreationDate,2025-08-01T19:28:12-07:00*
G04 #@! TF.ProjectId,CardTestFixture,43617264-5465-4737-9446-697874757265,A*
G04 #@! TF.SameCoordinates,Original*
G04 #@! TF.FileFunction,OtherDrawing,Comment*
%FSLAX46Y46*%
G04 Gerber Fmt 4.6, Leading zero omitted, Abs format (unit mm)*
G04 Created by KiCad (PCBNEW 9.0.3) date 2025-08-01 19:28:12*
%MOMM*%
%LPD*%
G01*
G04 APERTURE LIST*
%ADD10C,0.150000*%
%ADD11C,0.100000*%
G04 APERTURE END LIST*
D10*
X150476190Y-27314819D02*
X149904762Y-27314819D01*
X150190476Y-27314819D02*
X150190476Y-26314819D01*
X150190476Y-26314819D02*
X150095238Y-26457676D01*
X150095238Y-26457676D02*
X150000000Y-26552914D01*
X150000000Y-26552914D02*
X149904762Y-26600533D01*
X151380952Y-26314819D02*
X150904762Y-26314819D01*
X150904762Y-26314819D02*
X150857143Y-26791009D01*
X150857143Y-26791009D02*
X150904762Y-26743390D01*
X150904762Y-26743390D02*
X151000000Y-26695771D01*
X151000000Y-26695771D02*
X151238095Y-26695771D01*
X151238095Y-26695771D02*
X151333333Y-26743390D01*
X151333333Y-26743390D02*
X151380952Y-26791009D01*
X151380952Y-26791009D02*
X151428571Y-26886247D01*
X151428571Y-26886247D02*
X151428571Y-27124342D01*
X151428571Y-27124342D02*
X151380952Y-27219580D01*
X151380952Y-27219580D02*
X151333333Y-27267200D01*
X151333333Y-27267200D02*
X151238095Y-27314819D01*
X151238095Y-27314819D02*
X151000000Y-27314819D01*
X151000000Y-27314819D02*
X150904762Y-27267200D01*
X150904762Y-27267200D02*
X150857143Y-27219580D01*
X152047619Y-26314819D02*
X152142857Y-26314819D01*
X152142857Y-26314819D02*
X152238095Y-26362438D01*
X152238095Y-26362438D02*
X152285714Y-26410057D01*
X152285714Y-26410057D02*
X152333333Y-26505295D01*
X152333333Y-26505295D02*
X152380952Y-26695771D01*
X152380952Y-26695771D02*
X152380952Y-26933866D01*
X152380952Y-26933866D02*
X152333333Y-27124342D01*
X152333333Y-27124342D02*
X152285714Y-27219580D01*
X152285714Y-27219580D02*
X152238095Y-27267200D01*
X152238095Y-27267200D02*
X152142857Y-27314819D01*
X152142857Y-27314819D02*
X152047619Y-27314819D01*
X152047619Y-27314819D02*
X151952381Y-27267200D01*
X151952381Y-27267200D02*
X151904762Y-27219580D01*
X151904762Y-27219580D02*
X151857143Y-27124342D01*
X151857143Y-27124342D02*
X151809524Y-26933866D01*
X151809524Y-26933866D02*
X151809524Y-26695771D01*
X151809524Y-26695771D02*
X151857143Y-26505295D01*
X151857143Y-26505295D02*
X151904762Y-26410057D01*
X151904762Y-26410057D02*
X151952381Y-26362438D01*
X151952381Y-26362438D02*
X152047619Y-26314819D01*
X152809524Y-27219580D02*
X152857143Y-27267200D01*
X152857143Y-27267200D02*
X152809524Y-27314819D01*
X152809524Y-27314819D02*
X152761905Y-27267200D01*
X152761905Y-27267200D02*
X152809524Y-27219580D01*
X152809524Y-27219580D02*
X152809524Y-27314819D01*
X153476190Y-26314819D02*
X153571428Y-26314819D01*
X153571428Y-26314819D02*
X153666666Y-26362438D01*
X153666666Y-26362438D02*
X153714285Y-26410057D01*
X153714285Y-26410057D02*
X153761904Y-26505295D01*
X153761904Y-26505295D02*
X153809523Y-26695771D01*
X153809523Y-26695771D02*
X153809523Y-26933866D01*
X153809523Y-26933866D02*
X153761904Y-27124342D01*
X153761904Y-27124342D02*
X153714285Y-27219580D01*
X153714285Y-27219580D02*
X153666666Y-27267200D01*
X153666666Y-27267200D02*
X153571428Y-27314819D01*
X153571428Y-27314819D02*
X153476190Y-27314819D01*
X153476190Y-27314819D02*
X153380952Y-27267200D01*
X153380952Y-27267200D02*
X153333333Y-27219580D01*
X153333333Y-27219580D02*
X153285714Y-27124342D01*
X153285714Y-27124342D02*
X153238095Y-26933866D01*
X153238095Y-26933866D02*
X153238095Y-26695771D01*
X153238095Y-26695771D02*
X153285714Y-26505295D01*
X153285714Y-26505295D02*
X153333333Y-26410057D01*
X153333333Y-26410057D02*
X153380952Y-26362438D01*
X153380952Y-26362438D02*
X153476190Y-26314819D01*
X154428571Y-26314819D02*
X154523809Y-26314819D01*
X154523809Y-26314819D02*
X154619047Y-26362438D01*
X154619047Y-26362438D02*
X154666666Y-26410057D01*
X154666666Y-26410057D02*
X154714285Y-26505295D01*
X154714285Y-26505295D02*
X154761904Y-26695771D01*
X154761904Y-26695771D02*
X154761904Y-26933866D01*
X154761904Y-26933866D02*
X154714285Y-27124342D01*
X154714285Y-27124342D02*
X154666666Y-27219580D01*
X154666666Y-27219580D02*
X154619047Y-27267200D01*
X154619047Y-27267200D02*
X154523809Y-27314819D01*
X154523809Y-27314819D02*
X154428571Y-27314819D01*
X154428571Y-27314819D02*
X154333333Y-27267200D01*
X154333333Y-27267200D02*
X154285714Y-27219580D01*
X154285714Y-27219580D02*
X154238095Y-27124342D01*
X154238095Y-27124342D02*
X154190476Y-26933866D01*
X154190476Y-26933866D02*
X154190476Y-26695771D01*
X154190476Y-26695771D02*
X154238095Y-26505295D01*
X154238095Y-26505295D02*
X154285714Y-26410057D01*
X154285714Y-26410057D02*
X154333333Y-26362438D01*
X154333333Y-26362438D02*
X154428571Y-26314819D01*
X155380952Y-26314819D02*
X155476190Y-26314819D01*
X155476190Y-26314819D02*
X155571428Y-26362438D01*
X155571428Y-26362438D02*
X155619047Y-26410057D01*
X155619047Y-26410057D02*
X155666666Y-26505295D01*
X155666666Y-26505295D02*
X155714285Y-26695771D01*
X155714285Y-26695771D02*
X155714285Y-26933866D01*
X155714285Y-26933866D02*
X155666666Y-27124342D01*
X155666666Y-27124342D02*
X155619047Y-27219580D01*
X155619047Y-27219580D02*
X155571428Y-27267200D01*
X155571428Y-27267200D02*
X155476190Y-27314819D01*
X155476190Y-27314819D02*
X155380952Y-27314819D01*
X155380952Y-27314819D02*
X155285714Y-27267200D01*
X155285714Y-27267200D02*
X155238095Y-27219580D01*
X155238095Y-27219580D02*
X155190476Y-27124342D01*
X155190476Y-27124342D02*
X155142857Y-26933866D01*
X155142857Y-26933866D02*
X155142857Y-26695771D01*
X155142857Y-26695771D02*
X155190476Y-26505295D01*
X155190476Y-26505295D02*
X155238095Y-26410057D01*
X155238095Y-26410057D02*
X155285714Y-26362438D01*
X155285714Y-26362438D02*
X155380952Y-26314819D01*
X156333333Y-26314819D02*
X156428571Y-26314819D01*
X156428571Y-26314819D02*
X156523809Y-26362438D01*
X156523809Y-26362438D02*
X156571428Y-26410057D01*
X156571428Y-26410057D02*
X156619047Y-26505295D01*
X156619047Y-26505295D02*
X156666666Y-26695771D01*
X156666666Y-26695771D02*
X156666666Y-26933866D01*
X156666666Y-26933866D02*
X156619047Y-27124342D01*
X156619047Y-27124342D02*
X156571428Y-27219580D01*
X156571428Y-27219580D02*
X156523809Y-27267200D01*
X156523809Y-27267200D02*
X156428571Y-27314819D01*
X156428571Y-27314819D02*
X156333333Y-27314819D01*
X156333333Y-27314819D02*
X156238095Y-27267200D01*
X156238095Y-27267200D02*
X156190476Y-27219580D01*
X156190476Y-27219580D02*
X156142857Y-27124342D01*
X156142857Y-27124342D02*
X156095238Y-26933866D01*
X156095238Y-26933866D02*
X156095238Y-26695771D01*
X156095238Y-26695771D02*
X156142857Y-26505295D01*
X156142857Y-26505295D02*
X156190476Y-26410057D01*
X156190476Y-26410057D02*
X156238095Y-26362438D01*
X156238095Y-26362438D02*
X156333333Y-26314819D01*
X157857143Y-27314819D02*
X157857143Y-26648152D01*
X157857143Y-26743390D02*
X157904762Y-26695771D01*
X157904762Y-26695771D02*
X158000000Y-26648152D01*
X158000000Y-26648152D02*
X158142857Y-26648152D01*
X158142857Y-26648152D02*
X158238095Y-26695771D01*
X158238095Y-26695771D02*
X158285714Y-26791009D01*
X158285714Y-26791009D02*
X158285714Y-27314819D01*
X158285714Y-26791009D02*
X158333333Y-26695771D01*
X158333333Y-26695771D02*
X158428571Y-26648152D01*
X158428571Y-26648152D02*
X158571428Y-26648152D01*
X158571428Y-26648152D02*
X158666667Y-26695771D01*
X158666667Y-26695771D02*
X158714286Y-26791009D01*
X158714286Y-26791009D02*
X158714286Y-27314819D01*
X159190476Y-27314819D02*
X159190476Y-26648152D01*
X159190476Y-26743390D02*
X159238095Y-26695771D01*
X159238095Y-26695771D02*
X159333333Y-26648152D01*
X159333333Y-26648152D02*
X159476190Y-26648152D01*
X159476190Y-26648152D02*
X159571428Y-26695771D01*
X159571428Y-26695771D02*
X159619047Y-26791009D01*
X159619047Y-26791009D02*
X159619047Y-27314819D01*
X159619047Y-26791009D02*
X159666666Y-26695771D01*
X159666666Y-26695771D02*
X159761904Y-26648152D01*
X159761904Y-26648152D02*
X159904761Y-26648152D01*
X159904761Y-26648152D02*
X160000000Y-26695771D01*
X160000000Y-26695771D02*
X160047619Y-26791009D01*
X160047619Y-26791009D02*
X160047619Y-27314819D01*
D11*
X80000000Y-28900000D02*
X80000000Y-26273580D01*
X230000000Y-28900000D02*
X230000000Y-26273580D01*
X80000000Y-26860000D02*
X149089286Y-26860000D01*
X160910714Y-26860000D02*
X230000000Y-26860000D01*
X80000000Y-26860000D02*
X81126504Y-26273579D01*
X80000000Y-26860000D02*
X81126504Y-27446421D01*
X230000000Y-26860000D02*
X228873496Y-27446421D01*
X230000000Y-26860000D02*
X228873496Y-26273579D01*
D10*
X232545180Y-90376190D02*
X232545180Y-89804762D01*
X232545180Y-90090476D02*
X233545180Y-90090476D01*
X233545180Y-90090476D02*
X233402323Y-89995238D01*
X233402323Y-89995238D02*
X233307085Y-89900000D01*
X233307085Y-89900000D02*
X233259466Y-89804762D01*
X233545180Y-90709524D02*
X233545180Y-91328571D01*
X233545180Y-91328571D02*
X233164228Y-90995238D01*
X233164228Y-90995238D02*
X233164228Y-91138095D01*
X233164228Y-91138095D02*
X233116609Y-91233333D01*
X233116609Y-91233333D02*
X233068990Y-91280952D01*
X233068990Y-91280952D02*
X232973752Y-91328571D01*
X232973752Y-91328571D02*
X232735657Y-91328571D01*
X232735657Y-91328571D02*
X232640419Y-91280952D01*
X232640419Y-91280952D02*
X232592800Y-91233333D01*
X232592800Y-91233333D02*
X232545180Y-91138095D01*
X232545180Y-91138095D02*
X232545180Y-90852381D01*
X232545180Y-90852381D02*
X232592800Y-90757143D01*
X232592800Y-90757143D02*
X232640419Y-90709524D01*
X232545180Y-92280952D02*
X232545180Y-91709524D01*
X232545180Y-91995238D02*
X233545180Y-91995238D01*
X233545180Y-91995238D02*
X233402323Y-91900000D01*
X233402323Y-91900000D02*
X233307085Y-91804762D01*
X233307085Y-91804762D02*
X233259466Y-91709524D01*
X232640419Y-92709524D02*
X232592800Y-92757143D01*
X232592800Y-92757143D02*
X232545180Y-92709524D01*
X232545180Y-92709524D02*
X232592800Y-92661905D01*
X232592800Y-92661905D02*
X232640419Y-92709524D01*
X232640419Y-92709524D02*
X232545180Y-92709524D01*
X233545180Y-93376190D02*
X233545180Y-93471428D01*
X233545180Y-93471428D02*
X233497561Y-93566666D01*
X233497561Y-93566666D02*
X233449942Y-93614285D01*
X233449942Y-93614285D02*
X233354704Y-93661904D01*
X233354704Y-93661904D02*
X233164228Y-93709523D01*
X233164228Y-93709523D02*
X232926133Y-93709523D01*
X232926133Y-93709523D02*
X232735657Y-93661904D01*
X232735657Y-93661904D02*
X232640419Y-93614285D01*
X232640419Y-93614285D02*
X232592800Y-93566666D01*
X232592800Y-93566666D02*
X232545180Y-93471428D01*
X232545180Y-93471428D02*
X232545180Y-93376190D01*
X232545180Y-93376190D02*
X232592800Y-93280952D01*
X232592800Y-93280952D02*
X232640419Y-93233333D01*
X232640419Y-93233333D02*
X232735657Y-93185714D01*
X232735657Y-93185714D02*
X232926133Y-93138095D01*
X232926133Y-93138095D02*
X233164228Y-93138095D01*
X233164228Y-93138095D02*
X233354704Y-93185714D01*
X233354704Y-93185714D02*
X233449942Y-93233333D01*
X233449942Y-93233333D02*
X233497561Y-93280952D01*
X233497561Y-93280952D02*
X233545180Y-93376190D01*
X233545180Y-94328571D02*
X233545180Y-94423809D01*
X233545180Y-94423809D02*
X233497561Y-94519047D01*
X233497561Y-94519047D02*
X233449942Y-94566666D01*
X233449942Y-94566666D02*
X233354704Y-94614285D01*
X233354704Y-94614285D02*
X233164228Y-94661904D01*
X233164228Y-94661904D02*
X232926133Y-94661904D01*
X232926133Y-94661904D02*
X232735657Y-94614285D01*
X232735657Y-94614285D02*
X232640419Y-94566666D01*
X232640419Y-94566666D02*
X232592800Y-94519047D01*
X232592800Y-94519047D02*
X232545180Y-94423809D01*
X232545180Y-94423809D02*
X232545180Y-94328571D01*
X232545180Y-94328571D02*
X232592800Y-94233333D01*
X232592800Y-94233333D02*
X232640419Y-94185714D01*
X232640419Y-94185714D02*
X232735657Y-94138095D01*
X232735657Y-94138095D02*
X232926133Y-94090476D01*
X232926133Y-94090476D02*
X233164228Y-94090476D01*
X233164228Y-94090476D02*
X233354704Y-94138095D01*
X233354704Y-94138095D02*
X233449942Y-94185714D01*
X233449942Y-94185714D02*
X233497561Y-94233333D01*
X233497561Y-94233333D02*
X233545180Y-94328571D01*
X233545180Y-95280952D02*
X233545180Y-95376190D01*
X233545180Y-95376190D02*
X233497561Y-95471428D01*
X233497561Y-95471428D02*
X233449942Y-95519047D01*
X233449942Y-95519047D02*
X233354704Y-95566666D01*
X233354704Y-95566666D02*
X233164228Y-95614285D01*
X233164228Y-95614285D02*
X232926133Y-95614285D01*
X232926133Y-95614285D02*
X232735657Y-95566666D01*
X232735657Y-95566666D02*
X232640419Y-95519047D01*
X232640419Y-95519047D02*
X232592800Y-95471428D01*
X232592800Y-95471428D02*
X232545180Y-95376190D01*
X232545180Y-95376190D02*
X232545180Y-95280952D01*
X232545180Y-95280952D02*
X232592800Y-95185714D01*
X232592800Y-95185714D02*
X232640419Y-95138095D01*
X232640419Y-95138095D02*
X232735657Y-95090476D01*
X232735657Y-95090476D02*
X232926133Y-95042857D01*
X232926133Y-95042857D02*
X233164228Y-95042857D01*
X233164228Y-95042857D02*
X233354704Y-95090476D01*
X233354704Y-95090476D02*
X233449942Y-95138095D01*
X233449942Y-95138095D02*
X233497561Y-95185714D01*
X233497561Y-95185714D02*
X233545180Y-95280952D01*
X233545180Y-96233333D02*
X233545180Y-96328571D01*
X233545180Y-96328571D02*
X233497561Y-96423809D01*
X233497561Y-96423809D02*
X233449942Y-96471428D01*
X233449942Y-96471428D02*
X233354704Y-96519047D01*
X233354704Y-96519047D02*
X233164228Y-96566666D01*
X233164228Y-96566666D02*
X232926133Y-96566666D01*
X232926133Y-96566666D02*
X232735657Y-96519047D01*
X232735657Y-96519047D02*
X232640419Y-96471428D01*
X232640419Y-96471428D02*
X232592800Y-96423809D01*
X232592800Y-96423809D02*
X232545180Y-96328571D01*
X232545180Y-96328571D02*
X232545180Y-96233333D01*
X232545180Y-96233333D02*
X232592800Y-96138095D01*
X232592800Y-96138095D02*
X232640419Y-96090476D01*
X232640419Y-96090476D02*
X232735657Y-96042857D01*
X232735657Y-96042857D02*
X232926133Y-95995238D01*
X232926133Y-95995238D02*
X233164228Y-95995238D01*
X233164228Y-95995238D02*
X233354704Y-96042857D01*
X233354704Y-96042857D02*
X233449942Y-96090476D01*
X233449942Y-96090476D02*
X233497561Y-96138095D01*
X233497561Y-96138095D02*
X233545180Y-96233333D01*
X232545180Y-97757143D02*
X233211847Y-97757143D01*
X233116609Y-97757143D02*
X233164228Y-97804762D01*
X233164228Y-97804762D02*
X233211847Y-97900000D01*
X233211847Y-97900000D02*
X233211847Y-98042857D01*
X233211847Y-98042857D02*
X233164228Y-98138095D01*
X233164228Y-98138095D02*
X233068990Y-98185714D01*
X233068990Y-98185714D02*
X232545180Y-98185714D01*
X233068990Y-98185714D02*
X233164228Y-98233333D01*
X233164228Y-98233333D02*
X233211847Y-98328571D01*
X233211847Y-98328571D02*
X233211847Y-98471428D01*
X233211847Y-98471428D02*
X233164228Y-98566667D01*
X233164228Y-98566667D02*
X233068990Y-98614286D01*
X233068990Y-98614286D02*
X232545180Y-98614286D01*
X232545180Y-99090476D02*
X233211847Y-99090476D01*
X233116609Y-99090476D02*
X233164228Y-99138095D01*
X233164228Y-99138095D02*
X233211847Y-99233333D01*
X233211847Y-99233333D02*
X233211847Y-99376190D01*
X233211847Y-99376190D02*
X233164228Y-99471428D01*
X233164228Y-99471428D02*
X233068990Y-99519047D01*
X233068990Y-99519047D02*
X232545180Y-99519047D01*
X233068990Y-99519047D02*
X233164228Y-99566666D01*
X233164228Y-99566666D02*
X233211847Y-99661904D01*
X233211847Y-99661904D02*
X233211847Y-99804761D01*
X233211847Y-99804761D02*
X233164228Y-99900000D01*
X233164228Y-99900000D02*
X233068990Y-99947619D01*
X233068990Y-99947619D02*
X232545180Y-99947619D01*
D11*
X230500000Y-29400000D02*
X233586420Y-29400000D01*
X230500000Y-160400000D02*
X233586420Y-160400000D01*
X233000000Y-29400000D02*
X233000000Y-88989286D01*
X233000000Y-100810714D02*
X233000000Y-160400000D01*
X233000000Y-29400000D02*
X233586421Y-30526504D01*
X233000000Y-29400000D02*
X232413579Y-30526504D01*
X233000000Y-160400000D02*
X232413579Y-159273496D01*
X233000000Y-160400000D02*
X233586421Y-159273496D01*
D10*
X188786259Y-44704819D02*
X189452925Y-44704819D01*
X189452925Y-44704819D02*
X189024354Y-45704819D01*
X190310068Y-44704819D02*
X189833878Y-44704819D01*
X189833878Y-44704819D02*
X189786259Y-45181009D01*
X189786259Y-45181009D02*
X189833878Y-45133390D01*
X189833878Y-45133390D02*
X189929116Y-45085771D01*
X189929116Y-45085771D02*
X190167211Y-45085771D01*
X190167211Y-45085771D02*
X190262449Y-45133390D01*
X190262449Y-45133390D02*
X190310068Y-45181009D01*
X190310068Y-45181009D02*
X190357687Y-45276247D01*
X190357687Y-45276247D02*
X190357687Y-45514342D01*
X190357687Y-45514342D02*
X190310068Y-45609580D01*
X190310068Y-45609580D02*
X190262449Y-45657200D01*
X190262449Y-45657200D02*
X190167211Y-45704819D01*
X190167211Y-45704819D02*
X189929116Y-45704819D01*
X189929116Y-45704819D02*
X189833878Y-45657200D01*
X189833878Y-45657200D02*
X189786259Y-45609580D01*
X190786259Y-45609580D02*
X190833878Y-45657200D01*
X190833878Y-45657200D02*
X190786259Y-45704819D01*
X190786259Y-45704819D02*
X190738640Y-45657200D01*
X190738640Y-45657200D02*
X190786259Y-45609580D01*
X190786259Y-45609580D02*
X190786259Y-45704819D01*
X191452925Y-44704819D02*
X191548163Y-44704819D01*
X191548163Y-44704819D02*
X191643401Y-44752438D01*
X191643401Y-44752438D02*
X191691020Y-44800057D01*
X191691020Y-44800057D02*
X191738639Y-44895295D01*
X191738639Y-44895295D02*
X191786258Y-45085771D01*
X191786258Y-45085771D02*
X191786258Y-45323866D01*
X191786258Y-45323866D02*
X191738639Y-45514342D01*
X191738639Y-45514342D02*
X191691020Y-45609580D01*
X191691020Y-45609580D02*
X191643401Y-45657200D01*
X191643401Y-45657200D02*
X191548163Y-45704819D01*
X191548163Y-45704819D02*
X191452925Y-45704819D01*
X191452925Y-45704819D02*
X191357687Y-45657200D01*
X191357687Y-45657200D02*
X191310068Y-45609580D01*
X191310068Y-45609580D02*
X191262449Y-45514342D01*
X191262449Y-45514342D02*
X191214830Y-45323866D01*
X191214830Y-45323866D02*
X191214830Y-45085771D01*
X191214830Y-45085771D02*
X191262449Y-44895295D01*
X191262449Y-44895295D02*
X191310068Y-44800057D01*
X191310068Y-44800057D02*
X191357687Y-44752438D01*
X191357687Y-44752438D02*
X191452925Y-44704819D01*
X192405306Y-44704819D02*
X192500544Y-44704819D01*
X192500544Y-44704819D02*
X192595782Y-44752438D01*
X192595782Y-44752438D02*
X192643401Y-44800057D01*
X192643401Y-44800057D02*
X192691020Y-44895295D01*
X192691020Y-44895295D02*
X192738639Y-45085771D01*
X192738639Y-45085771D02*
X192738639Y-45323866D01*
X192738639Y-45323866D02*
X192691020Y-45514342D01*
X192691020Y-45514342D02*
X192643401Y-45609580D01*
X192643401Y-45609580D02*
X192595782Y-45657200D01*
X192595782Y-45657200D02*
X192500544Y-45704819D01*
X192500544Y-45704819D02*
X192405306Y-45704819D01*
X192405306Y-45704819D02*
X192310068Y-45657200D01*
X192310068Y-45657200D02*
X192262449Y-45609580D01*
X192262449Y-45609580D02*
X192214830Y-45514342D01*
X192214830Y-45514342D02*
X192167211Y-45323866D01*
X192167211Y-45323866D02*
X192167211Y-45085771D01*
X192167211Y-45085771D02*
X192214830Y-44895295D01*
X192214830Y-44895295D02*
X192262449Y-44800057D01*
X192262449Y-44800057D02*
X192310068Y-44752438D01*
X192310068Y-44752438D02*
X192405306Y-44704819D01*
X193929116Y-45704819D02*
X193929116Y-45038152D01*
X193929116Y-45133390D02*
X193976735Y-45085771D01*
X193976735Y-45085771D02*
X194071973Y-45038152D01*
X194071973Y-45038152D02*
X194214830Y-45038152D01*
X194214830Y-45038152D02*
X194310068Y-45085771D01*
X194310068Y-45085771D02*
X194357687Y-45181009D01*
X194357687Y-45181009D02*
X194357687Y-45704819D01*
X194357687Y-45181009D02*
X194405306Y-45085771D01*
X194405306Y-45085771D02*
X194500544Y-45038152D01*
X194500544Y-45038152D02*
X194643401Y-45038152D01*
X194643401Y-45038152D02*
X194738640Y-45085771D01*
X194738640Y-45085771D02*
X194786259Y-45181009D01*
X194786259Y-45181009D02*
X194786259Y-45704819D01*
X195262449Y-45704819D02*
X195262449Y-45038152D01*
X195262449Y-45133390D02*
X195310068Y-45085771D01*
X195310068Y-45085771D02*
X195405306Y-45038152D01*
X195405306Y-45038152D02*
X195548163Y-45038152D01*
X195548163Y-45038152D02*
X195643401Y-45085771D01*
X195643401Y-45085771D02*
X195691020Y-45181009D01*
X195691020Y-45181009D02*
X195691020Y-45704819D01*
X195691020Y-45181009D02*
X195738639Y-45085771D01*
X195738639Y-45085771D02*
X195833877Y-45038152D01*
X195833877Y-45038152D02*
X195976734Y-45038152D01*
X195976734Y-45038152D02*
X196071973Y-45085771D01*
X196071973Y-45085771D02*
X196119592Y-45181009D01*
X196119592Y-45181009D02*
X196119592Y-45704819D01*
D11*
X155001087Y-38697501D02*
X155001087Y-46986420D01*
X230000000Y-46986420D02*
X230000000Y-38547501D01*
X155001087Y-46400000D02*
X230000000Y-46400000D01*
X155001087Y-46400000D02*
X156127591Y-45813579D01*
X155001087Y-46400000D02*
X156127591Y-46986421D01*
X230000000Y-46400000D02*
X228873496Y-46986421D01*
X230000000Y-46400000D02*
X228873496Y-45813579D01*
D10*
X113786259Y-44704819D02*
X114452925Y-44704819D01*
X114452925Y-44704819D02*
X114024354Y-45704819D01*
X115310068Y-44704819D02*
X114833878Y-44704819D01*
X114833878Y-44704819D02*
X114786259Y-45181009D01*
X114786259Y-45181009D02*
X114833878Y-45133390D01*
X114833878Y-45133390D02*
X114929116Y-45085771D01*
X114929116Y-45085771D02*
X115167211Y-45085771D01*
X115167211Y-45085771D02*
X115262449Y-45133390D01*
X115262449Y-45133390D02*
X115310068Y-45181009D01*
X115310068Y-45181009D02*
X115357687Y-45276247D01*
X115357687Y-45276247D02*
X115357687Y-45514342D01*
X115357687Y-45514342D02*
X115310068Y-45609580D01*
X115310068Y-45609580D02*
X115262449Y-45657200D01*
X115262449Y-45657200D02*
X115167211Y-45704819D01*
X115167211Y-45704819D02*
X114929116Y-45704819D01*
X114929116Y-45704819D02*
X114833878Y-45657200D01*
X114833878Y-45657200D02*
X114786259Y-45609580D01*
X115786259Y-45609580D02*
X115833878Y-45657200D01*
X115833878Y-45657200D02*
X115786259Y-45704819D01*
X115786259Y-45704819D02*
X115738640Y-45657200D01*
X115738640Y-45657200D02*
X115786259Y-45609580D01*
X115786259Y-45609580D02*
X115786259Y-45704819D01*
X116452925Y-44704819D02*
X116548163Y-44704819D01*
X116548163Y-44704819D02*
X116643401Y-44752438D01*
X116643401Y-44752438D02*
X116691020Y-44800057D01*
X116691020Y-44800057D02*
X116738639Y-44895295D01*
X116738639Y-44895295D02*
X116786258Y-45085771D01*
X116786258Y-45085771D02*
X116786258Y-45323866D01*
X116786258Y-45323866D02*
X116738639Y-45514342D01*
X116738639Y-45514342D02*
X116691020Y-45609580D01*
X116691020Y-45609580D02*
X116643401Y-45657200D01*
X116643401Y-45657200D02*
X116548163Y-45704819D01*
X116548163Y-45704819D02*
X116452925Y-45704819D01*
X116452925Y-45704819D02*
X116357687Y-45657200D01*
X116357687Y-45657200D02*
X116310068Y-45609580D01*
X116310068Y-45609580D02*
X116262449Y-45514342D01*
X116262449Y-45514342D02*
X116214830Y-45323866D01*
X116214830Y-45323866D02*
X116214830Y-45085771D01*
X116214830Y-45085771D02*
X116262449Y-44895295D01*
X116262449Y-44895295D02*
X116310068Y-44800057D01*
X116310068Y-44800057D02*
X116357687Y-44752438D01*
X116357687Y-44752438D02*
X116452925Y-44704819D01*
X117405306Y-44704819D02*
X117500544Y-44704819D01*
X117500544Y-44704819D02*
X117595782Y-44752438D01*
X117595782Y-44752438D02*
X117643401Y-44800057D01*
X117643401Y-44800057D02*
X117691020Y-44895295D01*
X117691020Y-44895295D02*
X117738639Y-45085771D01*
X117738639Y-45085771D02*
X117738639Y-45323866D01*
X117738639Y-45323866D02*
X117691020Y-45514342D01*
X117691020Y-45514342D02*
X117643401Y-45609580D01*
X117643401Y-45609580D02*
X117595782Y-45657200D01*
X117595782Y-45657200D02*
X117500544Y-45704819D01*
X117500544Y-45704819D02*
X117405306Y-45704819D01*
X117405306Y-45704819D02*
X117310068Y-45657200D01*
X117310068Y-45657200D02*
X117262449Y-45609580D01*
X117262449Y-45609580D02*
X117214830Y-45514342D01*
X117214830Y-45514342D02*
X117167211Y-45323866D01*
X117167211Y-45323866D02*
X117167211Y-45085771D01*
X117167211Y-45085771D02*
X117214830Y-44895295D01*
X117214830Y-44895295D02*
X117262449Y-44800057D01*
X117262449Y-44800057D02*
X117310068Y-44752438D01*
X117310068Y-44752438D02*
X117405306Y-44704819D01*
X118929116Y-45704819D02*
X118929116Y-45038152D01*
X118929116Y-45133390D02*
X118976735Y-45085771D01*
X118976735Y-45085771D02*
X119071973Y-45038152D01*
X119071973Y-45038152D02*
X119214830Y-45038152D01*
X119214830Y-45038152D02*
X119310068Y-45085771D01*
X119310068Y-45085771D02*
X119357687Y-45181009D01*
X119357687Y-45181009D02*
X119357687Y-45704819D01*
X119357687Y-45181009D02*
X119405306Y-45085771D01*
X119405306Y-45085771D02*
X119500544Y-45038152D01*
X119500544Y-45038152D02*
X119643401Y-45038152D01*
X119643401Y-45038152D02*
X119738640Y-45085771D01*
X119738640Y-45085771D02*
X119786259Y-45181009D01*
X119786259Y-45181009D02*
X119786259Y-45704819D01*
X120262449Y-45704819D02*
X120262449Y-45038152D01*
X120262449Y-45133390D02*
X120310068Y-45085771D01*
X120310068Y-45085771D02*
X120405306Y-45038152D01*
X120405306Y-45038152D02*
X120548163Y-45038152D01*
X120548163Y-45038152D02*
X120643401Y-45085771D01*
X120643401Y-45085771D02*
X120691020Y-45181009D01*
X120691020Y-45181009D02*
X120691020Y-45704819D01*
X120691020Y-45181009D02*
X120738639Y-45085771D01*
X120738639Y-45085771D02*
X120833877Y-45038152D01*
X120833877Y-45038152D02*
X120976734Y-45038152D01*
X120976734Y-45038152D02*
X121071973Y-45085771D01*
X121071973Y-45085771D02*
X121119592Y-45181009D01*
X121119592Y-45181009D02*
X121119592Y-45704819D01*
D11*
X80000000Y-38697501D02*
X80000000Y-46986420D01*
X155001087Y-46986420D02*
X155001087Y-38697501D01*
X80000000Y-46400000D02*
X155001087Y-46400000D01*
X80000000Y-46400000D02*
X81126504Y-45813579D01*
X80000000Y-46400000D02*
X81126504Y-46986421D01*
X155001087Y-46400000D02*
X153874583Y-46986421D01*
X155001087Y-46400000D02*
X153874583Y-45813579D01*
M02*
