G04 #@! TF.GenerationSoftware,KiCad,Pcbnew,9.0.3*
G04 #@! TF.CreationDate,2025-08-01T19:28:12-07:00*
G04 #@! TF.ProjectId,CardTestFixture,43617264-5465-4737-9446-697874757265,A*
G04 #@! TF.SameCoordinates,Original*
G04 #@! TF.FileFunction,Copper,L6,Inr*
G04 #@! TF.FilePolarity,Positive*
%FSLAX46Y46*%
G04 Gerber Fmt 4.6, Leading zero omitted, Abs format (unit mm)*
G04 Created by KiCad (PCBNEW 9.0.3) date 2025-08-01 19:28:12*
%MOMM*%
%LPD*%
G01*
G04 APERTURE LIST*
G04 Aperture macros list*
%AMRoundRect*
0 Rectangle with rounded corners*
0 $1 Rounding radius*
0 $2 $3 $4 $5 $6 $7 $8 $9 X,Y pos of 4 corners*
0 Add a 4 corners polygon primitive as box body*
4,1,4,$2,$3,$4,$5,$6,$7,$8,$9,$2,$3,0*
0 Add four circle primitives for the rounded corners*
1,1,$1+$1,$2,$3*
1,1,$1+$1,$4,$5*
1,1,$1+$1,$6,$7*
1,1,$1+$1,$8,$9*
0 Add four rect primitives between the rounded corners*
20,1,$1+$1,$2,$3,$4,$5,0*
20,1,$1+$1,$4,$5,$6,$7,0*
20,1,$1+$1,$6,$7,$8,$9,0*
20,1,$1+$1,$8,$9,$2,$3,0*%
G04 Aperture macros list end*
G04 #@! TA.AperFunction,ComponentPad*
%ADD10R,1.700000X1.700000*%
G04 #@! TD*
G04 #@! TA.AperFunction,ComponentPad*
%ADD11C,1.700000*%
G04 #@! TD*
G04 #@! TA.AperFunction,ComponentPad*
%ADD12C,1.349000*%
G04 #@! TD*
G04 #@! TA.AperFunction,ComponentPad*
%ADD13C,1.200000*%
G04 #@! TD*
G04 #@! TA.AperFunction,ComponentPad*
%ADD14RoundRect,0.250000X-0.600000X-0.600000X0.600000X-0.600000X0.600000X0.600000X-0.600000X0.600000X0*%
G04 #@! TD*
G04 #@! TA.AperFunction,ComponentPad*
%ADD15C,2.775000*%
G04 #@! TD*
G04 #@! TA.AperFunction,ViaPad*
%ADD16C,0.650000*%
G04 #@! TD*
G04 #@! TA.AperFunction,ViaPad*
%ADD17C,1.000000*%
G04 #@! TD*
G04 #@! TA.AperFunction,ViaPad*
%ADD18C,0.450000*%
G04 #@! TD*
G04 #@! TA.AperFunction,Conductor*
%ADD19C,0.152400*%
G04 #@! TD*
G04 APERTURE END LIST*
D10*
X209180000Y-151400000D03*
D11*
X206640000Y-151400000D03*
X204100000Y-151400000D03*
X201560000Y-151400000D03*
X199020000Y-151400000D03*
X196480000Y-151400000D03*
X193940000Y-151400000D03*
X191400000Y-151400000D03*
X188860000Y-151400000D03*
X186320000Y-151400000D03*
X183780000Y-151400000D03*
X181240000Y-151400000D03*
X178700000Y-151400000D03*
X176160000Y-151400000D03*
X173620000Y-151400000D03*
X171080000Y-151400000D03*
X168540000Y-151400000D03*
X166000000Y-151400000D03*
D10*
X209180000Y-155000000D03*
D11*
X206640000Y-155000000D03*
X204100000Y-155000000D03*
X201560000Y-155000000D03*
X199020000Y-155000000D03*
X196480000Y-155000000D03*
X193940000Y-155000000D03*
X191400000Y-155000000D03*
X188860000Y-155000000D03*
X186320000Y-155000000D03*
X183780000Y-155000000D03*
X181240000Y-155000000D03*
X178700000Y-155000000D03*
X176160000Y-155000000D03*
X173620000Y-155000000D03*
X171080000Y-155000000D03*
X168540000Y-155000000D03*
X166000000Y-155000000D03*
D12*
X114568900Y-38197500D03*
D13*
X191908900Y-39197500D03*
X191908900Y-37197500D03*
D12*
X193698900Y-38197500D03*
D14*
X216000000Y-59400000D03*
D11*
X218540000Y-59400000D03*
X216000000Y-61940000D03*
X218540000Y-61940000D03*
X216000000Y-64480000D03*
X218540000Y-64480000D03*
X216000000Y-67020000D03*
X218540000Y-67020000D03*
X216000000Y-69560000D03*
X218540000Y-69560000D03*
X216000000Y-72100000D03*
X218540000Y-72100000D03*
X216000000Y-74640000D03*
X218540000Y-74640000D03*
X216000000Y-77180000D03*
X218540000Y-77180000D03*
X216000000Y-79720000D03*
X218540000Y-79720000D03*
X216000000Y-82260000D03*
X218540000Y-82260000D03*
X216000000Y-84800000D03*
X218540000Y-84800000D03*
X216000000Y-87340000D03*
X218540000Y-87340000D03*
X216000000Y-89880000D03*
X218540000Y-89880000D03*
X216000000Y-92420000D03*
X218540000Y-92420000D03*
X216000000Y-94960000D03*
X218540000Y-94960000D03*
X216000000Y-97500000D03*
X218540000Y-97500000D03*
X216000000Y-100040000D03*
X218540000Y-100040000D03*
X216000000Y-102580000D03*
X218540000Y-102580000D03*
X216000000Y-105120000D03*
X218540000Y-105120000D03*
X216000000Y-107660000D03*
X218540000Y-107660000D03*
X216000000Y-110200000D03*
X218540000Y-110200000D03*
X216000000Y-112740000D03*
X218540000Y-112740000D03*
X216000000Y-115280000D03*
X218540000Y-115280000D03*
X216000000Y-117820000D03*
X218540000Y-117820000D03*
X216000000Y-120360000D03*
X218540000Y-120360000D03*
X216000000Y-122900000D03*
X218540000Y-122900000D03*
X216000000Y-125440000D03*
X218540000Y-125440000D03*
X216000000Y-127980000D03*
X218540000Y-127980000D03*
X216000000Y-130520000D03*
X218540000Y-130520000D03*
X216000000Y-133060000D03*
X218540000Y-133060000D03*
X216000000Y-135600000D03*
X218540000Y-135600000D03*
X216000000Y-138140000D03*
X218540000Y-138140000D03*
D15*
X95300000Y-120400000D03*
X100800000Y-120400000D03*
D16*
X114700000Y-129700000D03*
X150247163Y-150415576D03*
X95169795Y-48769795D03*
X122380000Y-108450000D03*
X181548500Y-111521405D03*
X177500000Y-142400000D03*
X178874200Y-129354200D03*
X203362000Y-108342250D03*
X95494000Y-90300000D03*
X145100000Y-150400000D03*
X203400000Y-139000000D03*
X205447800Y-110789092D03*
X206470599Y-93636792D03*
X99500000Y-150400000D03*
X177700000Y-88500000D03*
X94400000Y-150400000D03*
X126300000Y-75600000D03*
X206000000Y-129300000D03*
X203370000Y-72350000D03*
X151370800Y-111500000D03*
X208600000Y-111600000D03*
X203535900Y-85300000D03*
X122280000Y-72450000D03*
X179361801Y-97997608D03*
X203293000Y-144171900D03*
X203600000Y-67100000D03*
X206100000Y-75800000D03*
X176500000Y-121200000D03*
X84000000Y-113400000D03*
X128300000Y-149000000D03*
X114600000Y-150400000D03*
X135000000Y-150400000D03*
X209203100Y-93600000D03*
X89300000Y-150400000D03*
X100000000Y-75300000D03*
X149200000Y-72400000D03*
X101473400Y-59400100D03*
X149159000Y-108422000D03*
X109600000Y-150400000D03*
X95394000Y-72300000D03*
X95203645Y-66103645D03*
X179000000Y-111500000D03*
X208500000Y-129300000D03*
X208600000Y-75800000D03*
X208600000Y-57600000D03*
X181748500Y-129354200D03*
X149296300Y-67131600D03*
X95394000Y-54200000D03*
X176362000Y-72342250D03*
X202865333Y-121449299D03*
X149159000Y-90422000D03*
X150833400Y-88500000D03*
X155400000Y-150400000D03*
X175862800Y-67403500D03*
X101588000Y-41487300D03*
X97887600Y-93500000D03*
X155599800Y-92900000D03*
X119700000Y-150400000D03*
X127500000Y-111800000D03*
X104500000Y-150400000D03*
X148770000Y-138930000D03*
X122782608Y-120888501D03*
X176788100Y-103097600D03*
X160400000Y-150400000D03*
X152800000Y-61248100D03*
X203300000Y-126400000D03*
X176315000Y-108197000D03*
D17*
X119800000Y-148195000D03*
D16*
X95600000Y-85000000D03*
X203400000Y-90400000D03*
X124355205Y-102155205D03*
X122380000Y-126350000D03*
X149151000Y-126394000D03*
X95600000Y-103100000D03*
X126200000Y-57600000D03*
X124911855Y-150500600D03*
X176308000Y-144169000D03*
X119528100Y-37295900D03*
X84100000Y-150400000D03*
X206100000Y-57600000D03*
X140000000Y-150400000D03*
X176300000Y-90400000D03*
X127000000Y-93700000D03*
X179000000Y-57400000D03*
X149160000Y-144170000D03*
X95494000Y-108300000D03*
X151840000Y-132910000D03*
X176640100Y-75400000D03*
X176400000Y-126400000D03*
X122280000Y-90450000D03*
X203300000Y-124800000D03*
X95494000Y-106700000D03*
X155605300Y-94916200D03*
X122280000Y-106850000D03*
X207300000Y-129300000D03*
X203362000Y-106742250D03*
X122280000Y-88850000D03*
X149159000Y-88922000D03*
X117220000Y-132575600D03*
X180244195Y-111144195D03*
X181515600Y-96833900D03*
X182584400Y-77121000D03*
X122380000Y-124850000D03*
X154410300Y-58044900D03*
X155207600Y-77160600D03*
X207350000Y-78974000D03*
X89500000Y-113400000D03*
X95394000Y-88700000D03*
X176362000Y-70842250D03*
X207903599Y-92203792D03*
X207400000Y-57600000D03*
X118406400Y-37392300D03*
X149159000Y-106922000D03*
X149120000Y-142640000D03*
X182584400Y-59325800D03*
X203293000Y-142671900D03*
X95294000Y-52700000D03*
X122280000Y-70850000D03*
X149151000Y-124894000D03*
D17*
X117220000Y-148190000D03*
D16*
X176300000Y-88800000D03*
X176308000Y-142669000D03*
X154027700Y-129250000D03*
X207500000Y-111600000D03*
X149200000Y-70900000D03*
X176315000Y-106697000D03*
X95394000Y-70700000D03*
X203400000Y-88800000D03*
X203470000Y-70850000D03*
X176315000Y-124900000D03*
X155206200Y-112711400D03*
X180300000Y-129354200D03*
D18*
X181194900Y-121351100D03*
X180946700Y-139461300D03*
X99369900Y-67275000D03*
X154216400Y-75225300D03*
X126260300Y-106253100D03*
X206709400Y-69854500D03*
X207350000Y-88192700D03*
X206864100Y-121446900D03*
X207350000Y-106050600D03*
X152916100Y-139351100D03*
X154205300Y-85310000D03*
X100653900Y-92565200D03*
X152305300Y-102821900D03*
X126402800Y-88253900D03*
X99374000Y-52109700D03*
X126260300Y-121444100D03*
X153448000Y-121353100D03*
X128214000Y-122294400D03*
X155096500Y-86114500D03*
X87568600Y-130031300D03*
X182252300Y-140625000D03*
X154416500Y-70451900D03*
X100787500Y-67292100D03*
X155095900Y-140156700D03*
X208649500Y-100251500D03*
X128214000Y-105092200D03*
X154581300Y-121362300D03*
X101337600Y-50571000D03*
X101796300Y-104935300D03*
X128214400Y-86850000D03*
X182448100Y-121962400D03*
X209305500Y-86084700D03*
X155101300Y-104770200D03*
X208094600Y-69948900D03*
X205917000Y-106242300D03*
X178425600Y-102609300D03*
X179426300Y-139235600D03*
X124701800Y-70254700D03*
X153825000Y-106639400D03*
X179427800Y-121360700D03*
X151057000Y-85255600D03*
X125078700Y-106257400D03*
X151684400Y-73333500D03*
X152028500Y-121258300D03*
X206001400Y-120211200D03*
X151438900Y-139399400D03*
X97747000Y-70337700D03*
X86700000Y-144600000D03*
X97595500Y-51970300D03*
X125056900Y-85436600D03*
X98252200Y-85290400D03*
X179032800Y-88195400D03*
X205043500Y-85349400D03*
X125212200Y-121442100D03*
X123720300Y-60961500D03*
X178832700Y-78901300D03*
X150143600Y-114813600D03*
X96834000Y-42824800D03*
X96834700Y-60806900D03*
X97343600Y-76137200D03*
X204810000Y-60826600D03*
X112914300Y-129973900D03*
X179915400Y-101119400D03*
X148922600Y-127469800D03*
X204640400Y-112058400D03*
X177738700Y-129919300D03*
X123727500Y-78957900D03*
X178763900Y-64301500D03*
X123734500Y-114972900D03*
X150830800Y-96998800D03*
X204438400Y-129907800D03*
X204790200Y-96750800D03*
X204773100Y-78879000D03*
X177534200Y-115282300D03*
X123720300Y-96961500D03*
X200869800Y-60803600D03*
X83664000Y-154489000D03*
X199730000Y-60812000D03*
X88193700Y-153001400D03*
X197963500Y-60693700D03*
X93824400Y-153160600D03*
X196947900Y-60825700D03*
X98904800Y-153160200D03*
X104441000Y-152704000D03*
X195735700Y-60808500D03*
X194650000Y-60807500D03*
X121973100Y-151256700D03*
X114991000Y-152314000D03*
X193322500Y-60807700D03*
X120075400Y-151863500D03*
X191414300Y-59298600D03*
X124317100Y-153147900D03*
X174553400Y-138897400D03*
X190425200Y-143788700D03*
X128431000Y-156226600D03*
X134469300Y-153155700D03*
X175649200Y-138443700D03*
X150862000Y-150755200D03*
X175059800Y-137863100D03*
X170271000Y-152771300D03*
X188309600Y-146219100D03*
X154494200Y-152989800D03*
X174503300Y-137304100D03*
X192060000Y-147982900D03*
X173511000Y-153771800D03*
X91754000Y-103288100D03*
X131047700Y-41682000D03*
X164833100Y-34705200D03*
X144701600Y-121388500D03*
X147327900Y-85517300D03*
X157498500Y-37281700D03*
X120493000Y-85657500D03*
X139034700Y-37199600D03*
X112290300Y-112131200D03*
X144962200Y-47462600D03*
X142814000Y-121365600D03*
X164906200Y-44786000D03*
X86088100Y-94206400D03*
X126131100Y-45625000D03*
X143015500Y-112050800D03*
X166020000Y-36831700D03*
X127434800Y-34703000D03*
X91803300Y-75985600D03*
X137930100Y-76051800D03*
X156769200Y-38182800D03*
X116589300Y-121550200D03*
X146498900Y-42080600D03*
X146485600Y-121358900D03*
X166407300Y-38881200D03*
X172706600Y-57995200D03*
X173998900Y-37980600D03*
X163909600Y-36939100D03*
X139176500Y-121359800D03*
X150577600Y-36916600D03*
X143884100Y-67433300D03*
X117838900Y-102511700D03*
X142836800Y-41688300D03*
X84134000Y-75976900D03*
X127751500Y-37879100D03*
X115120700Y-112130600D03*
X147478900Y-44833600D03*
X118588700Y-42187700D03*
X84197700Y-67281400D03*
X117370300Y-121428600D03*
X146209000Y-34700900D03*
X171203900Y-111017100D03*
X184834800Y-46401100D03*
X198368700Y-67293200D03*
X188745700Y-36836100D03*
X168994000Y-103221300D03*
X180082600Y-37644900D03*
X181741600Y-36833400D03*
X173239600Y-94107600D03*
X143639000Y-36826700D03*
X116394100Y-94143900D03*
X158091100Y-41799000D03*
X147023000Y-75966100D03*
X176998900Y-38839000D03*
X171412800Y-85346600D03*
X88396200Y-103347700D03*
X130060500Y-37820600D03*
X124464000Y-41676400D03*
X106473100Y-56349500D03*
X118959400Y-41681300D03*
X85860600Y-40064000D03*
X168183900Y-85559700D03*
X176458300Y-41702200D03*
X164006500Y-112379100D03*
X187316800Y-36838800D03*
X173952800Y-57974400D03*
X173808700Y-42179400D03*
X111424800Y-76168000D03*
X140633400Y-34699800D03*
X185959300Y-41686800D03*
X174215000Y-111995500D03*
X164498900Y-37205900D03*
X141865900Y-121351100D03*
X184998900Y-41678900D03*
X170661500Y-121509800D03*
X160752600Y-42791400D03*
X142986500Y-103349100D03*
X127707000Y-36825400D03*
X89754800Y-76135400D03*
X179103700Y-42974700D03*
X165485900Y-103269000D03*
X120204800Y-39081600D03*
X93648900Y-67531600D03*
X173577500Y-67281700D03*
X173515500Y-36845000D03*
X132926100Y-34716800D03*
X84700400Y-94188500D03*
X160649200Y-37350600D03*
X143011300Y-94060800D03*
X148558700Y-57426200D03*
X151461300Y-42616300D03*
X182539800Y-43319800D03*
X172041300Y-94174600D03*
X118640300Y-121425500D03*
X146998900Y-41681100D03*
X176605800Y-44412000D03*
X169424000Y-76247000D03*
X179119700Y-42086400D03*
X166501800Y-76052900D03*
X114080600Y-103593300D03*
X142086100Y-41948800D03*
X171412800Y-103219300D03*
X181370000Y-37901900D03*
X174277600Y-103029000D03*
X181685400Y-34708200D03*
X91600600Y-85290400D03*
X126947800Y-42126500D03*
X174483700Y-121512800D03*
X185691300Y-36837100D03*
X180986500Y-45979400D03*
X173965300Y-93910800D03*
X171618700Y-38498700D03*
X166696500Y-67288000D03*
X140399400Y-41684700D03*
X115164800Y-76136700D03*
X124094400Y-42166100D03*
X84108500Y-85290400D03*
X188462000Y-34708800D03*
X195920000Y-67276400D03*
X173289900Y-42536500D03*
X172738900Y-67287100D03*
X140667600Y-110440600D03*
X165552000Y-37344300D03*
X177689900Y-41678500D03*
X174409100Y-76136600D03*
X141906800Y-36933500D03*
X115416800Y-103658900D03*
X172603200Y-103212500D03*
X181573000Y-41747000D03*
X116413200Y-44623000D03*
X87684300Y-67292500D03*
X123117400Y-34704700D03*
X92690700Y-57993200D03*
X118302500Y-85368900D03*
X139893900Y-44130300D03*
X147699500Y-38861900D03*
X114559500Y-110867200D03*
X113678300Y-121445700D03*
X146039800Y-41685500D03*
X86997100Y-57725400D03*
X124348700Y-34719700D03*
X145998900Y-36838300D03*
X114682100Y-121288900D03*
X89849000Y-67546100D03*
X109253000Y-48317800D03*
X170117300Y-112062700D03*
X184099800Y-39219700D03*
X160793900Y-39055900D03*
X137906500Y-94038300D03*
X172036800Y-76288900D03*
X177592200Y-42432900D03*
X140446500Y-139310100D03*
X163162200Y-49685200D03*
X172231700Y-42060600D03*
X167877400Y-67287400D03*
X170413200Y-41692200D03*
X145205500Y-129265500D03*
X117393000Y-75790000D03*
X139712000Y-42156400D03*
X160736200Y-43495000D03*
X141465800Y-93505000D03*
X87112700Y-93761000D03*
X132084200Y-34709200D03*
X167597700Y-103218900D03*
X179137600Y-52240700D03*
X121506900Y-38697100D03*
X84134000Y-57995900D03*
X166927800Y-42698900D03*
X142199300Y-112166400D03*
X147161100Y-103335900D03*
X161910800Y-34712100D03*
X139204900Y-38437800D03*
X117896200Y-76138900D03*
X140503800Y-37300000D03*
X114135100Y-76327100D03*
X180888800Y-47032900D03*
X170299400Y-103218300D03*
X172884000Y-121353900D03*
X184966000Y-42428600D03*
X138377800Y-103434000D03*
X159815500Y-50465500D03*
X115343500Y-67574200D03*
X133998900Y-37797300D03*
X117379500Y-85439500D03*
X138498900Y-36853800D03*
X126907000Y-44427500D03*
X88496500Y-94148600D03*
X188126200Y-36837300D03*
X192347700Y-67284800D03*
X89842400Y-57723900D03*
X123583500Y-36924100D03*
X120032400Y-67203800D03*
X135098900Y-34712600D03*
X112290300Y-103427900D03*
X141260100Y-36844200D03*
X171930900Y-67438200D03*
X172883300Y-36826600D03*
X143580000Y-129320000D03*
X170246600Y-34717600D03*
X174998900Y-39060300D03*
X167602800Y-57980100D03*
X170241100Y-36837700D03*
X146032700Y-130189800D03*
X161528900Y-41678000D03*
X146197500Y-103564400D03*
X99525200Y-101334600D03*
X130998900Y-37295500D03*
X145443100Y-37137300D03*
X112290300Y-121439600D03*
X140868600Y-94083800D03*
X162133800Y-37999200D03*
X137094700Y-36825200D03*
X112486300Y-85430700D03*
X131498900Y-37652400D03*
X91907100Y-93990800D03*
X142881000Y-37531400D03*
X117838900Y-103539900D03*
X141162600Y-47375900D03*
X112686500Y-94153600D03*
X141927800Y-85334500D03*
X156386600Y-36835700D03*
X145183600Y-103359100D03*
X161405200Y-36830800D03*
X163155800Y-42535400D03*
X137227600Y-122770200D03*
X147305900Y-94192200D03*
X161998900Y-39569300D03*
X165998900Y-43693300D03*
X147890100Y-112055400D03*
X147934900Y-37950000D03*
X111020300Y-112127600D03*
X119910300Y-112125200D03*
X147150600Y-42981000D03*
X147667300Y-128255300D03*
X169601800Y-42213000D03*
X147619800Y-36843200D03*
X118301700Y-112061800D03*
X90388200Y-85031900D03*
X126332300Y-34700900D03*
X136667300Y-43525700D03*
X111020300Y-85426800D03*
X166286700Y-45551500D03*
X146427500Y-110921100D03*
X178227500Y-34718600D03*
X173317800Y-76320500D03*
X182680900Y-42500600D03*
X166332800Y-93914300D03*
X153315200Y-41707900D03*
X137881500Y-85350500D03*
X182575200Y-43941400D03*
X165455000Y-121383300D03*
X172748900Y-85354300D03*
X177548600Y-39563300D03*
X162059100Y-36896900D03*
X146090200Y-94261800D03*
X145526500Y-139338400D03*
X168952800Y-46172800D03*
X158929300Y-34713600D03*
X140993200Y-76223400D03*
X116732500Y-58408700D03*
X136066900Y-36886900D03*
X179498900Y-37977700D03*
X165899200Y-76065500D03*
X86511500Y-49293000D03*
X116943400Y-35123000D03*
X143419000Y-43838900D03*
X120551700Y-94389100D03*
X168493900Y-43752400D03*
X142267500Y-129250000D03*
X142819800Y-36828600D03*
X119738900Y-103190400D03*
X125540500Y-37819400D03*
X88237500Y-85290400D03*
X120015900Y-93545800D03*
X143903800Y-34719100D03*
X127921600Y-43452600D03*
X83441700Y-104700000D03*
X165069700Y-111316000D03*
X187498900Y-41685600D03*
X170317200Y-85350400D03*
X177060900Y-41677200D03*
X177583300Y-36826800D03*
X174593200Y-85622100D03*
X165899200Y-57994400D03*
X175452700Y-36826400D03*
X125492200Y-43264900D03*
X89214000Y-85291100D03*
X165899200Y-67288800D03*
X170589700Y-43281600D03*
X174484700Y-36852100D03*
X170333800Y-57977700D03*
X149998900Y-37233900D03*
X142251500Y-67601400D03*
X166715300Y-121367200D03*
X183691600Y-37464000D03*
X142261900Y-38254500D03*
X114159900Y-94358700D03*
X167387100Y-41781700D03*
X139637200Y-112133100D03*
X142275600Y-39517400D03*
X116419300Y-103421500D03*
X170783500Y-76165200D03*
X177736100Y-37439000D03*
X185020000Y-37226000D03*
X171824600Y-121375200D03*
X169327200Y-39042600D03*
X144256500Y-139349600D03*
X146779400Y-36826300D03*
X120546800Y-121699700D03*
X134641000Y-42221400D03*
X120354200Y-58208400D03*
X160498900Y-41703100D03*
X140446500Y-103357000D03*
X169218400Y-67289700D03*
X172241400Y-38659100D03*
X141632400Y-46324200D03*
X115042800Y-94146200D03*
X131998900Y-36829400D03*
X89214000Y-93977500D03*
X132526600Y-39264200D03*
X92211800Y-102172000D03*
X130580600Y-42443000D03*
X91755800Y-92905900D03*
X168014700Y-37211200D03*
X139043100Y-137320300D03*
X90615100Y-82064900D03*
X125539400Y-42362300D03*
X144750500Y-94178400D03*
X162132900Y-41686500D03*
X89048800Y-67288100D03*
X122338400Y-34704700D03*
X168100100Y-94013200D03*
X182854900Y-37830400D03*
X131660800Y-41831300D03*
X93622700Y-94210800D03*
X145964800Y-112103400D03*
X166185400Y-34708200D03*
X170142800Y-93898200D03*
X182421300Y-38789500D03*
X137906500Y-112032000D03*
X167498900Y-36843300D03*
X145495400Y-121351800D03*
X165403700Y-44288500D03*
X90935100Y-74591100D03*
X122486000Y-45171600D03*
X129498900Y-38406900D03*
X85404000Y-103272500D03*
X135606600Y-37638500D03*
X116124400Y-57501200D03*
X143177500Y-38721700D03*
X111495500Y-94235500D03*
X144122700Y-124385800D03*
X171478200Y-36843400D03*
X159905400Y-39500700D03*
X142199300Y-103460000D03*
X123286800Y-43259600D03*
X88443500Y-76104100D03*
X137886600Y-37021400D03*
X115345400Y-85428700D03*
X176312300Y-45347100D03*
X164950500Y-85362200D03*
X157317700Y-45347600D03*
X140290900Y-76060300D03*
X157952300Y-36871000D03*
X145433400Y-76044500D03*
X113053900Y-67492400D03*
X133254700Y-36825700D03*
X137959000Y-58129000D03*
X152825600Y-36838800D03*
X120328200Y-76076700D03*
X139206400Y-39569400D03*
X86461100Y-67293800D03*
X121102200Y-36827200D03*
X117370300Y-67441200D03*
X134527100Y-37254800D03*
X116100300Y-85419400D03*
X138260600Y-43922400D03*
X111020300Y-103427900D03*
X138251200Y-46823000D03*
X179968700Y-36847800D03*
X166706100Y-103209000D03*
X140849700Y-121364000D03*
X164135300Y-42098500D03*
X167718600Y-76056000D03*
X179062700Y-39066300D03*
X150734600Y-41678700D03*
X147023000Y-65815700D03*
X93600800Y-76199000D03*
X127498900Y-41676300D03*
X169235200Y-57994100D03*
X174150200Y-49209300D03*
X138870400Y-67431800D03*
X149496700Y-36843100D03*
X89665400Y-103371600D03*
X130439100Y-41763600D03*
X122929800Y-38470500D03*
X85760600Y-57994100D03*
X165598100Y-94064900D03*
X183498900Y-36850500D03*
X186201400Y-38417400D03*
X167637300Y-112053000D03*
X124481700Y-38266700D03*
X85404000Y-85277000D03*
X94138300Y-57994100D03*
X121994200Y-39434800D03*
X158661200Y-36833300D03*
X143371200Y-76078400D03*
X147023000Y-67434600D03*
X151094600Y-38837500D03*
X122491800Y-42186500D03*
X92782600Y-67277300D03*
X146848100Y-139353000D03*
X169735700Y-38017000D03*
X184703700Y-47202200D03*
X168093100Y-121474500D03*
X168872800Y-93908300D03*
X182838900Y-41686200D03*
X169452000Y-121557100D03*
X184566200Y-36825800D03*
X158253300Y-42760600D03*
X144256500Y-76061700D03*
X139438700Y-103366000D03*
X158161800Y-38496900D03*
X167529200Y-47538600D03*
X143313200Y-139352900D03*
X148171800Y-44053500D03*
X117289400Y-112069600D03*
X126936300Y-36835800D03*
X99828300Y-83481700D03*
X122091200Y-36828700D03*
X91604300Y-67287400D03*
X168872800Y-85350400D03*
X176498900Y-36837300D03*
X87172200Y-103402300D03*
X130080800Y-43473800D03*
X151998900Y-41687300D03*
X144256500Y-58145000D03*
X142986500Y-85362000D03*
X156534000Y-41991100D03*
X120589800Y-39556500D03*
X117725800Y-39414500D03*
X90484000Y-75996900D03*
X127133600Y-39567100D03*
X167998900Y-41697800D03*
X137213000Y-140076700D03*
X145498900Y-42009100D03*
X111613900Y-121651600D03*
X113216000Y-57835900D03*
X131007700Y-39474700D03*
X142330900Y-58389600D03*
X150280100Y-43812200D03*
X134988100Y-41678100D03*
X118538200Y-67404100D03*
X159601900Y-46406100D03*
X139518800Y-94050200D03*
X175998900Y-37209300D03*
X166509200Y-85350700D03*
X87120000Y-76055900D03*
X126301300Y-37352200D03*
X144846500Y-124378800D03*
X171117000Y-34691300D03*
X143123100Y-67423500D03*
X150086000Y-39564100D03*
X153530900Y-36830700D03*
X139665500Y-85471500D03*
X175034200Y-110303400D03*
X185864400Y-44411500D03*
X142188700Y-139463400D03*
X168608600Y-36935800D03*
X173042100Y-112063600D03*
X185754000Y-37555000D03*
X170695600Y-66001700D03*
X172230400Y-42729600D03*
X140050000Y-36887800D03*
X116102000Y-76122100D03*
X143901300Y-42723500D03*
X120013600Y-92659700D03*
X116509900Y-112184800D03*
X147930500Y-34716500D03*
X149870000Y-42035500D03*
X141302500Y-67242200D03*
X140148300Y-129250000D03*
X168182200Y-44292900D03*
X89013600Y-49294900D03*
X117766000Y-36829400D03*
X155800300Y-44925000D03*
X145300200Y-85351100D03*
X136883400Y-34719000D03*
X118745100Y-54864100D03*
X137998900Y-43331900D03*
X113560300Y-85422900D03*
X140960100Y-85506300D03*
X155309400Y-41526200D03*
X135456100Y-36851200D03*
X120019900Y-57164200D03*
X144256500Y-85358500D03*
X155246100Y-40348100D03*
X169132700Y-132745900D03*
X200501000Y-124071400D03*
X167600000Y-132900000D03*
X192700000Y-125000000D03*
X174400000Y-132800000D03*
X199391000Y-124192200D03*
X165096300Y-132741000D03*
X196907600Y-125917400D03*
X171900000Y-132900000D03*
X196091300Y-127165000D03*
X170541000Y-132737000D03*
X197189800Y-125225300D03*
X197839700Y-124122700D03*
X195665200Y-127591100D03*
X172800000Y-132700000D03*
X166332800Y-132728200D03*
X170411800Y-144364800D03*
X168067600Y-141935900D03*
X173485300Y-144105700D03*
X201515100Y-112193700D03*
X195327700Y-119069800D03*
X192222200Y-132728100D03*
X193285000Y-132732300D03*
X195825000Y-132752900D03*
X171214000Y-142030200D03*
X172574200Y-142527100D03*
X199436000Y-112063900D03*
X194555000Y-132736000D03*
X197161500Y-132739800D03*
X199635000Y-132748200D03*
X165649200Y-141843600D03*
X169105100Y-143780000D03*
X151092900Y-103160900D03*
X97366500Y-87953900D03*
X182676800Y-106139700D03*
X104738900Y-129878200D03*
X204451700Y-139208600D03*
X205006100Y-88510100D03*
X95139800Y-130005100D03*
X117249500Y-109233100D03*
X97051400Y-129879900D03*
X124601200Y-88749200D03*
X150149500Y-85354200D03*
X98571200Y-74909600D03*
X107060000Y-128862300D03*
X204089500Y-103390300D03*
X204780200Y-70504500D03*
X97853600Y-106103300D03*
X103789500Y-128098700D03*
X97779100Y-53724300D03*
X164158900Y-109633300D03*
X110164300Y-129598200D03*
X151644800Y-97137200D03*
X151065300Y-73828900D03*
X203756900Y-121364400D03*
X150252900Y-139358300D03*
X119131500Y-126348700D03*
X124175300Y-70713000D03*
X89988100Y-39970000D03*
X200425200Y-87998200D03*
X205248200Y-99603300D03*
X195037700Y-112068500D03*
X197240800Y-96830400D03*
X195919800Y-112048300D03*
X200784200Y-76055100D03*
X198898400Y-88781200D03*
X191422100Y-113470200D03*
X197189800Y-112063000D03*
X193960500Y-102401500D03*
X193960500Y-103431200D03*
X196965000Y-88185100D03*
X192343200Y-88196300D03*
X199010900Y-97287800D03*
X196328700Y-96750100D03*
X203593700Y-99324100D03*
X201415400Y-89960100D03*
X195193500Y-88025400D03*
X193117500Y-112055500D03*
X198262500Y-112044200D03*
X197190000Y-78897000D03*
X201566000Y-88004100D03*
X199707700Y-98342000D03*
X195265100Y-88861300D03*
X201072200Y-96867600D03*
X194476700Y-96740500D03*
X195036000Y-78870800D03*
X193871100Y-78782600D03*
X195920000Y-78882900D03*
X191406300Y-77250800D03*
D19*
X126402800Y-106110600D02*
X126402800Y-88253900D01*
X206763300Y-106637300D02*
X207350000Y-106050600D01*
X206763300Y-120895700D02*
X181650300Y-120895700D01*
X126260300Y-106253100D02*
X126402800Y-106110600D01*
X181650300Y-120895700D02*
X181194900Y-121351100D01*
X206763300Y-120895700D02*
X206763300Y-106637300D01*
X126260300Y-106253100D02*
X126260300Y-121444100D01*
X206864100Y-121446900D02*
X206763300Y-121346100D01*
X152305300Y-120210400D02*
X153448000Y-121353100D01*
X206763300Y-121346100D02*
X206763300Y-120895700D01*
X152305300Y-102821900D02*
X152305300Y-120210400D01*
X87568600Y-130031300D02*
X93683700Y-123916200D01*
X154581300Y-105290200D02*
X154581300Y-121362300D01*
X93683700Y-123916200D02*
X93683700Y-113047900D01*
X155101300Y-104770200D02*
X154581300Y-105290200D01*
X93683700Y-113047900D02*
X101796300Y-104935300D01*
X180577300Y-120211200D02*
X178425600Y-118059500D01*
X125056900Y-70609800D02*
X124701800Y-70254700D01*
X206001400Y-120211200D02*
X180577300Y-120211200D01*
X125056900Y-106235600D02*
X125078700Y-106257400D01*
X125056900Y-85436600D02*
X125056900Y-70609800D01*
X151684400Y-84628200D02*
X151057000Y-85255600D01*
X125056900Y-85436600D02*
X125056900Y-106235600D01*
X178425600Y-118059500D02*
X178425600Y-102609300D01*
X206001400Y-106326700D02*
X205917000Y-106242300D01*
X180577300Y-120211200D02*
X179427800Y-121360700D01*
X151684400Y-73333500D02*
X151684400Y-84628200D01*
X206001400Y-120211200D02*
X206001400Y-106326700D01*
X150143600Y-114813600D02*
X150143600Y-126248800D01*
X179273900Y-101119400D02*
X179915400Y-101119400D01*
X177534200Y-115282300D02*
X177971900Y-114844600D01*
X123727500Y-78957900D02*
X123727500Y-96954300D01*
X177971900Y-102421400D02*
X179273900Y-101119400D01*
X150143600Y-114813600D02*
X150639100Y-114318100D01*
X123727500Y-96954300D02*
X123720300Y-96961500D01*
X177971900Y-114844600D02*
X177971900Y-102421400D01*
X150639100Y-114318100D02*
X150639100Y-97190500D01*
X150639100Y-97190500D02*
X150830800Y-96998800D01*
X150143600Y-126248800D02*
X148922600Y-127469800D01*
X177667000Y-103527600D02*
X168078100Y-113116500D01*
X200183800Y-61489600D02*
X200183800Y-81001500D01*
X177667000Y-102295000D02*
X177667000Y-103527600D01*
X191288900Y-88673100D02*
X177667000Y-102295000D01*
X141573600Y-139687400D02*
X126772000Y-154489000D01*
X168078100Y-113116500D02*
X167894000Y-113116500D01*
X141573600Y-139436900D02*
X141573600Y-139687400D01*
X192512200Y-88673100D02*
X191288900Y-88673100D01*
X200869800Y-60803600D02*
X200183800Y-61489600D01*
X167894000Y-113116500D02*
X141573600Y-139436900D01*
X126772000Y-154489000D02*
X83664000Y-154489000D01*
X200183800Y-81001500D02*
X192512200Y-88673100D01*
X141268700Y-139310500D02*
X141268700Y-139560900D01*
X141268700Y-139560900D02*
X126873900Y-153955700D01*
X167767600Y-112811600D02*
X141268700Y-139310500D01*
X177362100Y-103401200D02*
X167951700Y-112811600D01*
X126873900Y-153955700D02*
X89148000Y-153955700D01*
X177362100Y-102168600D02*
X177362100Y-103401200D01*
X199730000Y-79800700D02*
X177362100Y-102168600D01*
X167951700Y-112811600D02*
X167767600Y-112811600D01*
X199730000Y-60812000D02*
X199730000Y-79800700D01*
X89148000Y-153955700D02*
X88193700Y-153001400D01*
X190833900Y-67823300D02*
X190833900Y-85742600D01*
X94314600Y-153650800D02*
X93824400Y-153160600D01*
X140963800Y-139434500D02*
X126747500Y-153650800D01*
X176095800Y-100480700D02*
X176095800Y-104236200D01*
X140963800Y-139179100D02*
X140963800Y-139434500D01*
X176095800Y-104236200D02*
X167825300Y-112506700D01*
X167825300Y-112506700D02*
X167636200Y-112506700D01*
X126747500Y-153650800D02*
X94314600Y-153650800D01*
X167636200Y-112506700D02*
X140963800Y-139179100D01*
X190833900Y-85742600D02*
X176095800Y-100480700D01*
X197963500Y-60693700D02*
X190833900Y-67823300D01*
X126806300Y-152103000D02*
X175775800Y-103133500D01*
X189456200Y-86257600D02*
X189456200Y-68317300D01*
X123561100Y-153160200D02*
X124618300Y-152103000D01*
X175775800Y-103133500D02*
X175775800Y-99938000D01*
X124618300Y-152103000D02*
X126806300Y-152103000D01*
X189456300Y-68317300D02*
X196947900Y-60825700D01*
X98904800Y-153160200D02*
X123561100Y-153160200D01*
X175775800Y-99938000D02*
X189456200Y-86257600D01*
X189456200Y-68317300D02*
X189456300Y-68317300D01*
X124593800Y-149947000D02*
X128444500Y-149947000D01*
X188746100Y-67798100D02*
X195735700Y-60808500D01*
X121769600Y-152771200D02*
X124593800Y-149947000D01*
X104441000Y-152704000D02*
X104508200Y-152771200D01*
X128444500Y-149947000D02*
X175333600Y-103057900D01*
X104508200Y-152771200D02*
X121769600Y-152771200D01*
X175333600Y-103057900D02*
X175333600Y-99948900D01*
X188746100Y-86536400D02*
X188746100Y-67798100D01*
X175333600Y-99948900D02*
X188746100Y-86536400D01*
X188441200Y-86410000D02*
X188441200Y-67016300D01*
X121973100Y-151256700D02*
X133668900Y-139560900D01*
X174731300Y-103226300D02*
X174731300Y-100119900D01*
X188441200Y-67016300D02*
X194650000Y-60807500D01*
X138396700Y-139560900D02*
X174731300Y-103226300D01*
X133668900Y-139560900D02*
X138396700Y-139560900D01*
X174731300Y-100119900D02*
X188441200Y-86410000D01*
X187678800Y-86741100D02*
X173469700Y-100950200D01*
X133479700Y-139103500D02*
X120265900Y-152317300D01*
X193322500Y-60807700D02*
X187678800Y-66451400D01*
X173469700Y-103995900D02*
X138362100Y-139103500D01*
X120265900Y-152317300D02*
X114994300Y-152317300D01*
X138362100Y-139103500D02*
X133479700Y-139103500D01*
X114994300Y-152317300D02*
X114991000Y-152314000D01*
X187678800Y-66451400D02*
X187678800Y-86741100D01*
X173469700Y-100950200D02*
X173469700Y-103995900D01*
X187373900Y-86183400D02*
X173057000Y-100500300D01*
X173057000Y-100500300D02*
X173057000Y-103977300D01*
X173057000Y-103977300D02*
X138388000Y-138646300D01*
X187373900Y-63339000D02*
X187373900Y-86183400D01*
X191414300Y-59298600D02*
X187373900Y-63339000D01*
X133292600Y-138646300D02*
X120075400Y-151863500D01*
X138388000Y-138646300D02*
X133292600Y-138646300D01*
X169518600Y-137304100D02*
X174503300Y-137304100D01*
X154494200Y-152328500D02*
X169518600Y-137304100D01*
X154494200Y-152989800D02*
X154494200Y-152328500D01*
X91754000Y-103288100D02*
X91754000Y-95317000D01*
X104686100Y-82384900D02*
X104686100Y-71096800D01*
X117295700Y-57521600D02*
X131047700Y-43769600D01*
X104686100Y-71096800D02*
X117295700Y-58487200D01*
X117295700Y-58487200D02*
X117295700Y-57521600D01*
X131047700Y-43769600D02*
X131047700Y-41682000D01*
X91754000Y-95317000D02*
X104686100Y-82384900D01*
X164998400Y-43620800D02*
X161488900Y-47130300D01*
X161488900Y-47130300D02*
X161488900Y-82978300D01*
X145663700Y-98803500D02*
X145663700Y-111758600D01*
X161488900Y-82978300D02*
X145663700Y-98803500D01*
X164833100Y-34705200D02*
X164998400Y-34870500D01*
X145041600Y-112380700D02*
X145041600Y-121048500D01*
X145041600Y-121048500D02*
X144701600Y-121388500D01*
X145663700Y-111758600D02*
X145041600Y-112380700D01*
X164998400Y-34870500D02*
X164998400Y-43620800D01*
X156254100Y-46313600D02*
X147476800Y-55090900D01*
X147476800Y-85368400D02*
X147327900Y-85517300D01*
X157498500Y-41068000D02*
X157027600Y-41538900D01*
X157027600Y-43527400D02*
X156254100Y-44300900D01*
X156254100Y-44300900D02*
X156254100Y-46313600D01*
X147476800Y-55090900D02*
X147476800Y-85368400D01*
X157498500Y-37281700D02*
X157498500Y-41068000D01*
X157027600Y-41538900D02*
X157027600Y-43527400D01*
X86088100Y-93266700D02*
X86088100Y-94206400D01*
X126131100Y-45625000D02*
X126131100Y-45845200D01*
X126131100Y-45845200D02*
X92359300Y-79617000D01*
X92359300Y-79617000D02*
X92359300Y-86995500D01*
X92359300Y-86995500D02*
X86088100Y-93266700D01*
X137930100Y-76051800D02*
X141756200Y-72225700D01*
X141756200Y-54118200D02*
X153768900Y-42105500D01*
X141756200Y-72225700D02*
X141756200Y-54118200D01*
X153768900Y-41183100D02*
X156769200Y-38182800D01*
X153768900Y-42105500D02*
X153768900Y-41183100D01*
X122324500Y-77048400D02*
X123291200Y-76081700D01*
X123291200Y-69845800D02*
X145436700Y-47700300D01*
X121238800Y-84585400D02*
X122324500Y-83499700D01*
X122324500Y-83499700D02*
X122324500Y-77048400D01*
X145436700Y-47700300D02*
X145436700Y-43142800D01*
X118755400Y-106166000D02*
X121238800Y-103682600D01*
X123291200Y-76081700D02*
X123291200Y-69845800D01*
X118755400Y-119384100D02*
X118755400Y-106166000D01*
X121238800Y-103682600D02*
X121238800Y-84585400D01*
X145436700Y-43142800D02*
X146498900Y-42080600D01*
X116589300Y-121550200D02*
X118755400Y-119384100D01*
X173998900Y-37980600D02*
X172706600Y-39272900D01*
X172706600Y-39272900D02*
X172706600Y-57995200D01*
X143522900Y-117013400D02*
X139176500Y-121359800D01*
X163664900Y-37183800D02*
X163664900Y-43660200D01*
X143522900Y-99048300D02*
X143522900Y-117013400D01*
X160574200Y-81997000D02*
X143522900Y-99048300D01*
X163909600Y-36939100D02*
X163664900Y-37183800D01*
X160574200Y-46750900D02*
X160574200Y-81997000D01*
X163664900Y-43660200D02*
X160574200Y-46750900D01*
X142087700Y-39063700D02*
X141737000Y-39414400D01*
X143639000Y-37595000D02*
X142170300Y-39063700D01*
X141737000Y-41645700D02*
X141736900Y-41645700D01*
X116925800Y-93612200D02*
X116394100Y-94143900D01*
X119264700Y-82875900D02*
X116925800Y-85214800D01*
X141736900Y-41645700D02*
X139440200Y-43942400D01*
X142170300Y-39063700D02*
X142087700Y-39063700D01*
X139440200Y-43942400D02*
X139440200Y-50749600D01*
X116925800Y-85214800D02*
X116925800Y-93612200D01*
X119264700Y-70925100D02*
X119264700Y-82875900D01*
X143639000Y-36826700D02*
X143639000Y-37595000D01*
X139440200Y-50749600D02*
X119264700Y-70925100D01*
X141737000Y-39414400D02*
X141737000Y-41645700D01*
X171412800Y-85346600D02*
X171412800Y-72709400D01*
X175553700Y-40501800D02*
X176998900Y-39056600D01*
X174868500Y-69253700D02*
X174868500Y-66912000D01*
X171412800Y-72709400D02*
X174868500Y-69253700D01*
X174868500Y-66912000D02*
X175553700Y-66226800D01*
X175553700Y-66226800D02*
X175553700Y-40501800D01*
X176998900Y-39056600D02*
X176998900Y-38839000D01*
X172615900Y-88999800D02*
X185843400Y-75772300D01*
X172615900Y-95439800D02*
X172615900Y-88999800D01*
X185843400Y-75772300D02*
X185843400Y-47261200D01*
X186997400Y-37158200D02*
X187316800Y-36838800D01*
X164615900Y-103439800D02*
X172615900Y-95439800D01*
X164615900Y-111769700D02*
X164615900Y-103439800D01*
X186997400Y-46107200D02*
X186997400Y-37158200D01*
X185843400Y-47261200D02*
X186997400Y-46107200D01*
X164006500Y-112379100D02*
X164615900Y-111769700D01*
X141865900Y-121351100D02*
X144607200Y-118609800D01*
X164593500Y-37300500D02*
X164498900Y-37205900D01*
X144607200Y-99257800D02*
X161184000Y-82681000D01*
X144607200Y-118609800D02*
X144607200Y-99257800D01*
X161184000Y-47003900D02*
X164593500Y-43594400D01*
X164593500Y-43594400D02*
X164593500Y-37300500D01*
X161184000Y-82681000D02*
X161184000Y-47003900D01*
X126037100Y-38495300D02*
X127707000Y-36825400D01*
X122037900Y-41970600D02*
X125513200Y-38495300D01*
X122037900Y-42833400D02*
X122037900Y-41970600D01*
X89754800Y-75116500D02*
X122037900Y-42833400D01*
X89754800Y-76135400D02*
X89754800Y-75116500D01*
X125513200Y-38495300D02*
X126037100Y-38495300D01*
X93648900Y-67531600D02*
X93648900Y-65637500D01*
X93648900Y-65637500D02*
X120204800Y-39081600D01*
X92054400Y-79356300D02*
X92054400Y-86834500D01*
X129872600Y-37366900D02*
X128457300Y-38782200D01*
X92054400Y-86834500D02*
X84700400Y-94188500D01*
X128457300Y-41953000D02*
X102757100Y-67653200D01*
X128457300Y-38782200D02*
X128457300Y-41953000D01*
X102757100Y-68653600D02*
X92054400Y-79356300D01*
X132926100Y-34716800D02*
X130276000Y-37366900D01*
X102757100Y-67653200D02*
X102757100Y-68653600D01*
X130276000Y-37366900D02*
X129872600Y-37366900D01*
X181824600Y-44035000D02*
X182539800Y-43319800D01*
X172041300Y-88836600D02*
X181824600Y-79053300D01*
X172041300Y-94174600D02*
X172041300Y-88836600D01*
X181824600Y-79053300D02*
X181824600Y-44035000D01*
X146998900Y-41681100D02*
X146998900Y-42491000D01*
X146210000Y-43279900D02*
X146210000Y-47574400D01*
X119060300Y-121005500D02*
X118640300Y-121425500D01*
X121681800Y-107807900D02*
X119060300Y-110429400D01*
X122736400Y-85188200D02*
X121681800Y-86242800D01*
X119060300Y-110429400D02*
X119060300Y-121005500D01*
X121681800Y-86242800D02*
X121681800Y-107807900D01*
X146998900Y-42491000D02*
X146210000Y-43279900D01*
X146210000Y-47574400D02*
X123596200Y-70188200D01*
X123596200Y-76423500D02*
X122736400Y-77283300D01*
X122736400Y-77283300D02*
X122736400Y-85188200D01*
X123596200Y-70188200D02*
X123596200Y-76423500D01*
X118756200Y-85031700D02*
X118756200Y-91981600D01*
X120438000Y-70614400D02*
X120438000Y-75325400D01*
X118756200Y-91981600D02*
X118645200Y-92092600D01*
X119874500Y-83913400D02*
X118756200Y-85031700D01*
X120437900Y-75325400D02*
X119874500Y-75888800D01*
X118645200Y-99028700D02*
X114080600Y-103593300D01*
X142086100Y-41948800D02*
X142086100Y-48966300D01*
X120438000Y-75325400D02*
X120437900Y-75325400D01*
X118645200Y-92092600D02*
X118645200Y-99028700D01*
X142086100Y-48966300D02*
X120438000Y-70614400D01*
X119874500Y-75888800D02*
X119874500Y-83913400D01*
X102452200Y-68045700D02*
X91600600Y-78897300D01*
X126947800Y-42882300D02*
X102452200Y-67377900D01*
X102452200Y-67377900D02*
X102452200Y-68045700D01*
X91600600Y-78897300D02*
X91600600Y-85290400D01*
X126947800Y-42126500D02*
X126947800Y-42882300D01*
X92690700Y-57993200D02*
X115075900Y-35608000D01*
X115075900Y-35608000D02*
X122214100Y-35608000D01*
X122214100Y-35608000D02*
X123117400Y-34704700D01*
X139893900Y-50727200D02*
X119569600Y-71051500D01*
X139893900Y-44130300D02*
X139893900Y-50727200D01*
X119569600Y-71051500D02*
X119569600Y-83787000D01*
X118302500Y-85054100D02*
X118302500Y-85368900D01*
X119569600Y-83787000D02*
X118302500Y-85054100D01*
X86997100Y-57725400D02*
X110486800Y-34235700D01*
X123864700Y-34235700D02*
X124348700Y-34719700D01*
X110486800Y-34235700D02*
X123864700Y-34235700D01*
X119255000Y-102065100D02*
X118902400Y-102417700D01*
X118902400Y-102417700D02*
X118902400Y-103642800D01*
X143898700Y-47453000D02*
X143898700Y-48016300D01*
X121087000Y-70828000D02*
X121087000Y-83563500D01*
X118902400Y-103642800D02*
X118008100Y-104537100D01*
X121087000Y-83563500D02*
X119366000Y-85284500D01*
X143898700Y-48016300D02*
X121087000Y-70828000D01*
X119366000Y-92234400D02*
X119255000Y-92345400D01*
X144688500Y-40548000D02*
X144688500Y-46663200D01*
X144688500Y-46663200D02*
X143898700Y-47453000D01*
X118008100Y-104537100D02*
X118008100Y-109547500D01*
X117758000Y-109797600D02*
X117758000Y-118213000D01*
X145998900Y-36838300D02*
X145998900Y-39237600D01*
X119255000Y-92345400D02*
X119255000Y-102065100D01*
X118008100Y-109547500D02*
X117758000Y-109797600D01*
X117758000Y-118213000D02*
X114682100Y-121288900D01*
X145998900Y-39237600D02*
X144688500Y-40548000D01*
X119366000Y-85284500D02*
X119366000Y-92234400D01*
X108674300Y-48317800D02*
X109253000Y-48317800D01*
X89849000Y-67546100D02*
X89849000Y-67143100D01*
X89849000Y-67143100D02*
X108674300Y-48317800D01*
X167877400Y-67287400D02*
X171411900Y-63752900D01*
X171411900Y-42880400D02*
X172231700Y-42060600D01*
X171411900Y-63752900D02*
X171411900Y-42880400D01*
X148031400Y-126439600D02*
X148031400Y-114629000D01*
X165140500Y-81604400D02*
X165140500Y-48854200D01*
X148031400Y-114629000D02*
X150029300Y-112631100D01*
X167728400Y-46266300D02*
X167728400Y-43876100D01*
X167728400Y-43876100D02*
X169026900Y-42577600D01*
X150029300Y-112631100D02*
X150029300Y-96715600D01*
X150029300Y-96715600D02*
X165140500Y-81604400D01*
X145205500Y-129265500D02*
X148031400Y-126439600D01*
X165140500Y-48854200D02*
X167728400Y-46266300D01*
X169026900Y-42577600D02*
X169026900Y-42146300D01*
X169026900Y-42146300D02*
X169481000Y-41692200D01*
X169481000Y-41692200D02*
X170413200Y-41692200D01*
X137441100Y-40201600D02*
X137441100Y-51023500D01*
X117896200Y-70568400D02*
X117896200Y-76138900D01*
X139204900Y-38437800D02*
X137441100Y-40201600D01*
X137441100Y-51023500D02*
X117896200Y-70568400D01*
X119261300Y-56849900D02*
X119261300Y-63656400D01*
X132674900Y-42009000D02*
X132674900Y-43436300D01*
X133998900Y-37797300D02*
X133998900Y-40685000D01*
X133998900Y-40685000D02*
X132674900Y-42009000D01*
X119261300Y-63656400D02*
X115343500Y-67574200D01*
X132674900Y-43436300D02*
X119261300Y-56849900D01*
X118654900Y-70672300D02*
X118654900Y-78165000D01*
X141260100Y-38426300D02*
X138830400Y-40856000D01*
X118654900Y-78165000D02*
X114891700Y-81928200D01*
X114891700Y-85391200D02*
X113549600Y-86733300D01*
X141260100Y-36844200D02*
X141260100Y-38426300D01*
X138830400Y-50496800D02*
X118654900Y-70672300D01*
X138830400Y-40856000D02*
X138830400Y-50496800D01*
X113549600Y-86733300D02*
X113549600Y-102168600D01*
X114891700Y-81928200D02*
X114891700Y-85391200D01*
X113549600Y-102168600D02*
X112290300Y-103427900D01*
X167423500Y-43749700D02*
X168614400Y-42558800D01*
X144289100Y-129320000D02*
X147407600Y-126201500D01*
X149559600Y-105362900D02*
X149559600Y-96677700D01*
X164606900Y-48956500D02*
X167423500Y-46139900D01*
X168614400Y-42558800D02*
X168614400Y-39080800D01*
X169242600Y-35721600D02*
X170246600Y-34717600D01*
X168614400Y-39080800D02*
X169242600Y-38452600D01*
X167423500Y-46139900D02*
X167423500Y-43749700D01*
X149559600Y-96677700D02*
X164606900Y-81630400D01*
X144289100Y-129320000D02*
X143580000Y-129320000D01*
X164606900Y-81630400D02*
X164606900Y-48956500D01*
X147407600Y-107514900D02*
X149559600Y-105362900D01*
X169242600Y-38452600D02*
X169242600Y-35721600D01*
X147407600Y-126201500D02*
X147407600Y-107514900D01*
X143593800Y-47111200D02*
X143593800Y-47889900D01*
X144383600Y-46321400D02*
X143593800Y-47111200D01*
X119061100Y-85158100D02*
X119061100Y-92108000D01*
X118950100Y-101938700D02*
X118292700Y-102596100D01*
X118950100Y-92219000D02*
X118950100Y-101938700D01*
X117703200Y-109421100D02*
X117437500Y-109686800D01*
X120782000Y-70701700D02*
X120782000Y-83437200D01*
X116922900Y-109686800D02*
X112290300Y-114319400D01*
X112290300Y-114319400D02*
X112290300Y-121439600D01*
X119061100Y-92108000D02*
X118950100Y-92219000D01*
X117437500Y-109686800D02*
X116922900Y-109686800D01*
X145443100Y-37137300D02*
X144383600Y-38196800D01*
X118292700Y-102596100D02*
X118292700Y-103821200D01*
X143593800Y-47889900D02*
X120782000Y-70701700D01*
X144383600Y-38196800D02*
X144383600Y-46321400D01*
X120782000Y-83437200D02*
X119061100Y-85158100D01*
X117703200Y-104410700D02*
X117703200Y-109421100D01*
X118292700Y-103821200D02*
X117703200Y-104410700D01*
X129365600Y-39785700D02*
X131498900Y-37652400D01*
X126889700Y-45949200D02*
X126889700Y-45517900D01*
X129365600Y-43042000D02*
X129365600Y-39785700D01*
X91907100Y-93990800D02*
X93319000Y-92578900D01*
X93319000Y-92578900D02*
X93319000Y-79519900D01*
X126889700Y-45517900D02*
X129365600Y-43042000D01*
X93319000Y-79519900D02*
X126889700Y-45949200D01*
X140948700Y-103544200D02*
X137227600Y-107265300D01*
X137227600Y-107265300D02*
X137227600Y-122770200D01*
X160269300Y-81870500D02*
X140948700Y-101191100D01*
X140948700Y-101191100D02*
X140948700Y-103544200D01*
X160269300Y-45421900D02*
X160269300Y-81870500D01*
X163155800Y-42535400D02*
X160269300Y-45421900D01*
X160005000Y-43864700D02*
X160005000Y-41555400D01*
X160005000Y-41555400D02*
X161991100Y-39569300D01*
X152139300Y-51730400D02*
X160005000Y-43864700D01*
X147305900Y-94192200D02*
X152139300Y-89358800D01*
X161991100Y-39569300D02*
X161998900Y-39569300D01*
X152139300Y-89358800D02*
X152139300Y-51730400D01*
X125669700Y-68669400D02*
X146802200Y-47536900D01*
X125669700Y-106365800D02*
X125669700Y-68669400D01*
X146802200Y-43329400D02*
X147150600Y-42981000D01*
X146802200Y-47536900D02*
X146802200Y-43329400D01*
X119910300Y-112125200D02*
X125669700Y-106365800D01*
X150334200Y-112909800D02*
X150334200Y-96842000D01*
X147667300Y-128255300D02*
X148468800Y-127453800D01*
X165445400Y-81730800D02*
X165445400Y-48980600D01*
X148468800Y-127453800D02*
X148468800Y-114775200D01*
X169601800Y-42434000D02*
X169601800Y-42213000D01*
X168947600Y-45478400D02*
X168947600Y-43088200D01*
X150334200Y-96842000D02*
X165445400Y-81730800D01*
X165445400Y-48980600D02*
X168947600Y-45478400D01*
X168947600Y-43088200D02*
X169601800Y-42434000D01*
X148468800Y-114775200D02*
X150334200Y-112909800D01*
X147245700Y-38561200D02*
X144993600Y-40813300D01*
X121544200Y-70802100D02*
X121544200Y-83689900D01*
X119559900Y-102509200D02*
X119271100Y-102798000D01*
X119684700Y-85549400D02*
X119684700Y-92347000D01*
X144993600Y-46789500D02*
X144356000Y-47427100D01*
X119271100Y-105219000D02*
X118364000Y-106126100D01*
X119684700Y-92347000D02*
X119559900Y-92471800D01*
X121544200Y-83689900D02*
X119684700Y-85549400D01*
X119559900Y-92471800D02*
X119559900Y-102509200D01*
X147619800Y-36843200D02*
X147245700Y-37217300D01*
X147245700Y-37217300D02*
X147245700Y-38561200D01*
X144356000Y-47427100D02*
X144356000Y-47990300D01*
X144993600Y-40813300D02*
X144993600Y-46789500D01*
X118364000Y-106126100D02*
X118364000Y-111999500D01*
X119271100Y-102798000D02*
X119271100Y-105219000D01*
X144356000Y-47990300D02*
X121544200Y-70802100D01*
X118364000Y-111999500D02*
X118301700Y-112061800D01*
X125351400Y-41908600D02*
X124418700Y-42841300D01*
X90161400Y-78565200D02*
X90161400Y-84805100D01*
X128212500Y-36581100D02*
X128212500Y-38568200D01*
X128212500Y-38568200D02*
X127689200Y-39091500D01*
X101537500Y-67189100D02*
X90161400Y-78565200D01*
X127689200Y-39091500D02*
X127689200Y-39653300D01*
X90161400Y-84805100D02*
X90388200Y-85031900D01*
X125433900Y-41908600D02*
X125351400Y-41908600D01*
X124418700Y-42841300D02*
X124418700Y-43893200D01*
X124418700Y-43893200D02*
X101537500Y-66774400D01*
X101537500Y-66774400D02*
X101537500Y-67189100D01*
X127689200Y-39653300D02*
X125433900Y-41908600D01*
X126332300Y-34700900D02*
X128212500Y-36581100D01*
X163920900Y-81453700D02*
X148797400Y-96577200D01*
X148797400Y-104666800D02*
X146427500Y-107036700D01*
X146427500Y-107036700D02*
X146427500Y-110921100D01*
X148797400Y-96577200D02*
X148797400Y-104666800D01*
X163920900Y-47917300D02*
X163920900Y-81453700D01*
X166286700Y-45551500D02*
X163920900Y-47917300D01*
X178227500Y-71410800D02*
X173317800Y-76320500D01*
X178227500Y-34718600D02*
X178227500Y-71410800D01*
X181516500Y-43665000D02*
X182680900Y-42500600D01*
X166332800Y-93914300D02*
X166332800Y-92941200D01*
X181516500Y-77757500D02*
X181516500Y-43665000D01*
X166332800Y-92941200D02*
X181516500Y-77757500D01*
X153315200Y-41707900D02*
X153315200Y-42000900D01*
X140174700Y-73080100D02*
X137474700Y-75780100D01*
X140174700Y-55141400D02*
X140174700Y-73080100D01*
X153315200Y-42000900D02*
X140174700Y-55141400D01*
X137474700Y-75780100D02*
X137474700Y-84943700D01*
X137474700Y-84943700D02*
X137881500Y-85350500D01*
X172748900Y-71804600D02*
X172748900Y-85354300D01*
X175173400Y-69380100D02*
X172748900Y-71804600D01*
X175173400Y-67038400D02*
X175173400Y-69380100D01*
X175858600Y-66353200D02*
X175173400Y-67038400D01*
X177548600Y-39563300D02*
X175858600Y-41253300D01*
X175858600Y-41253300D02*
X175858600Y-66353200D01*
X148086600Y-55343700D02*
X148086600Y-92265400D01*
X158827900Y-41850000D02*
X158827900Y-44602400D01*
X161545100Y-39132800D02*
X158827900Y-41850000D01*
X161545100Y-37410900D02*
X161545100Y-39132800D01*
X148086600Y-92265400D02*
X146090200Y-94261800D01*
X162059100Y-36896900D02*
X161545100Y-37410900D01*
X158827900Y-44602400D02*
X148086600Y-55343700D01*
X125540500Y-37984700D02*
X125540500Y-37819400D01*
X88237500Y-85290400D02*
X89301000Y-84226900D01*
X89301000Y-84226900D02*
X89301000Y-75036300D01*
X121478000Y-42047200D02*
X125540500Y-37984700D01*
X121478000Y-42859300D02*
X121478000Y-42047200D01*
X89301000Y-75036300D02*
X121478000Y-42859300D01*
X93014100Y-88513300D02*
X93014100Y-79393500D01*
X126584800Y-45822800D02*
X126584800Y-45391500D01*
X93014100Y-79393500D02*
X126584800Y-45822800D01*
X127921600Y-44054700D02*
X127921600Y-43452600D01*
X126584800Y-45391500D02*
X127921600Y-44054700D01*
X83441700Y-104700000D02*
X83441700Y-98085700D01*
X83441700Y-98085700D02*
X93014100Y-88513300D01*
X186453300Y-84662900D02*
X186453300Y-47082600D01*
X187498900Y-46037000D02*
X187498900Y-41685600D01*
X168356400Y-102759800D02*
X186453300Y-84662900D01*
X186453300Y-47082600D02*
X187498900Y-46037000D01*
X165069700Y-111316000D02*
X168356400Y-108029300D01*
X168356400Y-108029300D02*
X168356400Y-102759800D01*
X165899200Y-67288800D02*
X169792800Y-63395200D01*
X169792800Y-44078500D02*
X170589700Y-43281600D01*
X169792800Y-63395200D02*
X169792800Y-44078500D01*
X171106900Y-40435300D02*
X172695100Y-38847100D01*
X171106900Y-57204600D02*
X171106900Y-40435300D01*
X172695100Y-38847100D02*
X172695100Y-38641700D01*
X170333800Y-57977700D02*
X171106900Y-57204600D01*
X172695100Y-38641700D02*
X174484700Y-36852100D01*
X118959800Y-70798700D02*
X118959800Y-78291400D01*
X139135300Y-41381100D02*
X139135300Y-50623200D01*
X118959800Y-78291400D02*
X116620800Y-80630400D01*
X142261900Y-38254500D02*
X139135300Y-41381100D01*
X116620800Y-80630400D02*
X116620800Y-91897800D01*
X116620800Y-91897800D02*
X114159900Y-94358700D01*
X139135300Y-50623200D02*
X118959800Y-70798700D01*
X174563600Y-66785600D02*
X175248800Y-66100400D01*
X176483200Y-38709700D02*
X177736100Y-37456800D01*
X170783500Y-76165200D02*
X170783500Y-72476100D01*
X175248800Y-66100400D02*
X175248800Y-40375400D01*
X177736100Y-37456800D02*
X177736100Y-37439000D01*
X174563600Y-68696000D02*
X174563600Y-66785600D01*
X176483200Y-39141000D02*
X176483200Y-38709700D01*
X170783500Y-72476100D02*
X174563600Y-68696000D01*
X175248800Y-40375400D02*
X176483200Y-39141000D01*
X134641000Y-43921600D02*
X134641000Y-42221400D01*
X120354200Y-58208400D02*
X134641000Y-43921600D01*
X118154800Y-57525100D02*
X118154800Y-60995100D01*
X132370000Y-39420800D02*
X132370000Y-43309900D01*
X132526600Y-39264200D02*
X132370000Y-39420800D01*
X132370000Y-43309900D02*
X118154800Y-57525100D01*
X112596600Y-81787200D02*
X92211800Y-102172000D01*
X112596600Y-66553300D02*
X112596600Y-81787200D01*
X118154800Y-60995100D02*
X112596600Y-66553300D01*
X164225800Y-48283800D02*
X164225800Y-81580200D01*
X168014700Y-38176200D02*
X166448500Y-39742400D01*
X142918800Y-133444600D02*
X139043100Y-137320300D01*
X147004200Y-107417000D02*
X147004200Y-122906700D01*
X164225800Y-81580200D02*
X149102300Y-96703700D01*
X142918800Y-126992100D02*
X142918800Y-133444600D01*
X166448500Y-39742400D02*
X166448500Y-43408200D01*
X168014700Y-37211200D02*
X168014700Y-38176200D01*
X166448500Y-43408200D02*
X166779300Y-43739000D01*
X166779300Y-43739000D02*
X166779300Y-45730300D01*
X149102300Y-96703700D02*
X149102300Y-105318900D01*
X166779300Y-45730300D02*
X164225800Y-48283800D01*
X149102300Y-105318900D02*
X147004200Y-107417000D01*
X147004200Y-122906700D02*
X142918800Y-126992100D01*
X101842400Y-66926800D02*
X125038400Y-43730800D01*
X101842400Y-67315500D02*
X101842400Y-66926800D01*
X125038400Y-43730800D02*
X125038400Y-42863300D01*
X90615100Y-82064900D02*
X90615100Y-78542800D01*
X90615100Y-78542800D02*
X101842400Y-67315500D01*
X125038400Y-42863300D02*
X125539400Y-42362300D01*
X93622700Y-94210800D02*
X110971000Y-76862500D01*
X117805400Y-59523400D02*
X117805400Y-57443200D01*
X131660800Y-43587800D02*
X131660800Y-41831300D01*
X110971000Y-76862500D02*
X110971000Y-66357800D01*
X110971000Y-66357800D02*
X117805400Y-59523400D01*
X117805400Y-57443200D02*
X131660800Y-43587800D01*
X90935100Y-74591100D02*
X92286100Y-74591100D01*
X92286100Y-74591100D02*
X99148500Y-67728700D01*
X122236600Y-45171600D02*
X122486000Y-45171600D01*
X99148500Y-67728700D02*
X99679500Y-67728700D01*
X99679500Y-67728700D02*
X122236600Y-45171600D01*
X117011900Y-40917500D02*
X121102200Y-36827200D01*
X112837400Y-40917500D02*
X117011900Y-40917500D01*
X86461100Y-67293800D02*
X112837400Y-40917500D01*
X132979800Y-42135400D02*
X132979800Y-43562700D01*
X132979800Y-43562700D02*
X119566200Y-56976300D01*
X134527100Y-37254800D02*
X134527100Y-40588100D01*
X134527100Y-40588100D02*
X132979800Y-42135400D01*
X119566200Y-65245300D02*
X117370300Y-67441200D01*
X119566200Y-56976300D02*
X119566200Y-65245300D01*
X111980800Y-84407800D02*
X111980800Y-102467400D01*
X111980800Y-102467400D02*
X111020300Y-103427900D01*
X138251200Y-50644700D02*
X118350000Y-70545900D01*
X118350000Y-78038600D02*
X111980800Y-84407800D01*
X118350000Y-70545900D02*
X118350000Y-78038600D01*
X138251200Y-46823000D02*
X138251200Y-50644700D01*
X164135300Y-43621200D02*
X160879100Y-46877400D01*
X164135300Y-42098500D02*
X164135300Y-43621200D01*
X144149900Y-118063800D02*
X140849700Y-121364000D01*
X160879100Y-46877400D02*
X160879100Y-82554600D01*
X160879100Y-82554600D02*
X144149900Y-99283800D01*
X144149900Y-99283800D02*
X144149900Y-118063800D01*
X126320200Y-43078600D02*
X126320200Y-42112500D01*
X102147300Y-67251400D02*
X102147400Y-67251400D01*
X93600800Y-76199000D02*
X102147300Y-67652500D01*
X102147300Y-67652500D02*
X102147300Y-67251400D01*
X126320200Y-42112500D02*
X126759900Y-41672800D01*
X127495400Y-41672800D02*
X127498900Y-41676300D01*
X102147400Y-67251400D02*
X126320200Y-43078600D01*
X126759900Y-41672800D02*
X127495400Y-41672800D01*
X138870400Y-67431800D02*
X138870400Y-56014400D01*
X148937400Y-45947400D02*
X148937400Y-37402400D01*
X148937400Y-37402400D02*
X149496700Y-36843100D01*
X138870400Y-56014400D02*
X148937400Y-45947400D01*
X180269100Y-39774600D02*
X183193200Y-36850500D01*
X165598100Y-94064900D02*
X165598100Y-93150700D01*
X180269100Y-78479700D02*
X180269100Y-39774600D01*
X183193200Y-36850500D02*
X183498900Y-36850500D01*
X165598100Y-93150700D02*
X180269100Y-78479700D01*
X121123300Y-42782700D02*
X85404000Y-78502000D01*
X124481700Y-38266700D02*
X121123300Y-41625100D01*
X121123300Y-41625100D02*
X121123300Y-42782700D01*
X85404000Y-78502000D02*
X85404000Y-85277000D01*
X156559000Y-44553600D02*
X156559000Y-46440000D01*
X158161800Y-38496900D02*
X158161800Y-40836100D01*
X157332500Y-41665400D02*
X157332500Y-43780100D01*
X156559000Y-46440000D02*
X147781700Y-55217300D01*
X147781700Y-90505600D02*
X139438700Y-98848600D01*
X158161800Y-40836100D02*
X157332500Y-41665400D01*
X157332500Y-43780100D02*
X156559000Y-44553600D01*
X139438700Y-98848600D02*
X139438700Y-103366000D01*
X147781700Y-55217300D02*
X147781700Y-90505600D01*
X122091200Y-36828700D02*
X121806100Y-36828700D01*
X121806100Y-36828700D02*
X91604300Y-67030500D01*
X91604300Y-67030500D02*
X91604300Y-67287400D01*
X174258700Y-65166300D02*
X174943900Y-64481100D01*
X176159700Y-39033200D02*
X176159700Y-38601900D01*
X176159700Y-38601900D02*
X176498900Y-38262700D01*
X168872800Y-85350400D02*
X168872800Y-73955500D01*
X174258700Y-68569600D02*
X174258700Y-65166300D01*
X174944000Y-40248900D02*
X176159700Y-39033200D01*
X174943900Y-40248900D02*
X174944000Y-40248900D01*
X176498900Y-38262700D02*
X176498900Y-36837300D01*
X168872800Y-73955500D02*
X174258700Y-68569600D01*
X174943900Y-64481100D02*
X174943900Y-40248900D01*
X94695300Y-91844300D02*
X94695300Y-79690700D01*
X87172200Y-99367400D02*
X94695300Y-91844300D01*
X130080800Y-44305200D02*
X130080800Y-43473800D01*
X94695300Y-79690700D02*
X130080800Y-44305200D01*
X87172200Y-103402300D02*
X87172200Y-99367400D01*
X174746600Y-39907200D02*
X174854400Y-39907200D01*
X175814400Y-38947200D02*
X175814400Y-37393800D01*
X168567800Y-70070000D02*
X173276300Y-65361500D01*
X173276300Y-43383300D02*
X174558600Y-42101000D01*
X174558600Y-42101000D02*
X174558600Y-40095200D01*
X173276300Y-65361500D02*
X173276300Y-43383300D01*
X168567800Y-83292100D02*
X168567800Y-70070000D01*
X174854400Y-39907200D02*
X175814400Y-38947200D01*
X166509200Y-85350700D02*
X168567800Y-83292100D01*
X175814400Y-37393800D02*
X175998900Y-37209300D01*
X174558600Y-40095200D02*
X174746600Y-39907200D01*
X87120000Y-74970200D02*
X124738000Y-37352200D01*
X87120000Y-76055900D02*
X87120000Y-74970200D01*
X124738000Y-37352200D02*
X126301300Y-37352200D01*
X172230400Y-64466900D02*
X170695600Y-66001700D01*
X172230400Y-42729600D02*
X172230400Y-64466900D01*
X140050000Y-36887800D02*
X135763600Y-41174200D01*
X116102000Y-70492600D02*
X116102000Y-76122100D01*
X135763600Y-50831000D02*
X116102000Y-70492600D01*
X135763600Y-41174200D02*
X135763600Y-50831000D01*
X146569300Y-84082000D02*
X145300200Y-85351100D01*
X146569300Y-54156000D02*
X146569300Y-84082000D01*
X155800300Y-44925000D02*
X146569300Y-54156000D01*
X129627100Y-43285900D02*
X129975500Y-42937500D01*
X129975500Y-42937500D02*
X129975500Y-41154100D01*
X129627100Y-43982100D02*
X129627100Y-43285900D01*
X129975500Y-41154100D02*
X136410600Y-34719000D01*
X136410600Y-34719000D02*
X136883400Y-34719000D01*
X118745100Y-54864100D02*
X129627100Y-43982100D01*
X145959500Y-50876100D02*
X145959500Y-80506900D01*
X145959500Y-80506900D02*
X140960100Y-85506300D01*
X155309400Y-41526200D02*
X145959500Y-50876100D01*
X135456000Y-36851200D02*
X135456100Y-36851200D01*
X135456000Y-37062000D02*
X135456000Y-36851200D01*
X120019900Y-57164200D02*
X134052000Y-43132100D01*
X134052000Y-43132100D02*
X134052000Y-41858200D01*
X134052000Y-41858200D02*
X134922200Y-40988000D01*
X134922200Y-40988000D02*
X134922200Y-37595800D01*
X134922200Y-37595800D02*
X135456000Y-37062000D01*
X155246100Y-40348100D02*
X155773700Y-40875700D01*
X146264400Y-83350600D02*
X144256500Y-85358500D01*
X146264400Y-51765900D02*
X146264400Y-83350600D01*
X155773700Y-40875700D02*
X155773700Y-42256600D01*
X155773700Y-42256600D02*
X146264400Y-51765900D01*
X174766900Y-136057100D02*
X172443900Y-136057100D01*
X188093800Y-149384000D02*
X174766900Y-136057100D01*
X197004000Y-149384000D02*
X188093800Y-149384000D01*
X199020000Y-151400000D02*
X197004000Y-149384000D01*
X172443900Y-136057100D02*
X169132700Y-132745900D01*
X195073800Y-149993800D02*
X188272300Y-149993800D01*
X188272300Y-149993800D02*
X174640500Y-136362000D01*
X171662000Y-136362000D02*
X174640500Y-136362000D01*
X196480000Y-151400000D02*
X195073800Y-149993800D01*
X168200000Y-132900000D02*
X167600000Y-132900000D01*
X171662000Y-136362000D02*
X168200000Y-132900000D01*
X175111900Y-132800000D02*
X176495100Y-134183200D01*
X191019300Y-134183200D02*
X208101300Y-151265200D01*
X176495100Y-134183200D02*
X191019300Y-134183200D01*
X208101300Y-151265200D02*
X208101300Y-151400000D01*
X208101300Y-151400000D02*
X209180000Y-151400000D01*
X174400000Y-132800000D02*
X175111900Y-132800000D01*
X173733450Y-134066550D02*
X173066550Y-134066550D01*
X176714100Y-137047200D02*
X173733450Y-134066550D01*
X173066550Y-134066550D02*
X171900000Y-132900000D01*
X189747200Y-137047200D02*
X176714100Y-137047200D01*
X204100000Y-151400000D02*
X189747200Y-137047200D01*
X201560000Y-151400000D02*
X195066800Y-144906800D01*
X184047900Y-144906800D02*
X174893300Y-135752200D01*
X174893300Y-135752200D02*
X173556200Y-135752200D01*
X173556200Y-135752200D02*
X170541000Y-132737000D01*
X195066800Y-144906800D02*
X184047900Y-144906800D01*
X173535700Y-132700000D02*
X172800000Y-132700000D01*
X176639600Y-135803900D02*
X191043900Y-135803900D01*
X173535700Y-132700000D02*
X176639600Y-135803900D01*
X191043900Y-135803900D02*
X206640000Y-151400000D01*
X192861200Y-150321200D02*
X188168400Y-150321200D01*
X193940000Y-151400000D02*
X192861200Y-150321200D01*
X174622000Y-136774800D02*
X170379400Y-136774800D01*
X170379400Y-136774800D02*
X166332800Y-132728200D01*
X188168400Y-150321200D02*
X174622000Y-136774800D01*
X178309400Y-153008800D02*
X176200600Y-153008800D01*
X181240000Y-155000000D02*
X180300600Y-155000000D01*
X176200600Y-153008800D02*
X174890000Y-151698200D01*
X180300600Y-155000000D02*
X178309400Y-153008800D01*
X174890000Y-151698200D02*
X174890000Y-148843000D01*
X174890000Y-148843000D02*
X170411800Y-144364800D01*
X195327700Y-119069800D02*
X201515100Y-112882400D01*
X215339000Y-96122100D02*
X205441900Y-106019200D01*
X216000000Y-67020000D02*
X217081700Y-65938300D01*
X217081700Y-65938300D02*
X219045600Y-65938300D01*
X218146400Y-93803700D02*
X217078800Y-94871300D01*
X221186300Y-91322700D02*
X218705300Y-93803700D01*
X205441900Y-106019200D02*
X205441900Y-108266900D01*
X219045600Y-65938300D02*
X221186300Y-68079000D01*
X216382800Y-96122100D02*
X215339000Y-96122100D01*
X221186300Y-68079000D02*
X221186300Y-91322700D01*
X205441900Y-108266900D02*
X201515100Y-112193700D01*
X218705300Y-93803700D02*
X218146400Y-93803700D01*
X217078800Y-94871300D02*
X217078800Y-95426100D01*
X201515100Y-112882400D02*
X201515100Y-112193700D01*
X217078800Y-95426100D02*
X216382800Y-96122100D01*
X209191700Y-100351000D02*
X209191700Y-100203300D01*
X220881400Y-89496000D02*
X220881400Y-69361400D01*
X219113700Y-91263700D02*
X220881400Y-89496000D01*
X199436000Y-112063900D02*
X199436000Y-111484700D01*
X203950300Y-106970400D02*
X203950300Y-105592400D01*
X209191700Y-100203300D02*
X215705000Y-93690000D01*
X218146400Y-91263700D02*
X219113700Y-91263700D01*
X220881400Y-69361400D02*
X218540000Y-67020000D01*
X217078800Y-92925800D02*
X217078800Y-92331300D01*
X199436000Y-111484700D02*
X203950300Y-106970400D01*
X216314600Y-93690000D02*
X217078800Y-92925800D01*
X215705000Y-93690000D02*
X216314600Y-93690000D01*
X217078800Y-92331300D02*
X218146400Y-91263700D01*
X203950300Y-105592400D02*
X209191700Y-100351000D01*
X167131300Y-143325700D02*
X165649200Y-141843600D01*
X171118500Y-143325700D02*
X167131300Y-143325700D01*
X173006800Y-145214000D02*
X171118500Y-143325700D01*
X186483700Y-152623700D02*
X183472000Y-152623700D01*
X176602900Y-145214000D02*
X173006800Y-145214000D01*
X188860000Y-155000000D02*
X186483700Y-152623700D01*
X183472000Y-152623700D02*
X182617900Y-151769600D01*
X182617900Y-151229000D02*
X176602900Y-145214000D01*
X182617900Y-151769600D02*
X182617900Y-151229000D01*
X179348200Y-153616300D02*
X177430000Y-151698100D01*
X186320000Y-155000000D02*
X184936300Y-153616300D01*
X177430000Y-151698100D02*
X177430000Y-150741300D01*
X170468700Y-143780000D02*
X169105100Y-143780000D01*
X184936300Y-153616300D02*
X179348200Y-153616300D01*
X177430000Y-150741300D02*
X170468700Y-143780000D01*
X182676800Y-106139700D02*
X188573300Y-106139700D01*
X205006100Y-89706900D02*
X205006100Y-88510100D01*
X188573300Y-106139700D02*
X205006100Y-89706900D01*
X95139800Y-130005100D02*
X96063300Y-130005100D01*
X96063300Y-130005100D02*
X116835300Y-109233100D01*
X116835300Y-109233100D02*
X117249500Y-109233100D01*
X151662800Y-97137200D02*
X151644800Y-97137200D01*
X164158900Y-109633300D02*
X151662800Y-97137200D01*
X124175300Y-77091500D02*
X124175300Y-70713000D01*
X167195100Y-122416100D02*
X202705200Y-122416100D01*
X202705200Y-122416100D02*
X203756900Y-121364400D01*
X119365200Y-126115000D02*
X119365200Y-110555800D01*
X119365200Y-110555800D02*
X123046100Y-106874900D01*
X123046100Y-106874900D02*
X123046100Y-78220700D01*
X150252900Y-139358300D02*
X167195100Y-122416100D01*
X119131500Y-126348700D02*
X119365200Y-126115000D01*
X123046100Y-78220700D02*
X124175300Y-77091500D01*
X205247700Y-96937500D02*
X205247700Y-96551900D01*
X219932300Y-76032300D02*
X218540000Y-74640000D01*
X195037700Y-107147500D02*
X205247700Y-96937500D01*
X215615900Y-86183700D02*
X218711200Y-86183700D01*
X218711200Y-86183700D02*
X219932300Y-84962600D01*
X195037700Y-112068500D02*
X195037700Y-107147500D01*
X205247700Y-96551900D02*
X215615900Y-86183700D01*
X219932300Y-84962600D02*
X219932300Y-76032300D01*
X219627400Y-76669700D02*
X219627400Y-82698300D01*
X218072600Y-83682400D02*
X217270000Y-84485000D01*
X217270000Y-85105600D02*
X216496900Y-85878700D01*
X217270000Y-84485000D02*
X217270000Y-85105600D01*
X216496900Y-85878700D02*
X215011600Y-85878700D01*
X218867700Y-75910000D02*
X219627400Y-76669700D01*
X194583900Y-106306400D02*
X194583900Y-112293400D01*
X215011600Y-85878700D02*
X194583900Y-106306400D01*
X218643300Y-83682400D02*
X218072600Y-83682400D01*
X216000000Y-74640000D02*
X217270000Y-75910000D01*
X217270000Y-75910000D02*
X218867700Y-75910000D01*
X219627400Y-82698300D02*
X218643300Y-83682400D01*
X194583900Y-112293400D02*
X194812800Y-112522300D01*
X194812800Y-112522300D02*
X195445800Y-112522300D01*
X195445800Y-112522300D02*
X195919800Y-112048300D01*
X218540000Y-59400000D02*
X217078800Y-60861200D01*
X217078800Y-62406100D02*
X216382800Y-63102100D01*
X216382800Y-63102100D02*
X215637100Y-63102100D01*
X202684100Y-76055100D02*
X200784200Y-76055100D01*
X217078800Y-60861200D02*
X217078800Y-62406100D01*
X215637100Y-63102100D02*
X202684100Y-76055100D01*
X193506600Y-109908300D02*
X193506600Y-102069000D01*
X193588300Y-112293900D02*
X193588300Y-109990000D01*
X193506600Y-102069000D02*
X206179800Y-89395800D01*
X206179800Y-89395800D02*
X206179800Y-88014600D01*
X217377900Y-78342100D02*
X218540000Y-77180000D01*
X193588300Y-109990000D02*
X193506600Y-109908300D01*
X192412000Y-113470200D02*
X193588300Y-112293900D01*
X215852300Y-78342100D02*
X217377900Y-78342100D01*
X206179800Y-88014600D02*
X215852300Y-78342100D01*
X191422100Y-113470200D02*
X192412000Y-113470200D01*
X218861200Y-88546600D02*
X215595000Y-88546600D01*
X220237200Y-71257200D02*
X220237200Y-87170600D01*
X218540000Y-69560000D02*
X220237200Y-71257200D01*
X197189800Y-106951800D02*
X197189800Y-112063000D01*
X215595000Y-88546600D02*
X197189800Y-106951800D01*
X220237200Y-87170600D02*
X218861200Y-88546600D01*
X193960500Y-102401500D02*
X194538900Y-102401500D01*
X199464600Y-97402100D02*
X214606700Y-82260000D01*
X199464600Y-97475800D02*
X199464600Y-97402100D01*
X194538900Y-102401500D02*
X199464600Y-97475800D01*
X214606700Y-82260000D02*
X216000000Y-82260000D01*
X213606700Y-83691500D02*
X199769500Y-97528700D01*
X199769500Y-97622200D02*
X193960500Y-103431200D01*
X199769500Y-97528700D02*
X199769500Y-97622200D01*
X218540000Y-82260000D02*
X217108500Y-83691500D01*
X217108500Y-83691500D02*
X213606700Y-83691500D01*
X205812000Y-87368000D02*
X216000000Y-77180000D01*
X193117500Y-112055500D02*
X193117500Y-102026800D01*
X193117500Y-102026800D02*
X205812000Y-89332300D01*
X205812000Y-89332300D02*
X205812000Y-87368000D01*
X219065500Y-68479500D02*
X220576500Y-69990500D01*
X198262500Y-109871500D02*
X198262500Y-112044200D01*
X204664100Y-102220000D02*
X204664100Y-103469900D01*
X216000000Y-69560000D02*
X217080500Y-68479500D01*
X215925300Y-90958800D02*
X204664100Y-102220000D01*
X218987300Y-90958800D02*
X215925300Y-90958800D01*
X220576500Y-89369600D02*
X218987300Y-90958800D01*
X204664100Y-103469900D02*
X198262500Y-109871500D01*
X220576500Y-69990500D02*
X220576500Y-89369600D01*
X217080500Y-68479500D02*
X219065500Y-68479500D01*
M02*
